<svg width="186" height="70" viewBox="0 0 186 70" fill="none" xmlns="http://www.w3.org/2000/svg">
<path fill-rule="evenodd" clip-rule="evenodd" d="M147.481 1.83658C146.397 2.9953 145.806 4.55714 145.806 6.26206C145.806 7.71139 145.471 8.89693 145.062 8.89693C144.652 8.89693 144.318 10.2382 144.318 11.8776C144.318 13.5169 143.983 14.8582 143.573 14.8582C143.164 14.8582 142.829 16.1995 142.829 17.8388C142.829 19.4781 143.164 20.8194 143.573 20.8194C143.983 20.8194 144.318 20.2926 144.318 19.6488C144.318 17.7784 146.253 16.3485 148.784 16.3485C150.07 16.3485 151.602 15.8694 152.186 15.2837C153.389 14.0802 153.647 8.89693 152.505 8.89693C152.096 8.89693 151.761 8.56161 151.761 8.15177C151.761 7.74194 152.431 7.40662 153.249 7.40662C154.22 7.40662 154.738 6.9096 154.738 5.97815C154.738 5.19276 155.148 4.41333 155.648 4.24641C157.103 3.76132 152.808 -0.0509004 150.864 0.000515304C149.925 0.0258506 148.402 0.852228 147.481 1.83658ZM153.249 3.36117C153.249 5.51765 151.71 7.40662 149.953 7.40662C149.31 7.40662 148.784 7.74194 148.784 8.15177C148.784 8.56161 149.453 8.89693 150.272 8.89693C151.375 8.89693 151.761 9.39395 151.761 10.8127C151.761 13.2576 150.162 14.8582 147.72 14.8582C146.09 14.8582 145.806 14.5273 145.806 12.6227C145.806 11.3932 146.141 10.3872 146.551 10.3872C146.96 10.3872 147.295 9.04596 147.295 7.40662C147.295 5.76728 147.63 4.426 148.039 4.426C148.449 4.426 148.784 3.75536 148.784 2.93568C148.784 1.77622 149.28 1.44537 151.017 1.44537C152.919 1.44537 153.249 1.72928 153.249 3.36117ZM159.204 2.93568C159.204 3.75536 159.539 4.426 159.948 4.426C160.358 4.426 160.693 4.09068 160.693 3.68084C160.693 3.271 161.363 2.93568 162.181 2.93568C163.174 2.93568 163.67 3.4327 163.67 4.426C163.67 5.24567 163.335 5.91631 162.926 5.91631C162.516 5.91631 162.181 7.25759 162.181 8.89693C162.181 10.5363 161.847 11.8776 161.437 11.8776C161.028 11.8776 160.693 12.5482 160.693 13.3679C160.693 14.1875 160.358 14.8582 159.948 14.8582C159.539 14.8582 159.204 15.1935 159.204 15.6033C159.204 16.0132 160.209 16.3485 161.437 16.3485H163.67V11.8776C163.67 9.39395 164.001 7.40662 164.414 7.40662C164.824 7.40662 165.159 6.40066 165.159 5.17115C165.159 3.4327 165.489 2.93568 166.647 2.93568C167.64 2.93568 168.136 3.4327 168.136 4.426C168.136 5.24567 168.471 5.91631 168.88 5.91631C169.29 5.91631 169.625 5.24567 169.625 4.426C169.625 3.60632 169.96 2.93568 170.369 2.93568C170.778 2.93568 171.113 2.60036 171.113 2.19053C171.113 1.7561 168.633 1.44537 165.159 1.44537C159.701 1.44537 159.204 1.56981 159.204 2.93568ZM59.464 7.40662C59.464 8.22629 59.7989 8.89693 60.2083 8.89693C60.6177 8.89693 60.9526 9.4938 60.9526 10.2226C60.9526 10.9521 61.6225 12.0318 62.4413 12.6227C63.2601 13.2136 63.93 14.2196 63.93 14.8582C63.93 15.4968 64.5999 16.5027 65.4186 17.0936C66.2374 17.6846 66.9073 18.6905 66.9073 19.3291C66.9073 19.9677 66.2374 20.9737 65.4186 21.5646C64.5999 22.1555 63.93 23.0892 63.93 23.6406C63.93 24.1913 62.2552 26.2747 60.2083 28.271C54.5678 33.771 54.9132 34.2322 64.6743 34.2322C69.6367 34.2322 72.8619 33.9386 72.8619 33.4871C72.8619 33.0526 70.3811 32.7419 66.9073 32.7419C59.8027 32.7419 59.3434 31.9379 63.93 27.5258C65.5675 25.9506 66.9073 24.2561 66.9073 23.7598C66.9073 23.2635 67.6613 22.186 68.582 21.3656C69.7179 20.3537 69.9575 19.7658 69.3263 19.5392C68.815 19.3552 68.3959 18.5623 68.3959 17.777C68.3959 16.9916 68.061 16.3485 67.6516 16.3485C67.2422 16.3485 66.9073 15.6778 66.9073 14.8582C66.9073 14.0385 66.5723 13.3679 66.1629 13.3679C65.7536 13.3679 65.4186 12.6972 65.4186 11.8776C65.4186 11.0579 65.0837 10.3872 64.6743 10.3872C64.2649 10.3872 63.93 9.7166 63.93 8.89693C63.93 7.53106 64.4264 7.40662 69.8846 7.40662C73.3584 7.40662 75.8392 7.09589 75.8392 6.66146C75.8392 6.2099 72.6141 5.91631 67.6516 5.91631C59.9605 5.91631 59.464 6.00647 59.464 7.40662ZM11.8269 8.73225C11.8269 9.46176 11.157 10.5415 10.3382 11.1324C9.51948 11.7233 8.84958 12.803 8.84958 13.5325C8.84958 14.2613 8.51463 14.8582 8.10525 14.8582C7.69587 14.8582 7.36092 15.455 7.36092 16.1838C7.36092 16.9133 6.69102 17.993 5.87226 18.584C5.0535 19.1749 4.3836 20.2546 4.3836 20.9841C4.3836 21.7129 4.04866 22.3097 3.63927 22.3097C3.22989 22.3097 2.89494 22.9066 2.89494 23.6354C2.89494 24.3649 2.22505 25.4446 1.40629 26.0355C-0.687514 27.5467 -0.446351 28.271 2.15061 28.271C4.05312 28.271 4.3836 27.9871 4.3836 26.3552C4.3836 23.5281 6.04867 22.3097 9.91323 22.3097C13.1972 22.3097 13.3156 22.3872 13.3156 24.5452C13.3156 25.7747 12.9806 26.7807 12.5712 26.7807C12.1618 26.7807 11.8269 27.116 11.8269 27.5258C11.8269 27.9357 12.8317 28.271 14.0599 28.271C16.243 28.271 16.2929 28.1883 16.2929 24.5452C16.2929 22.496 15.9579 20.8194 15.5485 20.8194C15.1072 20.8194 14.8042 18.0869 14.8042 14.113C14.8042 7.90364 14.6941 7.40662 13.3156 7.40662C12.3844 7.40662 11.8269 7.90364 11.8269 8.73225ZM86.2598 8.15177C86.2598 8.56161 86.5948 8.89693 87.0042 8.89693C87.4136 8.89693 87.7485 9.56757 87.7485 10.3872C87.7485 11.2069 87.4136 11.8776 87.0042 11.8776C86.5948 11.8776 86.2598 13.2188 86.2598 14.8582C86.2598 16.4975 85.9249 17.8388 85.5155 17.8388C85.1061 17.8388 84.7712 19.5154 84.7712 21.5646C84.7712 23.6138 84.4362 25.2904 84.0269 25.2904C83.6175 25.2904 83.2825 25.961 83.2825 26.7807C83.2825 28.1465 83.779 28.271 89.2372 28.271C94.6953 28.271 95.1918 28.1465 95.1918 26.7807C95.1918 25.961 95.5267 25.2904 95.9361 25.2904C96.3455 25.2904 96.6805 24.6197 96.6805 23.8C96.6805 22.9804 96.4892 22.3097 96.2554 22.3097C95.3816 22.3097 93.7031 24.4804 93.7031 25.61C93.7031 26.5184 92.8688 26.7807 89.9815 26.7807C86.3425 26.7807 86.2598 26.7307 86.2598 24.5452C86.2598 23.3157 86.5948 22.3097 87.0042 22.3097C87.4136 22.3097 87.7485 21.3038 87.7485 20.0743C87.7485 18.0869 87.9964 17.8388 89.9815 17.8388C91.718 17.8388 92.2145 18.1696 92.2145 19.3291C92.2145 21.0944 92.6864 21.1987 94.1282 19.7546C95.3369 18.5452 95.5774 14.8582 94.4475 14.8582C94.0381 14.8582 93.7031 15.1935 93.7031 15.6033C93.7031 16.0132 92.6983 16.3485 91.4702 16.3485C89.287 16.3485 89.2372 16.2658 89.2372 12.6227V8.89693H92.9588C96.184 8.89693 96.6805 9.09589 96.6805 10.3872C96.6805 11.2069 96.8717 11.8776 97.1055 11.8776C97.9793 11.8776 99.6578 9.70691 99.6578 8.57726C99.6578 7.59961 98.5525 7.40662 92.9588 7.40662C88.9893 7.40662 86.2598 7.7099 86.2598 8.15177ZM129.431 8.15177C129.431 8.57726 131.664 8.89693 134.641 8.89693C137.619 8.89693 139.852 8.57726 139.852 8.15177C139.852 7.72629 137.619 7.40662 134.641 7.40662C131.664 7.40662 129.431 7.72629 129.431 8.15177ZM175.579 9.64209C175.579 10.0519 175.914 10.3872 176.324 10.3872C176.733 10.3872 177.068 10.0519 177.068 9.64209C177.068 9.23225 176.733 8.89693 176.324 8.89693C175.914 8.89693 175.579 9.23225 175.579 9.64209ZM184.511 9.64209C184.511 10.0519 184.846 10.3872 185.256 10.3872C185.665 10.3872 186 10.0519 186 9.64209C186 9.23225 185.665 8.89693 185.256 8.89693C184.846 8.89693 184.511 9.23225 184.511 9.64209ZM172.602 12.6227C172.602 13.0325 172.937 13.3679 173.346 13.3679C173.756 13.3679 174.091 14.3738 174.091 15.6033C174.091 16.8328 173.756 17.8388 173.346 17.8388C172.937 17.8388 172.602 18.5094 172.602 19.3291C172.602 20.3224 173.099 20.8194 174.091 20.8194C175.745 20.8194 176.094 19.6935 174.649 19.0184C173.905 18.6711 173.905 18.4968 174.649 18.1495C175.161 17.9103 175.579 16.4021 175.579 14.7963C175.579 12.3746 175.326 11.8776 174.091 11.8776C173.272 11.8776 172.602 12.2129 172.602 12.6227ZM181.534 12.6227C181.534 13.0325 181.869 13.3679 182.278 13.3679C182.688 13.3679 183.023 14.7091 183.023 16.3485C183.023 17.9878 182.688 19.3291 182.278 19.3291C181.869 19.3291 181.534 20.3351 181.534 21.5646C181.534 23.303 181.204 23.8 180.045 23.8C179.227 23.8 178.557 24.1354 178.557 24.5452C178.557 25.6518 180.74 25.4468 181.959 24.2255C182.544 23.6406 183.023 22.2993 183.023 21.2449C183.023 20.1913 183.358 19.3291 183.767 19.3291C184.176 19.3291 184.511 17.6525 184.511 15.6033C184.511 12.3746 184.313 11.8776 183.023 11.8776C182.204 11.8776 181.534 12.2129 181.534 12.6227ZM12.2519 14.4327C12.837 15.0176 13.3156 16.6942 13.3156 18.1585C13.3156 20.7665 13.256 20.8194 10.3382 20.8194C7.9802 20.8194 7.36092 20.5437 7.36092 19.4938C7.36092 18.7643 8.03082 17.6846 8.84958 17.0936C9.66834 16.5027 10.3382 15.423 10.3382 14.6935C10.3382 13.0899 10.8421 13.0214 12.2519 14.4327ZM35.6454 14.113C35.6454 14.5474 38.1263 14.8582 41.6001 14.8582C45.0739 14.8582 47.5547 14.5474 47.5547 14.113C47.5547 13.6786 45.0739 13.3679 41.6001 13.3679C38.1263 13.3679 35.6454 13.6786 35.6454 14.113ZM120.499 14.113C120.499 14.5229 119.973 14.8582 119.33 14.8582C117.825 14.8582 116.033 16.6525 116.033 18.1585C116.033 18.8023 115.698 19.3291 115.289 19.3291C114.13 19.3291 114.4 25.9975 115.608 27.2062C117.327 28.9267 121.07 28.5117 123.217 26.3626C124.265 25.3135 124.922 24.2538 124.676 24.0079C124.431 23.762 123.603 24.2851 122.835 25.1711C122.066 26.0594 120.563 26.7807 119.482 26.7807C117.8 26.7807 117.522 26.4632 117.522 24.5452C117.522 22.5579 117.77 22.3097 119.755 22.3097C120.983 22.3097 121.988 21.9744 121.988 21.5646C121.988 21.1547 122.514 20.8194 123.157 20.8194C124.817 20.8194 126.454 18.9692 126.454 17.0936C126.454 16.2151 125.975 15.0176 125.39 14.4327C124.182 13.2226 120.499 12.9819 120.499 14.113ZM123.476 16.774C123.476 19.2188 121.878 20.8194 119.435 20.8194C117.027 20.8194 116.931 19.1629 119.196 16.7397C121.487 14.2904 123.476 14.306 123.476 16.774ZM34.1568 20.0743C34.1568 20.5161 36.8862 20.8194 40.8558 20.8194C44.8253 20.8194 47.5547 20.5161 47.5547 20.0743C47.5547 19.6324 44.8253 19.3291 40.8558 19.3291C36.8862 19.3291 34.1568 19.6324 34.1568 20.0743ZM23.7362 22.3097C23.7362 24.075 24.2081 24.1793 25.6498 22.7352C27.0924 21.2918 26.9881 20.8194 25.2248 20.8194C24.2326 20.8194 23.7362 21.3164 23.7362 22.3097ZM102.635 22.3097C102.635 23.303 103.132 23.8 104.124 23.8C105.116 23.8 105.612 23.303 105.612 22.3097C105.612 21.3164 105.116 20.8194 104.124 20.8194C103.132 20.8194 102.635 21.3164 102.635 22.3097ZM20.7589 26.0355C20.7589 26.4453 21.0938 26.7807 21.5032 26.7807C22.5929 26.7807 22.4239 32.5586 21.3238 32.926C20.2356 33.2889 22.3353 35.7225 23.7362 35.7225C24.9665 35.7225 26.9919 33.5102 26.3279 32.8924C26.0183 32.6048 25.6156 32.7889 25.4332 33.3008C24.7254 35.2851 23.7362 34.0914 23.7362 31.2516C23.7362 29.6123 24.0711 28.271 24.4805 28.271C24.8899 28.271 25.2248 27.6003 25.2248 26.7807C25.2248 25.6212 24.7284 25.2904 22.9918 25.2904C21.7637 25.2904 20.7589 25.6257 20.7589 26.0355ZM101.146 25.9737C101.146 26.3492 101.565 26.8522 102.077 27.0914C102.821 27.4386 102.821 27.613 102.077 27.9603C101.565 28.1994 101.146 29.7076 101.146 31.3135C101.146 32.9185 100.811 34.2322 100.402 34.2322C99.9927 34.2322 99.6578 35.2382 99.6578 36.4677C99.6578 38.2061 99.3273 38.7032 98.1691 38.7032C97.3504 38.7032 96.6805 39.0385 96.6805 39.4483C96.6805 40.5549 98.8636 40.35 100.083 39.1286C100.668 38.5437 101.146 37.5377 101.146 36.8932C101.146 36.2494 101.481 35.7225 101.891 35.7225C102.3 35.7225 102.635 34.3813 102.635 32.7419C102.635 31.1026 102.97 29.7613 103.379 29.7613C103.789 29.7613 104.124 28.7553 104.124 27.5258C104.124 25.7874 103.793 25.2904 102.635 25.2904C101.816 25.2904 101.146 25.5981 101.146 25.9737ZM99.6578 52.116C99.6578 52.9356 99.9927 53.6063 100.402 53.6063C100.811 53.6063 101.146 52.9356 101.146 52.116C101.146 51.2963 100.811 50.6257 100.402 50.6257C99.9927 50.6257 99.6578 51.2963 99.6578 52.116ZM96.6805 55.8417C96.6805 56.2516 97.0154 56.5869 97.4248 56.5869C97.8342 56.5869 98.1691 57.2575 98.1691 58.0772C98.1691 58.8969 97.8342 59.5675 97.4248 59.5675C97.0154 59.5675 96.6805 61.1003 96.6805 62.9736C96.6805 66.49 95.4784 68.5094 93.3838 68.5094C92.7407 68.5094 92.2145 68.8447 92.2145 69.2545C92.2145 70.6204 94.4921 70.0221 96.3418 68.1703C97.3466 67.1644 98.1691 65.4878 98.1691 64.4446C98.1691 63.4013 98.5041 62.5481 98.9135 62.5481C99.3228 62.5481 99.6578 60.8715 99.6578 58.8224C99.6578 55.5936 99.459 55.0966 98.1691 55.0966C97.3504 55.0966 96.6805 55.4319 96.6805 55.8417Z" fill="black"/>
</svg>
