<svg width="171" height="170" viewBox="0 0 171 170" fill="none" xmlns="http://www.w3.org/2000/svg">
<mask id="mask0" mask-type="alpha" maskUnits="userSpaceOnUse" x="0" y="0" width="171" height="170">
<ellipse cx="85.5" cy="85" rx="85.5" ry="85" fill="#C4C4C4"/>
</mask>
<g mask="url(#mask0)">
<ellipse cx="83.7288" cy="83.7903" rx="86.7288" ry="86.0911" fill="#C4C4C4"/>
<path d="M171.325 -75H-3V226H171.325V-75Z" fill="#260A0A"/>
<path d="M32.1084 127.187C30.1997 127.187 28.6865 126.587 27.5687 125.386C26.4508 124.185 25.8919 122.526 25.8919 120.409C25.8919 118.399 26.4746 116.788 27.64 115.575C28.8114 114.356 30.3424 113.746 32.2333 113.746C33.7614 113.746 35.0546 114.1 36.113 114.808L35.3549 116.636C34.3381 116.012 33.3154 115.7 32.2868 115.7C31.0857 115.7 30.1343 116.134 29.4327 117.002C28.737 117.864 28.3892 119.023 28.3892 120.48C28.3892 121.991 28.7251 123.159 29.397 123.985C30.0749 124.812 31.0381 125.225 32.2868 125.225C33.3808 125.225 34.466 124.952 35.5422 124.405L35.8633 126.295C34.8644 126.89 33.6127 127.187 32.1084 127.187ZM41.2325 127.134C40.5606 127.134 40.0017 127.056 39.5557 126.902C39.1157 126.741 38.7679 126.489 38.5122 126.144C38.2565 125.799 38.0781 125.389 37.9771 124.913C37.876 124.437 37.8254 123.846 37.8254 123.138V113.586L40.1622 113.434V123.094C40.1622 123.974 40.2663 124.571 40.4744 124.886C40.6825 125.195 41.0868 125.35 41.6873 125.35C41.9846 125.35 42.3622 125.317 42.8201 125.252L42.8825 126.92C42.8765 126.92 42.8022 126.935 42.6595 126.964C42.5228 126.994 42.389 127.018 42.2582 127.036C42.1333 127.059 41.9728 127.08 41.7765 127.098C41.5803 127.122 41.399 127.134 41.2325 127.134ZM48.5193 127.187C46.9436 127.187 45.7157 126.735 44.8357 125.832C43.9617 124.922 43.5247 123.667 43.5247 122.068C43.5247 120.51 43.9379 119.27 44.7644 118.349C45.5909 117.427 46.7176 116.963 48.1447 116.957C49.4944 116.957 50.5409 117.379 51.2841 118.224C52.0333 119.068 52.4079 120.189 52.4079 121.586C52.4079 121.687 52.4049 121.851 52.399 122.077C52.399 122.303 52.399 122.469 52.399 122.576H45.8793C45.903 123.492 46.1528 124.202 46.6284 124.708C47.1101 125.207 47.7701 125.457 48.6084 125.457C49.6787 125.457 50.7074 125.178 51.6944 124.619L52.0244 126.278C51.0433 126.884 49.8749 127.187 48.5193 127.187ZM45.9238 121.105H50.2049C50.2049 120.308 50.0236 119.695 49.6609 119.267C49.2982 118.839 48.7957 118.625 48.1536 118.625C47.553 118.625 47.0447 118.833 46.6284 119.249C46.2182 119.666 45.9833 120.284 45.9238 121.105ZM56.8674 127.187C55.9577 127.187 55.2204 126.938 54.6555 126.438C54.0966 125.933 53.8171 125.207 53.8171 124.262C53.8171 123.245 54.1501 122.493 54.816 122.005C55.482 121.512 56.4869 121.2 57.8306 121.069C58.015 121.045 58.2142 121.021 58.4282 120.998C58.6423 120.974 58.8831 120.95 59.1506 120.926C59.4182 120.902 59.6293 120.882 59.7839 120.864V120.346C59.7839 119.752 59.6471 119.321 59.3736 119.053C59.1001 118.78 58.6839 118.643 58.125 118.643C57.3282 118.643 56.3441 118.866 55.1728 119.312C55.1668 119.294 55.0687 119.023 54.8785 118.5C54.6882 117.977 54.5901 117.709 54.5841 117.698C55.7377 117.204 56.9863 116.957 58.3301 116.957C59.6501 116.957 60.6104 117.246 61.2109 117.822C61.8115 118.393 62.1117 119.321 62.1117 120.605V127H60.3815C60.3755 126.976 60.3101 126.777 60.1852 126.402C60.0604 126.028 59.9979 125.829 59.9979 125.805C59.5104 126.281 59.0317 126.631 58.562 126.857C58.0982 127.077 57.5333 127.187 56.8674 127.187ZM57.5006 125.528C58.0417 125.528 58.5115 125.401 58.9098 125.145C59.3142 124.883 59.6025 124.568 59.775 124.199V122.309C59.7571 122.309 59.5996 122.321 59.3023 122.344C59.0109 122.368 58.8533 122.38 58.8296 122.38C57.8842 122.463 57.1914 122.642 56.7514 122.915C56.3114 123.189 56.0914 123.629 56.0914 124.235C56.0914 124.651 56.2133 124.972 56.4571 125.198C56.7009 125.418 57.0487 125.528 57.5006 125.528ZM64.4663 127V117.198H66.3482L66.6069 118.438C67.6058 117.451 68.7147 116.957 69.9336 116.957C71.0753 116.957 71.9285 117.287 72.4934 117.947C73.0642 118.601 73.3496 119.553 73.3496 120.801V127H71.0039V121.087C70.998 120.296 70.8701 119.704 70.6204 119.312C70.3707 118.919 69.9218 118.723 69.2736 118.723C68.7682 118.723 68.3045 118.854 67.8823 119.116C67.4661 119.371 67.1628 119.695 66.9726 120.088C66.8596 120.552 66.8031 121.265 66.8031 122.228V127H64.4663ZM75.8737 127V113.934H78.4423C78.9061 114.659 79.8485 116.122 81.2696 118.322C82.6907 120.522 83.5559 121.86 83.865 122.335C83.9542 122.472 84.1059 122.704 84.3199 123.031C84.5399 123.352 84.6945 123.581 84.7837 123.718C84.7421 121.678 84.7213 120.62 84.7213 120.543V113.934H86.9242V127H84.3199L78.4245 117.813L77.9964 117.109C78.0439 118.679 78.0677 119.782 78.0677 120.418V127H75.8737ZM93.7829 125.412C94.5737 125.412 95.1683 125.124 95.5667 124.547C95.9651 123.971 96.1643 123.144 96.1643 122.068C96.1643 120.98 95.9651 120.15 95.5667 119.579C95.1683 119.009 94.5678 118.723 93.7651 118.723C92.9743 118.723 92.3767 119.012 91.9724 119.588C91.574 120.159 91.3748 120.989 91.3748 122.077C91.3748 123.147 91.577 123.971 91.9813 124.547C92.3856 125.124 92.9861 125.412 93.7829 125.412ZM93.7205 127.187C92.2697 127.187 91.128 126.718 90.2956 125.778C89.4632 124.839 89.0469 123.602 89.0469 122.068C89.0469 120.486 89.4632 119.241 90.2956 118.331C91.128 117.415 92.3024 116.957 93.8186 116.957C95.2813 116.957 96.4259 117.424 97.2524 118.358C98.0848 119.285 98.501 120.522 98.501 122.068C98.501 123.632 98.0818 124.877 97.2435 125.805C96.4051 126.726 95.2307 127.187 93.7205 127.187ZM105.609 127.187C104.943 127.187 104.337 127.042 103.79 126.75C103.249 126.453 102.856 126.117 102.613 125.742L102.381 126.991H100.356V113.586L102.693 113.434V116.467C102.693 117.055 102.675 117.724 102.639 118.473C103.412 117.463 104.42 116.957 105.663 116.957C106.912 116.957 107.89 117.421 108.597 118.349C109.311 119.276 109.668 120.489 109.668 121.988C109.668 123.545 109.299 124.803 108.562 125.76C107.83 126.712 106.846 127.187 105.609 127.187ZM105.048 125.412C105.743 125.412 106.299 125.118 106.715 124.529C107.132 123.941 107.34 123.105 107.34 122.023C107.34 120.935 107.135 120.112 106.724 119.553C106.32 118.994 105.77 118.714 105.074 118.714C103.493 118.714 102.693 119.782 102.675 121.916C102.675 123.117 102.874 124 103.273 124.565C103.671 125.13 104.263 125.412 105.048 125.412ZM111.799 127V113.934H114.216V119.276H120.121V113.934H122.538V127H120.121V121.185H114.216V127H111.799ZM125.187 127V117.198H127.523V127H125.187ZM125.187 115.771V113.773H127.532V115.771H125.187ZM133.401 127.134C132.729 127.134 132.17 127.056 131.724 126.902C131.284 126.741 130.936 126.489 130.681 126.144C130.425 125.799 130.247 125.389 130.145 124.913C130.044 124.437 129.994 123.846 129.994 123.138V113.586L132.331 113.434V123.094C132.331 123.974 132.435 124.571 132.643 124.886C132.851 125.195 133.255 125.35 133.856 125.35C134.153 125.35 134.531 125.317 134.988 125.252L135.051 126.92C135.045 126.92 134.971 126.935 134.828 126.964C134.691 126.994 134.557 127.018 134.427 127.036C134.302 127.059 134.141 127.08 133.945 127.098C133.749 127.122 133.567 127.134 133.401 127.134ZM139.644 127.134C138.972 127.134 138.413 127.056 137.967 126.902C137.527 126.741 137.18 126.489 136.924 126.144C136.668 125.799 136.49 125.389 136.389 124.913C136.288 124.437 136.237 123.846 136.237 123.138V113.586L138.574 113.434V123.094C138.574 123.974 138.678 124.571 138.886 124.886C139.094 125.195 139.498 125.35 140.099 125.35C140.396 125.35 140.774 125.317 141.232 125.252L141.294 126.92C141.288 126.92 141.214 126.935 141.071 126.964C140.934 126.994 140.801 127.018 140.67 127.036C140.545 127.059 140.384 127.08 140.188 127.098C139.992 127.122 139.811 127.134 139.644 127.134Z" fill="white"/>
<path d="M89.2858 64.928C91.6046 64.8885 92.7001 65.7991 92.8277 67.8129C92.9144 69.1853 91.5 70.2362 89.3675 70.3982C90.4477 72.2221 90.1697 73.9133 88.6507 74.7538C88.2994 74.9463 87.9103 75.0599 87.5107 75.0869C87.111 75.1138 86.7103 75.0533 86.3363 74.9097C85.9624 74.7661 85.6242 74.5428 85.3452 74.2553C85.0663 73.9678 84.8533 73.6231 84.7211 73.245C84.148 73.8584 83.5115 74.409 82.822 74.8877C82.417 75.0885 81.9624 75.167 81.5135 75.1138C81.0646 75.0606 80.6409 74.8779 80.2941 74.588C78.9842 73.6684 78.8325 72.231 79.7482 70.5704C78.9088 70.3423 78.098 70.0197 77.3313 69.6087C76.8738 69.1921 76.5685 68.6346 76.464 68.0247C76.3551 67.6007 76.3737 67.1539 76.5173 66.7404C76.6609 66.3269 76.9231 65.9649 77.2713 65.6996C77.9678 65.2223 78.6994 64.7984 79.46 64.4318C79.0403 61.9843 79.4344 60.8606 80.9713 60.3326C82.4202 59.8224 83.6778 60.4601 84.5987 62.2291C84.7517 61.7124 85.0503 61.2508 85.4588 60.8993C85.8673 60.5478 86.3684 60.3214 86.9021 60.2471C87.5746 60.2074 88.2448 60.3568 88.8369 60.6782C90.2475 61.5034 90.3865 63.1054 89.2858 64.928Z" fill="white"/>
<path d="M92.0243 39.9475C91.3428 40.4997 90.486 40.7895 89.6092 40.7642C88.7325 40.739 87.8938 40.4002 87.2452 39.8097C86.7051 39.3345 86.3238 38.7049 86.153 38.006C85.9821 37.3071 86.03 36.5727 86.29 35.9018C86.8588 34.3624 88.1253 33.5959 90.2731 33.5347C90.1418 32.6307 90.3522 31.7103 90.8633 30.9532C91.3744 30.1961 92.1495 29.6567 93.037 29.4405C93.7152 29.2339 94.4416 29.2493 95.1105 29.4842C95.7794 29.7191 96.3559 30.1614 96.7561 30.7466C96.3649 32.2794 96.3593 33.8852 96.7396 35.4208C97.1199 36.9563 97.8744 38.374 98.9358 39.547C98.8064 40.2435 98.4578 40.8804 97.9409 41.3647C97.4239 41.8491 96.7657 42.1556 96.0622 42.2394C95.2272 42.3916 94.3653 42.2455 93.6272 41.8265C92.889 41.4076 92.3216 40.7424 92.0243 39.9475Z" fill="white"/>
<path d="M116.97 79.7357C116.661 80.5419 116.077 81.2127 115.321 81.6294C114.565 82.0461 113.686 82.1817 112.839 82.0122C112.129 81.8901 111.475 81.5501 110.966 81.0393C110.458 80.5286 110.121 79.8724 110.003 79.1617C109.843 78.321 109.982 77.4508 110.396 76.7021C110.811 75.9533 111.474 75.3733 112.272 75.0625C111.237 73.1494 111.261 71.6622 112.324 70.3944C112.789 69.8261 113.42 69.417 114.129 69.2236C114.837 69.0302 115.588 69.0623 116.278 69.3155C116.795 70.8459 117.647 72.2414 118.772 73.4002C119.898 74.5589 121.268 75.4515 122.782 76.0127C122.996 76.6726 122.998 77.3828 122.788 78.044C122.578 78.7051 122.167 79.2841 121.612 79.6999C120.962 80.2428 120.144 80.5432 119.297 80.5497C118.451 80.5562 117.628 80.2685 116.97 79.7357Z" fill="white"/>
<path d="M112.292 60.2192C111.472 59.9066 110.792 59.3092 110.376 58.5363C109.961 57.7635 109.837 56.8667 110.028 56.0102C110.175 55.3058 110.533 54.663 111.055 54.1672C111.576 53.6714 112.237 53.3461 112.948 53.2349C114.529 52.953 115.829 53.6763 116.973 55.5167C117.686 54.949 118.586 54.6677 119.495 54.7278C120.405 54.788 121.26 55.1853 121.892 55.8419C122.394 56.3176 122.738 56.9357 122.878 57.6131C123.018 58.2904 122.947 58.9943 122.674 59.6299C122.125 61.1387 121.007 61.7981 118.714 61.9907C118.832 62.8656 118.632 63.7541 118.15 64.4939C117.668 65.2336 116.936 65.7752 116.088 66.0198C115.419 66.2543 114.693 66.2684 114.015 66.06C113.338 65.8515 112.745 65.4316 112.324 64.8618C111.777 64.2134 111.475 63.3941 111.469 62.5462C111.463 61.6982 111.754 60.875 112.292 60.2192Z" fill="white"/>
<path d="M96.7229 100.031C97.7432 101.839 97.7267 103.372 96.6923 104.633C96.2279 105.201 95.6009 105.612 94.8956 105.812C94.1903 106.012 93.4406 105.992 92.7474 105.753C91.1391 105.206 90.3725 103.989 90.2807 101.761C88.2209 101.774 86.6445 100.996 86.1522 98.8199C85.9781 98.149 86.02 97.4402 86.2719 96.7945C86.5238 96.1488 86.9728 95.5989 87.5551 95.2231C88.2023 94.7409 88.9926 94.4901 89.7993 94.5109C90.6061 94.5318 91.3824 94.8229 92.0038 95.3378C92.3225 94.491 92.9448 93.7932 93.7496 93.3797C94.5543 92.9662 95.4841 92.8668 96.3581 93.1008C97.0493 93.2507 97.6766 93.6121 98.1529 94.1348C98.6292 94.6575 98.9309 95.3157 99.0161 96.0177C99.298 97.5865 98.5914 98.8083 96.7229 100.031Z" fill="white"/>
<path d="M50.4976 61.9614C48.2414 61.8593 47.0246 61.0967 46.4749 59.5011C46.2355 58.8083 46.2139 58.0588 46.4129 57.3534C46.612 56.6479 47.0222 56.0204 47.5884 55.555C48.8561 54.5104 50.3816 54.4874 52.208 55.5243C53.1875 53.7387 54.6172 52.7514 56.7191 53.356C57.3892 53.5302 57.9892 53.9071 58.4371 54.4351C58.885 54.9631 59.159 55.6166 59.2215 56.3062C59.4485 57.9298 58.7407 59.112 56.9257 60.2229C57.4909 60.9207 57.7775 61.803 57.7304 62.6996C57.6833 63.5963 57.3058 64.4438 56.6707 65.0784C56.2131 65.5992 55.6034 65.9631 54.9277 66.1185C54.2521 66.2739 53.5448 66.213 52.9056 65.9446C52.1064 65.6603 51.43 65.1083 50.9912 64.3824C50.5523 63.6564 50.378 62.8011 50.4976 61.9614Z" fill="white"/>
<path d="M72.4949 35.2666C71.948 34.5959 71.6586 33.752 71.6787 32.8869C71.6988 32.0217 72.0271 31.1922 72.6045 30.5476C73.0443 29.9923 73.6499 29.5919 74.3331 29.4047C75.0163 29.2175 75.7413 29.2533 76.4028 29.5068C77.231 29.7665 77.9384 30.315 78.3963 31.0524C78.8541 31.7897 79.032 32.667 78.8975 33.5244C79.7934 33.3934 80.7062 33.5966 81.4619 34.0952C82.2176 34.5939 82.7635 35.3531 82.9954 36.2283C83.2156 36.9016 83.2139 37.6279 82.9905 38.3001C82.7671 38.9724 82.3339 39.5552 81.7545 39.9628C80.2339 39.5634 78.6362 39.5615 77.1146 39.957C75.593 40.3525 74.1986 41.1322 73.065 42.2215C72.363 42.1245 71.7105 41.8053 71.2033 41.3104C70.696 40.8156 70.3606 40.1711 70.2463 39.4717C70.0527 38.6175 70.1735 37.7223 70.5865 36.95C70.9995 36.1776 71.677 35.58 72.4949 35.2666Z" fill="white"/>
<path d="M52.1902 79.7446C51.5508 80.2567 50.7577 80.5388 49.9385 80.5455C49.1193 80.5522 48.3217 80.2832 47.6739 79.7817C47.0944 79.3522 46.6624 78.7535 46.4372 78.0683C46.2119 77.3831 46.2047 76.6449 46.4164 75.9554C47.9414 75.3897 49.3247 74.4982 50.4701 73.3434C51.6155 72.1885 52.4954 70.7979 53.0486 69.2683C53.7325 69.0458 54.4681 69.0382 55.1565 69.2464C55.8449 69.4545 56.4531 69.8685 56.8991 70.4327C57.9283 71.7082 57.9437 73.2233 56.9118 75.0446C57.7511 75.3667 58.4417 75.9878 58.8507 76.7884C59.2596 77.5889 59.3582 78.5123 59.1273 79.3811C58.9769 80.072 58.6156 80.6993 58.0932 81.1759C57.5709 81.6525 56.9134 81.955 56.2116 82.0417C54.6556 82.335 53.407 81.6221 52.1902 79.7446Z" fill="white"/>
<path d="M72.5127 100.011C71.7019 99.7028 71.0269 99.1165 70.6081 98.3569C70.1893 97.5973 70.0538 96.7135 70.2259 95.8633C70.3523 95.1384 70.7058 94.4724 71.2353 93.9614C71.7649 93.4504 72.4431 93.121 73.1721 93.0206C74.3563 94.1172 75.7796 94.9228 77.3294 95.3735C78.8791 95.8243 80.5125 95.9076 82.1001 95.6172C82.6053 96.0902 82.9525 96.7074 83.0945 97.3848C83.2364 98.0621 83.1662 98.7667 82.8934 99.4027C82.3297 100.933 81.1219 101.644 78.9192 101.757C79.0524 102.664 78.8394 103.587 78.3225 104.343C77.8056 105.1 77.0227 105.633 76.1298 105.838C75.4501 106.04 74.7238 106.019 74.057 105.778C73.3902 105.537 72.8178 105.09 72.4234 104.501C71.931 103.851 71.6719 103.055 71.6882 102.24C71.7044 101.426 71.9949 100.64 72.5127 100.011Z" fill="white"/>
<path d="M57.9539 45.6781C56.0828 44.5799 55.3865 43.3286 55.6364 41.6374C55.7414 40.9412 56.0527 40.2925 56.5302 39.775C57.0076 39.2576 57.6293 38.8951 58.3148 38.7345C59.1763 38.5201 60.0865 38.6273 60.8747 39.0358C61.6629 39.4444 62.2751 40.1262 62.5964 40.9538C64.6027 39.9015 66.0401 39.9424 67.3308 41.0635C67.8851 41.5456 68.2781 42.1862 68.4569 42.8987C68.6357 43.6112 68.5917 44.3613 68.3307 45.048C67.7542 46.59 66.4826 47.3437 64.3387 47.382C64.4847 48.2867 64.2827 49.2131 63.7732 49.9748C63.2637 50.7366 62.4846 51.2771 61.5927 51.4875C60.9135 51.6968 60.1852 51.6823 59.5149 51.4463C58.8446 51.2102 58.2679 50.7651 57.8697 50.1765C57.3641 49.5314 57.0964 48.7317 57.1117 47.9122C57.1271 47.0928 57.4245 46.3038 57.9539 45.6781Z" fill="white"/>
<path d="M62.5912 94.329C62.2738 95.142 61.6752 95.8141 60.9042 96.223C60.1332 96.6319 59.241 96.7505 58.39 96.5573C57.7009 96.4111 57.0714 96.0621 56.5823 95.5553C56.0932 95.0484 55.7668 94.4069 55.6452 93.7131C55.3596 92.0015 56.0572 90.7222 57.9245 89.6113C57.3538 88.9159 57.0629 88.0328 57.1087 87.1344C57.1544 86.236 57.5335 85.387 58.1719 84.7532C58.6322 84.2335 59.244 83.8713 59.9211 83.7177C60.5982 83.5642 61.3064 83.627 61.9458 83.8974C62.7516 84.1722 63.4323 84.7263 63.8649 85.4595C64.2975 86.1926 64.4533 87.0565 64.3041 87.8946C65.1883 87.7561 66.0927 87.9438 66.8488 88.4227C67.6048 88.9017 68.161 89.6392 68.4135 90.4978C68.6219 91.1714 68.6229 91.892 68.4164 92.5661C68.2099 93.2403 67.8053 93.8368 67.2554 94.2781C65.9698 95.3316 64.6013 95.3519 62.5912 94.329Z" fill="white"/>
<path d="M104.874 47.3705C102.748 47.3705 101.43 46.5848 100.858 45.0173C100.595 44.3152 100.56 43.5483 100.758 42.8252C100.955 42.1021 101.375 41.4594 101.958 40.9884C103.262 39.9208 104.764 39.9068 106.561 40.982C106.887 40.1241 107.524 39.4204 108.346 39.0112C109.167 38.6021 110.113 38.5174 110.994 38.7741C111.671 38.9244 112.284 39.2857 112.743 39.8059C113.202 40.3261 113.485 40.9784 113.551 41.6694C112.449 42.8213 111.647 44.2263 111.215 45.7608C110.783 47.2952 110.735 48.9122 111.074 50.4698C110.626 50.9995 110.023 51.375 109.35 51.543C108.677 51.711 107.968 51.663 107.324 51.406C106.5 51.1389 105.799 50.5845 105.349 49.8438C104.899 49.103 104.731 48.2251 104.874 47.3705Z" fill="white"/>
<path d="M111.24 89.6101C112.078 89.927 112.771 90.54 113.188 91.3331C113.605 92.1262 113.716 93.0446 113.502 93.9146C113.345 94.6011 112.984 95.2242 112.467 95.7021C111.95 96.18 111.3 96.4905 110.603 96.593C108.913 96.8481 107.66 96.1467 106.578 94.3101C105.86 94.8991 104.944 95.1895 104.018 95.1214C103.092 95.0532 102.228 94.6318 101.604 93.944C101.104 93.462 100.769 92.8351 100.644 92.152C100.52 91.469 100.613 90.7641 100.91 90.1368C101.218 89.3729 101.776 88.7364 102.493 88.3317C103.21 87.927 104.043 87.7783 104.856 87.9099C104.719 87.0143 104.916 86.0995 105.41 85.3399C105.904 84.5804 106.66 84.0292 107.535 83.7916C108.213 83.5945 108.934 83.608 109.604 83.8303C110.274 84.0526 110.861 84.4733 111.287 85.0365C111.808 85.6874 112.087 86.4982 112.079 87.3317C112.07 88.1652 111.774 88.97 111.24 89.6101Z" fill="white"/>
<path d="M104.397 76.7474C104.974 76.892 105.494 77.2043 105.893 77.6447C106.292 78.0851 106.552 78.6338 106.639 79.2217C106.686 79.4021 106.697 79.5899 106.671 79.7745C106.645 79.9591 106.583 80.1369 106.488 80.2973C106.393 80.4578 106.268 80.598 106.119 80.7098C105.969 80.8215 105.8 80.9027 105.619 80.9486C105.075 81.1613 104.481 81.2083 103.911 81.0837C103.341 80.9591 102.82 80.6685 102.415 80.2484C101.341 81.7688 100.679 81.8273 99.3822 80.5315C97.1323 78.2842 94.9105 76.0076 92.6224 73.8024C92.3546 73.5933 92.1657 73.2996 92.0864 72.9693C92.0072 72.6389 92.0424 72.2915 92.1862 71.9837C92.4949 71.42 93.1479 71.2644 93.9629 71.5067C97.0634 72.4288 100.205 73.2107 103.331 74.0499C104.891 74.4695 105.218 75.245 104.397 76.7474Z" fill="white"/>
<path d="M104.503 58.7243C105.22 60.0291 104.893 60.8084 103.332 61.228C100.177 62.0761 97.0111 62.886 93.871 63.7788C93.5766 63.9118 93.2434 63.931 92.9356 63.8329C92.6279 63.7347 92.3674 63.526 92.2043 63.2472C92.0413 62.9683 91.9873 62.639 92.0527 62.3227C92.1181 62.0063 92.2983 61.7254 92.5586 61.5341C94.9079 59.26 97.196 56.9233 99.5135 54.6161C100.672 53.4618 101.508 53.5728 102.284 54.8942C102.943 54.5365 103.658 54.292 104.398 54.171C104.771 54.1568 105.143 54.2208 105.49 54.3587C105.837 54.4967 106.151 54.7055 106.412 54.972C106.533 55.3223 106.577 55.6941 106.543 56.0629C106.508 56.4317 106.395 56.789 106.212 57.1109C105.891 57.7397 105.146 58.1466 104.503 58.7243Z" fill="white"/>
<path d="M66.8001 80.237C66.3548 80.7033 65.7693 81.0115 65.1328 81.1146C64.4962 81.2178 63.8434 81.1102 63.2736 80.8084C63.0142 80.6934 62.801 80.4946 62.6682 80.2438C62.5354 79.9931 62.4908 79.705 62.5415 79.4258C62.5755 78.814 62.8024 78.2287 63.1896 77.7537C63.5768 77.2787 64.1045 76.9385 64.697 76.7819C64.7148 76.7079 64.7582 76.639 64.7377 76.6033C63.984 75.2361 64.3105 74.4644 65.8423 74.0525C69.0308 73.1941 72.2054 72.3281 75.399 71.5131C75.8146 71.4469 76.2405 71.5195 76.6107 71.7197C76.751 71.8074 76.8709 71.924 76.9624 72.0619C77.0538 72.1999 77.1146 72.3558 77.1407 72.5192C77.1669 72.6826 77.1576 72.8498 77.1137 73.0093C77.0698 73.1689 76.9922 73.317 76.8862 73.444C74.3532 75.9949 71.8189 78.5458 69.2336 81.052C68.4352 81.8262 67.6075 81.5022 66.8001 80.237Z" fill="white"/>
<path d="M64.7761 58.524C64.1681 58.3748 63.6236 58.0358 63.2215 57.556C62.8195 57.0761 62.5808 56.4807 62.5403 55.856C62.4886 55.577 62.5322 55.2887 62.6641 55.0375C62.7959 54.7863 63.0084 54.5867 63.2673 54.4708C63.8357 54.1667 64.488 54.0573 65.1245 54.1594C65.761 54.2614 66.3465 54.5692 66.7913 55.0358C67.767 53.5359 68.508 53.4543 69.7554 54.6965C72.0511 56.9834 74.3252 59.2881 76.6427 61.5519C76.8789 61.7528 77.0466 62.0223 77.1225 62.3229C77.1984 62.6235 77.1787 62.9403 77.0661 63.2292C76.8646 63.7751 75.7562 63.9421 75.1147 63.7584C72.6914 63.0633 70.254 62.418 67.8218 61.7548C67.1917 61.5826 66.5617 61.4155 65.9316 61.2446C64.2927 60.7944 63.9688 60.0737 64.7761 58.524Z" fill="white"/>
<path d="M86.5858 45.9332C88.3714 46.0059 88.8306 46.6193 88.3906 48.2735C87.5501 51.4353 86.6777 54.5881 85.8742 57.7588C85.8302 58.0637 85.6785 58.343 85.4467 58.5459C85.2149 58.7488 84.9182 58.862 84.6102 58.8652C84.3021 58.8684 84.0031 58.7614 83.7671 58.5635C83.5311 58.3655 83.3737 58.0895 83.3233 57.7856C82.5109 54.5869 81.6321 51.4085 80.7839 48.2199C80.3605 46.6295 80.8566 45.9817 82.5695 45.9562C82.4415 45.4878 82.4258 44.9957 82.5237 44.5201C82.6217 44.0445 82.8305 43.5987 83.1332 43.219C83.2825 42.9573 83.4992 42.7405 83.7608 42.5911C84.0224 42.4417 84.3192 42.3653 84.6205 42.3697C84.9217 42.3741 85.2162 42.4593 85.4733 42.6163C85.7303 42.7733 85.9406 42.9965 86.082 43.2624C86.3772 43.6329 86.5773 44.0699 86.6651 44.5354C86.7529 45.0008 86.7257 45.4806 86.5858 45.9332Z" fill="white"/>
<path d="M86.6113 89.3499C86.7842 89.9373 86.7702 90.5639 86.5714 91.1431C86.3727 91.7223 85.9988 92.2256 85.5017 92.5831C85.2592 92.8073 84.9419 92.933 84.6116 92.9356C84.2814 92.9382 83.9621 92.8175 83.7161 92.5971C83.2131 92.2448 82.8334 91.7434 82.6304 91.1638C82.4274 90.5842 82.4115 89.9555 82.5848 89.3664C80.7214 89.1916 80.3566 88.6726 80.8362 86.8705C81.6627 83.7674 82.5287 80.6744 83.3105 77.5598C83.3573 77.2513 83.5103 76.9688 83.7432 76.7611C83.976 76.5534 84.2741 76.4335 84.586 76.4222C84.8983 76.4255 85.1993 76.5392 85.4358 76.7432C85.6722 76.9472 85.8289 77.2285 85.878 77.5369C86.6738 80.6783 87.536 83.8017 88.3752 86.9329C88.8382 88.6598 88.4173 89.2427 86.6113 89.3499Z" fill="white"/>
<path d="M93.6618 47.7863C94.6363 45.9714 96.2012 45.0735 97.2802 45.7113C98.3592 46.349 98.3427 48.322 97.2267 49.827C97.2665 49.8882 97.3155 49.9429 97.372 49.989C98.6194 50.7224 98.7444 51.5909 97.7088 52.6342C95.7625 54.5984 93.7958 56.5421 91.8418 58.5012C91.5076 58.8379 91.2143 59.2141 90.9299 59.5393L88.5308 58.1466C89.129 55.8942 89.7437 53.578 90.3623 51.2593C90.5613 50.5132 90.7679 49.7695 90.972 49.0247C91.4324 47.3335 92.1173 47.0198 93.6618 47.7863Z" fill="white"/>
<path d="M72.0154 49.864C71.5514 49.428 71.2403 48.8541 71.1282 48.2274C71.016 47.6006 71.1089 46.9544 71.3929 46.3846C71.4942 46.1193 71.6816 45.8958 71.9252 45.7498C72.1687 45.6039 72.4543 45.544 72.7359 45.5798C73.3762 45.6064 73.9905 45.8405 74.486 46.2468C74.9816 46.6531 75.3316 47.2096 75.4832 47.8322C75.6312 47.7582 75.7536 47.7047 75.8658 47.6396C76.0514 47.4968 76.2704 47.404 76.5021 47.3701C76.7337 47.3362 76.9702 47.3624 77.1888 47.4461C77.4075 47.5298 77.6009 47.6683 77.7507 47.8482C77.9005 48.0282 78.0016 48.2436 78.0443 48.4738C78.9498 51.7006 79.8005 54.9426 80.6615 58.1376L78.3976 59.4641C76.0227 57.1109 73.5956 54.7514 71.2259 52.3357C70.4096 51.4978 70.7132 50.6139 72.0154 49.864Z" fill="white"/>
<path d="M78.3848 75.8137L80.664 77.1262L78.909 83.664C78.6782 84.5236 78.4537 85.3857 78.219 86.2441C77.7535 87.9455 77.0954 88.2504 75.5253 87.5043C74.5726 89.2899 72.9681 90.2056 71.9095 89.5589C70.8509 88.9123 70.8547 86.9457 71.9885 85.4152C71.8495 85.3285 71.7118 85.2455 71.5779 85.16C71.3738 85.0633 71.197 84.9176 71.0631 84.7358C70.9292 84.554 70.8424 84.3418 70.8106 84.1183C70.7787 83.8948 70.8028 83.6668 70.8806 83.4549C70.9585 83.243 71.0876 83.0537 71.2565 82.9039C73.6135 80.5138 76.0125 78.1669 78.3848 75.8137Z" fill="white"/>
<path d="M74.4463 66.3093C74.4169 66.8041 74.371 67.243 74.3723 67.6817C74.3723 68.0911 74.4208 68.5005 74.4539 68.9724C71.1863 69.8435 67.9582 70.7376 64.7097 71.5539C63.5299 71.8498 62.9394 71.1841 62.8973 69.6587C62.3117 69.8251 61.6894 69.8099 61.1126 69.6152C60.5358 69.4205 60.0316 69.0553 59.6667 68.5681C59.4319 68.3161 59.3013 67.9847 59.3013 67.6403C59.3013 67.2959 59.4319 66.9643 59.6667 66.7124C60.0182 66.2284 60.5104 65.8644 61.0761 65.67C61.6418 65.4756 62.2536 65.4602 62.8284 65.6258C62.8731 65.5697 62.9368 65.5275 62.9368 65.4841C62.9471 63.9039 63.5963 63.404 65.1433 63.8146C67.6092 64.4702 70.075 65.1308 72.5408 65.7966L74.4463 66.3093Z" fill="white"/>
<path d="M93.5089 87.5362C92.2335 88.2555 91.43 87.9393 91.0256 86.4445C90.1813 83.3261 89.351 80.2037 88.5271 77.1274L90.8139 75.8163C90.9108 75.898 91.092 76.0331 91.2514 76.19C93.3771 78.3098 95.5028 80.4316 97.6285 82.5556C98.7764 83.7035 98.659 84.5466 97.3441 85.3233C97.7012 85.9852 97.9452 86.702 98.066 87.4443C98.0801 87.8173 98.0159 88.1892 97.8775 88.5359C97.7391 88.8825 97.5296 89.1962 97.2624 89.4569C96.911 89.5759 96.5383 89.6187 96.1691 89.5824C95.7998 89.5461 95.4426 89.4315 95.121 89.2464C94.4935 88.9225 94.0841 88.1777 93.5089 87.5362Z" fill="white"/>
<path d="M94.621 68.9814V66.3029L100.519 64.7227C101.61 64.4307 102.699 64.136 103.793 63.849C105.451 63.4115 106.088 63.8809 106.134 65.6206C106.74 65.4506 107.384 65.4734 107.976 65.686C108.568 65.8986 109.079 66.2902 109.439 66.8067C109.618 67.0582 109.711 67.3605 109.705 67.6691C109.699 67.9776 109.595 68.2761 109.407 68.5208C109.048 69.0267 108.539 69.407 107.952 69.6077C107.365 69.8084 106.729 69.8196 106.135 69.6395C106.127 69.8053 106.114 69.9405 106.111 70.077C106.144 70.3173 106.112 70.5619 106.02 70.7863C105.928 71.0107 105.779 71.207 105.587 71.3557C105.396 71.5043 105.168 71.5999 104.928 71.6331C104.688 71.6663 104.443 71.636 104.219 71.545C101.026 70.7211 97.8491 69.8461 94.621 68.9814Z" fill="white"/>
<path d="M89.5601 27.7991C87.3569 28.7603 85.5918 30.509 84.6102 32.7031C83.6535 30.5949 81.997 28.8826 79.9217 27.8566C83.1146 27.3686 86.3616 27.3492 89.5601 27.7991Z" fill="white"/>
<path d="M124.551 62.9307L124.838 62.9868V72.504C124.178 71.5122 123.454 70.5647 122.67 69.6675C121.816 68.9072 120.914 68.2042 119.967 67.563C121.997 66.6121 123.622 64.9701 124.551 62.9307Z" fill="white"/>
<path d="M49.6698 67.6345C47.5419 68.5683 45.8312 70.2513 44.8628 72.3638C44.3105 71.0947 44.2595 64.9421 44.8029 62.8236C45.7828 64.9681 47.5141 66.6795 49.6698 67.6345Z" fill="white"/>
<path d="M84.5821 102.607C85.5873 104.744 87.2992 106.468 89.4287 107.489C86.1738 107.917 82.8768 107.917 79.622 107.489C81.8249 106.535 83.5933 104.794 84.5821 102.607Z" fill="white"/>
<path d="M52.5141 43.6501C52.5217 46.5836 52.5931 46.8579 54.2116 50.1433C51.9337 49.9362 49.6573 50.556 47.7988 51.8894C48.8782 48.8891 50.474 46.1006 52.5141 43.6501Z" fill="white"/>
<path d="M60.3516 35.6302C62.9315 33.6503 65.7518 32.0051 68.7451 30.7339C68.2417 31.7345 67.8071 32.7684 67.4442 33.8281C67.2068 34.9522 67.0432 36.0906 66.9545 37.236C65.021 35.9179 62.6744 35.3472 60.3516 35.6302Z" fill="white"/>
<path d="M100.415 104.472C101.706 102.552 102.292 100.244 102.073 97.9398C103.98 99.2704 106.286 99.9058 108.605 99.7395C106.125 101.715 103.365 103.31 100.415 104.472Z" fill="white"/>
<path d="M52.5422 91.8255C50.5382 89.1902 48.8723 86.3142 47.5833 83.2648C49.4949 84.6581 51.8443 85.3164 54.2015 85.1192C52.5498 88.6368 52.4491 89.0336 52.5422 91.8255Z" fill="white"/>
<path d="M100.587 30.5821L108.726 35.2922L108.621 35.5958C106.296 35.3726 103.968 36.0032 102.073 37.3699C102.305 35.0439 101.692 32.7122 100.345 30.8015L100.587 30.5821Z" fill="white"/>
<path d="M121.433 83.4611C120.24 86.4413 118.642 89.2433 116.686 91.7884C116.649 88.5616 116.581 88.3001 114.974 85.1332C117.255 85.327 119.533 84.7371 121.433 83.4611Z" fill="white"/>
<path d="M114.868 50.1738C116.241 48.2718 116.869 45.9328 116.634 43.5991C118.689 46.1018 120.333 48.9151 121.506 51.9339C119.581 50.5593 117.221 49.9336 114.868 50.1738Z" fill="white"/>
<path d="M60.5582 99.6987C62.8819 99.9165 65.2065 99.2914 67.1075 97.9373C66.88 100.255 67.5073 102.576 68.8714 104.464C65.8549 103.348 63.0454 101.738 60.5582 99.6987Z" fill="white"/>
<path d="M114.44 43.4026C114.695 44.4267 114.684 45.4987 114.408 46.5174C114.133 47.5361 113.602 48.4676 112.866 49.2236L112.603 46.0122L114.44 43.4026Z" fill="white"/>
<path d="M114.436 91.8663L112.604 89.2746L112.86 86.0529C113.596 86.807 114.128 87.7369 114.404 88.7545C114.68 89.772 114.691 90.8433 114.436 91.8663Z" fill="white"/>
<path d="M108.778 97.4959C107.771 97.7362 106.72 97.7202 105.721 97.4495C104.721 97.1788 103.806 96.6621 103.058 95.9463C103.937 95.8277 104.935 95.6835 105.937 95.5636C106.123 95.5392 106.312 95.5803 106.471 95.6798C107.273 96.2894 108.06 96.9271 108.778 97.4959Z" fill="white"/>
<path d="M54.7397 43.3911L56.5968 46.007L56.3174 49.1892C55.0561 48.3487 54.2002 45.3769 54.7397 43.3911Z" fill="white"/>
<path d="M66.1727 95.9374C65.4137 96.6527 64.4897 97.1693 63.4828 97.4412C62.4759 97.7132 61.4173 97.7319 60.4014 97.4959C61.1233 96.9309 61.9026 96.3021 62.7074 95.7103C62.8903 95.6038 63.1038 95.5625 63.3132 95.593C64.2953 95.6925 65.2748 95.8252 66.1727 95.9374Z" fill="white"/>
<path d="M108.827 37.8061L106.235 39.6375L103.013 39.3736C103.768 38.6388 104.699 38.109 105.716 37.8346C106.734 37.5603 107.804 37.5505 108.827 37.8061Z" fill="white"/>
<path d="M60.3452 37.7334C61.3803 37.5302 62.4481 37.5669 63.4667 37.8409C64.4854 38.1148 65.4277 38.6187 66.2211 39.3137C65.2276 39.4578 64.1932 39.6211 63.1601 39.7461C62.9712 39.727 62.794 39.6458 62.6563 39.5152C61.8872 38.9374 61.1334 38.3456 60.3452 37.7334Z" fill="white"/>
<path d="M54.7385 91.8892C54.4971 90.8594 54.5161 89.7858 54.7937 88.7652C55.0714 87.7446 55.5991 86.8093 56.329 86.0439L56.5917 89.2759L54.7385 91.8892Z" fill="white"/>
<path d="M110.672 71.4914L110.936 74.7309L109.117 77.2907C108.863 76.2716 108.872 75.2044 109.144 74.1897C109.416 73.175 109.942 72.2464 110.672 71.4914Z" fill="white"/>
<path d="M88.4492 41.5738L91.6939 41.3033L94.2511 43.1221C93.2321 43.3779 92.1648 43.3698 91.1497 43.0989C90.1347 42.828 89.2053 42.3032 88.4492 41.5738Z" fill="white"/>
<path d="M74.6478 43.1502C75.2009 42.9013 75.7377 42.6176 76.2548 42.3007C76.656 41.9883 77.0341 41.6474 77.3861 41.2805L80.8298 41.5814C79.9949 42.31 79.0002 42.8317 77.9262 43.1042C76.8521 43.3768 75.729 43.3925 74.6478 43.1502Z" fill="white"/>
<path d="M88.3714 93.6912C89.1752 92.9763 90.1352 92.4597 91.1747 92.1826C92.2141 91.9055 93.304 91.8757 94.357 92.0957L91.6441 93.9872L88.3714 93.6912Z" fill="white"/>
<path d="M74.8404 92.0895C75.8961 91.8745 76.9873 91.9083 78.0277 92.1878C79.0681 92.4674 80.0291 92.9852 80.8349 93.7004L77.5188 93.9708L74.8404 92.0895Z" fill="white"/>
<path d="M58.58 71.4556C59.2762 72.2445 59.7802 73.1841 60.0523 74.2005C60.3245 75.2168 60.3575 76.2824 60.1488 77.3137C59.5557 76.5599 58.9205 75.7692 58.3096 74.9606C58.2025 74.8078 58.1524 74.6223 58.168 74.4363C58.2917 73.43 58.4435 72.4262 58.58 71.4556Z" fill="white"/>
<path d="M58.2625 60.5469L60.0787 57.9808C60.3332 59.0021 60.3236 60.0713 60.051 61.0878C59.7783 62.1044 59.2515 63.0347 58.5201 63.7915L58.2625 60.5469Z" fill="white"/>
<path d="M109.087 57.9386L110.958 60.6068L110.654 63.7278C109.378 62.8146 108.605 60.0749 109.087 57.9386Z" fill="white"/>
<path d="M118.413 65.771C118.74 64.9178 119.094 63.9715 119.473 63.0366C119.548 62.889 119.674 62.7734 119.827 62.7114C120.762 62.3288 121.705 61.9665 122.537 61.6387C122.249 62.6169 121.721 63.5076 121 64.2294C120.28 64.9511 119.39 65.481 118.413 65.771Z" fill="white"/>
<path d="M46.6357 61.6234C47.4927 61.9652 48.4136 62.3185 49.314 62.7087C49.5032 62.8067 49.6521 62.9679 49.7349 63.1641C50.1175 64.0442 50.4632 64.9383 50.7923 65.7545C49.2681 65.6321 47.1535 63.5557 46.6357 61.6234Z" fill="white"/>
<path d="M68.3039 88.3358L65.2926 86.9036L63.9088 83.9305C64.9343 84.2711 65.8658 84.8469 66.629 85.6119C67.3922 86.3768 67.9658 87.3096 68.3039 88.3358Z" fill="white"/>
<path d="M68.3001 46.9521C67.9532 47.9769 67.3749 48.9081 66.6101 49.6732C65.8452 50.4383 64.9143 51.0168 63.8897 51.364L65.322 48.3437L68.3001 46.9521Z" fill="white"/>
<path d="M86.3396 33.9441C86.6886 32.9348 87.2631 32.0184 88.0193 31.2644C88.7756 30.5103 89.6938 29.9385 90.7041 29.5924L89.3292 32.5832L86.3396 33.9441Z" fill="white"/>
<path d="M99.9421 37.5255C99.3171 36.7449 98.6666 35.9388 98.0289 35.1213C97.9498 35.0126 97.9131 34.879 97.9256 34.7451C98.071 33.7248 98.2342 32.7045 98.3886 31.6956C99.0735 32.4854 99.5695 33.4209 99.8386 34.4311C100.108 35.4413 100.143 36.4996 99.9421 37.5255Z" fill="white"/>
<path d="M79.886 32.5884L78.5085 29.6651C80.2545 29.8806 82.7391 32.5628 82.7544 33.9046L79.886 32.5884Z" fill="white"/>
<path d="M118.414 69.5056C119.391 69.7955 120.281 70.3254 121.001 71.0469C121.721 71.7684 122.249 72.6586 122.537 73.6365C121.703 73.31 120.762 72.9478 119.83 72.5664C119.675 72.5053 119.548 72.3903 119.473 72.2426C119.094 71.3064 118.741 70.3601 118.414 69.5056Z" fill="white"/>
<path d="M51.8738 54.2005L48.7337 53.9085C49.5589 52.6866 52.0894 51.952 54.5471 52.3206L51.8738 54.2005Z" fill="white"/>
<path d="M50.7846 69.4889C50.4517 70.3638 50.101 71.3114 49.7234 72.2476C49.6459 72.393 49.5187 72.5057 49.3651 72.5652C48.4302 72.9478 47.4876 73.3113 46.6293 73.6493C46.7351 72.2131 49.2617 69.6062 50.7846 69.4889Z" fill="white"/>
<path d="M69.2476 97.7548C69.8751 98.5354 70.523 99.3403 71.1684 100.155C71.2482 100.266 71.2841 100.402 71.2691 100.538C71.1237 101.558 70.9618 102.579 70.8087 103.578C70.1227 102.79 69.6255 101.856 69.355 100.847C69.0845 99.838 69.0477 98.7803 69.2476 97.7548Z" fill="white"/>
<path d="M98.3337 103.64L98.0404 100.335L99.9306 97.6821C100.14 98.7311 100.105 99.8143 99.8282 100.847C99.5513 101.881 99.0399 102.836 98.3337 103.64Z" fill="white"/>
<path d="M78.5226 105.59L79.8823 102.684L82.7405 101.381C82.4541 102.384 81.9163 103.296 81.1782 104.033C80.44 104.77 79.526 105.306 78.5226 105.59Z" fill="white"/>
<path d="M86.434 101.391L89.3368 102.698L90.6403 105.574C89.0766 105.428 86.9097 103.322 86.434 101.391Z" fill="white"/>
<path d="M69.2629 37.5842C69.0569 36.5351 69.0938 35.4527 69.3708 34.4201C69.6478 33.3874 70.1576 32.4318 70.8611 31.6266L71.1519 34.9429L69.2629 37.5842Z" fill="white"/>
<path d="M114.645 82.9752L117.315 81.0621L120.592 81.3733C119.79 82.0787 118.837 82.5901 117.806 82.8679C116.774 83.1457 115.693 83.1824 114.645 82.9752Z" fill="white"/>
<path d="M120.502 53.9134L117.303 54.2055L114.762 52.379C115.77 52.122 116.828 52.1281 117.832 52.3968C118.837 52.6655 119.757 53.1876 120.502 53.9134Z" fill="white"/>
<path d="M105.299 83.9178L103.878 86.9214L100.899 88.3245C101.238 87.2978 101.812 86.3645 102.576 85.5994C103.34 84.8343 104.273 84.2584 105.299 83.9178Z" fill="white"/>
<path d="M100.89 46.9445L103.891 48.3577L105.294 51.3435C104.268 51.0029 103.336 50.4278 102.572 49.6642C101.807 48.9007 101.231 47.9694 100.89 46.9445Z" fill="white"/>
<path d="M48.5846 81.3669L51.9007 81.0748L54.5408 82.9612C53.4922 83.1684 52.41 83.1325 51.3775 82.8561C50.3449 82.5797 49.3895 82.0703 48.5846 81.3669Z" fill="white"/>
<path d="M94.4807 45.7176L93.4272 47.0274L92.329 46.8489L92.2296 46.6806L94.3633 45.5327L94.4807 45.7176Z" fill="white"/>
<path d="M92.3011 88.4429L93.4171 88.2326L94.4897 89.5781L94.4017 89.7388L92.2462 88.6522L92.3011 88.4429Z" fill="white"/>
<path d="M81.9305 89.8728L82.2022 91.6469L82.0746 91.7285L80.7188 89.6572L80.8617 89.5297L81.9305 89.8728Z" fill="white"/>
<path d="M82.1958 43.6884L81.9292 45.3898L80.8732 45.7597L80.7176 45.6322L82.0568 43.552L82.1958 43.6884Z" fill="white"/>
<path d="M108.67 70.1814L106.643 71.5118L106.493 71.3842L106.84 70.3128L108.579 70.0323L108.67 70.1814Z" fill="white"/>
<path d="M62.3528 70.3141L62.715 71.3588L62.6002 71.5194L60.5149 70.1942L60.5978 70.0284L62.3528 70.3141Z" fill="white"/>
<path d="M106.695 57.8723L105.472 60.2204L105.188 58.8429L106.513 57.7639L106.695 57.8723Z" fill="white"/>
<path d="M76.8926 46.8349L75.7805 47.0427L74.7104 45.701L74.801 45.5403L76.95 46.6256L76.8926 46.8349Z" fill="white"/>
<path d="M63.8042 75.3725L63.9853 76.4605L62.692 77.5062L62.5148 77.4374L63.5861 75.2691L63.8042 75.3725Z" fill="white"/>
<path d="M62.6767 57.7551L63.984 58.8161L63.8029 59.9143L63.6332 60.0126L62.4854 57.8686L62.6767 57.7551Z" fill="white"/>
<path d="M86.994 91.6469L87.2656 89.8906L88.286 89.5144L88.4684 89.6203L87.1304 91.7324L86.994 91.6469Z" fill="white"/>
<path d="M106.505 77.4998L105.203 76.4565L105.443 75.0433L106.702 77.4106L106.505 77.4998Z" fill="white"/>
<path d="M60.5314 65.0849L62.5555 63.7623L62.706 63.8898L62.3591 64.9561L60.6118 65.2455L60.5314 65.0849Z" fill="white"/>
<path d="M108.574 65.2482L106.859 64.9612L106.476 63.9229L106.604 63.7598L108.688 65.0912L108.574 65.2482Z" fill="white"/>
<path d="M75.7765 88.2363L77.1935 88.4915L74.8148 89.7503L74.7141 89.5845C75.067 89.133 75.4211 88.6836 75.7765 88.2363Z" fill="white"/>
<path d="M87.1495 43.5724L88.4747 45.6067L88.3472 45.7494L87.2707 45.4025L86.9952 43.6604L87.1495 43.5724Z" fill="white"/>
<path d="M101.72 81.7879L102.529 81.066L104.132 81.687L104.145 81.8631L101.76 82.0073L101.72 81.7879Z" fill="white"/>
<path d="M65.1077 81.6781L66.6548 81.0711L67.4838 81.798L67.4455 81.9881L65.0745 81.881L65.1077 81.6781Z" fill="white"/>
<path d="M104.081 53.5984L102.54 54.2094L101.482 53.2757L104.115 53.3956L104.081 53.5984Z" fill="white"/>
<path d="M70.4645 84.7621L71.1736 85.5746L70.5359 87.1638L70.3624 87.1714L70.2349 84.7864L70.4645 84.7621Z" fill="white"/>
<path d="M70.5384 48.1L71.166 49.6956L70.4441 50.5336L70.2477 50.5042L70.3573 48.0924L70.5384 48.1Z" fill="white"/>
<path d="M99.1206 87.7008L98.4829 86.1242L99.2673 85.2239V87.7033L99.1206 87.7008Z" fill="white"/>
<path d="M98.7546 50.5132L98.025 49.7058L98.6436 48.1408L98.8196 48.1179L98.9791 50.4558L98.7546 50.5132Z" fill="white"/>
</g>
</svg>
