<svg width="355" height="95" viewBox="0 0 355 95" fill="none" xmlns="http://www.w3.org/2000/svg">
<path d="M17.184 23H14.976L14.4 15.536C14.16 12.608 14.024 10.36 13.992 8.792L10.416 21.128H8.28L4.512 8.768C4.512 10.768 4.408 13.08 4.2 15.704L3.648 23H1.488L2.856 6.464H5.928L9.408 18.488L12.72 6.464H15.816L17.184 23ZM23.3597 6.464V23H21.0797V6.464H23.3597ZM39.7498 23H36.7018L29.9818 8.96C30.0778 10.064 30.1498 11.088 30.1978 12.032C30.2618 12.96 30.2938 14.088 30.2938 15.416V23H28.1578V6.464H31.1338L37.9258 20.528C37.8778 20.112 37.8138 19.384 37.7338 18.344C37.6538 17.304 37.6138 16.352 37.6138 15.488V6.464H39.7498V23ZM44.9966 19.952C45.4766 19.952 45.8766 20.112 46.1966 20.432C46.5166 20.752 46.6766 21.144 46.6766 21.608C46.6766 22.072 46.5166 22.472 46.1966 22.808C45.8766 23.128 45.4766 23.288 44.9966 23.288C44.5326 23.288 44.1406 23.128 43.8206 22.808C43.5006 22.472 43.3406 22.072 43.3406 21.608C43.3406 21.144 43.5006 20.752 43.8206 20.432C44.1406 20.112 44.5326 19.952 44.9966 19.952ZM60.7378 6.176C61.8418 6.176 62.7858 6.336 63.5698 6.656C64.3538 6.96 65.1138 7.44 65.8498 8.096L64.6018 9.488C63.9778 8.992 63.3618 8.632 62.7538 8.408C62.1618 8.168 61.5218 8.048 60.8338 8.048C59.9698 8.048 59.2578 8.248 58.6978 8.648C58.1378 9.048 57.8578 9.632 57.8578 10.4C57.8578 10.88 57.9538 11.288 58.1458 11.624C58.3378 11.944 58.6898 12.24 59.2018 12.512C59.7298 12.784 60.4898 13.072 61.4818 13.376C62.5218 13.696 63.3858 14.04 64.0738 14.408C64.7618 14.776 65.3138 15.288 65.7298 15.944C66.1618 16.584 66.3778 17.4 66.3778 18.392C66.3778 19.352 66.1378 20.2 65.6578 20.936C65.1938 21.672 64.5138 22.248 63.6178 22.664C62.7378 23.08 61.6898 23.288 60.4738 23.288C58.1858 23.288 56.3138 22.576 54.8578 21.152L56.1058 19.76C56.7778 20.304 57.4578 20.72 58.1458 21.008C58.8338 21.28 59.6018 21.416 60.4498 21.416C61.4738 21.416 62.3218 21.168 62.9938 20.672C63.6658 20.16 64.0018 19.424 64.0018 18.464C64.0018 17.92 63.8978 17.472 63.6898 17.12C63.4818 16.752 63.1218 16.424 62.6098 16.136C62.1138 15.848 61.3858 15.56 60.4258 15.272C58.7298 14.76 57.4898 14.144 56.7058 13.424C55.9218 12.704 55.5298 11.728 55.5298 10.496C55.5298 9.664 55.7458 8.92 56.1778 8.264C56.6258 7.608 57.2418 7.096 58.0258 6.728C58.8258 6.36 59.7298 6.176 60.7378 6.176ZM72.0159 6.464V23H69.7359V6.464H72.0159ZM85.8621 6.464V8.312L77.6781 21.056H85.8621L85.5981 23H75.1341V21.176L83.3901 8.384H75.9981V6.464H85.8621ZM98.3051 6.464L98.0411 8.288H91.6331V13.688H97.2011V15.512H91.6331V21.176H98.4971V23H89.3531V6.464H98.3051ZM112.724 6.776C112.052 6.776 111.572 6.928 111.284 7.232C110.996 7.52 110.852 7.976 110.852 8.6V10.352H113.924L113.684 12.056H110.852V23H108.644V12.056H106.388V10.352H108.644V8.624C108.644 7.536 108.988 6.664 109.676 6.008C110.38 5.336 111.356 5 112.604 5C113.18 5 113.692 5.056 114.14 5.168C114.604 5.264 115.1 5.424 115.628 5.648L114.932 7.256C114.212 6.936 113.476 6.776 112.724 6.776ZM120.985 10.064C122.761 10.064 124.137 10.656 125.113 11.84C126.105 13.024 126.601 14.632 126.601 16.664C126.601 17.976 126.377 19.136 125.929 20.144C125.481 21.136 124.833 21.912 123.985 22.472C123.137 23.016 122.129 23.288 120.961 23.288C119.185 23.288 117.801 22.696 116.809 21.512C115.817 20.328 115.321 18.72 115.321 16.688C115.321 15.376 115.545 14.224 115.993 13.232C116.441 12.224 117.089 11.448 117.937 10.904C118.785 10.344 119.801 10.064 120.985 10.064ZM120.985 11.84C118.793 11.84 117.697 13.456 117.697 16.688C117.697 19.904 118.785 21.512 120.961 21.512C123.137 21.512 124.225 19.896 124.225 16.664C124.225 13.448 123.145 11.84 120.985 11.84ZM135.745 10.064C136.193 10.064 136.609 10.112 136.993 10.208L136.585 12.368C136.201 12.272 135.833 12.224 135.481 12.224C134.697 12.224 134.065 12.512 133.585 13.088C133.105 13.664 132.729 14.56 132.457 15.776V23H130.249V10.352H132.145L132.361 12.92C132.697 11.976 133.153 11.264 133.729 10.784C134.305 10.304 134.977 10.064 135.745 10.064ZM150.058 6.176C151.162 6.176 152.106 6.336 152.89 6.656C153.674 6.96 154.434 7.44 155.17 8.096L153.922 9.488C153.298 8.992 152.682 8.632 152.074 8.408C151.482 8.168 150.842 8.048 150.154 8.048C149.29 8.048 148.578 8.248 148.018 8.648C147.458 9.048 147.178 9.632 147.178 10.4C147.178 10.88 147.274 11.288 147.466 11.624C147.658 11.944 148.01 12.24 148.522 12.512C149.05 12.784 149.81 13.072 150.802 13.376C151.842 13.696 152.706 14.04 153.394 14.408C154.082 14.776 154.634 15.288 155.05 15.944C155.482 16.584 155.698 17.4 155.698 18.392C155.698 19.352 155.458 20.2 154.978 20.936C154.514 21.672 153.834 22.248 152.938 22.664C152.058 23.08 151.01 23.288 149.794 23.288C147.506 23.288 145.634 22.576 144.178 21.152L145.426 19.76C146.098 20.304 146.778 20.72 147.466 21.008C148.154 21.28 148.922 21.416 149.77 21.416C150.794 21.416 151.642 21.168 152.314 20.672C152.986 20.16 153.322 19.424 153.322 18.464C153.322 17.92 153.218 17.472 153.01 17.12C152.802 16.752 152.442 16.424 151.93 16.136C151.434 15.848 150.706 15.56 149.746 15.272C148.05 14.76 146.81 14.144 146.026 13.424C145.242 12.704 144.85 11.728 144.85 10.496C144.85 9.664 145.066 8.92 145.498 8.264C145.946 7.608 146.562 7.096 147.346 6.728C148.146 6.36 149.05 6.176 150.058 6.176ZM164.84 6.176C165.832 6.176 166.664 6.304 167.336 6.56C168.024 6.816 168.72 7.232 169.424 7.808L168.176 9.272C167.168 8.456 166.104 8.048 164.984 8.048C163.608 8.048 162.496 8.576 161.648 9.632C160.816 10.688 160.4 12.384 160.4 14.72C160.4 16.992 160.816 18.672 161.648 19.76C162.48 20.832 163.584 21.368 164.96 21.368C165.664 21.368 166.28 21.248 166.808 21.008C167.336 20.768 167.896 20.432 168.488 20L169.616 21.44C169.104 21.968 168.448 22.408 167.648 22.76C166.848 23.112 165.928 23.288 164.888 23.288C163.544 23.288 162.344 22.96 161.288 22.304C160.248 21.632 159.432 20.656 158.84 19.376C158.264 18.08 157.976 16.528 157.976 14.72C157.976 12.912 158.28 11.368 158.888 10.088C159.496 8.792 160.32 7.816 161.36 7.16C162.4 6.504 163.56 6.176 164.84 6.176ZM177.334 15.992H174.766V23H172.486V6.464H176.83C178.894 6.464 180.454 6.856 181.51 7.64C182.582 8.424 183.118 9.592 183.118 11.144C183.118 12.296 182.822 13.232 182.23 13.952C181.638 14.672 180.742 15.216 179.542 15.584L184.006 23H181.294L177.334 15.992ZM177.07 14.24C178.27 14.24 179.174 14 179.782 13.52C180.39 13.024 180.694 12.232 180.694 11.144C180.694 10.12 180.382 9.384 179.758 8.936C179.15 8.472 178.166 8.24 176.806 8.24H174.766V14.24H177.07ZM195.969 6.464L195.705 8.288H189.297V13.688H194.865V15.512H189.297V21.176H196.161V23H187.017V6.464H195.969ZM208.813 6.464L208.549 8.288H202.141V13.688H207.709V15.512H202.141V21.176H209.005V23H199.861V6.464H208.813ZM224.297 23H221.249L214.529 8.96C214.625 10.064 214.697 11.088 214.745 12.032C214.809 12.96 214.841 14.088 214.841 15.416V23H212.705V6.464H215.681L222.473 20.528C222.425 20.112 222.361 19.384 222.281 18.344C222.201 17.304 222.161 16.352 222.161 15.488V6.464H224.297V23ZM229.544 19.952C230.024 19.952 230.424 20.112 230.744 20.432C231.064 20.752 231.224 21.144 231.224 21.608C231.224 22.072 231.064 22.472 230.744 22.808C230.424 23.128 230.024 23.288 229.544 23.288C229.08 23.288 228.688 23.128 228.368 22.808C228.048 22.472 227.888 22.072 227.888 21.608C227.888 21.144 228.048 20.752 228.368 20.432C228.688 20.112 229.08 19.952 229.544 19.952ZM229.544 11.12C230.024 11.12 230.424 11.28 230.744 11.6C231.064 11.92 231.224 12.312 231.224 12.776C231.224 13.24 231.064 13.64 230.744 13.976C230.424 14.296 230.024 14.456 229.544 14.456C229.08 14.456 228.688 14.296 228.368 13.976C228.048 13.64 227.888 13.24 227.888 12.776C227.888 12.312 228.048 11.92 228.368 11.6C228.688 11.28 229.08 11.12 229.544 11.12ZM246.557 6.944V23H244.349V9.296L240.605 11.576L239.645 10.016L244.613 6.944H246.557ZM254.66 6.704C255.62 6.704 256.46 6.896 257.18 7.28C257.916 7.664 258.484 8.192 258.884 8.864C259.284 9.52 259.484 10.264 259.484 11.096C259.484 12.072 259.26 13.008 258.812 13.904C258.38 14.8 257.708 15.768 256.796 16.808C255.884 17.848 254.5 19.296 252.644 21.152H259.868L259.604 23H250.124V21.248C252.268 19.024 253.788 17.4 254.684 16.376C255.58 15.336 256.22 14.432 256.604 13.664C256.988 12.896 257.18 12.072 257.18 11.192C257.18 10.36 256.94 9.712 256.46 9.248C255.98 8.768 255.34 8.528 254.54 8.528C253.884 8.528 253.308 8.664 252.812 8.936C252.316 9.208 251.788 9.656 251.228 10.28L249.788 9.128C250.443 8.312 251.172 7.704 251.972 7.304C252.772 6.904 253.668 6.704 254.66 6.704ZM270.772 6.944V8.6L264.772 23.24L262.756 22.568L268.54 8.744H261.436V6.944H270.772ZM279.354 10.064C280.97 10.064 282.154 10.64 282.906 11.792C283.658 12.944 284.034 14.568 284.034 16.664C284.034 18.648 283.602 20.248 282.738 21.464C281.874 22.68 280.65 23.288 279.066 23.288C277.658 23.288 276.554 22.808 275.754 21.848V27.848L273.546 28.112V10.352H275.442L275.61 12.056C276.074 11.416 276.634 10.928 277.29 10.592C277.946 10.24 278.634 10.064 279.354 10.064ZM278.538 21.488C280.618 21.488 281.658 19.88 281.658 16.664C281.658 13.432 280.706 11.816 278.802 11.816C278.178 11.816 277.61 12 277.098 12.368C276.586 12.736 276.138 13.208 275.754 13.784V19.952C276.074 20.448 276.474 20.832 276.954 21.104C277.434 21.36 277.962 21.488 278.538 21.488ZM292.433 16.232L296.825 23H294.161L291.065 17.648L287.921 23H285.425L289.841 16.328L285.929 10.352H288.521L291.161 14.984L293.825 10.352H296.321L292.433 16.232ZM320.033 10.352L317.153 23H314.153L311.945 12.344L309.665 23H306.737L303.785 10.352H305.993L308.273 21.464L310.769 10.352H313.241L315.617 21.464L317.921 10.352H320.033ZM324.996 10.352V23H322.788V10.352H324.996ZM323.868 4.28C324.332 4.28 324.708 4.424 324.996 4.712C325.284 5 325.428 5.36 325.428 5.792C325.428 6.224 325.284 6.584 324.996 6.872C324.708 7.144 324.332 7.28 323.868 7.28C323.42 7.28 323.052 7.144 322.764 6.872C322.476 6.584 322.332 6.224 322.332 5.792C322.332 5.36 322.476 5 322.764 4.712C323.052 4.424 323.42 4.28 323.868 4.28ZM339.353 5.264V23H337.409L337.193 21.248C336.777 21.888 336.257 22.392 335.633 22.76C335.009 23.112 334.313 23.288 333.545 23.288C332.041 23.288 330.865 22.696 330.017 21.512C329.185 20.328 328.769 18.736 328.769 16.736C328.769 15.44 328.969 14.288 329.369 13.28C329.769 12.272 330.345 11.488 331.097 10.928C331.849 10.352 332.729 10.064 333.737 10.064C335.033 10.064 336.169 10.584 337.145 11.624V5L339.353 5.264ZM334.025 21.536C334.697 21.536 335.273 21.384 335.753 21.08C336.233 20.76 336.697 20.288 337.145 19.664V13.472C336.729 12.928 336.281 12.52 335.801 12.248C335.337 11.96 334.809 11.816 334.217 11.816C333.241 11.816 332.481 12.224 331.937 13.04C331.409 13.856 331.145 15.072 331.145 16.688C331.145 18.32 331.393 19.536 331.889 20.336C332.385 21.136 333.097 21.536 334.025 21.536ZM353.457 16.304C353.457 16.672 353.441 17.048 353.409 17.432H345.345C345.441 18.824 345.793 19.848 346.401 20.504C347.009 21.16 347.793 21.488 348.753 21.488C349.361 21.488 349.921 21.4 350.433 21.224C350.945 21.048 351.481 20.768 352.041 20.384L353.001 21.704C351.657 22.76 350.185 23.288 348.585 23.288C346.825 23.288 345.449 22.712 344.457 21.56C343.481 20.408 342.993 18.824 342.993 16.808C342.993 15.496 343.201 14.336 343.617 13.328C344.049 12.304 344.657 11.504 345.441 10.928C346.241 10.352 347.177 10.064 348.249 10.064C349.929 10.064 351.217 10.616 352.113 11.72C353.009 12.824 353.457 14.352 353.457 16.304ZM351.273 15.656C351.273 14.408 351.025 13.456 350.529 12.8C350.033 12.144 349.289 11.816 348.297 11.816C346.489 11.816 345.505 13.144 345.345 15.8H351.273V15.656Z" fill="black"/>
<path d="M17.184 81.3906H14.976L14.4 73.9266C14.16 70.9986 14.024 68.7506 13.992 67.1826L10.416 79.5186H8.28L4.512 67.1586C4.512 69.1586 4.408 71.4706 4.2 74.0946L3.648 81.3906H1.488L2.856 64.8546H5.928L9.408 76.8786L12.72 64.8546H15.816L17.184 81.3906ZM23.3597 64.8546V81.3906H21.0797V64.8546H23.3597ZM39.7498 81.3906H36.7018L29.9818 67.3506C30.0778 68.4546 30.1498 69.4786 30.1978 70.4226C30.2618 71.3506 30.2938 72.4786 30.2938 73.8066V81.3906H28.1578V64.8546H31.1338L37.9258 78.9186C37.8778 78.5026 37.8138 77.7746 37.7338 76.7346C37.6538 75.6946 37.6138 74.7426 37.6138 73.8786V64.8546H39.7498V81.3906ZM44.9966 78.3426C45.4766 78.3426 45.8766 78.5026 46.1966 78.8226C46.5166 79.1426 46.6766 79.5346 46.6766 79.9986C46.6766 80.4626 46.5166 80.8626 46.1966 81.1986C45.8766 81.5186 45.4766 81.6786 44.9966 81.6786C44.5326 81.6786 44.1406 81.5186 43.8206 81.1986C43.5006 80.8626 43.3406 80.4626 43.3406 79.9986C43.3406 79.5346 43.5006 79.1426 43.8206 78.8226C44.1406 78.5026 44.5326 78.3426 44.9966 78.3426ZM60.7378 64.5666C61.8418 64.5666 62.7858 64.7266 63.5698 65.0466C64.3538 65.3506 65.1138 65.8306 65.8498 66.4866L64.6018 67.8786C63.9778 67.3826 63.3618 67.0226 62.7538 66.7986C62.1618 66.5586 61.5218 66.4386 60.8338 66.4386C59.9698 66.4386 59.2578 66.6386 58.6978 67.0386C58.1378 67.4386 57.8578 68.0226 57.8578 68.7906C57.8578 69.2706 57.9538 69.6786 58.1458 70.0146C58.3378 70.3346 58.6898 70.6306 59.2018 70.9026C59.7298 71.1746 60.4898 71.4626 61.4818 71.7666C62.5218 72.0866 63.3858 72.4306 64.0738 72.7986C64.7618 73.1666 65.3138 73.6786 65.7298 74.3346C66.1618 74.9746 66.3778 75.7906 66.3778 76.7826C66.3778 77.7426 66.1378 78.5906 65.6578 79.3266C65.1938 80.0626 64.5138 80.6386 63.6178 81.0546C62.7378 81.4706 61.6898 81.6786 60.4738 81.6786C58.1858 81.6786 56.3138 80.9666 54.8578 79.5426L56.1058 78.1506C56.7778 78.6946 57.4578 79.1106 58.1458 79.3986C58.8338 79.6706 59.6018 79.8066 60.4498 79.8066C61.4738 79.8066 62.3218 79.5586 62.9938 79.0626C63.6658 78.5506 64.0018 77.8146 64.0018 76.8546C64.0018 76.3106 63.8978 75.8626 63.6898 75.5106C63.4818 75.1426 63.1218 74.8146 62.6098 74.5266C62.1138 74.2386 61.3858 73.9506 60.4258 73.6626C58.7298 73.1506 57.4898 72.5346 56.7058 71.8146C55.9218 71.0946 55.5298 70.1186 55.5298 68.8866C55.5298 68.0546 55.7458 67.3106 56.1778 66.6546C56.6258 65.9986 57.2418 65.4866 58.0258 65.1186C58.8258 64.7506 59.7298 64.5666 60.7378 64.5666ZM72.0159 64.8546V81.3906H69.7359V64.8546H72.0159ZM85.8621 64.8546V66.7026L77.6781 79.4466H85.8621L85.5981 81.3906H75.1341V79.5666L83.3901 66.7746H75.9981V64.8546H85.8621ZM98.3051 64.8546L98.0411 66.6786H91.6331V72.0786H97.2011V73.9026H91.6331V79.5666H98.4971V81.3906H89.3531V64.8546H98.3051ZM112.724 65.1666C112.052 65.1666 111.572 65.3186 111.284 65.6226C110.996 65.9106 110.852 66.3666 110.852 66.9906V68.7426H113.924L113.684 70.4466H110.852V81.3906H108.644V70.4466H106.388V68.7426H108.644V67.0146C108.644 65.9266 108.988 65.0546 109.676 64.3986C110.38 63.7266 111.356 63.3906 112.604 63.3906C113.18 63.3906 113.692 63.4466 114.14 63.5586C114.604 63.6546 115.1 63.8146 115.628 64.0386L114.932 65.6466C114.212 65.3266 113.476 65.1666 112.724 65.1666ZM120.985 68.4546C122.761 68.4546 124.137 69.0466 125.113 70.2306C126.105 71.4146 126.601 73.0226 126.601 75.0546C126.601 76.3666 126.377 77.5266 125.929 78.5346C125.481 79.5266 124.833 80.3026 123.985 80.8626C123.137 81.4066 122.129 81.6786 120.961 81.6786C119.185 81.6786 117.801 81.0866 116.809 79.9026C115.817 78.7186 115.321 77.1106 115.321 75.0786C115.321 73.7666 115.545 72.6146 115.993 71.6226C116.441 70.6146 117.089 69.8386 117.937 69.2946C118.785 68.7346 119.801 68.4546 120.985 68.4546ZM120.985 70.2306C118.793 70.2306 117.697 71.8466 117.697 75.0786C117.697 78.2946 118.785 79.9026 120.961 79.9026C123.137 79.9026 124.225 78.2866 124.225 75.0546C124.225 71.8386 123.145 70.2306 120.985 70.2306ZM135.745 68.4546C136.193 68.4546 136.609 68.5026 136.993 68.5986L136.585 70.7586C136.201 70.6626 135.833 70.6146 135.481 70.6146C134.697 70.6146 134.065 70.9026 133.585 71.4786C133.105 72.0546 132.729 72.9506 132.457 74.1666V81.3906H130.249V68.7426H132.145L132.361 71.3106C132.697 70.3666 133.153 69.6546 133.729 69.1746C134.305 68.6946 134.977 68.4546 135.745 68.4546ZM150.322 64.8546C152.37 64.8546 153.954 65.2866 155.074 66.1506C156.194 66.9986 156.754 68.2706 156.754 69.9666C156.754 71.7746 156.17 73.1186 155.002 73.9986C153.834 74.8786 152.282 75.3186 150.346 75.3186H148.258V81.3906H145.978V64.8546H150.322ZM150.25 73.5186C151.578 73.5186 152.586 73.2626 153.274 72.7506C153.978 72.2386 154.33 71.3186 154.33 69.9906C154.33 68.8066 153.978 67.9506 153.274 67.4226C152.586 66.8946 151.594 66.6306 150.298 66.6306H148.258V73.5186H150.25ZM164.771 74.3826H162.203V81.3906H159.923V64.8546H164.267C166.331 64.8546 167.891 65.2466 168.947 66.0306C170.019 66.8146 170.555 67.9826 170.555 69.5346C170.555 70.6866 170.259 71.6226 169.667 72.3426C169.075 73.0626 168.179 73.6066 166.979 73.9746L171.443 81.3906H168.731L164.771 74.3826ZM164.507 72.6306C165.707 72.6306 166.611 72.3906 167.219 71.9106C167.827 71.4146 168.131 70.6226 168.131 69.5346C168.131 68.5106 167.819 67.7746 167.195 67.3266C166.587 66.8626 165.603 66.6306 164.243 66.6306H162.203V72.6306H164.507ZM176.735 64.8546V81.3906H174.455V64.8546H176.735ZM193.125 81.3906H190.077L183.357 67.3506C183.453 68.4546 183.525 69.4786 183.573 70.4226C183.637 71.3506 183.669 72.4786 183.669 73.8066V81.3906H181.533V64.8546H184.509L191.301 78.9186C191.253 78.5026 191.189 77.7746 191.109 76.7346C191.029 75.6946 190.989 74.7426 190.989 73.8786V64.8546H193.125V81.3906ZM207.684 64.8546L207.444 66.7986H202.86V81.3906H200.58V66.7986H195.876V64.8546H207.684ZM209.809 78.3426C210.289 78.3426 210.689 78.5026 211.009 78.8226C211.329 79.1426 211.489 79.5346 211.489 79.9986C211.489 80.4626 211.329 80.8626 211.009 81.1986C210.689 81.5186 210.289 81.6786 209.809 81.6786C209.345 81.6786 208.953 81.5186 208.633 81.1986C208.313 80.8626 208.153 80.4626 208.153 79.9986C208.153 79.5346 208.313 79.1426 208.633 78.8226C208.953 78.5026 209.345 78.3426 209.809 78.3426ZM209.809 69.5106C210.289 69.5106 210.689 69.6706 211.009 69.9906C211.329 70.3106 211.489 70.7026 211.489 71.1666C211.489 71.6306 211.329 72.0306 211.009 72.3666C210.689 72.6866 210.289 72.8466 209.809 72.8466C209.345 72.8466 208.953 72.6866 208.633 72.3666C208.313 72.0306 208.153 71.6306 208.153 71.1666C208.153 70.7026 208.313 70.3106 208.633 69.9906C208.953 69.6706 209.345 69.5106 209.809 69.5106ZM226.822 65.3346V81.3906H224.614V67.6866L220.87 69.9666L219.91 68.4066L224.878 65.3346H226.822ZM232.309 78.3426C232.789 78.3426 233.189 78.5026 233.509 78.8226C233.829 79.1426 233.989 79.5346 233.989 79.9986C233.989 80.4626 233.829 80.8626 233.509 81.1986C233.189 81.5186 232.789 81.6786 232.309 81.6786C231.845 81.6786 231.453 81.5186 231.133 81.1986C230.813 80.8626 230.653 80.4626 230.653 79.9986C230.653 79.5346 230.813 79.1426 231.133 78.8226C231.453 78.5026 231.845 78.3426 232.309 78.3426ZM240.83 65.0946C241.822 65.0946 242.67 65.2786 243.374 65.6466C244.094 66.0146 244.638 66.5106 245.006 67.1346C245.39 67.7586 245.582 68.4386 245.582 69.1746C245.582 70.1506 245.294 70.9586 244.718 71.5986C244.158 72.2226 243.406 72.6466 242.462 72.8706C243.534 72.9666 244.406 73.3506 245.078 74.0226C245.75 74.6946 246.086 75.6066 246.086 76.7586C246.086 77.6866 245.862 78.5266 245.414 79.2786C244.966 80.0306 244.326 80.6226 243.494 81.0546C242.662 81.4706 241.702 81.6786 240.614 81.6786C239.638 81.6786 238.742 81.5026 237.926 81.1506C237.11 80.7826 236.398 80.2386 235.79 79.5186L237.11 78.2946C237.638 78.8386 238.174 79.2386 238.718 79.4946C239.278 79.7506 239.886 79.8786 240.542 79.8786C241.55 79.8786 242.342 79.5986 242.918 79.0386C243.494 78.4626 243.782 77.6946 243.782 76.7346C243.782 75.6786 243.51 74.9346 242.966 74.5026C242.422 74.0706 241.63 73.8546 240.59 73.8546H239.39L239.654 72.1506H240.47C241.302 72.1506 241.99 71.9026 242.534 71.4066C243.094 70.9106 243.374 70.2146 243.374 69.3186C243.374 68.5666 243.134 67.9746 242.654 67.5426C242.174 67.0946 241.526 66.8706 240.71 66.8706C240.086 66.8706 239.51 66.9826 238.982 67.2066C238.47 67.4306 237.942 67.7986 237.398 68.3106L236.246 66.9906C237.606 65.7266 239.134 65.0946 240.83 65.0946ZM252.644 65.0946C253.604 65.0946 254.444 65.2866 255.164 65.6706C255.9 66.0546 256.468 66.5826 256.868 67.2546C257.268 67.9106 257.468 68.6546 257.468 69.4866C257.468 70.4626 257.244 71.3986 256.796 72.2946C256.364 73.1906 255.692 74.1586 254.78 75.1986C253.868 76.2386 252.484 77.6866 250.628 79.5426H257.852L257.588 81.3906H248.108V79.6386C250.252 77.4146 251.772 75.7906 252.668 74.7666C253.564 73.7266 254.204 72.8226 254.588 72.0546C254.972 71.2866 255.164 70.4626 255.164 69.5826C255.164 68.7506 254.924 68.1026 254.444 67.6386C253.964 67.1586 253.324 66.9186 252.524 66.9186C251.868 66.9186 251.292 67.0546 250.796 67.3266C250.3 67.5986 249.772 68.0466 249.212 68.6706L247.772 67.5186C248.428 66.7026 249.156 66.0946 249.956 65.6946C250.756 65.2946 251.652 65.0946 252.644 65.0946ZM261.911 63.3186C262.343 63.3186 262.711 63.4706 263.015 63.7746C263.319 64.0626 263.471 64.4146 263.471 64.8306C263.471 65.0226 263.439 65.2226 263.375 65.4306C263.327 65.6226 263.223 65.8866 263.063 66.2226L261.455 69.6306H260.015L260.975 66.0306C260.559 65.7106 260.351 65.3106 260.351 64.8306C260.351 64.4146 260.503 64.0626 260.807 63.7746C261.127 63.4706 261.495 63.3186 261.911 63.3186ZM266.183 63.3186C266.615 63.3186 266.983 63.4706 267.287 63.7746C267.591 64.0626 267.743 64.4146 267.743 64.8306C267.743 65.0226 267.711 65.2226 267.647 65.4306C267.599 65.6226 267.495 65.8866 267.335 66.2226L265.727 69.6306H264.287L265.247 66.0306C264.831 65.7106 264.623 65.3106 264.623 64.8306C264.623 64.4146 264.775 64.0626 265.079 63.7746C265.399 63.4706 265.767 63.3186 266.183 63.3186ZM291.884 68.7426L289.004 81.3906H286.004L283.796 70.7346L281.516 81.3906H278.588L275.636 68.7426H277.844L280.124 79.8546L282.62 68.7426H285.092L287.468 79.8546L289.772 68.7426H291.884ZM296.847 68.7426V81.3906H294.639V68.7426H296.847ZM295.719 62.6706C296.183 62.6706 296.559 62.8146 296.847 63.1026C297.135 63.3906 297.279 63.7506 297.279 64.1826C297.279 64.6146 297.135 64.9746 296.847 65.2626C296.559 65.5346 296.183 65.6706 295.719 65.6706C295.271 65.6706 294.903 65.5346 294.615 65.2626C294.327 64.9746 294.183 64.6146 294.183 64.1826C294.183 63.7506 294.327 63.3906 294.615 63.1026C294.903 62.8146 295.271 62.6706 295.719 62.6706ZM311.205 63.6546V81.3906H309.261L309.045 79.6386C308.629 80.2786 308.109 80.7826 307.485 81.1506C306.861 81.5026 306.165 81.6786 305.397 81.6786C303.893 81.6786 302.717 81.0866 301.869 79.9026C301.037 78.7186 300.621 77.1266 300.621 75.1266C300.621 73.8306 300.821 72.6786 301.221 71.6706C301.621 70.6626 302.197 69.8786 302.949 69.3186C303.701 68.7426 304.581 68.4546 305.589 68.4546C306.885 68.4546 308.021 68.9746 308.997 70.0146V63.3906L311.205 63.6546ZM305.877 79.9266C306.549 79.9266 307.125 79.7746 307.605 79.4706C308.085 79.1506 308.549 78.6786 308.997 78.0546V71.8626C308.581 71.3186 308.133 70.9106 307.653 70.6386C307.189 70.3506 306.661 70.2066 306.069 70.2066C305.093 70.2066 304.333 70.6146 303.789 71.4306C303.261 72.2466 302.997 73.4626 302.997 75.0786C302.997 76.7106 303.245 77.9266 303.741 78.7266C304.237 79.5266 304.949 79.9266 305.877 79.9266ZM325.309 74.6946C325.309 75.0626 325.293 75.4386 325.261 75.8226H317.197C317.293 77.2146 317.645 78.2386 318.253 78.8946C318.861 79.5506 319.645 79.8786 320.605 79.8786C321.213 79.8786 321.773 79.7906 322.285 79.6146C322.797 79.4386 323.333 79.1586 323.893 78.7746L324.853 80.0946C323.509 81.1506 322.037 81.6786 320.437 81.6786C318.677 81.6786 317.301 81.1026 316.309 79.9506C315.333 78.7986 314.845 77.2146 314.845 75.1986C314.845 73.8866 315.053 72.7266 315.469 71.7186C315.901 70.6946 316.509 69.8946 317.293 69.3186C318.093 68.7426 319.029 68.4546 320.101 68.4546C321.781 68.4546 323.069 69.0066 323.965 70.1106C324.861 71.2146 325.309 72.7426 325.309 74.6946ZM323.125 74.0466C323.125 72.7986 322.877 71.8466 322.381 71.1906C321.885 70.5346 321.141 70.2066 320.149 70.2066C318.341 70.2066 317.357 71.5346 317.197 74.1906H323.125V74.0466Z" fill="black"/>
</svg>
