<svg width="639" height="220" viewBox="0 0 639 220" fill="none" xmlns="http://www.w3.org/2000/svg">
<g clip-path="url(#clip0)">
<path d="M10.0544 26.6005C10.0782 27.6539 10.3601 28.6853 10.8753 29.6044C11.4724 30.5996 12.3178 31.4223 13.3286 31.9926C14.5129 32.6693 15.7912 33.1665 17.1216 33.4673C21.6928 34.5739 24.2695 34.8242 27.7893 36.2247C28.7698 36.6236 29.7295 37.0718 30.6647 37.5677C31.6427 38.097 32.5857 38.688 33.4881 39.3378C34.4381 40.0231 35.3283 40.7883 36.149 41.6241C37.0094 42.4974 37.7846 43.4505 38.464 44.471C39.1564 45.513 39.7427 46.6218 40.2141 47.7806C40.6743 48.9144 41.026 50.0892 41.2644 51.2894C41.4878 52.415 41.6193 53.5568 41.6575 54.7037C41.6927 55.7461 41.6584 56.7896 41.5549 57.8275L41.5491 57.8759H51.2761C51.2761 57.8759 34.0207 15.4561 21.1948 15.4561C17.9194 15.4561 14.3547 18.2227 10.8626 22.3448C10.6508 22.8694 10.4778 23.4086 10.3449 23.9585C10.1285 24.8219 10.0308 25.7107 10.0544 26.6005Z" fill="black"/>
<path d="M34.9638 57.0312C35.1239 56.3091 35.2375 55.5777 35.3039 54.8411C35.3685 54.1009 35.3797 53.3568 35.3373 52.615C35.3131 52.3107 35.2947 52.0586 35.2716 51.8811L35.237 51.603L33.0754 51.8417L33.0926 52.0724C33.1053 52.2211 33.1076 52.4362 33.1168 52.6921C33.1206 53.3233 33.079 53.9542 32.9923 54.5794C32.9035 55.2087 32.7746 55.8319 32.6061 56.4447C32.5335 56.696 32.4747 56.9056 32.4263 57.0497C32.3778 57.1938 32.3536 57.2799 32.3536 57.2799L34.3009 57.8704H34.762C34.7712 57.8312 34.7839 57.7861 34.7978 57.7308C34.8404 57.5682 34.8969 57.3239 34.9638 57.0312Z" fill="black"/>
<path d="M11.8621 33.1209C11.7826 33.0448 11.6869 32.9634 11.5924 32.8654C11.1196 32.3976 10.7033 31.8759 10.3518 31.3114C10.0008 30.7444 9.72923 30.1319 9.54483 29.4911C9.47335 29.2271 9.42951 29.0051 9.39723 28.8483L9.35575 28.6001L8.98798 28.6451L9.01795 28.9069C9.04101 29.074 9.07789 29.3116 9.14014 29.5986C9.29952 30.2903 9.55363 30.9565 9.89529 31.5787C10.2402 32.1992 10.6565 32.7773 11.1358 33.301C11.2303 33.4105 11.326 33.5028 11.4067 33.5881C11.4874 33.6734 11.5612 33.7461 11.6235 33.8025L11.816 33.9855L12.2587 33.4806L12.0697 33.3185C12.0143 33.2608 11.9417 33.197 11.8621 33.1209Z" fill="black"/>
<path d="M32.8563 45.5776C32.8286 45.5384 32.7929 45.4807 32.741 45.4115C32.6361 45.272 32.4885 45.0657 32.3052 44.8352C31.8496 44.2716 31.3611 43.7353 30.8422 43.2294C30.7004 43.091 30.554 42.9623 30.4121 42.8309L30.2012 42.6361L29.9891 42.456L29.5855 42.1104C29.4553 42.0055 29.3284 41.9099 29.2143 41.82L28.8996 41.5757C28.8039 41.5054 28.7197 41.4463 28.6517 41.3967L28.4349 41.2402L27.493 42.501L27.6867 42.6552C27.7478 42.7048 27.8251 42.7628 27.9092 42.8331L28.1882 43.074C28.2897 43.1628 28.4027 43.2573 28.5168 43.3599L28.8719 43.6909L29.0587 43.8659L29.242 44.0517C29.3642 44.1785 29.4921 44.3025 29.612 44.4327C30.0539 44.9071 30.467 45.4079 30.8491 45.9316C31.0013 46.1472 31.12 46.3305 31.2076 46.4573C31.2515 46.5195 31.2803 46.5724 31.3022 46.607L31.3345 46.6599L32.899 45.6226L32.8563 45.5776Z" fill="black"/>
<path d="M22.1967 37.904L21.7701 37.7284C21.6202 37.6673 21.4577 37.6135 21.2917 37.5455C20.9573 37.4222 20.5999 37.2804 20.246 37.1605C19.5992 36.9588 18.8429 36.6994 18.6884 36.6556C18.5339 36.6118 18.3967 36.5632 18.2653 36.5228L17.909 36.4074L17.6347 36.3117L17.396 36.229L17.0501 37.1363L17.2934 37.2343L17.5724 37.3496L17.939 37.4875C18.0739 37.5371 18.8118 37.8072 19.3352 38.0009L19.8482 38.2091C20.1941 38.344 20.5284 38.4986 20.8466 38.6358C21.0057 38.7061 21.1602 38.7698 21.3078 38.8378L21.7124 39.0264C21.9626 39.1416 22.1736 39.2408 22.3177 39.3123L22.5483 39.4277L23.0878 38.275L22.8481 38.1692C22.682 38.1 22.4607 38.0124 22.1967 37.904Z" fill="black"/>
<path d="M49.5075 71.5774H46.4085C45.8863 71.5013 45.3583 71.5198 44.8349 71.4772C43.3074 71.3109 41.8027 70.9773 40.3478 70.4832C37.4649 69.5048 34.6336 68.3807 31.8648 67.1151C29.1101 65.8776 26.2301 64.9406 23.2746 64.32C21.5134 63.9703 19.7169 63.8306 17.9229 63.9046C14.4523 64.1021 11.0498 64.9502 7.89271 66.4048C5.36031 67.5687 2.92631 68.9361 0.614514 70.4928C0.434663 70.608 0.268634 70.8231 -0.00344849 70.6802V50.2937C0.354105 49.8142 0.781598 49.3906 1.26474 49.038C4.88682 45.7218 9.41826 43.5648 14.2763 42.8444C15.4113 42.7328 16.5523 42.6948 17.6923 42.7295C18.2826 42.7238 18.2826 42.7292 18.2849 42.1436C18.2849 41.3713 18.2849 41.3462 17.4514 41.3174C15.6046 41.2463 13.7556 41.3765 11.9371 41.7057C7.92195 42.4571 4.08288 43.9532 0.617962 46.1162C0.434652 46.2315 0.264031 46.4432 -0.00228743 46.2991V31.0498C0.102612 30.8297 0.247672 30.6313 0.425438 30.4645C2.48012 28.4603 4.88072 26.8444 7.51111 25.6954C9.46803 24.8126 11.5478 24.2327 13.6791 23.9748C14.2014 23.9183 14.7294 23.9501 15.2493 23.874H18.1857C18.8406 23.9662 19.507 23.9319 20.1595 24.0553C22.887 24.6057 25.4625 25.7414 27.7086 27.3834C29.0198 28.3077 30.2463 29.3464 31.3737 30.4875C33.3123 32.4693 35.0964 34.5965 36.7104 36.8506C38.7072 39.5998 40.5472 42.4549 42.4933 45.2387C43.8282 47.274 45.3802 49.1582 47.1222 50.8582C47.7516 51.4597 48.4617 51.9705 49.232 52.3763C49.9804 52.7744 50.8204 52.9692 51.6676 52.9402C52.5149 52.9113 53.3397 52.6596 54.0592 52.2113C54.6825 51.8241 55.2729 51.3864 55.8242 50.9021C58.7651 48.4363 62.0575 46.4229 65.5927 44.9286C67.6395 44.0276 69.8431 43.5366 72.0789 43.4832C76.1064 43.4863 80.0318 44.7498 83.3046 47.0967C85.9929 49.055 88.2542 51.5405 89.951 54.4008C90.0444 54.5507 90.0663 54.735 90.2046 54.8618V55.8406C90.0721 55.9709 89.9602 55.7956 89.8023 55.8198C89.9014 56.1139 90.0365 56.3941 90.2046 56.6551V57.2314C89.9741 57.3997 89.8173 57.2319 89.6628 57.1166C88.9134 56.5518 88.1559 56.0004 87.3824 55.4725C85.2445 53.9514 82.9404 52.6787 80.5146 51.6789C79.2129 51.1508 77.8086 50.9246 76.4068 51.0164C74.9787 51.2018 73.6627 51.8877 72.6934 52.9526C70.845 54.7761 69.2287 56.821 67.8812 59.0404C66.7803 60.8356 65.5504 62.5482 64.2011 64.1652C62.6767 65.9225 60.8917 67.4357 58.9082 68.6517C56.743 69.9931 54.3468 70.9193 51.8421 71.3826C51.226 71.4735 50.6051 71.5286 49.9825 71.5475C49.8257 71.5521 49.6609 71.4955 49.5075 71.5774Z" fill="black"/>
<path d="M-0.00112776 46.3012C0.596071 45.9554 1.18864 45.5993 1.79045 45.2639C3.24745 44.445 4.76304 43.7351 6.32479 43.1397C9.82666 41.7435 13.5767 41.0765 17.3453 41.1799C18.4002 41.2202 18.4002 41.2179 18.4002 42.26C18.3944 42.3413 18.3944 42.4229 18.4002 42.5042C18.4463 42.8305 18.3149 42.9275 17.9875 42.9022C15.7743 42.7364 13.5493 42.9647 11.416 43.5765C7.92794 44.5643 4.69476 46.2944 1.93801 48.6483C1.3777 49.1209 0.845088 49.6246 0.300923 50.1157C0.210997 50.1964 0.136058 50.3003 -0.00228882 50.3003L-0.00112776 46.3012Z" fill="#FEFEFE"/>
<path d="M90.207 56.6579C89.9272 56.4752 89.7254 56.1948 89.6409 55.8716C89.6174 55.8214 89.6127 55.7645 89.6277 55.7111C89.6427 55.6578 89.6765 55.6116 89.7228 55.5811C89.8496 55.5143 89.9199 55.6054 89.9833 55.6965C90.0467 55.7876 90.0894 55.8585 90.207 55.8378V56.6579Z" fill="#EDEDEE"/>
<path d="M29.1117 47.5285C27.1071 45.9632 24.8653 44.7283 22.471 43.87C22.398 43.8544 22.3336 43.8118 22.2908 43.7507C22.2481 43.6895 22.2301 43.6141 22.2405 43.5401C22.2485 43.1194 22.252 42.698 22.2405 42.2726C22.2324 42.0063 22.3154 41.9426 22.5771 42.021C24.6669 42.6289 26.6678 43.5086 28.5283 44.6377C29.536 45.2519 30.4963 45.9406 31.4013 46.6977C32.5081 47.6199 33.5768 48.5902 34.6363 49.5688C34.7317 49.6519 34.8063 49.7562 34.854 49.8733C34.9016 49.9905 34.9211 50.1171 34.9107 50.2431C34.8923 50.8783 34.9108 51.5115 34.9038 52.1501C34.9038 52.3679 34.8669 52.5524 34.5753 52.4152C33.812 51.7236 33.0696 51.011 32.3167 50.3079C31.2995 49.3242 30.2296 48.3962 29.1117 47.5285Z" fill="#FEFEFE"/>
<path d="M37.6892 53.8254C37.6892 53.4992 37.6892 53.1728 37.6892 52.8478C37.6892 52.7486 37.6201 52.6092 37.7549 52.5596C37.8702 52.5169 37.959 52.6312 38.0316 52.698C38.3913 53.0277 38.7384 53.3712 39.0923 53.7067C40.8864 55.4789 42.786 57.1409 44.7807 58.684C45.4347 59.1876 46.1287 59.6372 46.8559 60.0281C46.9845 60.0813 47.0922 60.175 47.1622 60.2954C47.2322 60.4158 47.2606 60.5563 47.2432 60.6945C47.2282 61.6535 47.3136 61.6324 46.4293 61.2151C44.0577 60.0123 41.8338 58.538 39.8025 56.8221C39.2099 56.3483 38.6403 55.8461 38.0362 55.3885C37.9068 55.3054 37.8041 55.1864 37.7407 55.0463C37.6773 54.9061 37.6558 54.7509 37.6788 54.5988C37.7042 54.3429 37.6788 54.0836 37.6788 53.8254H37.6892Z" fill="#FDFDFD"/>
<path d="M51.215 62.4339C50.6908 62.4184 50.1682 62.3689 49.6505 62.2853C49.3623 62.2415 49.1986 62.1398 49.2493 61.8182C49.2654 61.6965 49.2654 61.5734 49.2493 61.4518C49.217 61.1624 49.3519 61.089 49.609 61.1512C52.5189 61.8578 54.8742 60.7762 56.9644 58.8593C57.2838 58.5665 57.579 58.2462 57.8868 57.9373C57.9536 57.8705 58.0078 57.7733 58.1173 57.8332C58.2026 57.8781 58.1854 57.9721 58.1854 58.0505C58.1854 58.4043 58.1762 58.757 58.1854 59.1097C58.1877 59.177 58.1748 59.2434 58.1479 59.305C58.121 59.3667 58.0806 59.4215 58.0297 59.4655C57.1477 60.3877 56.0909 61.1251 54.9208 61.6347C53.7508 62.1443 52.491 62.4161 51.215 62.4339Z" fill="#FDFDFD"/>
<path d="M59.6426 56.7789C59.5273 56.3685 59.7671 56.0305 60.128 55.6858C61.0111 54.8432 61.8654 53.9726 62.7692 53.1496C62.85 53.077 62.933 53.0082 63.0171 52.9402C63.1797 52.8077 63.2823 52.8066 63.2777 53.0556C63.2777 53.3945 63.2604 53.7343 63.2777 54.0732C63.2892 54.2899 63.1428 54.388 63.0183 54.5033C61.983 55.4623 60.9761 56.4496 59.9977 57.4655C59.9274 57.5382 59.8824 57.6776 59.7475 57.6372C59.585 57.5876 59.6495 57.4367 59.6449 57.3237C59.638 57.1819 59.6426 57.0325 59.6426 56.7789Z" fill="#FBFCFC"/>
<path d="M64.3303 52.3478C64.1793 51.9133 64.4733 51.6205 64.8376 51.3403C65.7714 50.621 66.7052 49.902 67.6979 49.2657C67.8224 49.185 67.955 49.0486 68.0968 49.112C68.2651 49.1858 68.1487 49.3762 68.1694 49.5133C68.2266 49.7743 68.1935 50.0469 68.0756 50.2867C67.9577 50.5264 67.762 50.7191 67.5203 50.8332C66.5921 51.4437 65.7108 52.1229 64.8837 52.8645C64.7419 52.9798 64.5943 53.21 64.4225 53.142C64.2127 53.0625 64.3706 52.8045 64.3337 52.6293C64.3257 52.5357 64.3246 52.4416 64.3303 52.3478Z" fill="#EDEDED"/>
<path d="M69.1793 48.9066C69.0548 48.5077 69.3073 48.2944 69.6981 48.1158C70.5924 47.69 71.5173 47.3314 72.4651 47.0435C72.7533 46.9628 72.8398 47.0301 72.857 47.339C72.8801 47.7644 72.7982 48.0098 72.329 48.1585C71.3927 48.4868 70.4932 48.9113 69.6451 49.4261C69.5217 49.4964 69.4145 49.6684 69.2543 49.5854C69.094 49.5024 69.1989 49.3145 69.177 49.1739C69.1722 49.0848 69.173 48.9956 69.1793 48.9066Z" fill="#FBFBFC"/>
<path d="M75.3853 46.6323C76.1433 46.634 76.8997 46.7044 77.645 46.8423C77.9851 46.9022 77.9655 47.1234 77.9367 47.3517C77.8998 47.6525 77.6761 47.511 77.5286 47.4845C76.4422 47.3012 75.3305 47.3306 74.2555 47.5717C74.0976 47.6052 73.8301 47.7596 73.8405 47.4265C73.8474 47.1821 73.6099 46.7797 74.1241 46.7348C74.6383 46.6898 75.1236 46.6519 75.3853 46.6323Z" fill="#FCFCFC"/>
<path d="M81.8969 49.0128C81.9061 48.9056 81.8254 48.7579 81.9453 48.6807C82.0883 48.5873 82.1978 48.7223 82.3073 48.7961C82.8457 49.1327 83.3657 49.5004 83.9214 49.8047C84.3007 50.0122 84.2419 50.3236 84.2384 50.6406C84.2384 50.795 84.1231 50.7811 84.0413 50.7385C83.8978 50.6646 83.7588 50.5824 83.6251 50.492C83.1397 50.1738 82.6613 49.8428 82.1667 49.5374C81.9695 49.4071 81.8162 49.2825 81.8969 49.0128Z" fill="#EFEFEF"/>
<path d="M81.121 48.4869C81.1786 48.8247 81.0472 48.8734 80.7659 48.7396C80.1895 48.4665 79.6211 48.1899 79.0366 47.9443C78.7241 47.8129 78.7852 47.5616 78.8417 47.368C78.9063 47.1513 79.1219 47.271 79.2568 47.3263C79.7929 47.5476 80.3209 47.7875 80.857 48.0181C80.9055 48.031 80.9509 48.0532 80.9906 48.0839C81.0302 48.1147 81.0633 48.1533 81.088 48.1971C81.1126 48.2408 81.1282 48.289 81.1338 48.3389C81.1395 48.3887 81.1351 48.4388 81.121 48.4869Z" fill="#F3F3F3"/>
<path d="M84.9382 51.0869C84.9555 50.9786 84.8633 50.8217 84.989 50.756C85.1146 50.6903 85.2437 50.7838 85.3498 50.8714C85.6472 51.1261 85.9482 51.3781 86.2444 51.634C86.3055 51.6871 86.392 51.7496 86.4035 51.813C86.4393 52.0343 86.5396 52.3202 86.362 52.462C86.1845 52.6038 86.0404 52.3465 85.9009 52.2312C85.6703 52.0468 85.4547 51.8345 85.2091 51.6605C85.0085 51.5198 84.8691 51.3601 84.9382 51.0869Z" fill="#F7F7F8"/>
<path d="M34.5787 52.4201C34.7747 52.4201 34.8093 52.3049 34.8093 52.1263C34.8001 51.4473 34.7943 50.7682 34.8093 50.0904C34.8074 49.9824 34.7796 49.8765 34.7283 49.7814C34.6769 49.6864 34.6035 49.6047 34.5142 49.5439C33.5634 48.6986 32.6127 47.8509 31.6619 47.0009C31.5639 46.9122 31.4313 46.8513 31.4013 46.7026C31.8712 46.9888 32.3024 47.3341 32.6845 47.7298C33.3762 48.3304 34.0449 48.9668 34.7332 49.5743C34.8159 49.6409 34.8811 49.7263 34.9233 49.8236C34.9654 49.921 34.9833 50.0274 34.9753 50.1332C34.9615 50.8502 34.9753 51.568 34.9753 52.285C34.9753 52.4003 35.0353 52.5491 34.86 52.5906C34.7251 52.6275 34.6364 52.5411 34.5787 52.4201Z" fill="#B0B1B3"/>
<path d="M87.1368 53.0463C87.1564 52.9368 87.0699 52.7676 87.2048 52.7227C87.3397 52.6777 87.4492 52.7882 87.5438 52.8989C87.7467 53.1352 87.9611 53.3601 88.1732 53.5906C88.2212 53.6288 88.259 53.6784 88.2834 53.7347C88.3077 53.791 88.3178 53.852 88.3127 53.9131C88.2851 54.0653 88.3231 54.274 88.1548 54.3409C87.9865 54.4077 87.9519 54.1966 87.8596 54.1101C87.6833 53.943 87.5299 53.751 87.3524 53.585C87.2695 53.5245 87.2054 53.4415 87.1673 53.3463C87.1292 53.2511 87.1186 53.1472 87.1368 53.0463Z" fill="#FBFCFC"/>
<path d="M29.1117 47.5288C29.6691 47.8285 30.1751 48.2154 30.6105 48.6748C31.9202 49.8448 33.1941 51.0564 34.4796 52.2483C34.5212 52.2991 34.5557 52.3554 34.5822 52.4155C34.0255 52.0173 33.5093 51.5657 33.0407 51.0669C31.7726 49.8911 30.5332 48.6867 29.1636 47.6273C29.1348 47.6123 29.1278 47.5645 29.1117 47.5288Z" fill="#B0B1B3"/>
<path d="M89.3146 54.9926C89.3007 55.1886 89.3411 55.3387 89.1993 55.3917C89.0149 55.4574 88.9906 55.267 88.9272 55.1609C88.8038 54.9603 88.6136 54.7875 88.6575 54.512C88.684 54.3448 88.7727 54.2194 88.9099 54.3589C89.1059 54.5514 89.348 54.7471 89.3146 54.9926Z" fill="#F4F5F5"/>
<path d="M188.168 47.2348C188.917 47.6333 189.757 47.8277 190.604 47.7988C191.451 47.7698 192.276 47.5185 192.995 47.0699C193.619 46.6826 194.209 46.2449 194.76 45.7607C197.701 43.2947 200.994 41.2812 204.529 39.7871C206.576 38.8866 208.779 38.3957 211.014 38.3417C215.042 38.3449 218.968 39.6083 222.241 41.9552C224.929 43.9138 227.19 46.3987 228.887 49.2588C228.981 49.4086 229.003 49.5935 229.14 49.7203V50.6986C229.008 50.8288 228.896 50.6541 228.739 50.6783C228.838 50.9725 228.973 51.253 229.14 51.5147V52.0911C228.909 52.2605 228.753 52.0915 228.598 51.9762C227.85 51.4126 227.092 50.8601 226.317 50.3321C224.18 48.8111 221.876 47.5383 219.451 46.5385C218.149 46.0103 216.744 45.7844 215.342 45.8772C213.914 46.0616 212.598 46.7477 211.63 47.8134C209.781 49.6365 208.164 51.6814 206.817 53.9012C205.716 55.6956 204.486 57.4078 203.137 59.0248C201.613 60.782 199.828 62.2951 197.844 63.5113C195.679 64.8527 193.283 65.779 190.778 66.2423C190.162 66.3343 189.541 66.3894 188.919 66.4072C188.76 66.4176 188.594 66.3607 188.441 66.4471H185.341C184.82 66.3699 184.292 66.3885 183.768 66.3458C182.241 66.1797 180.736 65.8467 179.282 65.3524C176.399 64.3744 173.567 63.2498 170.799 61.9837C168.044 60.7467 165.164 59.8098 162.209 59.1886C160.447 58.8387 158.651 58.6996 156.857 58.7738C153.386 58.972 149.984 59.8201 146.827 61.274C144.294 62.4381 141.86 63.805 139.547 65.3614C139.367 65.4767 139.201 65.6923 138.93 65.5494V45.1635C139.288 44.6836 139.716 44.2603 140.199 43.9072C143.82 40.5907 148.352 38.434 153.21 37.7147C154.345 37.6029 155.486 37.5643 156.626 37.5993C157.215 37.5993 157.215 37.5995 157.219 37.014C157.219 36.2416 157.213 36.2159 156.384 36.1871C154.538 36.1159 152.689 36.2465 150.871 36.5766C146.856 37.327 143.016 38.8231 139.552 40.9871C139.369 41.1024 139.198 41.3136 138.932 41.1695V25.9202C139.035 25.6965 142.883 27.0724 143.061 26.8995" fill="black"/>
<path d="M138.934 41.1576C139.531 40.8118 140.124 40.4557 140.726 40.1203C142.182 39.3013 143.698 38.5918 145.26 37.9972C148.761 36.6005 152.511 35.9335 156.279 36.0374C157.335 36.0777 157.335 36.0766 157.335 37.1175C157.33 37.1988 157.33 37.2804 157.335 37.3618C157.381 37.688 157.251 37.7862 156.924 37.7608C154.711 37.5944 152.485 37.8227 150.352 38.4351C146.864 39.4223 143.631 41.1525 140.875 43.507C140.315 43.9784 139.783 44.4833 139.238 44.9732C139.148 45.055 139.073 45.1578 138.935 45.1589L138.934 41.1576Z" fill="#FEFEFE"/>
<path d="M229.14 51.5197C228.861 51.3359 228.659 51.056 228.574 50.7334C228.55 50.6829 228.545 50.6254 228.561 50.5718C228.576 50.5182 228.61 50.4722 228.657 50.4418C228.782 50.375 228.854 50.4673 228.917 50.5572C228.97 50.6356 229.022 50.7192 229.14 50.6973V51.5197Z" fill="#EDEDEE"/>
<path d="M168.045 42.3849C166.041 40.8192 163.799 39.5842 161.405 38.7263C161.332 38.711 161.267 38.6683 161.225 38.607C161.182 38.5458 161.164 38.4705 161.174 38.3965C161.182 37.9758 161.186 37.5549 161.174 37.1284C161.167 36.8633 161.251 36.8001 161.512 36.8774C163.602 37.4856 165.603 38.3658 167.463 39.4952C168.471 40.109 169.431 40.7973 170.335 41.5541C171.442 42.4763 172.512 43.4465 173.572 44.4252C173.667 44.5084 173.741 44.6126 173.788 44.7297C173.836 44.8468 173.855 44.9736 173.845 45.0995C173.826 45.7347 173.845 46.3678 173.838 47.0076C173.838 47.2243 173.802 47.4087 173.51 47.2715C172.747 46.5799 172.005 45.8674 171.252 45.1654C170.234 44.1815 169.163 43.2533 168.045 42.3849Z" fill="#FEFEFE"/>
<path d="M176.622 48.6799C176.622 48.3537 176.622 48.029 176.622 47.7028C176.622 47.6036 176.553 47.4642 176.688 47.4146C176.803 47.3719 176.891 47.4856 176.965 47.5525C177.324 47.8822 177.671 48.2257 178.025 48.5611C179.819 50.3332 181.718 51.9962 183.712 53.5401C184.367 54.0431 185.061 54.4923 185.788 54.8831C185.917 54.9358 186.025 55.0294 186.095 55.1499C186.165 55.2704 186.193 55.4107 186.175 55.5489C186.161 56.508 186.245 56.4886 185.368 56.0701C182.996 54.8675 180.772 53.3933 178.741 51.6771C178.149 51.2045 177.579 50.7006 176.974 50.2429C176.844 50.1599 176.742 50.0414 176.678 49.9013C176.615 49.7611 176.594 49.6058 176.617 49.4538C176.643 49.1991 176.617 48.9381 176.617 48.6799H176.622Z" fill="#FDFDFD"/>
<path d="M190.148 57.2904C189.624 57.2747 189.102 57.2255 188.585 57.1429C188.296 57.098 188.131 56.9962 188.182 56.6746C188.198 56.5529 188.198 56.4299 188.182 56.3082C188.15 56.0189 188.284 55.9448 188.542 56.0071C191.452 56.7137 193.806 55.6338 195.896 53.7157C196.217 53.4229 196.512 53.1027 196.818 52.7938C196.884 52.7269 196.934 52.6297 197.049 52.6896C197.135 52.7346 197.118 52.8279 197.117 52.9075C197.117 53.2602 197.109 53.6129 197.117 53.9656C197.119 54.033 197.106 54.1004 197.079 54.1621C197.052 54.2237 197.011 54.2781 196.96 54.3219C196.079 55.244 195.022 55.9815 193.853 56.4911C192.683 57.0008 191.424 57.2725 190.148 57.2904Z" fill="#FDFDFD"/>
<path d="M198.577 51.6345C198.461 51.2241 198.7 50.8866 199.062 50.542C199.944 49.7005 200.798 48.8288 201.703 48.0058C201.783 47.9343 201.866 47.8644 201.95 47.7964C202.114 47.6638 202.216 47.6622 202.212 47.9112C202.206 48.2501 202.194 48.5905 202.212 48.9294C202.223 49.1461 202.077 49.2442 201.951 49.3594C200.916 50.3185 199.909 51.3058 198.932 52.3217C198.861 52.3955 198.816 52.5337 198.681 52.4934C198.519 52.4438 198.582 52.294 198.578 52.1799C198.572 52.0381 198.577 51.8881 198.577 51.6345Z" fill="#FBFCFC"/>
<path d="M203.264 47.2038C203.114 46.7692 203.407 46.4764 203.773 46.1963C204.707 45.477 205.64 44.7591 206.633 44.1216C206.758 44.0409 206.89 43.9046 207.032 43.968C207.199 44.0417 207.083 44.2321 207.105 44.3693C207.161 44.6302 207.128 44.9029 207.01 45.1426C206.893 45.3823 206.697 45.5749 206.455 45.6892C205.527 46.2997 204.646 46.9783 203.819 47.7199C203.677 47.8352 203.529 48.066 203.358 47.998C203.148 47.9196 203.305 47.6604 203.269 47.4852C203.26 47.3918 203.258 47.2975 203.264 47.2038Z" fill="#EDEDED"/>
<path d="M208.113 43.7629C207.989 43.3641 208.24 43.1508 208.632 42.9733C209.526 42.5466 210.451 42.1877 211.399 41.8999C211.687 41.8192 211.774 41.8871 211.791 42.1948C211.814 42.6213 211.732 42.8656 211.263 43.0143C210.327 43.3436 209.428 43.7686 208.579 44.2824C208.455 44.3528 208.348 44.5247 208.187 44.4417C208.026 44.3587 208.132 44.1709 208.111 44.0303C208.106 43.9412 208.107 43.8519 208.113 43.7629Z" fill="#FBFBFC"/>
<path d="M214.322 41.4907C215.08 41.4925 215.836 41.5628 216.581 41.7007C216.927 41.7606 216.901 41.9818 216.873 42.21C216.836 42.5121 216.611 42.3694 216.465 42.344C215.378 42.1604 214.267 42.1894 213.192 42.4301C213.033 42.4635 212.766 42.6192 212.777 42.2849C212.784 42.0405 212.546 41.6381 213.059 41.5932C213.572 41.5482 214.058 41.5092 214.322 41.4907Z" fill="#FCFCFC"/>
<path d="M220.83 43.8699C220.84 43.7615 220.759 43.6139 220.879 43.5367C221.022 43.4444 221.132 43.5783 221.241 43.652C221.779 43.9886 222.3 44.3575 222.855 44.6618C223.235 44.8693 223.177 45.1795 223.174 45.4976C223.174 45.651 223.058 45.6371 222.976 45.5944C222.833 45.5208 222.694 45.4385 222.56 45.3479C222.074 45.0309 221.595 44.6999 221.102 44.3944C220.893 44.2573 220.75 44.1419 220.83 43.8699Z" fill="#EFEFEF"/>
<path d="M220.055 43.3445C220.111 43.6811 219.981 43.731 219.7 43.5961C219.123 43.3229 218.554 43.0463 217.971 42.8008C217.658 42.6694 217.718 42.4181 217.776 42.2244C217.839 42.0077 218.055 42.1274 218.19 42.1828C218.727 42.4052 219.254 42.644 219.79 42.8745C219.838 42.8874 219.884 42.9096 219.924 42.9404C219.964 42.9712 219.997 43.0097 220.022 43.0535C220.046 43.0973 220.062 43.1459 220.068 43.1959C220.073 43.2459 220.069 43.2962 220.055 43.3445Z" fill="#F3F3F3"/>
<path d="M223.872 45.9427C223.888 45.8344 223.797 45.6792 223.923 45.6123C224.049 45.5455 224.177 45.6407 224.284 45.7272C224.58 45.9831 224.881 46.2345 225.178 46.4904C225.24 46.5434 225.326 46.606 225.336 46.6694C225.373 46.8907 225.472 47.1766 225.296 47.3183C225.12 47.4601 224.973 47.2028 224.835 47.0876C224.604 46.9031 224.389 46.692 224.149 46.518C224.045 46.4671 223.961 46.3831 223.911 46.2788C223.861 46.1744 223.847 46.0558 223.872 45.9427Z" fill="#F7F7F8"/>
<path d="M173.509 47.2765C173.705 47.2765 173.74 47.1614 173.74 46.9827C173.732 46.3038 173.726 45.6247 173.74 44.9469C173.738 44.8389 173.71 44.7329 173.658 44.6379C173.607 44.5428 173.534 44.4613 173.445 44.4004C172.493 43.555 171.542 42.7073 170.592 41.8574C170.493 41.7698 170.362 41.7089 170.331 41.5591C170.801 41.8456 171.233 42.1913 171.615 42.5874C172.307 43.188 172.975 43.8227 173.664 44.4313C173.746 44.4982 173.811 44.5845 173.853 44.6818C173.895 44.7791 173.913 44.885 173.906 44.9908C173.891 45.7078 173.906 46.4256 173.9 47.1437C173.9 47.259 173.961 47.4067 173.791 47.4493C173.658 47.4851 173.569 47.3976 173.509 47.2765Z" fill="#B0B1B3"/>
<path d="M226.07 47.9023C226.09 47.787 226.003 47.6236 226.138 47.5798C226.272 47.536 226.383 47.6442 226.478 47.7548C226.679 47.9912 226.894 48.216 227.107 48.4466C227.155 48.4849 227.193 48.5338 227.217 48.5901C227.241 48.6464 227.252 48.708 227.247 48.7691C227.218 48.9201 227.257 49.1289 227.088 49.1957C226.918 49.2626 226.886 49.0514 226.794 48.965C226.616 48.7978 226.464 48.6053 226.286 48.4393C226.204 48.379 226.139 48.2967 226.101 48.2017C226.063 48.1068 226.052 48.0032 226.07 47.9023Z" fill="#FBFCFC"/>
<path d="M168.045 42.3853C168.603 42.6869 169.109 43.076 169.543 43.538C170.853 44.708 172.126 45.9184 173.411 47.1115C173.453 47.1625 173.488 47.2187 173.515 47.2787C172.958 46.8809 172.442 46.4292 171.974 45.9301C170.705 44.7543 169.466 43.551 168.096 42.4905C168.068 42.4686 168.062 42.421 168.045 42.3853Z" fill="#B0B1B3"/>
<path d="M228.249 49.8495C228.234 50.0455 228.275 50.1955 228.133 50.2486C227.949 50.3143 227.925 50.125 227.861 50.0178C227.738 49.8161 227.548 49.6432 227.591 49.3677C227.617 49.2017 227.707 49.0751 227.844 49.2146C228.041 49.4083 228.277 49.6005 228.249 49.8495Z" fill="#F4F5F5"/>
<path d="M438.48 25.0939L436.025 29.3592L432.139 28.9612L430.186 29.0181L428.988 31.0995L430.431 31.9297L433.642 33.5018L431.697 36.8806L428.724 34.8954L419.344 29.5021L416.231 27.9898L419.326 22.61C419.688 21.8415 420.201 21.1537 420.835 20.5877C421.469 20.0217 422.21 19.5892 423.015 19.3157C423.852 19.1587 424.712 19.1682 425.545 19.3438C426.378 19.5194 427.168 19.8574 427.871 20.3389C428.898 20.8961 429.762 21.7102 430.381 22.7012C430.932 23.6017 431.21 24.6424 431.181 25.6978L434.063 25.5999L438.48 25.0939ZM426.144 29.4661L426.915 28.1265C427.491 27.3106 427.786 26.3296 427.754 25.3314C427.638 24.9122 427.429 24.5242 427.143 24.1961C426.857 23.868 426.502 23.6081 426.102 23.4352C425.574 23.0944 424.974 22.8806 424.349 22.8104C424.104 22.8024 423.859 22.8436 423.63 22.9309C423.401 23.0181 423.191 23.1497 423.014 23.3187C422.488 23.8323 422.046 24.4245 421.703 25.0742L420.908 26.4577L426.144 29.4661Z" fill="black"/>
<path d="M438.241 22.785C436.276 22.4566 434.471 21.4957 433.101 20.0485C431.547 18.8128 430.443 17.1002 429.959 15.1747C429.922 13.4336 430.559 11.7454 431.738 10.4631C432.916 9.18085 434.545 8.40408 436.283 8.29443C438.243 8.61366 440.043 9.56963 441.405 11.0147C442.963 12.2567 444.073 13.974 444.566 15.9047C444.619 17.6504 443.987 19.3474 442.805 20.6333C441.623 21.9191 439.985 22.6913 438.241 22.785ZM441.259 16.919C441.319 16.4069 441.179 15.8915 440.87 15.4792C439.805 14.0922 438.507 12.9001 437.035 11.9563C436.598 11.6819 436.073 11.5866 435.568 11.6901C435.03 11.9159 434.548 12.2547 434.154 12.6835C433.76 13.1124 433.462 13.6216 433.282 14.1757C433.223 14.6878 433.362 15.2028 433.672 15.6149C434.736 17.0031 436.034 18.1957 437.507 19.1389C437.944 19.4127 438.469 19.508 438.974 19.4051C439.512 19.1793 439.994 18.8402 440.388 18.4111C440.782 17.982 441.08 17.4733 441.259 16.919Z" fill="black"/>
<path d="M446.38 8.05347C446.816 7.34174 447.427 6.75282 448.155 6.34353C448.872 5.93513 449.687 5.73167 450.511 5.75479C451.681 5.72145 452.842 5.96731 453.897 6.47186L453.925 5.21164C453.941 4.93568 453.886 4.66029 453.764 4.41182C453.643 4.16336 453.46 3.95018 453.233 3.79269C452.63 3.41256 451.925 3.22334 451.212 3.24897C450.363 3.21425 449.514 3.34877 448.717 3.64522C448.032 3.89686 447.443 4.3579 447.034 4.96286L446.774 4.90995L447.281 1.40113C447.879 0.912112 448.571 0.550678 449.315 0.340158C450.107 0.0988845 450.932 -0.0150809 451.76 0.00244729C453.224 -0.0419675 454.658 0.418757 455.823 1.30657C456.311 1.70955 456.697 2.22264 456.949 2.80376C457.201 3.38488 457.311 4.01735 457.271 4.64935L457.124 11.1863L457.283 14.7334L453.788 14.6563L453.746 13.3465C453.371 13.8847 452.844 14.2994 452.233 14.5375C451.527 14.8368 450.765 14.9782 449.999 14.9523C449.411 14.9685 448.826 14.8675 448.277 14.6552C447.729 14.4428 447.228 14.123 446.804 13.7152C446.403 13.2871 446.096 12.7806 445.901 12.2276C445.707 11.6746 445.629 11.0875 445.674 10.503C445.682 9.63735 445.926 8.79032 446.38 8.05347ZM449.493 11.6186C449.652 11.7765 449.843 11.8995 450.052 11.9799C450.261 12.0603 450.485 12.0965 450.708 12.0857C451.285 12.1 451.858 11.9951 452.392 11.7779C452.925 11.5619 453.406 11.2362 453.805 10.8221L453.841 9.20844C452.914 8.74873 451.894 8.50602 450.859 8.49925C450.622 8.47386 450.382 8.50078 450.157 8.57805C449.931 8.65532 449.725 8.78128 449.553 8.94672C449.237 9.34888 449.077 9.85241 449.105 10.3634C449.065 10.8158 449.203 11.2658 449.489 11.6186H449.493Z" fill="black"/>
<path d="M467.007 19.8559L464.768 22.6122L462.207 20.2319L463.031 19.243C462.46 19.3466 461.872 19.298 461.325 19.1022C460.76 18.9328 460.238 18.6414 459.797 18.249C459.225 17.7655 458.785 17.1451 458.519 16.4456C458.252 15.746 458.168 14.9905 458.273 14.2493C458.659 12.3711 459.613 10.6565 461.006 9.33846C462.228 7.81912 463.869 6.69199 465.726 6.09699C466.43 5.94193 467.162 5.9704 467.852 6.17973C468.541 6.38907 469.165 6.77237 469.664 7.29249C470.119 7.70964 470.521 8.18093 470.86 8.69624C471.154 9.13183 471.376 9.61263 471.517 10.1191L472.764 8.77842L474.939 6.09249L477.725 8.68273L475.203 11.0456L467.007 19.8559ZM469.622 12.1555C469.233 11.4676 468.725 10.854 468.123 10.3426C467.758 9.95946 467.294 9.68527 466.782 9.55065C466.298 9.49512 465.81 9.63048 465.424 9.92776C464.722 10.4348 464.08 11.0192 463.51 11.6703C462.918 12.2743 462.392 12.9395 461.941 13.6544C461.668 14.0582 461.543 14.5439 461.587 15.0294C461.695 15.4984 461.956 15.9183 462.328 16.2227C462.682 16.5448 463.077 16.8192 463.502 17.0388C463.867 17.2473 464.265 17.392 464.679 17.4666L469.622 12.1555Z" fill="black"/>
<path d="M467.392 22.5679L481.24 21.5132L478.347 17.594L476.848 16.0411L476.75 15.7878L479.888 14.1533L486.706 23.3953L484.562 24.5346L470.321 25.6997L475.22 32.3396L472.268 33.8672L465.153 24.2222L467.392 22.5679Z" fill="black"/>
<path d="M441.441 26.0448C441.466 27.096 441.748 28.1252 442.262 29.042C442.859 30.0372 443.704 30.8603 444.715 31.4313C445.899 32.1076 447.178 32.6039 448.509 32.9043C453.08 34.0121 455.657 34.2612 459.175 35.6617C460.156 36.0612 461.115 36.5098 462.051 37.0058C463.028 37.5349 463.972 38.1261 464.874 38.7754C465.824 39.4616 466.715 40.2265 467.536 41.0623C468.396 41.9359 469.171 42.8891 469.851 43.9086C470.543 44.9505 471.129 46.0587 471.6 47.2176C472.06 48.3516 472.412 49.5269 472.652 50.727C472.875 51.8526 473.007 52.9944 473.045 54.1413C473.079 55.1841 473.045 56.228 472.941 57.2662V57.3135H482.668C482.668 57.3135 465.413 14.8931 452.587 14.8931C449.31 14.8931 445.745 17.6597 442.253 21.7818C442.042 22.3067 441.869 22.8459 441.735 23.3955C441.517 24.261 441.418 25.1526 441.441 26.0448Z" fill="black"/>
<path d="M466.353 56.4768C466.512 55.7546 466.625 55.0232 466.692 54.2868C466.757 53.5466 466.768 52.8025 466.726 52.0607C466.701 51.7564 466.684 51.5042 466.661 51.3279C466.638 51.1515 466.626 51.0498 466.626 51.0498L464.464 51.2873L464.482 51.5181C464.495 51.6668 464.497 51.8819 464.505 52.1389C464.51 52.7697 464.469 53.4003 464.382 54.025C464.293 54.6544 464.163 55.2775 463.994 55.8903C463.922 56.1416 463.863 56.3513 463.815 56.4965L463.742 56.7267L465.69 57.316H466.151L466.188 57.1776C466.229 57.0116 466.285 56.7673 466.353 56.4768Z" fill="black"/>
<path d="M456.456 55.7988C456.898 55.2449 457.297 54.6568 457.647 54.0399C458.006 53.4121 458.287 52.7417 458.482 52.0451C458.689 51.2908 458.728 50.5007 458.598 49.7295C458.392 48.673 457.966 47.6719 457.347 46.7915C456.969 46.2383 456.554 45.7112 456.105 45.2143C455.605 44.6747 455.076 44.1617 454.522 43.6778C453.318 42.6459 452.034 41.7107 450.683 40.8804C449.906 40.402 448.147 39.4495 447.931 39.3331L447.304 38.9875L446.686 38.6245L446.08 38.2474C445.282 37.7388 444.518 37.1803 443.791 36.5757C443.076 35.979 442.415 35.3209 441.815 34.6091C441.232 33.9192 440.733 33.1636 440.327 32.3571C440.134 31.9703 439.968 31.5708 439.83 31.1616C439.758 30.9634 439.705 30.7593 439.648 30.5622C439.59 30.3651 439.548 30.1633 439.515 29.965C439.441 29.5819 439.395 29.1942 439.377 28.8044C439.358 28.4406 439.362 28.0757 439.39 27.7125C439.442 27.0654 439.561 26.4258 439.747 25.8038C439.937 25.1767 440.184 24.568 440.485 23.9858C430.988 36.4479 422.499 57.319 422.499 57.319H455.057C455.13 57.2533 455.205 57.1807 455.288 57.1035C455.704 56.6933 456.094 56.2577 456.456 55.7988Z" fill="black"/>
<path d="M443.25 32.5644C443.171 32.4872 443.076 32.4057 442.982 32.3078C442.508 31.8406 442.092 31.3188 441.741 30.7537C441.389 30.1872 441.118 29.5745 440.934 28.9335C440.863 28.6707 440.819 28.4469 440.785 28.2901C440.752 28.1334 440.744 28.0425 440.744 28.0425L440.376 28.0875L440.406 28.3492C440.429 28.5164 440.466 28.754 440.53 29.041C440.689 29.7322 440.943 30.3979 441.284 31.02C441.628 31.6405 442.045 32.2187 442.524 32.7423C442.62 32.8576 442.715 32.944 442.796 33.0305C442.877 33.1169 442.951 33.1873 443.013 33.2449L443.205 33.4267L443.647 32.923L443.458 32.7603C443.401 32.7038 443.33 32.6405 443.25 32.5644Z" fill="black"/>
<path d="M464.248 45.0195C464.221 44.9815 464.186 44.9227 464.133 44.8535C464.027 44.714 463.88 44.5134 463.697 44.2771C463.241 43.7131 462.752 43.1765 462.233 42.6702C462.092 42.533 461.945 42.4025 461.804 42.2711L461.593 42.0764C461.52 42.0164 461.45 41.9614 461.38 41.8968C461.239 41.7816 461.104 41.666 460.976 41.5507C460.848 41.4354 460.72 41.3502 460.605 41.2603L460.29 41.016C460.196 40.9457 460.11 40.8871 460.042 40.8376L459.825 40.6816L458.884 41.9419L459.078 42.0961C459.139 42.1457 459.216 42.2048 459.3 42.2751L459.58 42.516C459.681 42.6036 459.793 42.6982 459.908 42.8008L460.262 43.1312L460.449 43.3068L460.632 43.4931C460.755 43.6187 460.883 43.7433 461.004 43.8747C461.445 44.3491 461.858 44.8499 462.24 45.3736C462.392 45.5903 462.512 45.7725 462.598 45.8993C462.643 45.9615 462.671 46.0144 462.693 46.049L462.726 46.103L464.29 45.0657L464.248 45.0195Z" fill="black"/>
<path d="M453.586 37.3411L453.159 37.1671C453.008 37.1049 452.846 37.0517 452.68 36.9825C452.347 36.8592 451.988 36.7186 451.634 36.5975C450.989 36.3958 450.232 36.1365 450.078 36.0927C449.923 36.0489 449.786 36.0007 449.654 35.9604L449.298 35.845L449.024 35.7493L448.784 35.666L448.438 36.5733L448.682 36.6713L448.961 36.7867L449.328 36.9251C449.463 36.9747 450.2 37.2442 450.725 37.439L451.236 37.6467C451.582 37.7816 451.918 37.9362 452.236 38.0733C452.394 38.1436 452.548 38.208 452.697 38.2748L453.102 38.4651C453.352 38.5803 453.563 38.6784 453.706 38.751L453.937 38.8664L454.475 37.7137L454.236 37.6073C454.07 37.5427 453.849 37.4563 453.586 37.3411Z" fill="black"/>
<path d="M297.849 42.9493C296.47 42.2789 295.138 41.5179 293.86 40.6714C293.423 38.7672 293.204 37.8391 292.762 36.042C292.468 35.1544 292.321 34.7174 292.025 33.8632C291.271 33.4736 290.899 33.2708 290.162 32.8489C290.144 33.4887 290.135 33.8083 290.117 34.4469C290.151 35.8624 290.167 36.5746 290.198 38.0097C289.218 37.2281 288.281 36.3946 287.39 35.5129C287.461 34.3879 287.498 33.8198 287.575 32.6694C287.599 29.0199 287.612 27.1904 287.639 23.5247C287.571 22.3409 287.536 21.7542 287.463 20.5923C289.524 20.6868 290.557 20.7305 292.625 20.8135C293.38 20.7818 294.131 20.9466 294.804 21.2919C295.477 21.6372 296.048 22.1512 296.463 22.7835C297.36 24.5701 297.718 26.5791 297.494 28.5656C297.479 29.8856 297.195 31.1884 296.659 32.3947C296.485 32.8207 296.227 33.2068 295.899 33.5294C295.571 33.8521 295.181 34.1044 294.752 34.2713C295.198 35.5819 295.42 36.2552 295.866 37.6281C296.653 39.6915 297.049 40.7614 297.849 42.9493ZM290.251 29.693C290.735 29.9005 290.98 30.0008 291.47 30.1968C292.537 30.6256 293.314 30.6679 293.776 30.3302C294.237 29.9924 294.499 29.1707 294.553 27.8992C294.609 27.1962 294.546 26.4888 294.365 25.8071C294.225 25.3323 293.916 24.9253 293.495 24.6645C292.944 24.367 292.342 24.1761 291.72 24.1011C291.199 24.017 290.938 23.9732 290.418 23.8833C290.349 26.2152 290.317 27.376 290.251 29.6975V29.693Z" fill="black"/>
<path d="M300.033 41.9829C299.212 39.5547 298.895 36.9845 299.103 34.4294C299.06 32.0628 299.583 29.7198 300.628 27.5959C301.016 26.8877 301.609 26.3137 302.329 25.9484C303.049 25.5831 303.863 25.4435 304.663 25.5488C305.528 25.5958 306.36 25.8983 307.053 26.4178C307.746 26.9373 308.27 27.6507 308.558 28.4677C309.463 31.0612 309.83 33.8114 309.637 36.5514C309.56 40.0983 309.071 42.7266 308.16 44.3519C307.804 45.1114 307.166 45.7026 306.382 46C305.597 46.2973 304.728 46.2773 303.958 45.9448C303.043 45.6314 302.212 45.1107 301.532 44.4234C300.851 43.7362 300.338 42.9009 300.033 41.9829ZM305.6 41.3559C306.027 40.9275 306.292 40.3636 306.349 39.7608C306.541 38.5752 306.643 37.3769 306.653 36.176C306.71 34.9589 306.681 33.7393 306.564 32.5264C306.527 31.8694 306.309 31.235 305.935 30.6932C305.567 30.2881 305.056 30.0408 304.51 30.0021C304.261 29.9459 304.003 29.9426 303.753 29.9925C303.503 30.0423 303.266 30.1442 303.057 30.2914C302.647 30.7149 302.387 31.2607 302.317 31.846C302.123 32.9653 302.014 34.0978 301.992 35.2338C301.926 36.3933 301.946 37.5562 302.052 38.7127C302.096 39.3785 302.309 40.0221 302.671 40.5825C303.033 41.0419 303.542 41.3628 304.112 41.491C304.354 41.5856 304.614 41.6225 304.872 41.599C305.13 41.5756 305.379 41.4924 305.6 41.3559Z" fill="black"/>
<path d="M311.693 37.7956C312.02 36.8798 312.553 36.0515 313.251 35.3748C313.521 35.1032 313.841 34.8876 314.195 34.7404C314.548 34.5932 314.927 34.5177 315.309 34.5175C316.38 34.4713 317.432 34.8008 318.285 35.4496C318.285 34.7176 318.285 34.3512 318.279 33.6192C318.323 32.888 318.097 32.1662 317.644 31.5907C317.422 31.3474 317.15 31.1556 316.846 31.0295C316.541 30.9034 316.213 30.8457 315.885 30.8607C315.121 30.8379 314.369 31.0486 313.729 31.4646C313.059 31.9308 312.549 32.5928 312.27 33.3597L312.04 33.2781C312.218 31.2563 312.307 30.2441 312.482 28.2153C312.93 27.5679 313.525 27.037 314.22 26.6663C314.858 26.313 315.575 26.1264 316.304 26.1243C316.985 26.1114 317.659 26.2636 318.269 26.5673C318.878 26.8709 319.406 27.3173 319.806 27.8686C320.759 29.252 321.236 30.9079 321.164 32.5864C321.206 36.3477 321.227 38.228 321.27 41.9905C321.377 44.0204 321.431 45.0347 321.541 47.0624C320.281 47.2157 319.646 47.2676 318.379 47.3241C318.352 46.5656 318.337 46.1863 318.31 45.4278C318.047 46.1494 317.581 46.779 316.967 47.2408C316.391 47.6875 315.676 47.9166 314.947 47.8875C314.339 47.8558 313.751 47.6633 313.242 47.3297C312.733 46.9962 312.322 46.5335 312.05 45.989C311.291 44.5425 310.945 42.9148 311.05 41.2847C311.055 40.0927 311.273 38.9113 311.693 37.7956ZM314.46 43.043C314.561 43.246 314.718 43.4162 314.911 43.5355C315.104 43.6548 315.327 43.7184 315.554 43.7185C316.097 43.7245 316.626 43.5508 317.06 43.2248C317.579 42.8371 318.004 42.3379 318.303 41.7642L318.295 39.4166C317.535 38.8287 316.604 38.5046 315.644 38.4941C315.408 38.4786 315.173 38.5333 314.968 38.6505C314.763 38.7678 314.597 38.9428 314.491 39.1537C314.201 39.7985 314.068 40.5026 314.103 41.2087C314.064 41.8405 314.187 42.4722 314.461 43.043H314.46Z" fill="black"/>
<path d="M333.322 39.2628C333.466 41.0149 333.538 41.8877 333.682 43.6271C332.509 44.1666 331.914 44.4121 330.711 44.8536C330.665 44.1862 330.642 43.8517 330.595 43.1819C330.347 43.8492 329.968 44.46 329.479 44.978C329.089 45.4425 328.583 45.7958 328.012 46.0018C326.552 46.4283 325.389 45.8048 324.559 44.1714C323.586 41.7741 323.135 39.197 323.235 36.6118C323.061 33.9091 323.378 31.1973 324.17 28.6075C324.848 26.8645 325.874 25.9815 327.258 25.8951C327.783 25.8574 328.311 25.9185 328.814 26.0758C329.274 26.2137 329.699 26.4455 330.064 26.7568C330.033 25.7931 330.017 25.3103 329.986 24.3467C329.846 22.5358 329.777 21.6274 329.64 19.8062C330.915 19.8165 331.551 19.8212 332.825 19.8292C332.808 21.5583 332.799 22.4171 332.781 24.1531C332.997 30.1945 333.105 33.2122 333.322 39.2628ZM330.183 30.4215C329.542 30.204 328.855 30.1566 328.19 30.2842C327.7 30.3154 327.239 30.5335 326.904 30.8932C326.55 31.4036 326.346 32.0023 326.314 32.6223C326.198 33.8193 326.166 35.023 326.217 36.2245C326.224 37.3818 326.311 38.5372 326.476 39.6827C326.527 40.2672 326.748 40.8237 327.111 41.2846C327.272 41.4254 327.468 41.5205 327.678 41.5598C327.888 41.5991 328.105 41.5817 328.306 41.5086C328.744 41.3852 329.156 41.1824 329.521 40.9103C329.896 40.6572 330.225 40.3412 330.493 39.9765C330.368 36.1575 330.303 34.245 330.187 30.4249L330.183 30.4215Z" fill="black"/>
<path d="M335.334 39.3989C336.892 34.2839 338.751 29.265 340.9 24.3685C339.307 24.6302 338.504 24.7479 336.888 24.9623C336.183 25.1848 335.831 25.2986 335.124 25.5246L334.901 25.4672C335.017 23.7646 335.082 22.9227 335.205 21.257C339.045 21.151 340.959 21.0797 344.761 20.8906C344.646 21.7114 344.582 22.1276 344.468 22.9737C342.034 27.5362 340.966 30.5138 338.759 37.1373C340.981 35.9974 343.077 34.6294 345.016 33.0555C344.861 34.2763 344.785 34.8995 344.64 36.1675C341.974 38.8672 338.869 41.0955 335.457 42.7568C335.408 41.4128 335.383 40.7418 335.334 39.3989Z" fill="black"/>
<path d="M287.36 50.0409C289.841 52.2645 292.564 54.2028 295.477 55.8186C298.45 57.4717 301.553 58.8785 304.756 60.0247C308.02 61.1956 311.354 62.163 314.737 62.9223C318.156 63.7004 321.617 64.2942 325.093 64.7414C328.436 65.1714 331.8 65.4646 335.168 65.6386C338.272 65.7985 341.38 65.8556 344.492 65.8103C346.579 65.778 348.679 65.7291 350.755 65.517L348.672 55.3874C348.161 55.4781 347.65 55.5634 347.137 55.6441C347.055 55.6568 345.829 55.8566 345.825 55.8405L345.042 52.1274C345.996 51.9683 346.942 51.7817 347.885 51.5685L345.802 41.4383C345.545 41.559 345.28 41.6603 345.008 41.7422C344.707 41.8498 344.404 41.9539 344.099 42.0546C343.5 42.2552 342.898 42.4473 342.294 42.6309C340.923 43.0552 339.543 43.4509 338.155 43.8174C335.032 44.6497 331.878 45.3533 328.692 45.9281C325.233 46.5596 321.743 47.0083 318.236 47.2722C314.741 47.544 311.23 47.5605 307.732 47.3218C304.369 47.1014 301.037 46.5326 297.791 45.6248C294.649 44.7369 291.657 43.3853 288.914 41.6144C288.08 41.0704 287.3 40.462 286.516 39.8488C285.964 39.3692 285.423 38.8846 284.893 38.3809L287.362 50.0375L287.36 50.0409ZM332.143 53.8311C334.805 53.6156 337.455 53.3099 340.098 52.9491L340.845 56.4546C337.847 56.6966 334.868 56.9489 331.867 57.0377L330.8 57.0692L330.129 53.884C330.129 53.884 331.249 53.8957 332.138 53.8311C333.027 53.7666 331.254 53.8957 332.147 53.8311H332.143ZM316.4 53.982C317.961 54.1088 319.536 54.1598 321.101 54.1852C322.562 54.2082 324.02 54.2037 325.475 54.1722L326.084 57.0912C323.238 57.0335 320.392 56.9074 317.553 56.6296C316.953 56.5697 316.353 56.5052 315.753 56.436L315.413 53.893C315.413 53.893 316.136 53.968 316.395 53.9865C316.655 54.0049 316.14 53.9635 316.4 53.982ZM301.69 51.4908C303.189 51.9519 304.737 52.3176 306.278 52.6311C307.785 52.9385 309.3 53.1984 310.822 53.4112H310.839L311.364 55.8585C310.366 55.628 309.358 55.4379 308.355 55.227C306.679 54.8743 305.019 54.4533 303.377 53.9645C302.588 53.734 301.802 53.4874 301.026 53.2154L300.828 51.2561C300.828 51.2561 301.624 51.4644 301.69 51.4863C301.756 51.5082 301.624 51.4712 301.69 51.4908ZM288.609 45.1694C289.2 45.5948 289.791 46.0144 290.396 46.4167C291.101 46.8847 291.831 47.3125 292.566 47.7298C293.886 48.4605 295.243 49.1199 296.634 49.7054L296.719 49.7426L297.143 51.7345C296.353 51.3599 295.563 50.9895 294.782 50.5964C293.344 49.8702 291.952 49.0556 290.614 48.1565C290.085 47.8003 289.569 47.428 289.053 47.051C288.804 46.87 288.566 46.675 288.325 46.4837C288.143 46.3396 287.951 46.2025 287.778 46.048L287.352 44.1321C287.352 44.1321 288.554 45.1291 288.609 45.1694Z" fill="black"/>
<path d="M638.437 48.8683L637.891 46.9687L635.816 47.8197C634.676 48.2808 633.67 48.6645 633.601 48.668C633.167 48.531 632.747 48.3516 632.348 48.1321L631.257 47.5879L632.442 47.1083C633.105 46.8512 634.243 46.3453 634.948 46.0006C636.222 45.3828 636.268 45.3709 636.738 45.5323C636.93 45.6125 637.139 45.6429 637.346 45.6201C637.115 43.8615 636.733 42.126 636.204 40.4329C635.461 40.2874 634.69 40.4061 634.025 40.7683C632.025 41.7 629.933 42.4192 627.782 42.9145C625.84 43.3979 623.853 43.6785 621.853 43.7515C616.942 43.9543 611.958 43.0173 605.777 40.7222C602.78 39.6133 601.149 38.9122 594 35.688C590.678 34.1246 587.271 32.7457 583.796 31.5578C576.36 29.2028 570.433 29.0117 564.389 30.9494C560.432 32.3687 556.735 34.4264 553.443 37.0406L552.186 38.047L552.647 42.7727C552.922 45.3617 553.175 47.484 553.244 47.4713C553.835 47.2197 554.412 46.9374 554.974 46.6254C555.858 46.1643 556.905 45.6659 557.338 45.5126L558.092 45.2329L559.245 45.6939C559.657 45.8311 560.049 46.0251 560.407 46.2702C560.407 46.3371 560.184 46.4514 559.886 46.5494C559.092 46.8695 558.317 47.2367 557.567 47.6498L555.773 48.5847L554.575 48.2554L553.4 47.9256L553.352 48.4316C553.303 48.9388 554.989 65.9034 555.081 65.9368C555.481 65.6757 555.864 65.3887 556.227 65.0779C560.593 61.466 565.637 58.7643 571.063 57.1321C574.554 56.1897 578.157 55.7268 581.773 55.756C586.594 55.8697 591.4 56.3322 596.154 57.1394C604.956 58.359 609.217 58.6703 614.083 58.4605C621.753 58.1296 629.276 56.2427 636.194 52.9147C639.566 51.3574 639.309 51.8447 638.437 48.8683ZM628.765 50.0672C626.943 50.4842 625.093 50.771 623.231 50.925C622.424 50.9596 622.349 50.9435 622.338 50.7072C622.305 50.4571 622.248 50.2106 622.168 49.9715L622.009 49.5016L623.969 49.2652C625.03 49.1326 626.459 48.8997 627.148 48.7372L628.39 48.4546L629.273 49.031C629.751 49.3538 630.16 49.6501 630.184 49.6777C629.723 49.8504 629.248 49.9821 628.765 50.0717V50.0672ZM618.489 50.7483C618.428 50.9604 618.296 51.1382 618.181 51.1428C618.089 51.1428 617.018 51.0888 615.831 51.0162C614.154 50.9712 612.483 50.7783 610.839 50.4398C611.034 50.1664 611.257 49.9138 611.504 49.6867C612.014 49.1795 612.24 49.0265 612.522 49.0727C613.105 49.151 617.486 49.5426 618.183 49.5702C618.904 49.6025 618.872 49.49 618.489 50.7533V50.7483ZM608.12 49.273C607.604 49.6961 607.241 49.8923 607.008 49.8646C606.425 49.7943 600.898 48.539 600.89 48.4721C601.205 48.2065 601.545 47.9719 601.905 47.7713L602.921 47.1449L605.08 47.643C606.275 47.9243 607.657 48.2262 608.15 48.3196C608.642 48.4129 609.018 48.5297 608.972 48.57C608.926 48.6104 608.545 48.926 608.12 49.2775V49.273ZM598.81 47.083C598.432 47.3798 597.987 47.5778 597.513 47.6593C597.373 47.6178 596.014 47.2768 594.486 46.886C592.678 46.4249 591.784 46.1353 591.896 46.0546C592.543 45.5254 593.293 45.1359 594.098 44.9109C594.637 45.0124 599.871 46.3577 599.872 46.3946C599.873 46.4246 599.398 46.7312 598.811 47.0897L598.81 47.083ZM589.548 44.8732L588.691 45.4631L587.098 45.1175C586.231 44.9261 584.826 44.644 583.961 44.4815L582.37 44.1978L583.152 43.4982C583.435 43.2249 583.752 42.9895 584.097 42.7991C584.327 42.7899 587.159 43.3052 589.011 43.7109C589.994 43.9161 590.652 44.1171 590.561 44.1725C590.47 44.2278 590.022 44.5653 589.548 44.88V44.8732ZM579.863 43.0451C579.667 43.2982 579.452 43.5362 579.22 43.7582C579.198 43.7686 578.407 43.7367 577.5 43.671C576.593 43.6053 575.104 43.5556 574.222 43.5556H572.598L572.565 42.7946L572.532 42.0342L574.456 42.0077C576.454 41.9803 578.451 42.085 580.435 42.3213C580.259 42.5767 580.067 42.8206 579.86 43.0518L579.863 43.0451ZM568.393 44.0351C567.586 44.1504 566.184 44.4837 563.338 45.2064C562.591 44.9402 561.887 44.5658 561.248 44.0959C563.523 43.3415 565.86 42.7885 568.232 42.4423C568.463 42.433 568.98 43.0954 569.336 43.8319C569.032 43.946 568.714 44.0167 568.39 44.0419L568.393 44.0351Z" fill="black"/>
<path d="M317.759 170.801L309.956 172.886L305.921 167.908L303.596 165.703L299.791 166.72L300.497 169.358L302.385 174.911L296.203 176.563L295.069 170.81L290.485 153.661L288.641 148.297L298.479 145.668C301.821 144.775 304.523 144.934 306.584 146.146C308.646 147.358 310.122 149.635 311.015 152.978C311.554 154.816 311.608 156.762 311.173 158.627C310.763 160.31 309.874 161.838 308.613 163.027L312.064 166.264L317.759 170.801ZM298.391 161.52L300.842 160.865C302.457 160.59 303.939 159.797 305.063 158.605C305.416 157.984 305.626 157.292 305.676 156.58C305.727 155.868 305.618 155.154 305.356 154.489C305.142 153.479 304.696 152.532 304.052 151.723C303.778 151.429 303.448 151.193 303.081 151.027C302.715 150.862 302.319 150.771 301.917 150.759C300.711 150.744 299.511 150.915 298.357 151.267L295.832 151.942L298.391 161.52Z" fill="black"/>
<path d="M318.939 171.624C317.754 169.514 317.291 167.075 317.62 164.678C317.819 161.661 318.56 159.432 319.842 157.992C321.124 156.552 323.062 155.918 325.656 156.091C328.25 156.263 330.088 157.146 331.168 158.742C332.249 160.338 332.69 162.644 332.491 165.659C332.5 168.079 331.718 170.436 330.266 172.371C328.981 173.831 327.043 174.474 324.449 174.301C321.856 174.127 320.019 173.235 318.939 171.624ZM326.789 170.017C327.319 169.684 327.701 169.16 327.855 168.553C328.358 166.49 328.5 164.355 328.273 162.243C328.201 161.621 327.892 161.052 327.41 160.652C326.787 160.315 326.099 160.116 325.393 160.07C324.687 160.023 323.979 160.129 323.317 160.381C322.786 160.713 322.404 161.238 322.251 161.845C321.747 163.908 321.606 166.043 321.832 168.154C321.905 168.776 322.215 169.346 322.697 169.745C323.319 170.083 324.007 170.282 324.713 170.329C325.419 170.376 326.127 170.269 326.789 170.017Z" fill="black"/>
<path d="M338.67 168.323C339.443 167.667 340.37 167.219 341.365 167.022C342.346 166.822 343.364 166.894 344.307 167.232C345.669 167.636 346.915 168.359 347.943 169.34L348.452 167.897C348.575 167.585 348.616 167.245 348.569 166.912C348.523 166.579 348.392 166.265 348.187 165.998C347.635 165.33 346.893 164.845 346.06 164.605C345.093 164.244 344.063 164.078 343.031 164.118C342.145 164.15 341.291 164.46 340.591 165.004L340.31 164.843L342.221 160.987C343.096 160.646 344.032 160.489 344.97 160.526C345.975 160.546 346.971 160.727 347.92 161.06C349.626 161.563 351.107 162.636 352.115 164.1C352.527 164.749 352.778 165.486 352.85 166.251C352.921 167.017 352.809 167.788 352.525 168.501L349.885 175.994L348.732 180.144L344.726 178.733L345.173 177.206C344.538 177.686 343.776 177.967 342.982 178.013C342.055 178.091 341.122 177.966 340.247 177.647C339.563 177.443 338.925 177.105 338.372 176.653C337.82 176.201 337.362 175.643 337.027 175.012C336.727 174.366 336.564 173.666 336.548 172.954C336.533 172.242 336.665 171.535 336.938 170.877C337.272 169.884 337.871 169.001 338.67 168.323ZM340.909 173.614C341.033 173.856 341.205 174.07 341.416 174.242C341.627 174.414 341.872 174.54 342.135 174.612C342.794 174.847 343.495 174.943 344.194 174.893C344.89 174.845 345.569 174.652 346.186 174.324L346.839 172.472C345.942 171.592 344.857 170.927 343.666 170.527C343.402 170.409 343.115 170.349 342.825 170.353C342.536 170.357 342.25 170.424 341.989 170.549C341.473 170.895 341.099 171.416 340.937 172.016C340.72 172.524 340.71 173.098 340.909 173.614Z" fill="black"/>
<path d="M369.839 184.336L368.545 188.45L364.589 186.909L365.074 185.426C364.477 185.799 363.791 186.007 363.087 186.03C362.373 186.093 361.654 185.998 360.98 185.752C360.118 185.462 359.344 184.959 358.729 184.288C358.115 183.618 357.681 182.803 357.467 181.919C357.062 179.626 357.371 177.263 358.353 175.152C359.465 172.298 360.757 170.374 362.23 169.378C362.955 168.888 363.794 168.592 364.666 168.519C365.539 168.447 366.415 168.6 367.211 168.964C367.911 169.231 368.576 169.584 369.19 170.014C369.719 170.373 370.186 170.816 370.573 171.325L371.38 169.251L372.631 165.244L376.937 166.921L375.148 170.718L369.839 184.336ZM369.342 174.473C368.596 173.87 367.749 173.404 366.841 173.096C366.258 172.827 365.611 172.725 364.972 172.802C364.4 172.957 363.911 173.329 363.609 173.84C363.043 174.726 362.578 175.674 362.225 176.665C361.827 177.611 361.531 178.597 361.342 179.605C361.215 180.184 361.291 180.788 361.559 181.317C361.89 181.798 362.372 182.155 362.929 182.332C363.473 182.537 364.042 182.67 364.621 182.727C365.126 182.799 365.64 182.785 366.14 182.684L369.342 174.473Z" fill="black"/>
<path d="M373.363 181.748L393.784 147.9L379.909 148.13L373.831 149.045L373.084 148.853L374.475 138.879L407.165 138.333L406.264 145.185L385.455 180.123L408.94 179.731L407.607 189.094L373.495 189.671L373.363 181.748Z" fill="black"/>
<path d="M416.752 197.037L415.927 194.592L412.699 195.714C410.924 196.319 409.363 196.829 409.255 196.834C408.591 196.664 407.944 196.437 407.319 196.155L405.633 195.464L407.477 194.831C408.507 194.492 410.276 193.826 411.373 193.373C413.354 192.566 413.426 192.548 414.154 192.75C414.456 192.85 414.776 192.886 415.093 192.857C414.586 190.427 413.857 188.048 412.915 185.751C411.901 185.874 410.916 186.17 410.002 186.626C406.859 187.859 403.612 188.809 400.299 189.465C397.272 190.115 394.194 190.501 391.099 190.618C383.482 190.935 375.766 189.781 366.213 186.889C361.581 185.492 359.065 184.606 348.013 180.525C340.701 177.831 336.099 176.31 332.241 175.31C320.742 172.354 311.555 172.174 302.165 174.742C296.129 176.565 290.39 179.255 285.127 182.726L283.167 184.04L283.826 190.129C284.002 192.162 284.293 194.185 284.7 196.185C284.808 196.185 286.045 195.671 287.387 195.073C288.771 194.474 290.392 193.813 291.066 193.613L292.239 193.243L294.027 193.828C294.654 193.997 295.257 194.244 295.823 194.561C295.823 194.648 295.477 194.798 295.016 194.928C293.789 195.347 292.584 195.83 291.408 196.374L288.616 197.601L286.764 197.189L284.946 196.777L284.865 197.43C284.785 198.085 287.206 219.96 287.353 220.003C287.97 219.665 288.567 219.291 289.14 218.882C296.161 214.076 303.977 210.548 312.226 208.461C317.676 207.202 323.251 206.565 328.844 206.564C334.928 206.583 338.718 206.85 351.122 208.194C364.753 209.669 371.355 210.022 378.898 209.692C390.684 209.203 402.298 206.698 413.237 202.287C418.474 200.232 418.07 200.863 416.752 197.037ZM401.744 198.694C398.907 199.253 396.04 199.644 393.157 199.863C391.901 199.917 391.791 199.897 391.774 199.591C391.724 199.267 391.637 198.949 391.517 198.644L391.276 198.04L394.32 197.712C395.969 197.53 398.186 197.213 399.256 196.995L401.184 196.617L402.548 197.355C403.285 197.766 403.914 198.144 403.951 198.18C403.229 198.405 402.491 198.577 401.744 198.694ZM385.808 199.689C385.711 199.963 385.505 200.194 385.326 200.202C385.183 200.202 383.524 200.144 381.685 200.063C379.094 200.026 376.51 199.797 373.953 199.378C374.264 199.016 374.612 198.688 374.991 198.399C375.79 197.737 376.144 197.538 376.577 197.592C377.481 197.688 384.267 198.144 385.348 198.168C386.464 198.198 386.42 198.053 385.808 199.689ZM369.75 197.901C369.263 198.325 368.661 198.595 368.021 198.677C367.117 198.592 358.557 197.034 358.553 196.947C359.052 196.597 359.58 196.29 360.133 196.032L361.717 195.214L365.06 195.832C366.905 196.178 369.05 196.556 369.811 196.671C370.572 196.786 371.155 196.932 371.079 196.985C371.003 197.038 370.414 197.442 369.75 197.901ZM355.345 195.182C354.734 195.577 354.045 195.837 353.326 195.945C353.109 195.893 351.003 195.467 348.642 194.98C345.846 194.403 344.462 194.043 344.638 193.942C345.679 193.239 346.84 192.731 348.064 192.444C348.898 192.567 356.996 194.246 356.997 194.289C356.998 194.312 356.26 194.713 355.345 195.182ZM341.01 192.434L339.676 193.204L337.21 192.783C335.868 192.545 333.693 192.197 332.354 191.998L329.891 191.652L331.111 190.739C331.563 190.378 332.058 190.072 332.583 189.827C332.943 189.812 337.326 190.447 340.192 190.949C341.021 190.996 341.835 191.194 342.592 191.533C342.45 191.611 341.749 192.022 341.01 192.434ZM326.013 190.184C325.701 190.515 325.365 190.823 325.009 191.106C324.974 191.119 323.748 191.086 322.342 191.012C320.935 190.938 318.63 190.89 317.262 190.897L314.744 190.92L314.702 189.939L314.66 188.958L317.644 188.903C320.736 188.843 323.828 188.955 326.907 189.239C326.63 189.573 326.331 189.888 326.013 190.184ZM308.221 191.591C306.968 191.754 304.793 192.194 300.371 193.158C299.238 192.833 298.153 192.359 297.143 191.75C297.132 191.48 306.265 189.612 307.988 189.537C308.347 189.522 309.141 190.371 309.684 191.319C309.209 191.467 308.718 191.559 308.221 191.591Z" fill="black"/>
<path d="M413.606 117.099C402.667 112.688 391.052 110.184 379.267 109.695C371.724 109.369 365.122 109.723 351.49 111.193C339.086 112.538 335.297 112.807 329.213 112.823C323.62 112.822 318.046 112.186 312.596 110.926C304.347 108.84 296.53 105.312 289.509 100.505C288.936 100.096 288.339 99.7222 287.722 99.3843C287.575 99.4281 285.154 121.302 285.235 121.957L285.314 122.61L287.133 122.198L288.985 121.787L291.776 123.013C292.953 123.557 294.158 124.04 295.385 124.459C295.846 124.59 296.2 124.739 296.192 124.826C295.626 125.144 295.023 125.391 294.396 125.559L292.608 126.146L291.436 125.776C290.762 125.574 289.131 124.914 287.756 124.314C286.414 123.716 285.177 123.208 285.069 123.203C284.663 125.203 284.371 127.225 284.195 129.258L283.536 135.348L285.495 136.661C290.759 140.132 296.498 142.822 302.534 144.645C311.924 147.214 321.111 147.033 332.61 144.077C336.468 143.077 341.069 141.557 348.383 138.863C359.429 134.782 361.951 133.896 366.582 132.499C376.137 129.606 383.852 128.452 391.468 128.769C394.562 128.886 397.641 129.272 400.668 129.922C403.98 130.578 407.228 131.528 410.371 132.761C411.285 133.218 412.27 133.514 413.284 133.636C414.227 131.339 414.956 128.961 415.462 126.531C415.145 126.501 414.825 126.538 414.523 126.638C413.795 126.841 413.722 126.825 411.743 126.014C410.645 125.561 408.876 124.895 407.846 124.556L406.002 123.923L407.687 123.232C408.311 122.949 408.959 122.721 409.623 122.552C409.731 122.552 411.292 123.067 413.066 123.672L416.295 124.795L417.12 122.349C418.44 118.524 418.845 119.155 413.606 117.099ZM404.325 121.207C404.288 121.243 403.66 121.621 402.922 122.032L401.558 122.772L399.631 122.393C398.561 122.175 396.344 121.858 394.695 121.675L391.65 121.348L391.891 120.744C392.012 120.439 392.098 120.121 392.148 119.797C392.161 119.49 392.271 119.47 393.532 119.524C396.415 119.744 399.282 120.135 402.119 120.694C402.866 120.812 403.603 120.983 404.325 121.207ZM385.718 121.216C384.636 121.242 377.85 121.699 376.946 121.792C376.512 121.847 376.159 121.648 375.361 120.985C374.982 120.696 374.634 120.368 374.323 120.006C376.88 119.585 379.464 119.354 382.055 119.315C383.899 119.234 385.553 119.171 385.697 119.178C385.875 119.184 386.081 119.415 386.178 119.689C386.794 121.334 386.834 121.189 385.718 121.216ZM371.45 122.404C371.053 122.592 370.622 122.699 370.182 122.717C369.421 122.833 367.282 123.206 365.431 123.556L362.088 124.173L360.504 123.356C359.951 123.098 359.423 122.791 358.924 122.44C358.924 122.353 367.489 120.795 368.392 120.711C369.032 120.792 369.634 121.062 370.121 121.486C370.784 121.945 371.378 122.352 371.45 122.404ZM357.368 125.1C357.368 125.149 349.268 126.829 348.435 126.944C347.211 126.657 346.05 126.15 345.008 125.446C344.833 125.34 346.216 124.985 349.013 124.409C351.373 123.921 353.479 123.496 353.697 123.444C354.416 123.552 355.104 123.812 355.715 124.207C356.63 124.675 357.369 125.076 357.368 125.1ZM342.957 127.856C342.199 128.195 341.385 128.394 340.556 128.441C337.693 128.944 333.309 129.577 332.947 129.562C332.421 129.319 331.927 129.012 331.474 128.65L330.254 127.738L332.717 127.393C334.056 127.193 336.231 126.845 337.573 126.608L340.039 126.186L341.374 126.956C342.119 127.369 342.82 127.777 342.96 127.856H342.957ZM327.277 130.14C324.198 130.424 321.105 130.537 318.013 130.477L315.029 130.422L315.071 129.44L315.113 128.459L317.631 128.482C318.998 128.491 321.304 128.444 322.711 128.367C324.117 128.29 325.343 128.259 325.377 128.273C325.734 128.555 326.07 128.863 326.382 129.195C326.7 129.489 326.999 129.803 327.279 130.135L327.277 130.14ZM310.054 128.065C309.51 129.011 308.717 129.862 308.358 129.846C306.635 129.772 297.502 127.902 297.513 127.634C298.522 127.024 299.608 126.55 300.741 126.225C305.163 127.19 307.339 127.628 308.591 127.793C309.089 127.826 309.58 127.919 310.056 128.069L310.054 128.065Z" fill="black"/>
</g>
<defs>
<clipPath id="clip0">
<rect width="639" height="220" fill="white"/>
</clipPath>
</defs>
</svg>
