<svg width="211" height="52" viewBox="0 0 211 52" fill="none" xmlns="http://www.w3.org/2000/svg">
<path d="M14.376 20H9.36L4.56 7.112C4.72 8.376 4.84 9.496 4.92 10.472C5.016 11.432 5.064 12.576 5.064 13.904V20H1.56V3.368H6.456L11.376 16.28C11.024 14.088 10.848 12.024 10.848 10.088V3.368H14.376V20ZM28.5141 13.376C28.5141 13.904 28.4901 14.36 28.4421 14.744H20.5461C20.6741 15.816 20.9781 16.568 21.4581 17C21.9381 17.432 22.6021 17.648 23.4501 17.648C23.9621 17.648 24.4581 17.56 24.9381 17.384C25.4181 17.192 25.9381 16.904 26.4981 16.52L28.0581 18.632C26.5701 19.816 24.9141 20.408 23.0901 20.408C21.0261 20.408 19.4421 19.8 18.3381 18.584C17.2341 17.368 16.6821 15.736 16.6821 13.688C16.6821 12.392 16.9141 11.232 17.3781 10.208C17.8421 9.168 18.5221 8.352 19.4181 7.76C20.3141 7.152 21.3861 6.848 22.6341 6.848C24.4741 6.848 25.9141 7.424 26.9541 8.576C27.9941 9.728 28.5141 11.328 28.5141 13.376ZM24.7941 12.296C24.7621 10.344 24.0741 9.368 22.7301 9.368C22.0741 9.368 21.5621 9.608 21.1941 10.088C20.8421 10.568 20.6261 11.36 20.5461 12.464H24.7941V12.296ZM44.7323 6.848C45.7403 6.848 46.5483 7.192 47.1563 7.88C47.7643 8.552 48.0683 9.488 48.0683 10.688V20H44.2763V11.336C44.2763 10.2 43.9163 9.632 43.1963 9.632C42.7963 9.632 42.4443 9.768 42.1403 10.04C41.8363 10.312 41.5403 10.728 41.2523 11.288V20H37.4603V11.336C37.4603 10.2 37.1003 9.632 36.3803 9.632C35.9963 9.632 35.6443 9.776 35.3242 10.064C35.0203 10.336 34.7243 10.744 34.4363 11.288V20H30.6443V7.256H33.9563L34.2203 8.744C34.7163 8.104 35.2603 7.632 35.8523 7.328C36.4603 7.008 37.1483 6.848 37.9163 6.848C38.6363 6.848 39.2523 7.024 39.7643 7.376C40.2923 7.728 40.6763 8.224 40.9163 8.864C41.4283 8.176 41.9883 7.672 42.5963 7.352C43.2203 7.016 43.9323 6.848 44.7323 6.848ZM61.0457 16.304C61.0457 16.784 61.1097 17.136 61.2377 17.36C61.3817 17.584 61.6057 17.752 61.9097 17.864L61.1177 20.336C60.3337 20.272 59.6937 20.104 59.1977 19.832C58.7017 19.544 58.3177 19.096 58.0457 18.488C57.2137 19.768 55.9337 20.408 54.2057 20.408C52.9417 20.408 51.9337 20.04 51.1817 19.304C50.4297 18.568 50.0537 17.608 50.0537 16.424C50.0537 15.032 50.5657 13.968 51.5897 13.232C52.6137 12.496 54.0937 12.128 56.0297 12.128H57.3257V11.576C57.3257 10.824 57.1657 10.312 56.8457 10.04C56.5257 9.752 55.9657 9.608 55.1657 9.608C54.7497 9.608 54.2457 9.672 53.6537 9.8C53.0617 9.912 52.4537 10.072 51.8297 10.28L50.9657 7.784C51.7657 7.48 52.5817 7.248 53.4137 7.088C54.2617 6.928 55.0457 6.848 55.7657 6.848C57.5897 6.848 58.9257 7.224 59.7737 7.976C60.6217 8.728 61.0457 9.856 61.0457 11.36V16.304ZM55.3097 17.696C56.1737 17.696 56.8457 17.288 57.3257 16.472V14.216H56.3897C55.5257 14.216 54.8777 14.368 54.4457 14.672C54.0297 14.976 53.8217 15.448 53.8217 16.088C53.8217 16.6 53.9497 17 54.2057 17.288C54.4777 17.56 54.8457 17.696 55.3097 17.696ZM71.5301 6.848C72.6341 6.848 73.4981 7.184 74.1221 7.856C74.7461 8.528 75.0581 9.472 75.0581 10.688V20H71.2661V11.336C71.2661 10.696 71.1621 10.256 70.9541 10.016C70.7621 9.76 70.4661 9.632 70.0661 9.632C69.2981 9.632 68.5621 10.184 67.8581 11.288V20H64.0661V7.256H67.3781L67.6421 8.768C68.1861 8.128 68.7701 7.648 69.3941 7.328C70.0341 7.008 70.7461 6.848 71.5301 6.848ZM81.6857 18.56C81.6857 19.888 81.4697 20.984 81.0377 21.848C80.6217 22.712 80.0457 23.4 79.3097 23.912C78.5897 24.44 77.6777 24.904 76.5737 25.304L75.3017 22.544C75.9257 22.256 76.4137 21.976 76.7657 21.704C77.1177 21.432 77.3897 21.064 77.5817 20.6C77.7897 20.152 77.8937 19.552 77.8937 18.8V7.256H81.6857V18.56ZM79.7897 0.535999C80.4457 0.535999 80.9817 0.743999 81.3977 1.16C81.8297 1.56 82.0457 2.072 82.0457 2.696C82.0457 3.32 81.8297 3.84 81.3977 4.256C80.9817 4.656 80.4457 4.856 79.7897 4.856C79.1337 4.856 78.5977 4.656 78.1817 4.256C77.7657 3.84 77.5577 3.32 77.5577 2.696C77.5577 2.072 77.7657 1.56 78.1817 1.16C78.5977 0.743999 79.1337 0.535999 79.7897 0.535999ZM94.7957 16.304C94.7957 16.784 94.8597 17.136 94.9877 17.36C95.1317 17.584 95.3557 17.752 95.6597 17.864L94.8677 20.336C94.0837 20.272 93.4437 20.104 92.9477 19.832C92.4517 19.544 92.0677 19.096 91.7957 18.488C90.9637 19.768 89.6837 20.408 87.9557 20.408C86.6917 20.408 85.6837 20.04 84.9317 19.304C84.1797 18.568 83.8037 17.608 83.8037 16.424C83.8037 15.032 84.3157 13.968 85.3397 13.232C86.3637 12.496 87.8437 12.128 89.7797 12.128H91.0757V11.576C91.0757 10.824 90.9157 10.312 90.5957 10.04C90.2757 9.752 89.7157 9.608 88.9157 9.608C88.4997 9.608 87.9957 9.672 87.4037 9.8C86.8117 9.912 86.2037 10.072 85.5797 10.28L84.7157 7.784C85.5157 7.48 86.3317 7.248 87.1637 7.088C88.0117 6.928 88.7957 6.848 89.5157 6.848C91.3397 6.848 92.6757 7.224 93.5237 7.976C94.3717 8.728 94.7957 9.856 94.7957 11.36V16.304ZM89.0597 17.696C89.9237 17.696 90.5957 17.288 91.0757 16.472V14.216H90.1397C89.2757 14.216 88.6277 14.368 88.1957 14.672C87.7797 14.976 87.5717 15.448 87.5717 16.088C87.5717 16.6 87.6997 17 87.9557 17.288C88.2277 17.56 88.5957 17.696 89.0597 17.696ZM107.519 3.368V20H103.583V3.368H107.519ZM117.071 3.368L111.767 10.832L117.503 20H112.943L107.639 11.12L112.919 3.368H117.071ZM123.797 6.848C125.749 6.848 127.277 7.448 128.381 8.648C129.485 9.832 130.037 11.496 130.037 13.64C130.037 15 129.781 16.192 129.269 17.216C128.773 18.224 128.053 19.008 127.109 19.568C126.181 20.128 125.077 20.408 123.797 20.408C121.861 20.408 120.333 19.816 119.213 18.632C118.109 17.432 117.557 15.76 117.557 13.616C117.557 12.256 117.805 11.072 118.301 10.064C118.813 9.04 119.533 8.248 120.461 7.688C121.405 7.128 122.517 6.848 123.797 6.848ZM123.797 9.632C123.029 9.632 122.453 9.96 122.069 10.616C121.685 11.256 121.493 12.256 121.493 13.616C121.493 15.008 121.677 16.024 122.045 16.664C122.429 17.304 123.013 17.624 123.797 17.624C124.565 17.624 125.141 17.304 125.525 16.664C125.909 16.008 126.101 15 126.101 13.64C126.101 12.248 125.909 11.232 125.525 10.592C125.157 9.952 124.581 9.632 123.797 9.632ZM143.073 7.256L139.065 20H134.577L130.473 7.256H134.601L136.857 17.12L139.209 7.256H143.073ZM153.999 16.304C153.999 16.784 154.063 17.136 154.191 17.36C154.335 17.584 154.559 17.752 154.863 17.864L154.071 20.336C153.287 20.272 152.647 20.104 152.151 19.832C151.655 19.544 151.271 19.096 150.999 18.488C150.167 19.768 148.887 20.408 147.159 20.408C145.895 20.408 144.887 20.04 144.135 19.304C143.383 18.568 143.007 17.608 143.007 16.424C143.007 15.032 143.519 13.968 144.543 13.232C145.567 12.496 147.047 12.128 148.983 12.128H150.279V11.576C150.279 10.824 150.119 10.312 149.799 10.04C149.479 9.752 148.919 9.608 148.119 9.608C147.703 9.608 147.199 9.672 146.607 9.8C146.015 9.912 145.407 10.072 144.783 10.28L143.919 7.784C144.719 7.48 145.535 7.248 146.367 7.088C147.215 6.928 147.999 6.848 148.719 6.848C150.543 6.848 151.879 7.224 152.727 7.976C153.575 8.728 153.999 9.856 153.999 11.36V16.304ZM148.263 17.696C149.127 17.696 149.799 17.288 150.279 16.472V14.216H149.343C148.479 14.216 147.831 14.368 147.399 14.672C146.983 14.976 146.775 15.448 146.775 16.088C146.775 16.6 146.903 17 147.159 17.288C147.431 17.56 147.799 17.696 148.263 17.696ZM162.539 6.848C163.419 6.848 164.211 6.976 164.915 7.232C165.619 7.488 166.283 7.88 166.907 8.408L165.275 10.664C164.475 10.056 163.667 9.752 162.851 9.752C162.003 9.752 161.363 10.064 160.931 10.688C160.499 11.312 160.283 12.32 160.283 13.712C160.283 15.056 160.499 16.008 160.931 16.568C161.363 17.128 161.987 17.408 162.803 17.408C163.235 17.408 163.627 17.344 163.979 17.216C164.331 17.072 164.755 16.848 165.251 16.544L166.907 18.896C165.643 19.904 164.211 20.408 162.611 20.408C161.315 20.408 160.195 20.136 159.251 19.592C158.307 19.032 157.579 18.256 157.067 17.264C156.555 16.256 156.299 15.08 156.299 13.736C156.299 12.392 156.555 11.2 157.067 10.16C157.579 9.12 158.307 8.312 159.251 7.736C160.195 7.144 161.291 6.848 162.539 6.848ZM179.147 13.376C179.147 13.904 179.123 14.36 179.075 14.744H171.179C171.307 15.816 171.611 16.568 172.091 17C172.571 17.432 173.235 17.648 174.083 17.648C174.595 17.648 175.091 17.56 175.571 17.384C176.051 17.192 176.571 16.904 177.131 16.52L178.691 18.632C177.203 19.816 175.547 20.408 173.723 20.408C171.659 20.408 170.075 19.8 168.971 18.584C167.867 17.368 167.315 15.736 167.315 13.688C167.315 12.392 167.547 11.232 168.011 10.208C168.475 9.168 169.155 8.352 170.051 7.76C170.947 7.152 172.019 6.848 173.267 6.848C175.107 6.848 176.547 7.424 177.587 8.576C178.627 9.728 179.147 11.328 179.147 13.376ZM175.427 12.296C175.395 10.344 174.707 9.368 173.363 9.368C172.707 9.368 172.195 9.608 171.827 10.088C171.475 10.568 171.259 11.36 171.179 12.464H175.427V12.296ZM192.058 7.256L188.05 20H183.562L179.458 7.256H183.586L185.842 17.12L188.194 7.256H192.058ZM197.186 7.256V20H193.394V7.256H197.186ZM195.266 0.535999C195.922 0.535999 196.458 0.743999 196.874 1.16C197.306 1.56 197.522 2.072 197.522 2.696C197.522 3.32 197.306 3.84 196.874 4.256C196.458 4.656 195.922 4.856 195.266 4.856C194.61 4.856 194.074 4.656 193.658 4.256C193.242 3.84 193.034 3.32 193.034 2.696C193.034 2.072 193.242 1.56 193.658 1.16C194.074 0.743999 194.61 0.535999 195.266 0.535999ZM205.688 6.848C206.568 6.848 207.36 6.976 208.064 7.232C208.768 7.488 209.432 7.88 210.056 8.408L208.424 10.664C207.624 10.056 206.816 9.752 206 9.752C205.152 9.752 204.512 10.064 204.08 10.688C203.648 11.312 203.432 12.32 203.432 13.712C203.432 15.056 203.648 16.008 204.08 16.568C204.512 17.128 205.136 17.408 205.952 17.408C206.384 17.408 206.776 17.344 207.128 17.216C207.48 17.072 207.904 16.848 208.4 16.544L210.056 18.896C208.792 19.904 207.36 20.408 205.76 20.408C204.464 20.408 203.344 20.136 202.4 19.592C201.456 19.032 200.728 18.256 200.216 17.264C199.704 16.256 199.448 15.08 199.448 13.736C199.448 12.392 199.704 11.2 200.216 10.16C200.728 9.12 201.456 8.312 202.4 7.736C203.344 7.144 204.44 6.848 205.688 6.848ZM14.418 35.598L11.898 48H9.702L7.416 37.614L5.112 48H2.97L0.45 35.598H2.124L4.122 46.506L6.516 35.598H8.334L10.782 46.506L12.852 35.598H14.418ZM23.5693 42.978C23.5693 43.254 23.5573 43.536 23.5333 43.824H17.4853C17.5573 44.868 17.8213 45.636 18.2773 46.128C18.7333 46.62 19.3213 46.866 20.0413 46.866C20.4973 46.866 20.9173 46.8 21.3013 46.668C21.6853 46.536 22.0873 46.326 22.5073 46.038L23.2273 47.028C22.2193 47.82 21.1153 48.216 19.9153 48.216C18.5953 48.216 17.5633 47.784 16.8193 46.92C16.0873 46.056 15.7213 44.868 15.7213 43.356C15.7213 42.372 15.8773 41.502 16.1893 40.746C16.5133 39.978 16.9693 39.378 17.5573 38.946C18.1573 38.514 18.8593 38.298 19.6633 38.298C20.9233 38.298 21.8893 38.712 22.5613 39.54C23.2333 40.368 23.5693 41.514 23.5693 42.978ZM21.9313 42.492C21.9313 41.556 21.7453 40.842 21.3733 40.35C21.0013 39.858 20.4433 39.612 19.6993 39.612C18.3433 39.612 17.6053 40.608 17.4853 42.6H21.9313V42.492ZM30.5519 38.298C31.6319 38.298 32.4899 38.736 33.1259 39.612C33.7619 40.476 34.0799 41.688 34.0799 43.248C34.0799 44.232 33.9299 45.102 33.6299 45.858C33.3299 46.602 32.8979 47.184 32.3339 47.604C31.7699 48.012 31.1099 48.216 30.3539 48.216C29.3579 48.216 28.5179 47.796 27.8339 46.956L27.6719 48H26.2139V34.698L27.8699 34.5V39.702C28.5539 38.766 29.4479 38.298 30.5519 38.298ZM29.9579 46.902C30.6899 46.902 31.2599 46.608 31.6679 46.02C32.0879 45.42 32.2979 44.496 32.2979 43.248C32.2979 41.964 32.1059 41.04 31.7219 40.476C31.3379 39.9 30.7919 39.612 30.0839 39.612C29.2439 39.612 28.5059 40.104 27.8699 41.088V45.624C28.1219 46.02 28.4279 46.332 28.7879 46.56C29.1599 46.788 29.5499 46.902 29.9579 46.902ZM44.3471 35.598C46.2191 35.598 47.7191 36.036 48.8471 36.912C49.9871 37.776 50.5571 39.384 50.5571 41.736C50.5571 44.028 49.9871 45.648 48.8471 46.596C47.7191 47.532 46.3451 48 44.7251 48H41.7551V35.598H44.3471ZM43.4651 36.966V46.65H44.8511C46.0031 46.65 46.9391 46.296 47.6591 45.588C48.3791 44.88 48.7391 43.596 48.7391 41.736C48.7391 40.428 48.5531 39.426 48.1811 38.73C47.8091 38.022 47.3351 37.554 46.7591 37.326C46.1831 37.086 45.5051 36.966 44.7251 36.966H43.4651ZM60.4131 42.978C60.4131 43.254 60.4011 43.536 60.3771 43.824H54.3291C54.4011 44.868 54.6651 45.636 55.1211 46.128C55.5771 46.62 56.1651 46.866 56.8851 46.866C57.3411 46.866 57.7611 46.8 58.1451 46.668C58.5291 46.536 58.9311 46.326 59.3511 46.038L60.0711 47.028C59.0631 47.82 57.9591 48.216 56.7591 48.216C55.4391 48.216 54.4071 47.784 53.6631 46.92C52.9311 46.056 52.5651 44.868 52.5651 43.356C52.5651 42.372 52.7211 41.502 53.0331 40.746C53.3571 39.978 53.8131 39.378 54.4011 38.946C55.0011 38.514 55.7031 38.298 56.5071 38.298C57.7671 38.298 58.7331 38.712 59.4051 39.54C60.0771 40.368 60.4131 41.514 60.4131 42.978ZM58.7751 42.492C58.7751 41.556 58.5891 40.842 58.2171 40.35C57.8451 39.858 57.2871 39.612 56.5431 39.612C55.1871 39.612 54.4491 40.608 54.3291 42.6H58.7751V42.492ZM65.6317 38.298C66.2797 38.298 66.8617 38.388 67.3777 38.568C67.8937 38.748 68.3857 39.018 68.8537 39.378L68.1517 40.422C67.7197 40.146 67.3057 39.942 66.9097 39.81C66.5257 39.678 66.1177 39.612 65.6857 39.612C65.1457 39.612 64.7197 39.726 64.4077 39.954C64.0957 40.17 63.9397 40.47 63.9397 40.854C63.9397 41.238 64.0837 41.538 64.3717 41.754C64.6717 41.97 65.2057 42.18 65.9737 42.384C67.0297 42.648 67.8157 43.008 68.3317 43.464C68.8597 43.92 69.1237 44.544 69.1237 45.336C69.1237 46.272 68.7577 46.986 68.0257 47.478C67.3057 47.97 66.4237 48.216 65.3797 48.216C63.9397 48.216 62.7457 47.802 61.7977 46.974L62.6797 45.966C63.4837 46.578 64.3717 46.884 65.3437 46.884C65.9677 46.884 66.4597 46.758 66.8197 46.506C67.1917 46.242 67.3777 45.888 67.3777 45.444C67.3777 45.12 67.3117 44.862 67.1797 44.67C67.0477 44.466 66.8197 44.292 66.4957 44.148C66.1717 43.992 65.6977 43.83 65.0737 43.662C64.0657 43.398 63.3337 43.044 62.8777 42.6C62.4337 42.156 62.2117 41.592 62.2117 40.908C62.2117 40.416 62.3557 39.972 62.6437 39.576C62.9437 39.168 63.3517 38.856 63.8677 38.64C64.3957 38.412 64.9837 38.298 65.6317 38.298ZM73.116 38.514V48H71.46V38.514H73.116ZM72.27 33.96C72.618 33.96 72.9 34.068 73.116 34.284C73.332 34.5 73.44 34.77 73.44 35.094C73.44 35.418 73.332 35.688 73.116 35.904C72.9 36.108 72.618 36.21 72.27 36.21C71.934 36.21 71.658 36.108 71.442 35.904C71.226 35.688 71.118 35.418 71.118 35.094C71.118 34.77 71.226 34.5 71.442 34.284C71.658 34.068 71.934 33.96 72.27 33.96ZM84.1901 38.946C83.8301 39.066 83.4341 39.144 83.0021 39.18C82.5701 39.216 82.0421 39.234 81.4181 39.234C82.5341 39.738 83.0921 40.536 83.0921 41.628C83.0921 42.576 82.7681 43.35 82.1201 43.95C81.4721 44.55 80.5901 44.85 79.4741 44.85C79.0421 44.85 78.6401 44.79 78.2681 44.67C78.1241 44.766 78.0101 44.898 77.9261 45.066C77.8421 45.222 77.8001 45.384 77.8001 45.552C77.8001 46.068 78.2141 46.326 79.0421 46.326H80.5541C81.1901 46.326 81.7541 46.44 82.2461 46.668C82.7381 46.896 83.1161 47.208 83.3801 47.604C83.6561 48 83.7941 48.45 83.7941 48.954C83.7941 49.878 83.4161 50.586 82.6601 51.078C81.9041 51.582 80.8001 51.834 79.3481 51.834C78.3281 51.834 77.5181 51.726 76.9181 51.51C76.3301 51.306 75.9101 50.994 75.6581 50.574C75.4061 50.154 75.2801 49.614 75.2801 48.954H76.7741C76.7741 49.338 76.8461 49.638 76.9901 49.854C77.1341 50.082 77.3921 50.25 77.7641 50.358C78.1361 50.478 78.6641 50.538 79.3481 50.538C80.3441 50.538 81.0521 50.412 81.4721 50.16C81.9041 49.92 82.1201 49.554 82.1201 49.062C82.1201 48.618 81.9521 48.282 81.6161 48.054C81.2801 47.826 80.8121 47.712 80.2121 47.712H78.7181C77.9141 47.712 77.3021 47.544 76.8821 47.208C76.4741 46.86 76.2701 46.428 76.2701 45.912C76.2701 45.6 76.3601 45.3 76.5401 45.012C76.7201 44.724 76.9781 44.466 77.3141 44.238C76.7621 43.95 76.3541 43.596 76.0901 43.176C75.8381 42.744 75.7121 42.222 75.7121 41.61C75.7121 40.974 75.8681 40.404 76.1801 39.9C76.5041 39.396 76.9421 39.006 77.4941 38.73C78.0581 38.442 78.6821 38.298 79.3661 38.298C80.1101 38.31 80.7341 38.286 81.2381 38.226C81.7421 38.154 82.1561 38.064 82.4801 37.956C82.8161 37.836 83.2241 37.668 83.7041 37.452L84.1901 38.946ZM79.3661 39.486C78.7421 39.486 78.2561 39.684 77.9081 40.08C77.5721 40.464 77.4041 40.974 77.4041 41.61C77.4041 42.258 77.5781 42.78 77.9261 43.176C78.2741 43.56 78.7661 43.752 79.4021 43.752C80.0501 43.752 80.5421 43.566 80.8781 43.194C81.2261 42.81 81.4001 42.276 81.4001 41.592C81.4001 40.188 80.7221 39.486 79.3661 39.486ZM90.3556 38.298C91.2196 38.298 91.8916 38.556 92.3716 39.072C92.8636 39.588 93.1096 40.296 93.1096 41.196V48H91.4536V41.43C91.4536 40.758 91.3276 40.284 91.0756 40.008C90.8236 39.732 90.4516 39.594 89.9596 39.594C89.4556 39.594 89.0116 39.738 88.6276 40.026C88.2436 40.314 87.8836 40.728 87.5476 41.268V48H85.8916V38.514H87.3136L87.4576 39.918C87.7936 39.414 88.2076 39.018 88.6996 38.73C89.2036 38.442 89.7556 38.298 90.3556 38.298ZM103.603 42.978C103.603 43.254 103.591 43.536 103.567 43.824H97.5185C97.5905 44.868 97.8545 45.636 98.3105 46.128C98.7665 46.62 99.3545 46.866 100.075 46.866C100.531 46.866 100.951 46.8 101.335 46.668C101.719 46.536 102.121 46.326 102.541 46.038L103.261 47.028C102.253 47.82 101.149 48.216 99.9485 48.216C98.6285 48.216 97.5965 47.784 96.8525 46.92C96.1205 46.056 95.7545 44.868 95.7545 43.356C95.7545 42.372 95.9105 41.502 96.2225 40.746C96.5465 39.978 97.0025 39.378 97.5905 38.946C98.1905 38.514 98.8925 38.298 99.6965 38.298C100.957 38.298 101.923 38.712 102.595 39.54C103.267 40.368 103.603 41.514 103.603 42.978ZM101.965 42.492C101.965 41.556 101.779 40.842 101.407 40.35C101.035 39.858 100.477 39.612 99.7325 39.612C98.3765 39.612 97.6385 40.608 97.5185 42.6H101.965V42.492ZM110.369 38.298C110.705 38.298 111.017 38.334 111.305 38.406L110.999 40.026C110.711 39.954 110.435 39.918 110.171 39.918C109.583 39.918 109.109 40.134 108.749 40.566C108.389 40.998 108.107 41.67 107.903 42.582V48H106.247V38.514H107.669L107.831 40.44C108.083 39.732 108.425 39.198 108.857 38.838C109.289 38.478 109.793 38.298 110.369 38.298ZM116.474 33.474L117.878 33.798L113.72 49.872L112.298 49.53L116.474 33.474ZM124.152 35.598C126.024 35.598 127.524 36.036 128.652 36.912C129.792 37.776 130.362 39.384 130.362 41.736C130.362 44.028 129.792 45.648 128.652 46.596C127.524 47.532 126.15 48 124.53 48H121.56V35.598H124.152ZM123.27 36.966V46.65H124.656C125.808 46.65 126.744 46.296 127.464 45.588C128.184 44.88 128.544 43.596 128.544 41.736C128.544 40.428 128.358 39.426 127.986 38.73C127.614 38.022 127.14 37.554 126.564 37.326C125.988 37.086 125.31 36.966 124.53 36.966H123.27ZM140.218 42.978C140.218 43.254 140.206 43.536 140.182 43.824H134.134C134.206 44.868 134.47 45.636 134.926 46.128C135.382 46.62 135.97 46.866 136.69 46.866C137.146 46.866 137.566 46.8 137.95 46.668C138.334 46.536 138.736 46.326 139.156 46.038L139.876 47.028C138.868 47.82 137.764 48.216 136.564 48.216C135.244 48.216 134.212 47.784 133.468 46.92C132.736 46.056 132.37 44.868 132.37 43.356C132.37 42.372 132.526 41.502 132.838 40.746C133.162 39.978 133.618 39.378 134.206 38.946C134.806 38.514 135.508 38.298 136.312 38.298C137.572 38.298 138.538 38.712 139.21 39.54C139.882 40.368 140.218 41.514 140.218 42.978ZM138.58 42.492C138.58 41.556 138.394 40.842 138.022 40.35C137.65 39.858 137.092 39.612 136.348 39.612C134.992 39.612 134.254 40.608 134.134 42.6H138.58V42.492ZM149.758 38.514L146.536 48H144.538L141.262 38.514H143.062L145.546 46.524L148.012 38.514H149.758ZM158.745 42.978C158.745 43.254 158.733 43.536 158.709 43.824H152.661C152.733 44.868 152.997 45.636 153.453 46.128C153.909 46.62 154.497 46.866 155.217 46.866C155.673 46.866 156.093 46.8 156.477 46.668C156.861 46.536 157.263 46.326 157.683 46.038L158.403 47.028C157.395 47.82 156.291 48.216 155.091 48.216C153.771 48.216 152.739 47.784 151.995 46.92C151.263 46.056 150.897 44.868 150.897 43.356C150.897 42.372 151.053 41.502 151.365 40.746C151.689 39.978 152.145 39.378 152.733 38.946C153.333 38.514 154.035 38.298 154.839 38.298C156.099 38.298 157.065 38.712 157.737 39.54C158.409 40.368 158.745 41.514 158.745 42.978ZM157.107 42.492C157.107 41.556 156.921 40.842 156.549 40.35C156.177 39.858 155.619 39.612 154.875 39.612C153.519 39.612 152.781 40.608 152.661 42.6H157.107V42.492ZM163.28 48.216C162.668 48.216 162.182 48.036 161.822 47.676C161.474 47.304 161.3 46.788 161.3 46.128V34.698L162.956 34.5V46.092C162.956 46.356 162.998 46.548 163.082 46.668C163.178 46.788 163.334 46.848 163.55 46.848C163.778 46.848 163.982 46.812 164.162 46.74L164.594 47.892C164.198 48.108 163.76 48.216 163.28 48.216ZM170.139 38.298C171.471 38.298 172.503 38.742 173.235 39.63C173.979 40.518 174.351 41.724 174.351 43.248C174.351 44.232 174.183 45.102 173.847 45.858C173.511 46.602 173.025 47.184 172.389 47.604C171.753 48.012 170.997 48.216 170.121 48.216C168.789 48.216 167.751 47.772 167.007 46.884C166.263 45.996 165.891 44.79 165.891 43.266C165.891 42.282 166.059 41.418 166.395 40.674C166.731 39.918 167.217 39.336 167.853 38.928C168.489 38.508 169.251 38.298 170.139 38.298ZM170.139 39.63C168.495 39.63 167.673 40.842 167.673 43.266C167.673 45.678 168.489 46.884 170.121 46.884C171.753 46.884 172.569 45.672 172.569 43.248C172.569 40.836 171.759 39.63 170.139 39.63ZM181.443 38.298C182.655 38.298 183.543 38.73 184.107 39.594C184.671 40.458 184.953 41.676 184.953 43.248C184.953 44.736 184.629 45.936 183.981 46.848C183.333 47.76 182.415 48.216 181.227 48.216C180.171 48.216 179.343 47.856 178.743 47.136V51.636L177.087 51.834V38.514H178.509L178.635 39.792C178.983 39.312 179.403 38.946 179.895 38.694C180.387 38.43 180.903 38.298 181.443 38.298ZM180.831 46.866C182.391 46.866 183.171 45.66 183.171 43.248C183.171 40.824 182.457 39.612 181.029 39.612C180.561 39.612 180.135 39.75 179.751 40.026C179.367 40.302 179.031 40.656 178.743 41.088V45.714C178.983 46.086 179.283 46.374 179.643 46.578C180.003 46.77 180.399 46.866 180.831 46.866ZM194.938 42.978C194.938 43.254 194.926 43.536 194.902 43.824H188.854C188.926 44.868 189.19 45.636 189.646 46.128C190.102 46.62 190.69 46.866 191.41 46.866C191.866 46.866 192.286 46.8 192.67 46.668C193.054 46.536 193.456 46.326 193.876 46.038L194.596 47.028C193.588 47.82 192.484 48.216 191.284 48.216C189.964 48.216 188.932 47.784 188.188 46.92C187.456 46.056 187.09 44.868 187.09 43.356C187.09 42.372 187.246 41.502 187.558 40.746C187.882 39.978 188.338 39.378 188.926 38.946C189.526 38.514 190.228 38.298 191.032 38.298C192.292 38.298 193.258 38.712 193.93 39.54C194.602 40.368 194.938 41.514 194.938 42.978ZM193.3 42.492C193.3 41.556 193.114 40.842 192.742 40.35C192.37 39.858 191.812 39.612 191.068 39.612C189.712 39.612 188.974 40.608 188.854 42.6H193.3V42.492ZM201.705 38.298C202.041 38.298 202.353 38.334 202.641 38.406L202.335 40.026C202.047 39.954 201.771 39.918 201.507 39.918C200.919 39.918 200.445 40.134 200.085 40.566C199.725 40.998 199.443 41.67 199.239 42.582V48H197.583V38.514H199.005L199.167 40.44C199.419 39.732 199.761 39.198 200.193 38.838C200.625 38.478 201.129 38.298 201.705 38.298Z" fill="#101214"/>
</svg>
