<svg width="561" height="982" viewBox="0 0 561 982" fill="none" xmlns="http://www.w3.org/2000/svg">
<path d="M445.782 908.509L489.503 981.668L404.282 981.603L445.782 908.509Z" fill="#DCB7B6"/>
<path d="M402.03 835.339L445.783 908.509L360.53 908.439L402.03 835.339Z" fill="#A04841"/>
<path d="M404.288 981.603L360.535 908.439L445.789 908.509L404.288 981.603Z" fill="#951907"/>
<path d="M360.535 908.428L404.288 981.592L319.034 981.528L360.535 908.428Z" fill="#991A06"/>
<path d="M358.31 762.153L402.03 835.339L316.809 835.28L358.31 762.153Z" fill="#A7312B"/>
<path d="M360.535 908.428L316.782 835.269L402.003 835.328L360.535 908.428Z" fill="#9D2B1A"/>
<path d="M316.809 835.279L360.562 908.439L275.33 908.385L316.809 835.279Z" fill="#A8210C"/>
<path d="M319.035 981.539L275.281 908.385L360.513 908.439L319.035 981.539Z" fill="#BF300F"/>
<path d="M275.304 908.39L319.056 981.544L233.825 981.479L275.304 908.39Z" fill="#D74907"/>
<path d="M314.578 689.021L358.331 762.153H273.11L314.578 689.021Z" fill="#B72D28"/>
<path d="M316.809 835.28L273.089 762.126H358.31L316.809 835.28Z" fill="#AF231E"/>
<path d="M273.089 762.126L316.809 835.28L231.577 835.231L273.089 762.126Z" fill="#A82F18"/>
<path d="M275.303 908.39L231.55 835.237L316.782 835.285L275.303 908.39Z" fill="#C6461F"/>
<path d="M231.572 835.237L275.325 908.39L190.104 908.32L231.572 835.237Z" fill="#D95F07"/>
<path d="M233.797 981.479L190.076 908.32L275.298 908.39L233.797 981.479Z" fill="#F2960A"/>
<path d="M190.083 908.32L233.803 981.479L148.582 981.425L190.083 908.32Z" fill="#F1980F"/>
<path d="M270.853 615.856L314.606 689.021L229.374 688.94L270.853 615.856Z" fill="#C43232"/>
<path d="M273.089 762.126L229.336 688.94L314.567 689.021L273.089 762.126Z" fill="#C61C1A"/>
<path d="M229.347 688.945L273.1 762.131L187.857 762.061L229.347 688.945Z" fill="#B02A10"/>
<path d="M231.572 835.237L187.819 762.061L273.061 762.131L231.572 835.237Z" fill="#C55A12"/>
<path d="M187.847 762.045L231.599 835.22L146.378 835.15L187.847 762.045Z" fill="#D27429"/>
<path d="M190.083 908.32L146.33 835.166L231.551 835.236L190.083 908.32Z" fill="#EF910A"/>
<path d="M146.351 835.166L190.104 908.32L104.862 908.271L146.351 835.166Z" fill="#F19A0D"/>
<path d="M148.576 981.425L104.823 908.271L190.066 908.32L148.576 981.425Z" fill="#F29F12"/>
<path d="M227.1 542.686L270.853 615.861L185.599 615.797L227.1 542.686Z" fill="#CB5662"/>
<path d="M229.347 688.945L185.594 615.797L270.847 615.862L229.347 688.945Z" fill="#CB452F"/>
<path d="M185.599 615.797L229.352 688.945L144.098 688.907L185.599 615.797Z" fill="#CD3D15"/>
<path d="M187.846 762.045L144.093 688.891L229.346 688.929L187.846 762.045Z" fill="#D5680A"/>
<path d="M144.093 688.907L187.846 762.061L102.593 762.007L144.093 688.907Z" fill="#DF6E09"/>
<path d="M146.351 835.166L102.599 762.007L187.852 762.061L146.351 835.166Z" fill="#ED830B"/>
<path d="M102.587 762.007L146.34 835.166L61.087 835.085L102.587 762.007Z" fill="#EE8C0B"/>
<path d="M104.835 908.271L61.0818 835.085L146.335 835.166L104.835 908.271Z" fill="#E87F0D"/>
<path d="M340.992 907.423L384.745 980.593L299.481 980.523L340.992 907.423Z" fill="#F8E086"/>
<path d="M297.239 834.221L340.959 907.423L255.728 907.358L297.239 834.221Z" fill="#E3811A"/>
<path d="M299.465 980.523L255.712 907.358L340.944 907.423L299.465 980.523Z" fill="#F8DE84"/>
<path d="M255.734 907.348L299.486 980.512L214.244 980.458L255.734 907.348Z" fill="#F5D189"/>
<path d="M253.519 761.089L297.272 834.221H212.04L253.519 761.089Z" fill="#E97D0D"/>
<path d="M255.733 907.348L212.013 834.188H297.244L255.733 907.348Z" fill="#D8863C"/>
<path d="M212.013 834.199L255.733 907.359L170.502 907.304L212.013 834.199Z" fill="#D8640B"/>
<path d="M214.216 980.469L170.496 907.304L255.727 907.358L214.216 980.469Z" fill="#F3C988"/>
<path d="M170.502 907.304L214.222 980.469L129.001 980.393L170.502 907.304Z" fill="#EBB782"/>
<path d="M209.766 687.918L253.519 761.088L168.276 761.007L209.766 687.918Z" fill="#EE8F0A"/>
<path d="M212.013 834.199L168.26 761.007L253.502 761.088L212.013 834.199Z" fill="#EA8012"/>
<path d="M168.276 761.007L212.029 834.199L126.775 834.129L168.276 761.007Z" fill="#EE8308"/>
<path d="M170.502 907.304L126.749 834.129L212.002 834.199L170.502 907.304Z" fill="#E2730F"/>
<path d="M126.76 834.134L170.513 907.31L85.2808 907.245L126.76 834.134Z" fill="#E7790C"/>
<path d="M128.995 980.399L85.2426 907.245L170.474 907.31L128.995 980.399Z" fill="#ECBE85"/>
<path d="M85.2642 907.245L129.017 980.399L43.7745 980.355L85.2642 907.245Z" fill="#ECBF8A"/>
<path d="M168.276 761.008L124.523 687.854L209.776 687.919L168.276 761.008Z" fill="#EA8109"/>
<path d="M126.759 834.134L83.006 760.975L168.27 761.013L126.759 834.134Z" fill="#E97708"/>
<path d="M85.2645 907.245L41.5115 834.08L126.765 834.134L85.2645 907.245Z" fill="#E78E3C"/>
<path d="M43.7529 980.355L0 907.164L85.2642 907.245L43.7529 980.355Z" fill="#D99030"/>
<g style="mix-blend-mode:overlay">
<g style="mix-blend-mode:overlay">
<path d="M560.799 744.29V687.033L528.303 744.263L560.799 744.29Z" fill="#A04841"/>
</g>
<g style="mix-blend-mode:overlay">
<path d="M560.799 798.586V744.29H528.303L560.799 798.586Z" fill="#951907"/>
</g>
<g style="mix-blend-mode:overlay">
<path d="M560.799 817.416V798.587L528.303 744.263L486.835 817.357L560.799 817.416Z" fill="#991A06"/>
</g>
<g style="mix-blend-mode:overlay">
<path d="M560.799 671.152V656.065L526.088 597.977L484.577 671.098L560.799 671.152Z" fill="#A7312B"/>
</g>
<g style="mix-blend-mode:overlay">
<path d="M560.799 671.152L484.577 671.098L528.33 744.262L560.826 687.032L560.799 671.152Z" fill="#9D2B1A"/>
</g>
<g style="mix-blend-mode:overlay">
<path d="M484.572 671.098L528.324 744.262L443.082 744.219L484.572 671.098Z" fill="#A8210C"/>
</g>
<g style="mix-blend-mode:overlay">
<path d="M486.835 817.357L443.082 744.219L528.303 744.278L486.835 817.357Z" fill="#BF300F"/>
</g>
<g style="mix-blend-mode:overlay">
<path d="M443.082 744.219L486.835 817.373L401.592 817.314L443.082 744.219Z" fill="#D74907"/>
</g>
<g style="mix-blend-mode:overlay">
<path d="M482.357 524.839L526.11 597.976L440.889 597.944L482.357 524.839Z" fill="#B72D28"/>
</g>
<g style="mix-blend-mode:overlay">
<path d="M484.572 671.098L440.867 597.944L526.088 597.977L484.572 671.098Z" fill="#AF231E"/>
</g>
<g style="mix-blend-mode:overlay">
<path d="M440.867 597.944L484.577 671.098L399.329 671.049L440.867 597.944Z" fill="#A82F18"/>
</g>
<g style="mix-blend-mode:overlay">
<path d="M443.082 744.219L399.329 671.049L484.55 671.098L443.082 744.219Z" fill="#C6461F"/>
</g>
<g style="mix-blend-mode:overlay">
<path d="M399.329 671.049L443.082 744.203L357.85 744.138L399.329 671.049Z" fill="#D95F07"/>
</g>
<g style="mix-blend-mode:overlay">
<path d="M401.565 817.297L357.845 744.138L443.077 744.203L401.565 817.297Z" fill="#F2960A"/>
</g>
<g style="mix-blend-mode:overlay">
<path d="M357.845 744.138L401.565 817.297L316.355 817.238L357.845 744.138Z" fill="#F1980F"/>
</g>
<g style="mix-blend-mode:overlay">
<path d="M438.615 451.68L482.368 524.839L397.136 524.763L438.615 451.68Z" fill="#C43232"/>
</g>
<g style="mix-blend-mode:overlay">
<path d="M440.867 597.944L397.115 524.764L482.346 524.839L440.867 597.944Z" fill="#C61C1A"/>
</g>
<g style="mix-blend-mode:overlay">
<path d="M397.125 524.764L440.878 597.944L355.625 597.879L397.125 524.764Z" fill="#B02A10"/>
</g>
<g style="mix-blend-mode:overlay">
<path d="M399.329 671.049L355.576 597.879L440.83 597.944L399.329 671.049Z" fill="#C55A12"/>
</g>
<g style="mix-blend-mode:overlay">
<path d="M355.609 597.879L399.361 671.049L314.141 670.984L355.609 597.879Z" fill="#D27429"/>
</g>
<g style="mix-blend-mode:overlay">
<path d="M357.845 744.138L314.125 670.984L399.345 671.049L357.845 744.138Z" fill="#EF910A"/>
</g>
<g style="mix-blend-mode:overlay">
<path d="M314.13 670.984L357.85 744.138L272.619 744.084L314.13 670.984Z" fill="#F19A0D"/>
</g>
<g style="mix-blend-mode:overlay">
<path d="M316.355 817.244L272.602 744.09L357.834 744.144L316.355 817.244Z" fill="#F29F12"/>
</g>
<g style="mix-blend-mode:overlay">
<path d="M394.878 378.505L438.631 451.68L353.389 451.615L394.878 378.505Z" fill="#CB5662"/>
</g>
<g style="mix-blend-mode:overlay">
<path d="M397.125 524.763L353.372 451.615L438.615 451.68L397.125 524.763Z" fill="#CB452F"/>
</g>
<g style="mix-blend-mode:overlay">
<path d="M353.372 451.615L397.125 524.763L311.872 524.726L353.372 451.615Z" fill="#CD3D15"/>
</g>
<g style="mix-blend-mode:overlay">
<path d="M355.609 597.879L311.856 524.725L397.109 524.763L355.609 597.879Z" fill="#D5680A"/>
</g>
<g style="mix-blend-mode:overlay">
<path d="M311.872 524.725L355.625 597.879L270.371 597.825L311.872 524.725Z" fill="#DF6E09"/>
</g>
<g style="mix-blend-mode:overlay">
<path d="M314.13 670.985L270.377 597.826L355.63 597.879L314.13 670.985Z" fill="#ED830B"/>
</g>
<g style="mix-blend-mode:overlay">
<path d="M270.355 597.836L314.108 670.995L228.855 670.914L270.355 597.836Z" fill="#EE8C0B"/>
</g>
<g style="mix-blend-mode:overlay">
<path d="M272.613 744.09L228.86 670.909L314.114 670.99L272.613 744.09Z" fill="#E87F0D"/>
</g>
</g>
<path d="M558.601 956.891H455.97L470.014 981.668H558.601V956.891Z" fill="#2473DC"/>
<path d="M470.014 981.668L455.97 956.891L441.926 981.668H470.014Z" fill="#136ADE"/>
<path d="M441.932 981.668L455.976 956.891H326.986L341.03 981.668H441.932Z" fill="#237CE7"/>
<path d="M341.03 981.668L326.986 956.891L312.942 981.668H341.03Z" fill="#1A2966"/>
<path d="M312.947 981.668L326.991 956.891H197.996L212.04 981.668H312.947Z" fill="#2580F0"/>
<path d="M212.034 981.668L197.99 956.891L183.946 981.668H212.034Z" fill="#1D74DF"/>
<path d="M558.601 910.367V843.122H520.471L558.601 910.367Z" fill="#3E85D9"/>
<path d="M558.601 956.891V910.367L520.471 843.122L455.97 956.896L558.601 956.891Z" fill="#317CDA"/>
<path d="M520.476 843.122L455.976 956.896L391.481 843.122H520.476Z" fill="#3A88E7"/>
<path d="M326.986 956.891L391.481 843.122L455.97 956.896L326.986 956.891Z" fill="#1A2966"/>
<path d="M391.481 843.122L326.986 956.896L262.474 843.122H391.481Z" fill="#2475EF"/>
<path d="M558.601 843.122V775.845L520.471 843.117L558.601 843.122Z" fill="#4484D8"/>
<path d="M558.601 729.3H455.97L520.471 843.117L558.601 775.846V729.3Z" fill="#4B9CEA"/>
<path d="M391.481 843.122L455.971 729.305L520.471 843.122H391.481Z" fill="#4292F2"/>
<path d="M455.97 729.3L391.481 843.122L326.986 729.306L455.97 729.3Z" fill="#3489EC"/>
<path style="mix-blend-mode:multiply" opacity="0.5" d="M262.474 843.122L326.986 729.305L391.481 843.122H262.474Z" fill="url(#paint0_linear)"/>
<path d="M326.986 729.3L262.474 843.122L197.996 729.306L326.986 729.3Z" fill="#1761BD"/>
<path d="M558.601 682.77V615.515H520.471L558.601 682.77Z" fill="#54A2F2"/>
<path d="M558.601 729.3V682.77L520.471 615.515L455.97 729.3H558.601Z" fill="#51ABF3"/>
<path d="M520.476 615.515L455.976 729.3L391.486 615.515H520.476Z" fill="#3F9EEB"/>
<path d="M326.986 729.3L391.481 615.515L455.97 729.3H326.986Z" fill="#3380DA"/>
<path d="M391.481 615.515L326.986 729.3L262.474 615.515H391.481Z" fill="#2569BD"/>
<path d="M558.601 615.515V548.271L520.471 615.515H558.601Z" fill="#50A2F3"/>
<path d="M558.601 501.742H455.97L520.471 615.515L558.601 548.271V501.742Z" fill="#5096E7"/>
<path d="M391.481 615.515L455.971 501.747L520.471 615.521L391.481 615.515Z" fill="#3F85DA"/>
<path d="M455.97 501.742L391.481 615.515L326.986 501.747L455.97 501.742Z" fill="#1A2966"/>
<path d="M262.474 615.515L326.986 501.747L391.481 615.521L262.474 615.515Z" fill="#296EC1"/>
<path d="M558.601 455.201V387.941H520.471L558.601 455.201Z" fill="#5195E6"/>
<path d="M558.601 501.742V455.201L520.471 387.941L455.97 501.742H558.601Z" fill="#4484D6"/>
<path d="M326.986 501.742L391.481 387.941L455.97 501.742H326.986Z" fill="#477BC6"/>
<path d="M558.601 387.941V320.67L520.471 387.941H558.601Z" fill="#4180D3"/>
<g style="mix-blend-mode:overlay">
<g style="mix-blend-mode:overlay">
<path d="M558.6 979.356V912.085L520.47 979.356H558.6Z" fill="#2157C2"/>
</g>
<g style="mix-blend-mode:overlay">
<path d="M558.6 865.545H455.97L520.47 979.356L558.6 912.085V865.545Z" fill="#2473DC"/>
</g>
<g style="mix-blend-mode:overlay">
<path d="M391.48 979.356L455.97 865.545L520.47 979.356H391.48Z" fill="#136ADE"/>
</g>
<g style="mix-blend-mode:overlay">
<path d="M455.97 865.545L391.48 979.356L326.985 865.545H455.97Z" fill="#237CE7"/>
</g>
<g style="mix-blend-mode:overlay">
<path d="M262.474 979.356L326.985 865.545L391.48 979.356H262.474Z" fill="#1A2966"/>
</g>
<g style="mix-blend-mode:overlay">
<path d="M326.985 865.545L262.474 979.356L197.995 865.545H326.985Z" fill="#2580F0"/>
</g>
<g style="mix-blend-mode:overlay">
<path d="M137.022 973.112L197.99 865.545L262.474 979.356H137.022V973.112Z" fill="#1D74DF"/>
</g>
<g style="mix-blend-mode:overlay">
<path d="M558.6 819.015V751.782H520.47L558.6 819.015Z" fill="#3E85D9"/>
</g>
<g style="mix-blend-mode:overlay">
<path d="M558.6 865.545V819.015L520.47 751.766L455.97 865.545H558.6Z" fill="#317CDA"/>
</g>
<g style="mix-blend-mode:overlay">
<path d="M520.476 751.782L455.975 865.561L391.48 751.782H520.476Z" fill="#3A88E7"/>
</g>
<g style="mix-blend-mode:overlay">
<path d="M326.985 865.545L391.48 751.766L455.97 865.545H326.985Z" fill="#1A2966"/>
</g>
<g style="mix-blend-mode:overlay">
<path d="M391.48 751.782L326.985 865.561L262.474 751.782H391.48Z" fill="#2475EF"/>
</g>
<g style="mix-blend-mode:overlay">
<path d="M558.6 751.782V684.494L520.476 751.782H558.6Z" fill="#4484D8"/>
</g>
<g style="mix-blend-mode:overlay">
<path d="M558.6 637.954H455.97L520.475 751.782L558.605 684.516L558.6 637.954Z" fill="#4B9CEA"/>
</g>
<g style="mix-blend-mode:overlay">
<path d="M391.48 751.782L455.97 637.976L520.476 751.782H391.48Z" fill="#4292F2"/>
</g>
<g style="mix-blend-mode:overlay">
<path d="M455.97 637.954L391.48 751.782L326.985 637.976L455.97 637.954Z" fill="#3489EC"/>
</g>
<path style="mix-blend-mode:multiply" opacity="0.5" d="M262.474 751.782L326.985 637.976L391.48 751.782H262.474Z" fill="url(#paint1_linear)"/>
<g style="mix-blend-mode:overlay">
<path d="M326.985 637.954L262.474 751.782L197.995 637.976L326.985 637.954Z" fill="#1761BD"/>
</g>
<g style="mix-blend-mode:overlay">
<path d="M558.6 591.42V524.159H520.47L558.6 591.42Z" fill="#54A2F2"/>
</g>
<g style="mix-blend-mode:overlay">
<path d="M558.6 637.954V591.42L520.47 524.159L455.97 637.954H558.6Z" fill="#51ABF3"/>
</g>
<g style="mix-blend-mode:overlay">
<path d="M520.476 524.159L455.975 637.954L391.48 524.159H520.476Z" fill="#3F9EEB"/>
</g>
<g style="mix-blend-mode:overlay">
<path d="M326.985 637.954L391.48 524.159L455.97 637.954H326.985Z" fill="#3380DA"/>
</g>
<g style="mix-blend-mode:overlay">
<path d="M391.48 524.159L326.985 637.954L262.474 524.159H391.48Z" fill="#2569BD"/>
</g>
<g style="mix-blend-mode:overlay">
<path d="M558.6 524.159V456.914L520.47 524.153L558.6 524.159Z" fill="#50A2F3"/>
</g>
<g style="mix-blend-mode:overlay">
<path d="M558.6 410.401H455.97L520.47 524.164L558.6 456.925V410.401Z" fill="#5096E7"/>
</g>
<g style="mix-blend-mode:overlay">
<path d="M391.48 524.159L455.97 410.401L520.47 524.164L391.48 524.159Z" fill="#3F85DA"/>
</g>
<g style="mix-blend-mode:overlay">
<path d="M455.97 410.401L391.48 524.159L326.985 410.401H455.97Z" fill="#1A2966"/>
</g>
<g style="mix-blend-mode:overlay">
<path d="M262.474 524.159L326.985 410.401L391.48 524.164L262.474 524.159Z" fill="#296EC1"/>
</g>
<g style="mix-blend-mode:overlay">
<path d="M558.6 363.856V296.584H520.47L558.6 363.856Z" fill="#5195E6"/>
</g>
<g style="mix-blend-mode:overlay">
<path d="M558.6 410.401V363.861L520.47 296.59L455.97 410.401H558.6Z" fill="#4484D6"/>
</g>
<g style="mix-blend-mode:overlay">
<path d="M326.985 410.401L391.48 296.59L455.97 410.401H326.985Z" fill="#477BC6"/>
</g>
<path d="M447.544 289L391.481 387.941H520.476L455.976 274.735L447.544 289Z" fill="#4576C5"/>
</g>
<g style="mix-blend-mode:overlay">
<g style="mix-blend-mode:overlay">
<path d="M558.601 963.346V896.085H520.471L558.601 963.346Z" fill="#54A2F2"/>
</g>
<g style="mix-blend-mode:overlay">
<path d="M558.601 981.668V963.346L520.471 896.085L471.964 981.668H558.601Z" fill="#51ABF3"/>
</g>
<g style="mix-blend-mode:overlay">
<path d="M471.965 981.668L520.471 896.085H391.481L439.987 981.668H471.965Z" fill="#3F9EEB"/>
</g>
<g style="mix-blend-mode:overlay">
<path d="M439.987 981.668L391.481 896.085L342.98 981.668H439.987Z" fill="#3380DA"/>
</g>
<g style="mix-blend-mode:overlay">
<path d="M342.98 981.668L391.481 896.085H262.474L310.992 981.668H342.98Z" fill="#2569BD"/>
</g>
<g style="mix-blend-mode:overlay">
<path d="M558.601 896.085V828.846L520.471 896.085H558.601Z" fill="#50A2F3"/>
</g>
<g style="mix-blend-mode:overlay">
<path d="M558.601 782.322H455.97L520.471 896.085L558.601 828.846V782.322Z" fill="#5096E7"/>
</g>
<g style="mix-blend-mode:overlay">
<path d="M391.481 896.085L455.97 782.322L520.471 896.085H391.481Z" fill="#3F85DA"/>
</g>
<g style="mix-blend-mode:overlay">
<path d="M455.97 782.322L391.481 896.085L326.986 782.322H455.97Z" fill="#1A2966"/>
</g>
<g style="mix-blend-mode:overlay">
<path d="M262.474 896.085L326.986 782.322L391.481 896.085H262.474Z" fill="#296EC1"/>
</g>
<g style="mix-blend-mode:overlay">
<path d="M558.601 735.782V668.511H520.471L558.601 735.782Z" fill="#5195E6"/>
</g>
<g style="mix-blend-mode:overlay">
<path d="M558.601 782.322V735.782L520.471 668.516L455.97 782.322H558.601Z" fill="#4484D6"/>
</g>
<g style="mix-blend-mode:overlay">
<path d="M326.986 782.322L391.481 668.516L455.97 782.322H326.986Z" fill="#477BC6"/>
</g>
<g style="mix-blend-mode:overlay">
<path d="M558.601 668.511V601.239L520.471 668.511H558.601Z" fill="#4180D3"/>
</g>
<g style="mix-blend-mode:overlay">
<path d="M558.601 554.694H455.97L520.471 668.511L558.601 601.239V554.694Z" fill="#4175C5"/>
</g>
<g style="mix-blend-mode:overlay">
<path d="M391.481 668.511L455.97 554.694L520.471 668.511H391.481Z" fill="#4576C5"/>
</g>
<g style="mix-blend-mode:overlay">
<path d="M558.601 508.17V440.898H520.471L558.601 508.17Z" fill="#4175C5"/>
</g>
<g style="mix-blend-mode:overlay">
<path d="M558.601 554.694V508.17L520.471 440.909L455.97 554.704L558.601 554.694Z" fill="#4476C5"/>
</g>
</g>
<g style="mix-blend-mode:overlay">
<g style="mix-blend-mode:overlay">
<path d="M445.842 968.251H514.226L508.382 978.568H509.943L515.388 968.947L520.843 978.568H522.394L516.549 968.251H560.48V966.9H517.311L560.48 890.738V887.983L516.003 966.484L446.679 844.176H560.502V842.593H446.107L515.388 720.285L521.065 730.289L560.496 799.834V797.09L516.544 719.594H560.475V718.243H516.544L560.475 640.736V637.992L515.382 717.547L446.107 595.244H560.48V593.893H446.107L515.388 471.596L519.596 479.012L560.475 551.14V548.396L516.544 470.899H560.475V469.548H516.544L560.475 392.057V389.335L515.382 468.873L503.65 448.153L446.102 346.603H560.475V345.252H446.107L515.388 222.939L521.065 232.942L560.496 302.493V299.744L516.544 222.209H560.475V220.859H516.544L560.475 143.346V140.602L515.382 220.162L500.836 194.472L446.107 97.8487H560.48V96.4983H446.107L515.388 -25.8155L560.48 53.7446V51.0006L516.544 -26.5068H560.475V-27.8572H516.544L560.475 -105.338V-108.082L515.382 -28.554L491.308 -71.0322L446.107 -150.825H560.48V-152.175H446.107L515.787 -275.169H516.56L516.182 -275.844L516.56 -276.52H515.798L446.118 -399.525L445.853 -400V-397.256L514.237 -276.514H445.853V-275.164H514.237L445.853 -154.427V-148.545L469.031 -107.639L514.237 -27.8518H445.853V-26.5014H514.237L445.853 94.2296V100.128L459.503 124.241L514.237 220.87H445.853V222.22H514.237L445.853 342.957V348.844L456.699 367.982L514.237 469.532H445.853V470.883H514.237L445.853 591.608V597.496L514.237 718.232H445.853V719.583H514.237L445.853 840.319V846.207L514.237 966.889H445.853L445.842 968.251Z" fill="#CECCCC"/>
</g>
</g>
<defs>
<linearGradient id="paint0_linear" x1="-7243.88" y1="-20856.7" x2="-7130.1" y2="-20856.7" gradientUnits="userSpaceOnUse">
<stop stop-color="white"/>
<stop offset="0.162" stop-color="#FBFBFB"/>
<stop offset="0.293" stop-color="#F1F1F1"/>
<stop offset="0.412" stop-color="#E0E0E0"/>
<stop offset="0.525" stop-color="#C9C9C9"/>
<stop offset="0.633" stop-color="#AAAAAA"/>
<stop offset="0.738" stop-color="#848484"/>
<stop offset="0.84" stop-color="#575757"/>
<stop offset="0.937" stop-color="#242424"/>
<stop offset="1"/>
</linearGradient>
<linearGradient id="paint1_linear" x1="-7335.35" y1="-20856.6" x2="-7221.44" y2="-20856.6" gradientUnits="userSpaceOnUse">
<stop stop-color="white"/>
<stop offset="0.162" stop-color="#FBFBFB"/>
<stop offset="0.293" stop-color="#F1F1F1"/>
<stop offset="0.412" stop-color="#E0E0E0"/>
<stop offset="0.525" stop-color="#C9C9C9"/>
<stop offset="0.633" stop-color="#AAAAAA"/>
<stop offset="0.738" stop-color="#848484"/>
<stop offset="0.84" stop-color="#575757"/>
<stop offset="0.937" stop-color="#242424"/>
<stop offset="1"/>
</linearGradient>
</defs>
</svg>
