<svg width="219" height="1002" viewBox="0 0 219 1002" fill="none" xmlns="http://www.w3.org/2000/svg">
<path d="M21.6238 640.219L0.00775146 604.059L42.1412 604.087L21.6238 640.219Z" fill="#6D8FEE"/>
<path d="M20.5174 567.922L42.1335 604.087L0 604.059L20.5174 567.922Z" fill="#628AE9"/>
<path d="M42.1334 604.087L20.5174 567.922L62.6458 567.955L42.1334 604.087Z" fill="#6485E8"/>
<path d="M41.0297 531.787L62.6458 567.957L20.5174 567.924L41.0297 531.787Z" fill="#7290E7"/>
<path d="M62.6459 567.955L41.0298 531.785L83.1582 531.818L62.6459 567.955Z" fill="#5F7DE2"/>
<path d="M61.5397 495.661L83.1558 531.821L41.0274 531.787L61.5397 495.661Z" fill="#5A79E0"/>
<path d="M83.1608 531.818L61.5448 495.658L103.681 495.684L83.1608 531.818Z" fill="#5870DC"/>
<path d="M82.057 459.524L103.673 495.684L61.537 495.658L82.057 459.524Z" fill="#5673DC"/>
<path d="M43.2321 676.381L21.616 640.219L63.7393 640.249L43.2321 676.381Z" fill="#757DE6"/>
<path d="M42.1335 604.087L63.7496 640.249L21.6263 640.219L42.1335 604.087Z" fill="#6C87EA"/>
<path d="M63.747 640.249L42.131 604.087L84.2594 604.115L63.747 640.249Z" fill="#736EDF"/>
<path d="M62.6458 567.955L84.2618 604.115L42.1334 604.087L62.6458 567.955Z" fill="#617CE3"/>
<path d="M84.2619 604.115L62.6459 567.955L104.774 567.98L84.2619 604.115Z" fill="#6A70DE"/>
<path d="M83.1607 531.818L104.777 567.98L62.6484 567.955L83.1607 531.818Z" fill="#5D77DF"/>
<path d="M104.777 567.98L83.1608 531.818L125.292 531.848L104.777 567.98Z" fill="#7073DC"/>
<path d="M103.676 495.684L125.292 531.849L83.1608 531.818L103.676 495.684Z" fill="#5568D7"/>
<path d="M64.8634 712.553L43.2321 676.381L85.3757 676.416L64.8634 712.553Z" fill="#7963D6"/>
<path d="M63.7469 640.249L85.363 676.416L43.2194 676.381L63.7469 640.249Z" fill="#958DE5"/>
<path d="M85.3757 676.422L63.7597 640.254L105.901 640.29L85.3757 676.422Z" fill="#8E73DA"/>
<path d="M84.2618 604.115L105.878 640.285L63.7368 640.249L84.2618 604.115Z" fill="#7564DA"/>
<path d="M105.888 640.285L84.2722 604.115L126.408 604.15L105.888 640.285Z" fill="#7854D0"/>
<path d="M104.777 567.98L126.393 604.15L84.2567 604.115L104.777 567.98Z" fill="#7362D7"/>
<path d="M126.4 604.15L104.784 567.98L146.923 568.013L126.4 604.15Z" fill="#6D4CCB"/>
<path d="M125.292 531.848L146.908 568.013L104.769 567.98L125.292 531.848Z" fill="#5B5ACF"/>
<path d="M86.4719 748.726L64.8558 712.551L106.984 712.579L86.4719 748.726Z" fill="#6E3FBA"/>
<path d="M85.3756 676.422L106.992 712.587L64.8633 712.559L85.3756 676.422Z" fill="#7A53CC"/>
<path d="M106.992 712.579L85.3757 676.414L127.504 676.442L106.992 712.579Z" fill="#6D36B7"/>
<path d="M105.888 640.285L127.504 676.444L85.3757 676.416L105.888 640.285Z" fill="#794AC9"/>
<path d="M127.504 676.442L105.888 640.282L148.019 640.31L127.504 676.442Z" fill="#713ABA"/>
<path d="M126.401 604.15L148.017 640.313L105.886 640.285L126.401 604.15Z" fill="#7E56CB"/>
<path d="M148.021 640.31L126.405 604.148L168.541 604.176L148.021 640.31Z" fill="#7040BB"/>
<path d="M146.915 568.013L168.531 604.178L126.395 604.15L146.915 568.013Z" fill="#623DBE"/>
<path d="M108.09 784.878L86.4744 748.726L128.605 748.741L108.09 784.878Z" fill="#702FA9"/>
<path d="M106.992 712.579L128.608 748.741L86.4769 748.726L106.992 712.579Z" fill="#662EAF"/>
<path d="M128.603 748.741L106.987 712.579L149.115 712.604L128.603 748.741Z" fill="#6626A5"/>
<path d="M127.504 676.442L149.12 712.604L106.992 712.579L127.504 676.442Z" fill="#692DAE"/>
<path d="M149.12 712.604L127.504 676.442L169.63 676.475L149.12 712.604Z" fill="#7034AC"/>
<path d="M148.021 640.31L169.637 676.475L127.512 676.442L148.021 640.31Z" fill="#7C4ABA"/>
<path d="M169.632 676.475L148.016 640.31L190.145 640.338L169.632 676.475Z" fill="#7843B3"/>
<path d="M168.536 604.176L190.153 640.338L148.024 640.31L168.536 604.176Z" fill="#5D27AC"/>
<path d="M129.709 821.043L108.093 784.878L150.221 784.916L129.709 821.043Z" fill="#7030A4"/>
<path d="M128.603 748.741L150.219 784.916L108.09 784.878L128.603 748.741Z" fill="#6928A4"/>
<path d="M150.219 784.916L128.603 748.741L170.736 748.774L150.219 784.916Z" fill="#6827A1"/>
<path d="M149.12 712.604L170.736 748.774L128.603 748.741L149.12 712.604Z" fill="#6827A4"/>
<path d="M170.736 748.774L149.12 712.604L191.249 712.637L170.736 748.774Z" fill="#7438A9"/>
<path d="M169.633 676.475L191.249 712.637L149.12 712.604L169.633 676.475Z" fill="#763EAE"/>
<path d="M191.251 712.637L169.635 676.475L211.768 676.501L191.251 712.637Z" fill="#7941AC"/>
<path d="M190.147 640.338L211.763 676.5L169.63 676.475L190.147 640.338Z" fill="#6428A5"/>
<path d="M151.332 857.213L129.716 821.041L171.857 821.074L151.332 857.213Z" fill="#B492CF"/>
<path d="M150.219 784.916L171.85 821.076L129.709 821.043L150.219 784.916Z" fill="#7C42AC"/>
<path d="M171.85 821.073L150.219 784.914L192.362 784.934L171.85 821.073Z" fill="#9E72C1"/>
<path d="M170.736 748.774L192.352 784.937L150.209 784.916L170.736 748.774Z" fill="#7438A8"/>
<path d="M192.362 784.937L170.746 748.774L212.89 748.802L192.362 784.937Z" fill="#8750B2"/>
<path d="M191.251 712.637L212.882 748.802L170.739 748.774L191.251 712.637Z" fill="#793FAB"/>
<path d="M212.882 748.8L191.251 712.635L233.392 712.673L212.882 748.8Z" fill="#8B56B4"/>
<path d="M211.766 676.5L233.382 712.675L191.241 712.637L211.766 676.5Z" fill="#783FAB"/>
<path d="M172.956 893.375L151.34 857.213L193.479 857.243L172.956 893.375Z" fill="#B490CD"/>
<path d="M171.85 821.073L193.466 857.244L151.327 857.213L171.85 821.073Z" fill="#C1A5D7"/>
<path d="M193.471 857.234L171.855 821.063L213.984 821.107L193.471 857.234Z" fill="#DAC8E6"/>
<path d="M192.362 784.937L213.978 821.117L171.85 821.073L192.362 784.937Z" fill="#9D6FBF"/>
<path d="M213.978 821.122L192.362 784.942L234.496 784.98L213.978 821.122Z" fill="#A774C3"/>
<path d="M212.882 748.8L234.498 784.972L192.365 784.934L212.882 748.8Z" fill="#9461B8"/>
<path d="M242.997 748.825L212.88 748.8L234.496 784.972L242.997 769.999V748.825Z" fill="#9C67BA"/>
<path d="M242.997 728.74L233.392 712.675L212.882 748.802L243 748.827L242.997 728.74Z" fill="#905DB8"/>
<path d="M194.567 929.545L172.951 893.375L215.075 893.408L194.567 929.545Z" fill="#D1B5DB"/>
<path d="M193.471 857.233L215.087 893.398L172.964 893.365L193.471 857.233Z" fill="#DAC6E5"/>
<path d="M215.082 893.408L193.466 857.244L235.595 857.269L215.082 893.408Z" fill="#CBA8D3"/>
<path d="M213.978 821.122L235.595 857.274L193.466 857.249L213.978 821.122Z" fill="#C299D4"/>
<path d="M242.997 821.122H213.978L235.594 857.274L242.992 844.241L242.997 821.122Z" fill="#BA77C9"/>
<path d="M242.997 799.19L234.496 784.972L213.978 821.122H242.997V799.19Z" fill="#A269BC"/>
<path d="M216.186 965.703L194.57 929.545L236.706 929.563L216.186 965.703Z" fill="#EAD9E9"/>
<path d="M215.082 893.408L236.698 929.563L194.562 929.545L215.082 893.408Z" fill="#D2AFD5"/>
<path d="M242.997 893.424L215.08 893.408L236.696 929.563L242.992 918.475L242.997 893.424Z" fill="#CD97C7"/>
<path d="M242.997 869.646L235.6 857.269L215.082 893.408L243 893.424L242.997 869.646Z" fill="#BC88C0"/>
<path d="M242.997 965.726L216.186 965.7L237.802 1001.87L242.987 992.733L242.997 965.726Z" fill="#EFDAE9"/>
<path d="M242.997 940.096L236.701 929.561L216.186 965.7L242.997 965.725V940.096Z" fill="#E8CCE2"/>
<path d="M104.215 41.218V41.7062H129.879L104.728 86.0776H104.403L104.568 86.3624L104.362 86.7312H104.789L129.849 130.945L129.989 131.199L129.849 131.453H130.128L155.284 175.845L155.424 176.099L130.128 220.73H129.849L129.989 220.984L129.849 221.239H130.128L155.284 265.623L155.424 265.877L155.315 266.063L155.284 266.119L130.128 310.51H129.849L129.989 310.765L129.849 311.019H130.128L155.284 355.413H104.423L129.854 400.293L155.429 445.402L155.289 445.656H155.569L155.707 445.911L155.852 445.656H206.151L181.005 490.043H180.725L180.865 490.297L180.725 490.552H181.005L206.151 534.948L206.247 535.116V534.127L181.58 490.552H206.247V490.063H181.58L206.247 446.491V444.37L197.881 429.605L181.567 400.812H206.235V400.324H181.567L206.235 356.751V354.625L201.309 345.923L181.554 311.05H206.222V310.561H181.554L206.222 266.989V264.865L202.308 257.958L181.542 221.3H206.209V220.705H181.542L206.209 177.137V175.014L181.542 131.438H206.209V130.95H181.542L206.209 87.3796V85.2562L181.542 41.7011H206.209V41.2129H181.542L204.887 0H204.322L181.117 40.9662L157.899 0.00508333H157.344L180.697 41.218H130.853L154.209 0.00508333H153.446L130.329 40.7907L107.241 0.00508333H106.478L129.831 41.218H104.215ZM105.341 86.7388H155.185L130.263 130.703L105.341 86.7388ZM155.694 86.8125L157.728 90.4237L180.7 130.952H130.678L155.694 86.8125ZM130.678 131.443H180.71L155.686 175.583L130.678 131.443ZM155.691 176.572L157.217 179.255L180.715 220.707H130.678L155.691 176.572ZM130.678 221.198H180.71L155.686 265.33L130.678 221.198ZM155.691 266.32L157.726 269.931L180.697 310.46H130.678L155.691 266.32ZM130.678 310.948H180.71L155.686 355.093L130.678 310.948ZM155.691 356.08L180.713 400.222H130.678L155.691 356.08ZM105.242 355.825H155.274L130.256 399.973L105.242 355.825ZM155.691 444.832L130.678 400.708H180.71L155.691 444.832ZM189.819 416.289L206.133 445.087H156.111L181.13 400.965L189.819 416.289ZM181.13 399.97L156.111 355.828H206.133L181.13 399.97ZM186.381 320.467L206.133 355.345H156.111L181.13 311.202L186.381 320.467ZM181.117 310.221L179.082 306.612L156.108 266.078H206.13L181.117 310.221ZM185.351 228.939L206.12 265.592H156.098L181.117 221.458L185.351 228.939ZM181.117 220.45L179.591 217.773L156.088 176.321H206.11L181.117 220.45ZM206.123 175.825H156.111L181.117 131.698L206.123 175.825ZM181.117 130.706L179.082 127.097L156.108 86.5658H206.13L181.117 130.706ZM180.903 41.8537L205.924 85.9962H155.9L180.903 41.8537ZM130.586 41.7062H180.43L155.48 85.7343L130.558 41.7596L130.586 41.7062ZM155.109 86.0776H105.265L130.187 42.108L155.109 86.0776Z" fill="#CECCCC"/>
<path d="M242.405 603.123H210.721L218.017 615.999H242.405V603.123Z" fill="#2473DC"/>
<path d="M218.017 615.998L210.721 603.125L203.425 616.001L218.017 615.998Z" fill="#136ADE"/>
<path d="M203.425 615.998L210.721 603.125H143.693L150.989 616.001L203.425 615.998Z" fill="#237CE7"/>
<path d="M150.989 615.998L143.693 603.125L136.397 616.001L150.989 615.998Z" fill="#1A2966"/>
<path d="M136.395 615.998L143.691 603.125H76.6582L83.9542 616.001L136.395 615.998Z" fill="#2580F0"/>
<path d="M83.9541 615.998L76.6581 603.125L69.3621 616.001L83.9541 615.998Z" fill="#1D74DF"/>
<path d="M242.405 547.214L210.708 603.123H242.405V547.214Z" fill="#317CDA"/>
<path d="M242.405 544.002H177.203L210.721 603.123L242.405 547.214V544.002Z" fill="#3A88E7"/>
<path d="M143.693 603.123L177.206 544.002L210.723 603.123H143.693Z" fill="#1A2966"/>
<path d="M177.203 544.002L143.691 603.123L110.165 544.002H177.203Z" fill="#2475EF"/>
<path d="M242.405 484.858H210.721L242.405 540.79V484.858Z" fill="#4B9CEA"/>
<path d="M242.405 540.79L210.708 484.858L177.19 544.004H242.405V540.79Z" fill="#4292F2"/>
<path d="M210.721 484.858L177.203 544.004L143.691 484.858H210.721Z" fill="#3489EC"/>
<path style="mix-blend-mode:multiply" opacity="0.5" d="M110.165 544.002L143.688 484.855L177.2 544.002H110.165Z" fill="url(#paint0_linear)"/>
<path d="M143.693 484.858L110.165 544.002L76.6529 484.855L143.693 484.858Z" fill="#1761BD"/>
<path d="M242.405 428.936L210.708 484.855H242.405V428.936Z" fill="#51ABF3"/>
<path d="M242.405 425.726H177.203L210.721 484.858L242.405 428.936V425.726Z" fill="#3F9EEB"/>
<path d="M143.693 484.858L177.206 425.726L210.723 484.858H143.693Z" fill="#3380DA"/>
<path d="M177.203 425.726L143.691 484.858L110.165 425.726H177.203Z" fill="#2569BD"/>
<path d="M242.405 366.603H210.721L242.405 422.515V366.603Z" fill="#5096E7"/>
<path d="M242.405 422.514L210.708 366.605L177.19 425.726H242.405V422.514Z" fill="#3F85DA"/>
<path d="M210.721 366.603L177.203 425.724L143.691 366.603H210.721Z" fill="#1A2966"/>
<path d="M110.165 425.726L143.688 366.605L177.2 425.726H110.165Z" fill="#296EC1"/>
<path d="M242.405 310.678L210.708 366.603H242.405V310.678Z" fill="#4484D6"/>
<path d="M143.693 366.603L177.206 307.467L210.723 366.603H143.693Z" fill="#477BC6"/>
<path d="M242.405 248.322H210.721L242.405 304.255V248.322Z" fill="#4175C5"/>
<path d="M242.405 304.255L210.721 248.322L177.203 307.469H242.405V304.255Z" fill="#4576C5"/>
<path d="M242.405 192.393L210.721 248.322H242.405V192.393Z" fill="#4476C5"/>
<g style="mix-blend-mode:overlay">
<g style="mix-blend-mode:overlay">
<path d="M242.405 555.654H210.721L242.405 611.574V555.654Z" fill="#2473DC"/>
</g>
<g style="mix-blend-mode:overlay">
<path d="M242.405 611.574L210.708 555.644L177.191 614.786H242.405V611.574Z" fill="#136ADE"/>
</g>
<g style="mix-blend-mode:overlay">
<path d="M210.721 555.654L177.203 614.796L143.691 555.654H210.721Z" fill="#237CE7"/>
</g>
<g style="mix-blend-mode:overlay">
<path d="M110.166 614.796L143.688 555.654L177.201 614.796H110.166Z" fill="#1A2966"/>
</g>
<g style="mix-blend-mode:overlay">
<path d="M143.693 555.654L110.166 614.796L76.6531 555.654H143.693Z" fill="#2580F0"/>
</g>
<g style="mix-blend-mode:overlay">
<path d="M44.9792 611.553L76.6582 555.657L110.166 614.796H44.9792V611.553Z" fill="#1D74DF"/>
</g>
<g style="mix-blend-mode:overlay">
<path d="M242.405 499.74L210.708 555.654H242.405V499.74Z" fill="#317CDA"/>
</g>
<g style="mix-blend-mode:overlay">
<path d="M242.405 496.528H177.203L210.721 555.654L242.405 499.74V496.528Z" fill="#3A88E7"/>
</g>
<g style="mix-blend-mode:overlay">
<path d="M143.693 555.654L177.206 496.528L210.723 555.654H143.693Z" fill="#1A2966"/>
</g>
<g style="mix-blend-mode:overlay">
<path d="M177.203 496.528L143.691 555.654L110.166 496.528H177.203Z" fill="#2475EF"/>
</g>
<g style="mix-blend-mode:overlay">
<path d="M242.405 437.386H210.721L242.405 493.321V437.386Z" fill="#4B9CEA"/>
</g>
<g style="mix-blend-mode:overlay">
<path d="M242.405 493.321L210.708 437.392L177.191 496.533H242.405V493.321Z" fill="#4292F2"/>
</g>
<g style="mix-blend-mode:overlay">
<path d="M210.721 437.386L177.203 496.528L143.691 437.386H210.721Z" fill="#3489EC"/>
</g>
<path style="mix-blend-mode:multiply" opacity="0.5" d="M110.166 496.528L143.688 437.386L177.201 496.528H110.166Z" fill="url(#paint1_linear)"/>
<g style="mix-blend-mode:overlay">
<path d="M143.693 437.386L110.166 496.528L76.6531 437.386H143.693Z" fill="#1761BD"/>
</g>
<g style="mix-blend-mode:overlay">
<path d="M242.405 381.462L210.708 437.386H242.405V381.462Z" fill="#51ABF3"/>
</g>
<g style="mix-blend-mode:overlay">
<path d="M242.405 378.253H177.203L210.721 437.389L242.405 381.462V378.253Z" fill="#3F9EEB"/>
</g>
<g style="mix-blend-mode:overlay">
<path d="M143.693 437.387L177.206 378.25L210.723 437.387H143.693Z" fill="#3380DA"/>
</g>
<g style="mix-blend-mode:overlay">
<path d="M177.203 378.253L143.691 437.389L110.166 378.253H177.203Z" fill="#2569BD"/>
</g>
<g style="mix-blend-mode:overlay">
<path d="M242.405 319.134H210.721L242.405 375.041V319.134Z" fill="#5096E7"/>
</g>
<g style="mix-blend-mode:overlay">
<path d="M242.405 375.041L210.708 319.137L177.191 378.253H242.405V375.041Z" fill="#3F85DA"/>
</g>
<g style="mix-blend-mode:overlay">
<path d="M210.721 319.134L177.203 378.25L143.691 319.134H210.721Z" fill="#1A2966"/>
</g>
<g style="mix-blend-mode:overlay">
<path d="M110.166 378.253L143.688 319.137L177.201 378.253H110.166Z" fill="#296EC1"/>
</g>
<g style="mix-blend-mode:overlay">
<path d="M242.405 263.204L210.708 319.134H242.405V263.204Z" fill="#4484D6"/>
</g>
<g style="mix-blend-mode:overlay">
<path d="M143.693 319.134L177.206 259.992L210.723 319.134H143.693Z" fill="#477BC6"/>
</g>
<g style="mix-blend-mode:overlay">
<path d="M242.405 200.849H210.721L242.405 256.781V200.849Z" fill="#4175C5"/>
</g>
<g style="mix-blend-mode:overlay">
<path d="M242.405 256.781L210.708 200.849L177.191 259.995H242.405V256.781Z" fill="#4576C5"/>
</g>
<g style="mix-blend-mode:overlay">
<path d="M242.405 144.922L210.708 200.846H242.405V144.922Z" fill="#4476C5"/>
</g>
</g>
<g style="mix-blend-mode:overlay">
<g style="mix-blend-mode:overlay">
<path d="M242.405 571.525H177.203L202.41 615.998H219.029L242.425 574.735L242.405 571.525Z" fill="#3F9EEB"/>
</g>
<g style="mix-blend-mode:overlay">
<path d="M202.41 615.998L177.203 571.525L152.001 615.998H202.41Z" fill="#3380DA"/>
</g>
<g style="mix-blend-mode:overlay">
<path d="M152.001 615.998L177.203 571.525H110.165L135.372 615.998H152.001Z" fill="#2569BD"/>
</g>
<g style="mix-blend-mode:overlay">
<path d="M242.405 512.407H210.721L242.405 568.314V512.407Z" fill="#5096E7"/>
</g>
<g style="mix-blend-mode:overlay">
<path d="M242.405 568.314L210.708 512.41L177.19 571.526H242.405V568.314Z" fill="#3F85DA"/>
</g>
<g style="mix-blend-mode:overlay">
<path d="M210.721 512.407L177.203 571.523L143.691 512.407H210.721Z" fill="#1A2966"/>
</g>
<g style="mix-blend-mode:overlay">
<path d="M110.165 571.526L143.688 512.41L177.201 571.526H110.165Z" fill="#296EC1"/>
</g>
<g style="mix-blend-mode:overlay">
<path d="M242.405 456.477L210.708 512.407H242.405V456.477Z" fill="#4484D6"/>
</g>
<g style="mix-blend-mode:overlay">
<path d="M143.693 512.407L177.206 453.266L210.723 512.407H143.693Z" fill="#477BC6"/>
</g>
<g style="mix-blend-mode:overlay">
<path d="M242.405 394.121H210.721L242.405 450.054V394.121Z" fill="#4175C5"/>
</g>
<g style="mix-blend-mode:overlay">
<path d="M242.405 450.054L210.708 394.121L177.19 453.268H242.405V450.054Z" fill="#4576C5"/>
</g>
<g style="mix-blend-mode:overlay">
<path d="M242.405 338.194L210.708 394.119H242.405V338.194Z" fill="#4476C5"/>
</g>
</g>
<path d="M201.53 607.179L221.89 643.1L242.234 607.179H201.53Z" fill="#136ADE"/>
<path d="M221.89 643.107L201.53 607.187L181.186 643.107H221.89Z" fill="#237CE7"/>
<path d="M160.816 607.179L181.175 643.1L201.52 607.179H160.816Z" fill="#1A2966"/>
<path d="M181.175 643.107L160.816 607.187L140.471 643.107H181.175Z" fill="#2580F0"/>
<path d="M120.101 607.179L140.461 643.1L160.805 607.179H120.101Z" fill="#1D74DF"/>
<path d="M242.242 679.01L221.898 643.1L201.538 679.01H242.242Z" fill="#3A88E7"/>
<path d="M181.176 643.107L201.52 679.018L221.88 643.107H181.176Z" fill="#1A2966"/>
<path d="M201.53 679.01L181.186 643.1L160.826 679.01H201.53Z" fill="#2475EF"/>
<path d="M201.53 679.01L221.89 714.931L242.234 679.01H201.53Z" fill="#4292F2"/>
<path d="M221.89 714.931L201.53 679.01L181.186 714.931H221.89Z" fill="#3489EC"/>
<path style="mix-blend-mode:multiply" opacity="0.5" d="M160.816 679.01L181.175 714.931L201.52 679.01H160.816Z" fill="url(#paint2_linear)"/>
<path d="M181.175 714.931L160.816 679.01L140.471 714.931H181.175Z" fill="#1761BD"/>
<path d="M242.242 750.849L221.898 714.931L201.538 750.849H242.242Z" fill="#3F9EEB"/>
<path d="M181.176 714.931L201.52 750.849L221.88 714.931H181.176Z" fill="#3380DA"/>
<path d="M201.53 750.849L181.186 714.931L160.826 750.849H201.53Z" fill="#2569BD"/>
<path d="M201.53 750.85L221.89 786.758L242.234 750.85H201.53Z" fill="#3F85DA"/>
<path d="M221.89 786.758L201.53 750.85L181.186 786.758H221.89Z" fill="#1A2966"/>
<path d="M160.816 750.85L181.175 786.758L201.52 750.85H160.816Z" fill="#296EC1"/>
<path d="M181.176 786.758L201.52 822.681L221.88 786.758H181.176Z" fill="#477BC6"/>
<path d="M201.53 822.681L221.89 858.604L242.234 822.681H201.53Z" fill="#4576C5"/>
<g style="mix-blend-mode:overlay">
<g style="mix-blend-mode:overlay">
<path d="M201.53 587.025L221.89 622.946L242.234 587.025H201.53Z" fill="#136ADE"/>
</g>
<g style="mix-blend-mode:overlay">
<path d="M221.89 622.946L201.53 587.025L181.186 622.946H221.89Z" fill="#237CE7"/>
</g>
<g style="mix-blend-mode:overlay">
<path d="M160.816 587.025L181.175 622.946L201.52 587.025H160.816Z" fill="#1A2966"/>
</g>
<g style="mix-blend-mode:overlay">
<path d="M181.175 622.946L160.816 587.025L140.471 622.946H181.175Z" fill="#2580F0"/>
</g>
<g style="mix-blend-mode:overlay">
<path d="M120.101 587.025L140.461 622.946L160.805 587.025H120.101Z" fill="#1D74DF"/>
</g>
<g style="mix-blend-mode:overlay">
<path d="M242.242 658.857L221.897 622.946L201.537 658.857H242.242Z" fill="#3A88E7"/>
</g>
<g style="mix-blend-mode:overlay">
<path d="M181.175 622.946L201.52 658.857L221.88 622.946H181.175Z" fill="#1A2966"/>
</g>
<g style="mix-blend-mode:overlay">
<path d="M201.53 658.857L181.185 622.946L160.826 658.857H201.53Z" fill="#2475EF"/>
</g>
<g style="mix-blend-mode:overlay">
<path d="M201.53 658.857L221.89 694.777L242.234 658.857H201.53Z" fill="#4292F2"/>
</g>
<g style="mix-blend-mode:overlay">
<path d="M221.89 694.777L201.53 658.857L181.186 694.777H221.89Z" fill="#3489EC"/>
</g>
<path style="mix-blend-mode:multiply" opacity="0.5" d="M160.816 658.857L181.175 694.777L201.52 658.857H160.816Z" fill="url(#paint3_linear)"/>
<g style="mix-blend-mode:overlay">
<path d="M181.175 694.777L160.816 658.857L140.471 694.777H181.175Z" fill="#1761BD"/>
</g>
<g style="mix-blend-mode:overlay">
<path d="M242.242 730.696L221.897 694.777L201.537 730.696H242.242Z" fill="#3F9EEB"/>
</g>
<g style="mix-blend-mode:overlay">
<path d="M181.175 694.777L201.52 730.696L221.88 694.777H181.175Z" fill="#3380DA"/>
</g>
<g style="mix-blend-mode:overlay">
<path d="M201.53 730.696L181.185 694.777L160.826 730.696H201.53Z" fill="#2569BD"/>
</g>
<g style="mix-blend-mode:overlay">
<path d="M201.53 730.696L221.89 766.604L242.234 730.696H201.53Z" fill="#3F85DA"/>
</g>
<g style="mix-blend-mode:overlay">
<path d="M221.89 766.606L201.53 730.698L181.186 766.606H221.89Z" fill="#1A2966"/>
</g>
<g style="mix-blend-mode:overlay">
<path d="M160.816 730.696L181.175 766.604L201.52 730.696H160.816Z" fill="#296EC1"/>
</g>
<g style="mix-blend-mode:overlay">
<path d="M181.175 766.606L201.52 802.53L221.88 766.606H181.175Z" fill="#477BC6"/>
</g>
<g style="mix-blend-mode:overlay">
<path d="M201.53 802.529L221.89 838.453L242.234 802.529H201.53Z" fill="#4576C5"/>
</g>
</g>
<g style="mix-blend-mode:overlay">
<g style="mix-blend-mode:overlay">
<path d="M201.693 229.687H200.953L198.387 234.216L195.821 229.687H195.104L197.858 234.544H132.837L135.591 229.687H134.597L132.16 233.987L129.722 229.687H128.73L131.484 234.544H98.0554V235.18H131.527L98.7217 293.065H98.2995L98.5106 293.436V293.451L98.2411 293.927H98.798L131.492 351.609L131.672 351.927L131.492 352.245H131.85L164.668 410.163L164.849 410.481L131.85 468.704H131.489L131.67 469.022L131.489 469.34H131.848L164.671 527.24L164.851 527.558L164.712 527.813L164.671 527.889L131.865 585.799H131.504L131.685 586.117L131.504 586.435H131.863L164.686 644.348H98.3123L131.489 702.869L164.841 761.716L164.661 762.034H165.022L165.205 762.359L165.393 762.034H231.004L198.199 819.939H197.835L198.018 820.257L197.835 820.575H198.196L231.002 878.488L231.129 878.709V877.42L198.931 820.575H231.139V819.939H198.941L231.139 763.099V760.343L220.224 741.084L198.941 703.52H231.139V702.869H198.941L231.139 646.032V643.257L224.71 631.905L198.941 586.412H231.139V585.777H198.941L231.139 528.924V526.152L226.033 517.142L198.941 469.32H231.139V468.684H198.941L231.139 411.846V409.077L198.941 352.234H231.139V351.599H198.941L231.139 294.756V291.987L198.941 235.17H231.139V234.534H198.941L201.693 229.687ZM132.476 235.18H197.494L164.943 292.617L132.435 235.248L132.476 235.18ZM165.21 294.026L167.88 298.736L197.848 351.609H132.577L165.21 294.026ZM131.967 235.709L164.465 293.067H99.4592L131.967 235.709ZM99.5278 293.93H164.536L132.036 351.281L99.5278 293.93ZM132.588 352.247H197.858L165.22 409.83L132.588 352.247ZM165.22 411.119L167.204 414.616L197.858 468.696H132.577L165.22 411.119ZM132.588 469.332H197.858L165.21 526.889L132.588 469.332ZM165.22 528.197L167.89 532.906L197.858 585.779H132.577L165.22 528.197ZM132.588 586.415H197.858L165.22 644.003L132.588 586.415ZM165.22 645.289L197.85 702.869H132.577L165.22 645.289ZM99.4108 644.964H164.676L132.036 702.546L99.4108 644.964ZM165.22 761.075L132.588 703.51H197.858L165.22 761.075ZM209.739 723.837L231.022 761.4H165.757L198.394 703.838L209.739 723.837ZM198.405 702.549L165.757 644.961H231.012L198.405 702.549ZM205.256 598.838L231.022 644.328H165.757L198.394 586.743L205.256 598.838ZM198.405 585.451L195.734 580.744L165.757 527.866H231.012L198.405 585.451ZM203.931 479.405L231.022 527.215H165.757L198.394 469.67L203.931 479.405ZM198.405 468.358L196.424 464.867L165.757 410.788H231.012L198.405 468.358ZM231.014 410.163H165.757L198.394 352.583L231.014 410.163ZM198.394 351.291L195.724 346.584L165.757 293.691H231.012L198.394 351.291ZM230.755 292.963H165.485L198.117 235.383L230.755 292.963Z" fill="#CECCCC"/>
</g>
</g>
<g style="mix-blend-mode:overlay">
<g style="mix-blend-mode:overlay">
<path d="M28.6706 618.633L7.05457 582.473L49.188 582.501L28.6706 618.633Z" fill="#FBF7F7"/>
</g>
<g style="mix-blend-mode:overlay">
<path d="M27.5669 546.336L49.1829 582.501L7.04944 582.473L27.5669 546.336Z" fill="#D9B1AF"/>
</g>
<g style="mix-blend-mode:overlay">
<path d="M49.1829 582.501L27.5668 546.336L69.6952 546.369L49.1829 582.501Z" fill="#E1C2C0"/>
</g>
<g style="mix-blend-mode:overlay">
<path d="M48.0792 510.199L69.6952 546.369L27.5668 546.336L48.0792 510.199Z" fill="#BE796D"/>
</g>
<g style="mix-blend-mode:overlay">
<path d="M69.6953 546.369L48.0793 510.199L90.2076 510.233L69.6953 546.369Z" fill="#B65F48"/>
</g>
<g style="mix-blend-mode:overlay">
<path d="M68.5865 474.073L90.2025 510.232L48.0742 510.199L68.5865 474.073Z" fill="#C95010"/>
</g>
<g style="mix-blend-mode:overlay">
<path d="M90.2076 510.232L68.5916 474.073L110.728 474.1L90.2076 510.232Z" fill="#D95F1F"/>
</g>
<g style="mix-blend-mode:overlay">
<path d="M89.1064 437.936L110.722 474.101L68.5864 474.073L89.1064 437.936Z" fill="#E86B26"/>
</g>
<g style="mix-blend-mode:overlay">
<path d="M50.279 654.805L28.663 618.643L70.7862 618.674L50.279 654.805Z" fill="#DCB7B6"/>
</g>
<g style="mix-blend-mode:overlay">
<path d="M49.1829 582.501L70.799 618.663L28.6757 618.633L49.1829 582.501Z" fill="#A3433D"/>
</g>
<g style="mix-blend-mode:overlay">
<path d="M70.7964 618.663L49.1804 582.501L91.3088 582.529L70.7964 618.663Z" fill="#AB524A"/>
</g>
<g style="mix-blend-mode:overlay">
<path d="M69.6952 546.369L91.3112 582.529L49.1829 582.501L69.6952 546.369Z" fill="#AB3111"/>
</g>
<g style="mix-blend-mode:overlay">
<path d="M91.3113 582.529L69.6953 546.369L111.824 546.395L91.3113 582.529Z" fill="#BE6044"/>
</g>
<g style="mix-blend-mode:overlay">
<path d="M90.2076 510.232L111.824 546.395L69.6953 546.369L90.2076 510.232Z" fill="#D46735"/>
</g>
<g style="mix-blend-mode:overlay">
<path d="M111.824 546.395L90.2076 510.232L132.339 510.263L111.824 546.395Z" fill="#DA5B17"/>
</g>
<g style="mix-blend-mode:overlay">
<path d="M110.725 474.1L132.341 510.263L90.2101 510.232L110.725 474.1Z" fill="#E37B42"/>
</g>
<g style="mix-blend-mode:overlay">
<path d="M71.9103 690.965L50.279 654.806L92.4226 654.841L71.9103 690.965Z" fill="#A04841"/>
</g>
<g style="mix-blend-mode:overlay">
<path d="M70.7963 618.664L92.4123 654.831L50.2687 654.795L70.7963 618.664Z" fill="#951907"/>
</g>
<g style="mix-blend-mode:overlay">
<path d="M92.4226 654.828L70.8065 618.661L112.948 618.696L92.4226 654.828Z" fill="#991A06"/>
</g>
<g style="mix-blend-mode:overlay">
<path d="M91.3113 582.529L112.927 618.699L70.7862 618.663L91.3113 582.529Z" fill="#C03006"/>
</g>
<g style="mix-blend-mode:overlay">
<path d="M112.937 618.694L91.3214 582.524L133.457 582.56L112.937 618.694Z" fill="#CD3F04"/>
</g>
<g style="mix-blend-mode:overlay">
<path d="M111.824 546.395L133.44 582.565L91.3036 582.529L111.824 546.395Z" fill="#DD5107"/>
</g>
<g style="mix-blend-mode:overlay">
<path d="M133.447 582.562L111.831 546.392L153.97 546.425L133.447 582.562Z" fill="#DA4F08"/>
</g>
<g style="mix-blend-mode:overlay">
<path d="M132.341 510.263L153.957 546.428L111.818 546.395L132.341 510.263Z" fill="#DC6515"/>
</g>
<g style="mix-blend-mode:overlay">
<path d="M93.5187 727.141L71.9026 690.966L114.031 690.994L93.5187 727.141Z" fill="#A7312B"/>
</g>
<g style="mix-blend-mode:overlay">
<path d="M92.4225 654.828L114.039 690.993L71.9102 690.965L92.4225 654.828Z" fill="#9D2B1A"/>
</g>
<g style="mix-blend-mode:overlay">
<path d="M114.039 690.993L92.4225 654.828L134.551 654.856L114.039 690.993Z" fill="#A8210C"/>
</g>
<g style="mix-blend-mode:overlay">
<path d="M112.937 618.694L134.554 654.854L92.4252 654.826L112.937 618.694Z" fill="#BF300F"/>
</g>
<g style="mix-blend-mode:overlay">
<path d="M134.553 654.856L112.937 618.697L155.068 618.724L134.553 654.856Z" fill="#D74907"/>
</g>
<g style="mix-blend-mode:overlay">
<path d="M133.447 582.562L155.063 618.724L112.937 618.694L133.447 582.562Z" fill="#E97A09"/>
</g>
<g style="mix-blend-mode:overlay">
<path d="M155.068 618.724L133.452 582.562L175.588 582.59L155.068 618.724Z" fill="#E46A0B"/>
</g>
<g style="mix-blend-mode:overlay">
<path d="M153.965 546.425L175.581 582.59L133.445 582.562L153.965 546.425Z" fill="#E17318"/>
</g>
<g style="mix-blend-mode:overlay">
<path d="M115.137 763.293L93.5211 727.141L135.652 727.156L115.137 763.293Z" fill="#B72D28"/>
</g>
<g style="mix-blend-mode:overlay">
<path d="M114.039 690.993L135.655 727.156L93.5238 727.141L114.039 690.993Z" fill="#AF231E"/>
</g>
<g style="mix-blend-mode:overlay">
<path d="M135.649 727.156L114.033 690.993L156.162 691.019L135.649 727.156Z" fill="#A82F18"/>
</g>
<g style="mix-blend-mode:overlay">
<path d="M134.554 654.856L156.17 691.019L114.041 690.993L134.554 654.856Z" fill="#C6461F"/>
</g>
<g style="mix-blend-mode:overlay">
<path d="M156.17 691.019L134.553 654.856L176.682 654.889L156.17 691.019Z" fill="#D95F07"/>
</g>
<g style="mix-blend-mode:overlay">
<path d="M155.069 618.724L176.685 654.889L134.556 654.856L155.069 618.724Z" fill="#F2960A"/>
</g>
<g style="mix-blend-mode:overlay">
<path d="M176.679 654.889L155.063 618.724L197.189 618.753L176.679 654.889Z" fill="#F1980F"/>
</g>
<g style="mix-blend-mode:overlay">
<path d="M175.586 582.583L197.202 618.745L155.076 618.717L175.586 582.583Z" fill="#EF9B0F"/>
</g>
<g style="mix-blend-mode:overlay">
<path d="M136.756 799.455L115.14 763.29L157.268 763.328L136.756 799.455Z" fill="#C43232"/>
</g>
<g style="mix-blend-mode:overlay">
<path d="M135.65 727.156L157.266 763.331L115.137 763.293L135.65 727.156Z" fill="#C61C1A"/>
</g>
<g style="mix-blend-mode:overlay">
<path d="M157.266 763.328L135.649 727.153L177.783 727.186L157.266 763.328Z" fill="#B02A10"/>
</g>
<g style="mix-blend-mode:overlay">
<path d="M156.17 691.019L177.786 727.189L135.652 727.156L156.17 691.019Z" fill="#C55A12"/>
</g>
<g style="mix-blend-mode:overlay">
<path d="M177.786 727.189L156.169 691.019L198.298 691.052L177.786 727.189Z" fill="#D27429"/>
</g>
<g style="mix-blend-mode:overlay">
<path d="M176.679 654.89L198.295 691.052L156.167 691.019L176.679 654.89Z" fill="#EF910A"/>
</g>
<g style="mix-blend-mode:overlay">
<path d="M198.298 691.052L176.682 654.89L218.815 654.915L198.298 691.052Z" fill="#F19A0D"/>
</g>
<g style="mix-blend-mode:overlay">
<path d="M197.197 618.753L218.813 654.915L176.679 654.89L197.197 618.753Z" fill="#F29F12"/>
</g>
<g style="mix-blend-mode:overlay">
<path d="M158.38 835.617L136.763 799.445L178.905 799.478L158.38 835.617Z" fill="#CB5662"/>
</g>
<g style="mix-blend-mode:overlay">
<path d="M157.266 763.328L178.897 799.488L136.756 799.455L157.266 763.328Z" fill="#CB452F"/>
</g>
<g style="mix-blend-mode:overlay">
<path d="M178.897 799.488L157.266 763.328L199.409 763.349L178.897 799.488Z" fill="#CD3D15"/>
</g>
<g style="mix-blend-mode:overlay">
<path d="M177.786 727.188L199.402 763.351L157.258 763.33L177.786 727.188Z" fill="#D5680A"/>
</g>
<g style="mix-blend-mode:overlay">
<path d="M199.412 763.348L177.796 727.186L219.939 727.214L199.412 763.348Z" fill="#DF6E09"/>
</g>
<g style="mix-blend-mode:overlay">
<path d="M198.298 691.052L219.929 727.217L177.785 727.189L198.298 691.052Z" fill="#ED830B"/>
</g>
<g style="mix-blend-mode:overlay">
<path d="M219.929 727.214L198.298 691.049L240.439 691.087L219.929 727.214Z" fill="#EE8C0B"/>
</g>
<g style="mix-blend-mode:overlay">
<path d="M218.815 654.915L240.431 691.09L198.29 691.052L218.815 654.915Z" fill="#E87F0D"/>
</g>
<g style="mix-blend-mode:overlay">
<path d="M180.006 871.79L158.39 835.628L200.528 835.658L180.006 871.79Z" fill="#C292B0"/>
</g>
<g style="mix-blend-mode:overlay">
<path d="M178.897 799.488L200.513 835.658L158.374 835.627L178.897 799.488Z" fill="#D6A385"/>
</g>
<g style="mix-blend-mode:overlay">
<path d="M200.518 835.658L178.902 799.488L221.03 799.531L200.518 835.658Z" fill="#D68951"/>
</g>
<g style="mix-blend-mode:overlay">
<path d="M199.412 763.348L221.028 799.531L178.9 799.488L199.412 763.348Z" fill="#D48F4B"/>
</g>
<g style="mix-blend-mode:overlay">
<path d="M221.028 799.531L199.412 763.348L241.545 763.386L221.028 799.531Z" fill="#DB7D25"/>
</g>
<g style="mix-blend-mode:overlay">
<path d="M219.929 727.214L241.545 763.387L199.412 763.349L219.929 727.214Z" fill="#EAA55E"/>
</g>
<g style="mix-blend-mode:overlay">
<path d="M201.614 907.96L179.998 871.79L222.121 871.823L201.614 907.96Z" fill="#9C6CA0"/>
</g>
<g style="mix-blend-mode:overlay">
<path d="M200.518 835.658L222.134 871.823L180.011 871.79L200.518 835.658Z" fill="#7A596D"/>
</g>
<g style="mix-blend-mode:overlay">
<path d="M242.405 835.684L200.505 835.658L222.121 871.823L242.405 836.09V835.684Z" fill="#904F47"/>
</g>
<g style="mix-blend-mode:overlay">
<path d="M242.405 835.297L221.015 799.531L200.508 835.658L242.407 835.683L242.405 835.297Z" fill="#94542D"/>
</g>
<g style="mix-blend-mode:overlay">
<path d="M242.405 907.975L201.601 907.957L223.217 944.115L242.405 910.325V907.975Z" fill="#6F498B"/>
</g>
<g style="mix-blend-mode:overlay">
<path d="M242.405 905.745L222.116 871.82L201.601 907.957L242.405 907.975V905.745Z" fill="#6C5C75"/>
</g>
</g>
<defs>
<linearGradient id="paint0_linear" x1="408.807" y1="-1877.22" x2="467.999" y2="-1877.22" gradientUnits="userSpaceOnUse">
<stop stop-color="white"/>
<stop offset="0.162" stop-color="#FBFBFB"/>
<stop offset="0.293" stop-color="#F1F1F1"/>
<stop offset="0.412" stop-color="#E0E0E0"/>
<stop offset="0.525" stop-color="#C9C9C9"/>
<stop offset="0.633" stop-color="#AAAAAA"/>
<stop offset="0.738" stop-color="#848484"/>
<stop offset="0.84" stop-color="#575757"/>
<stop offset="0.937" stop-color="#242424"/>
<stop offset="1"/>
</linearGradient>
<linearGradient id="paint1_linear" x1="361.346" y1="-1877.23" x2="420.471" y2="-1877.23" gradientUnits="userSpaceOnUse">
<stop stop-color="white"/>
<stop offset="0.162" stop-color="#FBFBFB"/>
<stop offset="0.293" stop-color="#F1F1F1"/>
<stop offset="0.412" stop-color="#E0E0E0"/>
<stop offset="0.525" stop-color="#C9C9C9"/>
<stop offset="0.633" stop-color="#AAAAAA"/>
<stop offset="0.738" stop-color="#848484"/>
<stop offset="0.84" stop-color="#575757"/>
<stop offset="0.937" stop-color="#242424"/>
<stop offset="1"/>
</linearGradient>
<linearGradient id="paint2_linear" x1="-1666.48" y1="-966.089" x2="-1630.54" y2="-966.089" gradientUnits="userSpaceOnUse">
<stop stop-color="white"/>
<stop offset="0.162" stop-color="#FBFBFB"/>
<stop offset="0.293" stop-color="#F1F1F1"/>
<stop offset="0.412" stop-color="#E0E0E0"/>
<stop offset="0.525" stop-color="#C9C9C9"/>
<stop offset="0.633" stop-color="#AAAAAA"/>
<stop offset="0.738" stop-color="#848484"/>
<stop offset="0.84" stop-color="#575757"/>
<stop offset="0.937" stop-color="#242424"/>
<stop offset="1"/>
</linearGradient>
<linearGradient id="paint3_linear" x1="-1646.33" y1="-966.091" x2="-1610.39" y2="-966.091" gradientUnits="userSpaceOnUse">
<stop stop-color="white"/>
<stop offset="0.162" stop-color="#FBFBFB"/>
<stop offset="0.293" stop-color="#F1F1F1"/>
<stop offset="0.412" stop-color="#E0E0E0"/>
<stop offset="0.525" stop-color="#C9C9C9"/>
<stop offset="0.633" stop-color="#AAAAAA"/>
<stop offset="0.738" stop-color="#848484"/>
<stop offset="0.84" stop-color="#575757"/>
<stop offset="0.937" stop-color="#242424"/>
<stop offset="1"/>
</linearGradient>
</defs>
</svg>
