<svg width="243" height="1002" viewBox="0 0 243 1002" fill="none" xmlns="http://www.w3.org/2000/svg">
<path d="M221.376 640.219L242.992 604.059L200.859 604.087L221.376 640.219Z" fill="#6D8FEE"/>
<path d="M222.483 567.922L200.867 604.087L243 604.059L222.483 567.922Z" fill="#628AE9"/>
<path d="M200.867 604.087L222.483 567.922L180.354 567.955L200.867 604.087Z" fill="#6485E8"/>
<path d="M201.97 531.787L180.354 567.957L222.483 567.924L201.97 531.787Z" fill="#7290E7"/>
<path d="M180.354 567.955L201.97 531.785L159.842 531.818L180.354 567.955Z" fill="#5F7DE2"/>
<path d="M181.46 495.661L159.844 531.821L201.973 531.788L181.46 495.661Z" fill="#5A79E0"/>
<path d="M159.839 531.818L181.455 495.658L139.319 495.684L159.839 531.818Z" fill="#5870DC"/>
<path d="M160.943 459.524L139.327 495.684L181.463 495.658L160.943 459.524Z" fill="#5673DC"/>
<path d="M199.768 676.381L221.384 640.219L179.261 640.249L199.768 676.381Z" fill="#757DE6"/>
<path d="M200.866 604.087L179.25 640.249L221.374 640.219L200.866 604.087Z" fill="#6C87EA"/>
<path d="M179.253 640.249L200.869 604.087L158.741 604.115L179.253 640.249Z" fill="#736EDF"/>
<path d="M180.354 567.955L158.738 604.115L200.867 604.087L180.354 567.955Z" fill="#617CE3"/>
<path d="M158.738 604.115L180.354 567.955L138.226 567.98L158.738 604.115Z" fill="#6A70DE"/>
<path d="M159.839 531.818L138.223 567.98L180.352 567.955L159.839 531.818Z" fill="#5D77DF"/>
<path d="M138.223 567.98L159.839 531.818L117.708 531.848L138.223 567.98Z" fill="#7073DC"/>
<path d="M139.324 495.684L117.708 531.849L159.839 531.818L139.324 495.684Z" fill="#5568D7"/>
<path d="M178.137 712.553L199.768 676.381L157.624 676.416L178.137 712.553Z" fill="#7963D6"/>
<path d="M179.253 640.249L157.637 676.416L199.781 676.381L179.253 640.249Z" fill="#958DE5"/>
<path d="M157.624 676.422L179.24 640.254L137.099 640.29L157.624 676.422Z" fill="#8E73DA"/>
<path d="M158.738 604.115L137.122 640.285L179.263 640.249L158.738 604.115Z" fill="#7564DA"/>
<path d="M137.112 640.285L158.728 604.115L116.592 604.15L137.112 640.285Z" fill="#7854D0"/>
<path d="M138.223 567.98L116.607 604.15L158.743 604.115L138.223 567.98Z" fill="#7362D7"/>
<path d="M116.6 604.15L138.216 567.98L96.0771 568.013L116.6 604.15Z" fill="#6D4CCB"/>
<path d="M117.708 531.848L96.0924 568.013L138.231 567.98L117.708 531.848Z" fill="#5B5ACF"/>
<path d="M156.528 748.726L178.144 712.551L136.016 712.579L156.528 748.726Z" fill="#6E3FBA"/>
<path d="M157.624 676.422L136.008 712.587L178.137 712.559L157.624 676.422Z" fill="#7A53CC"/>
<path d="M136.008 712.579L157.624 676.414L115.496 676.442L136.008 712.579Z" fill="#6D36B7"/>
<path d="M137.112 640.285L115.496 676.444L157.624 676.416L137.112 640.285Z" fill="#794AC9"/>
<path d="M115.496 676.442L137.112 640.282L94.9809 640.31L115.496 676.442Z" fill="#713ABA"/>
<path d="M116.599 604.15L94.9834 640.313L137.114 640.285L116.599 604.15Z" fill="#7E56CB"/>
<path d="M94.9787 640.31L116.595 604.148L74.4587 604.176L94.9787 640.31Z" fill="#7040BB"/>
<path d="M96.0847 568.013L74.4686 604.178L116.605 604.15L96.0847 568.013Z" fill="#623DBE"/>
<path d="M134.91 784.878L156.526 748.726L114.395 748.741L134.91 784.878Z" fill="#702FA9"/>
<path d="M136.008 712.579L114.392 748.741L156.523 748.726L136.008 712.579Z" fill="#662EAF"/>
<path d="M114.397 748.741L136.013 712.579L93.8851 712.604L114.397 748.741Z" fill="#6626A5"/>
<path d="M115.496 676.442L93.8799 712.604L136.008 712.579L115.496 676.442Z" fill="#692DAE"/>
<path d="M93.8797 712.604L115.496 676.442L73.3699 676.475L93.8797 712.604Z" fill="#7034AC"/>
<path d="M94.9786 640.31L73.3625 676.475L115.488 676.442L94.9786 640.31Z" fill="#7C4ABA"/>
<path d="M73.3676 676.475L94.9836 640.31L52.8552 640.338L73.3676 676.475Z" fill="#7843B3"/>
<path d="M74.4635 604.176L52.8475 640.338L94.9759 640.31L74.4635 604.176Z" fill="#5D27AC"/>
<path d="M113.291 821.043L134.907 784.878L92.7787 784.916L113.291 821.043Z" fill="#7030A4"/>
<path d="M114.397 748.741L92.7812 784.916L134.91 784.878L114.397 748.741Z" fill="#6928A4"/>
<path d="M92.7814 784.916L114.397 748.741L72.264 748.774L92.7814 784.916Z" fill="#6827A1"/>
<path d="M93.8801 712.604L72.264 748.774L114.397 748.741L93.8801 712.604Z" fill="#6827A4"/>
<path d="M72.2637 748.774L93.8797 712.604L51.7513 712.637L72.2637 748.774Z" fill="#7438A9"/>
<path d="M73.3674 676.475L51.7513 712.637L93.8797 712.604L73.3674 676.475Z" fill="#763EAE"/>
<path d="M51.7491 712.637L73.3651 676.475L31.2317 676.501L51.7491 712.637Z" fill="#7941AC"/>
<path d="M52.8527 640.338L31.2366 676.5L73.3701 676.475L52.8527 640.338Z" fill="#6428A5"/>
<path d="M91.6677 857.213L113.284 821.04L71.1426 821.073L91.6677 857.213Z" fill="#B492CF"/>
<path d="M92.7813 784.916L71.1499 821.076L113.291 821.043L92.7813 784.916Z" fill="#7C42AC"/>
<path d="M71.1501 821.073L92.7814 784.914L50.6378 784.934L71.1501 821.073Z" fill="#9E72C1"/>
<path d="M72.2638 748.774L50.6477 784.937L92.7914 784.916L72.2638 748.774Z" fill="#7438A8"/>
<path d="M50.6377 784.937L72.2538 748.774L30.1101 748.802L50.6377 784.937Z" fill="#8750B2"/>
<path d="M51.7489 712.637L30.1176 748.802L72.2612 748.774L51.7489 712.637Z" fill="#793FAB"/>
<path d="M30.1178 748.8L51.7491 712.635L9.60802 712.673L30.1178 748.8Z" fill="#8B56B4"/>
<path d="M31.234 676.501L9.61795 712.676L51.759 712.638L31.234 676.501Z" fill="#783FAB"/>
<path d="M70.0438 893.375L91.6598 857.213L49.5213 857.243L70.0438 893.375Z" fill="#B490CD"/>
<path d="M71.15 821.073L49.534 857.244L91.6726 857.213L71.15 821.073Z" fill="#C1A5D7"/>
<path d="M49.5289 857.234L71.1449 821.063L29.0165 821.107L49.5289 857.234Z" fill="#DAC8E6"/>
<path d="M50.6376 784.937L29.0216 821.117L71.1499 821.073L50.6376 784.937Z" fill="#9D6FBF"/>
<path d="M29.0217 821.122L50.6377 784.942L8.50422 784.98L29.0217 821.122Z" fill="#A774C3"/>
<path d="M30.1178 748.8L8.5018 784.972L50.6352 784.934L30.1178 748.8Z" fill="#9461B8"/>
<path d="M0.00253677 748.825L30.12 748.8L8.50396 784.972L0.00253677 769.999V748.825Z" fill="#9C67BA"/>
<path d="M0.0025177 728.74L9.60769 712.675L30.1175 748.802L-4.3869e-05 748.827L0.0025177 728.74Z" fill="#905DB8"/>
<path d="M48.4327 929.545L70.0488 893.375L27.9255 893.408L48.4327 929.545Z" fill="#D1B5DB"/>
<path d="M49.5288 857.233L27.9128 893.398L70.036 893.365L49.5288 857.233Z" fill="#DAC6E5"/>
<path d="M27.9178 893.408L49.5338 857.244L7.40552 857.269L27.9178 893.408Z" fill="#CBA8D3"/>
<path d="M29.0216 821.122L7.40552 857.274L49.5338 857.249L29.0216 821.122Z" fill="#C299D4"/>
<path d="M0.00281334 821.122H29.0217L7.40569 857.274L0.00793457 844.241L0.00281334 821.122Z" fill="#BA77C9"/>
<path d="M0.00281334 799.19L8.50424 784.972L29.0217 821.122H0.00281334V799.19Z" fill="#A269BC"/>
<path d="M0.00257206 784.977H8.504L0.00257206 799.195V784.977Z" fill="#A976BF"/>
<path d="M0.00257206 770.006L8.504 784.98H0.00257206V770.006Z" fill="#A06ABB"/>
<path d="M26.8142 965.703L48.4302 929.545L6.29423 929.563L26.8142 965.703Z" fill="#EAD9E9"/>
<path d="M27.918 893.408L6.30201 929.563L48.438 929.545L27.918 893.408Z" fill="#D2AFD5"/>
<path d="M0.00255585 893.424L27.9203 893.408L6.30426 929.563L0.00767899 918.475L0.00255585 893.424Z" fill="#CD97C7"/>
<path d="M0.00267601 869.646L7.40044 857.269L27.9178 893.408L0.000114441 893.424L0.00267601 869.646Z" fill="#BC88C0"/>
<path d="M0.00266027 857.277H7.40042L0.00266027 869.654V857.277Z" fill="#BE8AC0"/>
<path d="M0.00266027 844.236L7.40042 857.269H0.00266027V844.236Z" fill="#C87CD1"/>
<path d="M0.00270081 965.726L26.8142 965.7L5.19818 1001.87L0.012867 992.733L0.00270081 965.726Z" fill="#EFDAE9"/>
<path d="M0.00270081 940.096L6.29936 929.561L26.8142 965.7L0.00270081 965.725V940.096Z" fill="#E8CCE2"/>
<path d="M0.00266027 929.568H6.29932L0.00266027 940.104V929.568Z" fill="#CF95C3"/>
<path d="M0.00266027 918.473L6.29932 929.56H0.00266027V918.473Z" fill="#CE91BF"/>
<path d="M0.00261879 992.733L5.18793 1001.87H0.00261879V992.733Z" fill="#F8EEF4"/>
<path d="M138.785 41.218V41.7062H113.121L138.272 86.0776H138.597L138.432 86.3624L138.638 86.7312H138.211L113.151 130.945L113.011 131.199L113.151 131.453H112.872L87.7156 175.845L87.5757 176.099L112.872 220.73H113.151L113.011 220.984L113.151 221.239H112.872L87.7156 265.623L87.5757 265.877L87.6851 266.063L87.7156 266.119L112.872 310.51H113.151L113.011 310.765L113.151 311.019H112.872L87.7156 355.413H138.577L113.146 400.293L87.5706 445.402L87.7105 445.656H87.4307L87.2934 445.911L87.1485 445.656H36.8493L61.9951 490.043H62.2748L62.1349 490.297L62.2748 490.552H61.9951L36.8493 534.948L36.7526 535.116V534.127L61.4203 490.552H36.7526V490.063H61.4203L36.7526 446.491V444.37L45.1193 429.605L61.433 400.812H36.7653V400.324H61.433L36.7653 356.751V354.625L41.6912 345.923L61.4457 311.05H36.778V310.561H61.4457L36.778 266.989V264.865L40.6918 257.958L61.4585 221.3H36.7907V220.705H61.4585L36.7907 177.137V175.014L61.4585 131.438H36.7907V130.95H61.4585L36.7907 87.3796V85.2562L61.4585 41.7011H36.7907V41.2129H61.4585L38.1131 0H38.6777L61.8831 40.9662L85.1013 0.00508333H85.6557L62.3028 41.218H112.147L88.7913 0.00508333H89.5542L112.671 40.7907L135.759 0.00508333H136.522L113.169 41.218H138.785ZM137.659 86.7388H87.8147L112.737 130.703L137.659 86.7388ZM87.3061 86.8125L85.2717 90.4237L62.3002 130.952H112.322L87.3061 86.8125ZM112.322 131.443H62.29L87.3138 175.583L112.322 131.443ZM87.3087 176.572L85.7828 179.255L62.2849 220.707H112.322L87.3087 176.572ZM112.322 221.198H62.29L87.3138 265.33L112.322 221.198ZM87.3087 266.32L85.2742 269.931L62.3028 310.46H112.322L87.3087 266.32ZM112.322 310.948H62.29L87.3138 355.093L112.322 310.948ZM87.3087 356.08L62.2875 400.222H112.322L87.3087 356.08ZM137.758 355.825H87.7257L112.744 399.973L137.758 355.825ZM87.3087 444.832L112.322 400.708H62.29L87.3087 444.832ZM53.1808 416.289L36.867 445.087H86.8891L61.8704 400.965L53.1808 416.289ZM61.8704 399.97L86.8891 355.828H36.867L61.8704 399.97ZM56.619 320.467L36.867 355.345H86.8891L61.8704 311.202L56.619 320.467ZM61.8831 310.221L63.9176 306.612L86.8916 266.078H36.8696L61.8831 310.221ZM57.6489 228.939L36.8798 265.592H86.9018L61.8831 221.458L57.6489 228.939ZM61.8831 220.45L63.409 217.773L86.9119 176.321H36.8899L61.8831 220.45ZM36.8772 175.825H86.8891L61.8831 131.698L36.8772 175.825ZM61.8831 130.706L63.9176 127.097L86.8916 86.5658H36.8696L61.8831 130.706ZM62.0967 41.8537L37.0756 85.9962H87.1001L62.0967 41.8537ZM112.414 41.7062H62.5697L87.5197 85.7343L112.442 41.7596L112.414 41.7062ZM87.891 86.0776H137.735L112.813 42.108L87.891 86.0776Z" fill="#CECCCC"/>
<path d="M0.595333 603.123H32.2794L24.9833 615.999H0.595333V603.123Z" fill="#2473DC"/>
<path d="M24.983 615.998L32.2791 603.126L39.5751 616.001L24.983 615.998Z" fill="#136ADE"/>
<path d="M39.5752 615.998L32.2792 603.126H99.3067L92.0106 616.001L39.5752 615.998Z" fill="#237CE7"/>
<path d="M92.0107 615.998L99.3068 603.126L106.603 616.001L92.0107 615.998Z" fill="#1A2966"/>
<path d="M106.605 615.998L99.3092 603.126H166.342L159.046 616.001L106.605 615.998Z" fill="#2580F0"/>
<path d="M159.046 615.998L166.342 603.126L173.638 616.001L159.046 615.998Z" fill="#1D74DF"/>
<path d="M0.595102 547.214L32.2918 603.123H0.595102V547.214Z" fill="#317CDA"/>
<path d="M0.595169 544.002H65.7968L32.2792 603.123L0.595169 547.214V544.002Z" fill="#3A88E7"/>
<path d="M99.3067 603.123L65.7942 544.002L32.2767 603.123H99.3067Z" fill="#1A2966"/>
<path d="M65.797 544.002L99.3094 603.123L132.835 544.002H65.797Z" fill="#2475EF"/>
<path d="M0.595333 484.858H32.2794L0.595333 540.79V484.858Z" fill="#4B9CEA"/>
<path d="M0.595184 540.79L32.2919 484.858L65.8095 544.004H0.595184V540.79Z" fill="#4292F2"/>
<path d="M32.2792 484.858L65.7968 544.004L99.3092 484.858H32.2792Z" fill="#3489EC"/>
<path style="mix-blend-mode:multiply" opacity="0.5" d="M132.835 544.002L99.312 484.855L65.7996 544.002H132.835Z" fill="url(#paint0_linear)"/>
<path d="M99.3069 484.858L132.835 544.002L166.347 484.855L99.3069 484.858Z" fill="#1761BD"/>
<path d="M0.595102 428.936L32.2918 484.855H0.595102V428.936Z" fill="#51ABF3"/>
<path d="M0.595169 425.726H65.7968L32.2792 484.858L0.595169 428.936V425.726Z" fill="#3F9EEB"/>
<path d="M99.3067 484.858L65.7942 425.726L32.2767 484.858H99.3067Z" fill="#3380DA"/>
<path d="M65.797 425.726L99.3094 484.858L132.835 425.726H65.797Z" fill="#2569BD"/>
<path d="M0.595333 366.603H32.2794L0.595333 422.515V366.603Z" fill="#5096E7"/>
<path d="M0.595184 422.514L32.2919 366.605L65.8095 425.726H0.595184V422.514Z" fill="#3F85DA"/>
<path d="M32.2792 366.603L65.7968 425.724L99.3092 366.603H32.2792Z" fill="#1A2966"/>
<path d="M132.835 425.726L99.312 366.605L65.7996 425.726H132.835Z" fill="#296EC1"/>
<path d="M0.595102 310.678L32.2918 366.603H0.595102V310.678Z" fill="#4484D6"/>
<path d="M99.3067 366.603L65.7942 307.467L32.2767 366.603H99.3067Z" fill="#477BC6"/>
<path d="M0.595333 248.322H32.2794L0.595333 304.255V248.322Z" fill="#4175C5"/>
<path d="M0.595169 304.255L32.2792 248.322L65.7968 307.469H0.595169V304.255Z" fill="#4576C5"/>
<path d="M0.595333 192.393L32.2794 248.322H0.595333V192.393Z" fill="#4476C5"/>
<g style="mix-blend-mode:overlay">
<g style="mix-blend-mode:overlay">
<path d="M0.595303 555.654H32.2794L0.595303 611.574V555.654Z" fill="#2473DC"/>
</g>
<g style="mix-blend-mode:overlay">
<path d="M0.595139 611.574L32.2918 555.644L65.8095 614.786H0.595139V611.574Z" fill="#136ADE"/>
</g>
<g style="mix-blend-mode:overlay">
<path d="M32.2792 555.654L65.7967 614.796L99.3092 555.654H32.2792Z" fill="#237CE7"/>
</g>
<g style="mix-blend-mode:overlay">
<path d="M132.834 614.796L99.3118 555.654L65.7994 614.796H132.834Z" fill="#1A2966"/>
</g>
<g style="mix-blend-mode:overlay">
<path d="M99.3067 555.654L132.834 614.796L166.347 555.654H99.3067Z" fill="#2580F0"/>
</g>
<g style="mix-blend-mode:overlay">
<path d="M198.021 611.553L166.342 555.657L132.834 614.796H198.021V611.553Z" fill="#1D74DF"/>
</g>
<g style="mix-blend-mode:overlay">
<path d="M0.595346 499.74L32.2921 555.654H0.595346V499.74Z" fill="#317CDA"/>
</g>
<g style="mix-blend-mode:overlay">
<path d="M0.595154 496.528H65.7968L32.2792 555.654L0.595154 499.74V496.528Z" fill="#3A88E7"/>
</g>
<g style="mix-blend-mode:overlay">
<path d="M99.3067 555.654L65.7942 496.528L32.2766 555.654H99.3067Z" fill="#1A2966"/>
</g>
<g style="mix-blend-mode:overlay">
<path d="M65.7968 496.528L99.3092 555.654L132.834 496.528H65.7968Z" fill="#2475EF"/>
</g>
<g style="mix-blend-mode:overlay">
<path d="M0.595303 437.386H32.2794L0.595303 493.321V437.386Z" fill="#4B9CEA"/>
</g>
<g style="mix-blend-mode:overlay">
<path d="M0.595139 493.321L32.2918 437.392L65.8095 496.533H0.595139V493.321Z" fill="#4292F2"/>
</g>
<g style="mix-blend-mode:overlay">
<path d="M32.2792 437.386L65.7967 496.528L99.3092 437.386H32.2792Z" fill="#3489EC"/>
</g>
<path style="mix-blend-mode:multiply" opacity="0.5" d="M132.834 496.528L99.3118 437.386L65.7994 496.528H132.834Z" fill="url(#paint1_linear)"/>
<g style="mix-blend-mode:overlay">
<path d="M99.3067 437.386L132.834 496.528L166.347 437.386H99.3067Z" fill="#1761BD"/>
</g>
<g style="mix-blend-mode:overlay">
<path d="M0.595346 381.462L32.2921 437.386H0.595346V381.462Z" fill="#51ABF3"/>
</g>
<g style="mix-blend-mode:overlay">
<path d="M0.595154 378.253H65.7968L32.2792 437.389L0.595154 381.462V378.253Z" fill="#3F9EEB"/>
</g>
<g style="mix-blend-mode:overlay">
<path d="M99.3067 437.387L65.7942 378.25L32.2766 437.387H99.3067Z" fill="#3380DA"/>
</g>
<g style="mix-blend-mode:overlay">
<path d="M65.7968 378.253L99.3092 437.389L132.834 378.253H65.7968Z" fill="#2569BD"/>
</g>
<g style="mix-blend-mode:overlay">
<path d="M0.595303 319.134H32.2794L0.595303 375.041V319.134Z" fill="#5096E7"/>
</g>
<g style="mix-blend-mode:overlay">
<path d="M0.595139 375.041L32.2918 319.137L65.8095 378.253H0.595139V375.041Z" fill="#3F85DA"/>
</g>
<g style="mix-blend-mode:overlay">
<path d="M32.2792 319.134L65.7967 378.25L99.3092 319.134H32.2792Z" fill="#1A2966"/>
</g>
<g style="mix-blend-mode:overlay">
<path d="M132.834 378.253L99.3118 319.137L65.7994 378.253H132.834Z" fill="#296EC1"/>
</g>
<g style="mix-blend-mode:overlay">
<path d="M0.595346 263.205L32.2921 319.134H0.595346V263.205Z" fill="#4484D6"/>
</g>
<g style="mix-blend-mode:overlay">
<path d="M99.3067 319.134L65.7942 259.992L32.2766 319.134H99.3067Z" fill="#477BC6"/>
</g>
<g style="mix-blend-mode:overlay">
<path d="M0.595303 200.849H32.2794L0.595303 256.781V200.849Z" fill="#4175C5"/>
</g>
<g style="mix-blend-mode:overlay">
<path d="M0.595139 256.781L32.2918 200.849L65.8095 259.995H0.595139V256.781Z" fill="#4576C5"/>
</g>
<g style="mix-blend-mode:overlay">
<path d="M0.595346 144.922L32.2921 200.846H0.595346V144.922Z" fill="#4476C5"/>
</g>
</g>
<g style="mix-blend-mode:overlay">
<g style="mix-blend-mode:overlay">
<path d="M0.595461 574.735L23.9917 615.999H0.595461V574.735Z" fill="#51ABF3"/>
</g>
<g style="mix-blend-mode:overlay">
<path d="M0.595398 571.525H65.797L40.5901 615.998H23.9712L0.575066 574.735L0.595398 571.525Z" fill="#3F9EEB"/>
</g>
<g style="mix-blend-mode:overlay">
<path d="M40.59 615.998L65.7969 571.525L90.9987 615.998H40.59Z" fill="#3380DA"/>
</g>
<g style="mix-blend-mode:overlay">
<path d="M90.9987 615.998L65.7969 571.525H132.835L107.628 615.998H90.9987Z" fill="#2569BD"/>
</g>
<g style="mix-blend-mode:overlay">
<path d="M0.595242 512.407H32.2793L0.595242 568.314V512.407Z" fill="#5096E7"/>
</g>
<g style="mix-blend-mode:overlay">
<path d="M0.595428 568.314L32.2921 512.409L65.8098 571.525H0.595428V568.314Z" fill="#3F85DA"/>
</g>
<g style="mix-blend-mode:overlay">
<path d="M32.2795 512.407L65.797 571.523L99.3094 512.407H32.2795Z" fill="#1A2966"/>
</g>
<g style="mix-blend-mode:overlay">
<path d="M132.835 571.525L99.3119 512.409L65.7995 571.525H132.835Z" fill="#296EC1"/>
</g>
<g style="mix-blend-mode:overlay">
<path d="M0.595316 456.477L32.292 512.407H0.595316V456.477Z" fill="#4484D6"/>
</g>
<g style="mix-blend-mode:overlay">
<path d="M99.3069 512.407L65.7944 453.266L32.2769 512.407H99.3069Z" fill="#477BC6"/>
</g>
<g style="mix-blend-mode:overlay">
<path d="M0.595242 394.121H32.2793L0.595242 450.053V394.121Z" fill="#4175C5"/>
</g>
<g style="mix-blend-mode:overlay">
<path d="M0.595428 450.053L32.2921 394.121L65.8098 453.268H0.595428V450.053Z" fill="#4576C5"/>
</g>
<g style="mix-blend-mode:overlay">
<path d="M0.595316 338.194L32.292 394.119H0.595316V338.194Z" fill="#4476C5"/>
</g>
</g>
<path d="M0.595015 607.484L0.767925 607.179L21.1124 643.1H0.595015V607.484Z" fill="#2473DC"/>
<path d="M41.47 607.179L21.1102 643.1L0.765682 607.179H41.47Z" fill="#136ADE"/>
<path d="M21.1102 643.107L41.47 607.187L61.8145 643.107H21.1102Z" fill="#237CE7"/>
<path d="M82.1844 607.179L61.8246 643.1L41.4801 607.179H82.1844Z" fill="#1A2966"/>
<path d="M61.8247 643.107L82.1845 607.187L102.529 643.107H61.8247Z" fill="#2580F0"/>
<path d="M122.899 607.179L102.539 643.1L82.1947 607.179H122.899Z" fill="#1D74DF"/>
<path d="M0.595072 643.107H21.1227L0.778149 679.018L0.605238 678.713L0.595072 643.107Z" fill="#317CDA"/>
<path d="M0.757931 679.011L21.1024 643.1L41.4622 679.011H0.757931Z" fill="#3A88E7"/>
<path d="M61.8244 643.107L41.4799 679.018L21.1202 643.107H61.8244Z" fill="#1A2966"/>
<path d="M41.4699 679.011L61.8144 643.1L82.1742 679.011H41.4699Z" fill="#2475EF"/>
<path d="M0.595015 679.316L0.767925 679.01L21.1124 714.931H0.595015V679.316Z" fill="#4B9CEA"/>
<path d="M41.47 679.01L21.1102 714.931L0.765682 679.01H41.47Z" fill="#4292F2"/>
<path d="M21.1102 714.931L41.47 679.01L61.8145 714.931H21.1102Z" fill="#3489EC"/>
<path style="mix-blend-mode:multiply" opacity="0.5" d="M82.1844 679.01L61.8246 714.931L41.4801 679.01H82.1844Z" fill="url(#paint2_linear)"/>
<path d="M61.8247 714.931L82.1845 679.01L102.529 714.931H61.8247Z" fill="#1761BD"/>
<path d="M0.595072 714.931H21.1227L0.778149 750.849L0.605238 750.544L0.595072 714.931Z" fill="#51ABF3"/>
<path d="M0.757931 750.849L21.1024 714.931L41.4622 750.849H0.757931Z" fill="#3F9EEB"/>
<path d="M61.8244 714.931L41.4799 750.849L21.1202 714.931H61.8244Z" fill="#3380DA"/>
<path d="M41.4699 750.849L61.8144 714.931L82.1742 750.849H41.4699Z" fill="#2569BD"/>
<path d="M0.595015 751.155L0.767925 750.849L21.1124 786.758H0.595015V751.155Z" fill="#5096E7"/>
<path d="M41.47 750.849L21.1102 786.758L0.765682 750.849H41.47Z" fill="#3F85DA"/>
<path d="M21.1102 786.758L41.47 750.849L61.8145 786.758H21.1102Z" fill="#1A2966"/>
<path d="M82.1844 750.849L61.8246 786.758L41.4801 750.849H82.1844Z" fill="#296EC1"/>
<path d="M0.595072 786.758H21.1227L0.778149 822.681L0.605238 822.373L0.595072 786.758Z" fill="#4484D6"/>
<path d="M61.8244 786.758L41.4799 822.681L21.1202 786.758H61.8244Z" fill="#477BC6"/>
<path d="M0.595015 822.989L0.767925 822.681L21.1124 858.604H0.595015V822.989Z" fill="#4175C5"/>
<path d="M41.47 822.681L21.1102 858.604L0.765682 822.681H41.47Z" fill="#4576C5"/>
<path d="M0.595072 858.604H21.1227L0.778149 894.525L0.605238 894.22L0.595072 858.604Z" fill="#4476C5"/>
<g style="mix-blend-mode:overlay">
<g style="mix-blend-mode:overlay">
<path d="M0.59532 587.333L0.76823 587.025L21.1127 622.946H0.59532V587.333Z" fill="#2473DC"/>
</g>
<g style="mix-blend-mode:overlay">
<path d="M41.47 587.025L21.1102 622.946L0.765682 587.025H41.47Z" fill="#136ADE"/>
</g>
<g style="mix-blend-mode:overlay">
<path d="M21.1102 622.946L41.47 587.025L61.8145 622.946H21.1102Z" fill="#237CE7"/>
</g>
<g style="mix-blend-mode:overlay">
<path d="M82.1844 587.025L61.8246 622.946L41.4801 587.025H82.1844Z" fill="#1A2966"/>
</g>
<g style="mix-blend-mode:overlay">
<path d="M61.8247 622.946L82.1845 587.025L102.529 622.946H61.8247Z" fill="#2580F0"/>
</g>
<g style="mix-blend-mode:overlay">
<path d="M122.899 587.025L102.539 622.946L82.1947 587.025H122.899Z" fill="#1D74DF"/>
</g>
<g style="mix-blend-mode:overlay">
<path d="M0.595407 622.946H21.123L0.778484 658.857L0.605574 658.551L0.595407 622.946Z" fill="#317CDA"/>
</g>
<g style="mix-blend-mode:overlay">
<path d="M0.758236 658.857L21.1027 622.946L41.4625 658.857H0.758236Z" fill="#3A88E7"/>
</g>
<g style="mix-blend-mode:overlay">
<path d="M61.8247 622.946L41.4802 658.857L21.1205 622.946H61.8247Z" fill="#1A2966"/>
</g>
<g style="mix-blend-mode:overlay">
<path d="M41.47 658.857L61.8145 622.946L82.1743 658.857H41.47Z" fill="#2475EF"/>
</g>
<g style="mix-blend-mode:overlay">
<path d="M0.59532 659.167L0.76823 658.859L21.1127 694.78H0.59532V659.167Z" fill="#4B9CEA"/>
</g>
<g style="mix-blend-mode:overlay">
<path d="M41.47 658.857L21.1102 694.777L0.765682 658.857H41.47Z" fill="#4292F2"/>
</g>
<g style="mix-blend-mode:overlay">
<path d="M21.1102 694.777L41.47 658.857L61.8145 694.777H21.1102Z" fill="#3489EC"/>
</g>
<path style="mix-blend-mode:multiply" opacity="0.5" d="M82.1844 658.857L61.8246 694.777L41.4801 658.857H82.1844Z" fill="url(#paint3_linear)"/>
<g style="mix-blend-mode:overlay">
<path d="M61.8247 694.777L82.1845 658.857L102.529 694.777H61.8247Z" fill="#1761BD"/>
</g>
<g style="mix-blend-mode:overlay">
<path d="M0.595407 694.777H21.123L0.778484 730.696L0.605574 730.39L0.595407 694.777Z" fill="#51ABF3"/>
</g>
<g style="mix-blend-mode:overlay">
<path d="M0.758236 730.696L21.1027 694.777L41.4625 730.696H0.758236Z" fill="#3F9EEB"/>
</g>
<g style="mix-blend-mode:overlay">
<path d="M61.8247 694.777L41.4802 730.696L21.1205 694.777H61.8247Z" fill="#3380DA"/>
</g>
<g style="mix-blend-mode:overlay">
<path d="M41.47 730.696L61.8145 694.777L82.1743 730.696H41.47Z" fill="#2569BD"/>
</g>
<g style="mix-blend-mode:overlay">
<path d="M0.59532 731.003L0.76823 730.698L21.1127 766.606H0.59532V731.003Z" fill="#5096E7"/>
</g>
<g style="mix-blend-mode:overlay">
<path d="M41.47 730.696L21.1102 766.604L0.765682 730.696H41.47Z" fill="#3F85DA"/>
</g>
<g style="mix-blend-mode:overlay">
<path d="M21.1102 766.606L41.47 730.698L61.8145 766.606H21.1102Z" fill="#1A2966"/>
</g>
<g style="mix-blend-mode:overlay">
<path d="M82.1844 730.696L61.8246 766.604L41.4801 730.696H82.1844Z" fill="#296EC1"/>
</g>
<g style="mix-blend-mode:overlay">
<path d="M0.595407 766.606H21.123L0.778484 802.529L0.605574 802.224L0.595407 766.606Z" fill="#4484D6"/>
</g>
<g style="mix-blend-mode:overlay">
<path d="M61.8247 766.606L41.4802 802.529L21.1205 766.606H61.8247Z" fill="#477BC6"/>
</g>
<g style="mix-blend-mode:overlay">
<path d="M0.59532 802.835L0.76823 802.529L21.1127 838.453H0.59532V802.835Z" fill="#4175C5"/>
</g>
<g style="mix-blend-mode:overlay">
<path d="M41.47 802.529L21.1102 838.453L0.765682 802.529H41.47Z" fill="#4576C5"/>
</g>
<g style="mix-blend-mode:overlay">
<path d="M0.595407 838.453H21.123L0.778484 874.374L0.605574 874.066L0.595407 838.453Z" fill="#4476C5"/>
</g>
</g>
<g style="mix-blend-mode:overlay">
<g style="mix-blend-mode:overlay">
<path d="M41.3072 229.687H42.0472L44.6131 234.216L47.1791 229.687H47.8963L45.1421 234.544H110.163L107.409 229.687H108.403L110.84 233.987L113.278 229.687H114.27L111.516 234.544H144.945V235.18H111.473L144.278 293.065H144.7L144.489 293.436V293.452L144.759 293.927H144.202L111.508 351.609L111.328 351.927L111.508 352.245H111.15L78.3316 410.163L78.1511 410.481L111.15 468.704H111.511L111.33 469.022L111.511 469.34H111.152L78.329 527.24L78.1485 527.558L78.2884 527.813L78.329 527.889L111.135 585.799H111.496L111.315 586.117L111.496 586.435H111.137L78.3138 644.348H144.688L111.511 702.869L78.1587 761.716L78.3393 762.034H77.9781L77.795 762.359L77.6068 762.034H11.9958L44.8013 819.939H45.165L44.9819 820.257L45.165 820.575H44.8039L11.9984 878.488L11.8712 878.709V877.42L44.0689 820.575H11.861V819.939H44.0588L11.861 763.099V760.343L22.7758 741.084L44.0588 703.52H11.861V702.869H44.0588L11.861 646.032V643.257L18.2899 631.905L44.0588 586.412H11.861V585.777H44.0588L11.861 528.924V526.152L16.9675 517.142L44.0588 469.32H11.861V468.684H44.0588L11.861 411.846V409.077L44.0588 352.234H11.861V351.599H44.0588L11.861 294.756V291.987L44.0588 235.17H11.861V234.534H44.0588L41.3072 229.687ZM110.524 235.18H45.5058L78.057 292.617L110.565 235.248L110.524 235.18ZM77.79 294.026L75.1197 298.736L45.1523 351.609H110.423L77.79 294.026ZM111.033 235.709L78.5351 293.068H143.541L111.033 235.709ZM143.472 293.93H78.4639L110.964 351.281L143.472 293.93ZM110.412 352.247H45.1421L77.7798 409.83L110.412 352.247ZM77.7798 411.119L75.7962 414.616L45.1421 468.697H110.423L77.7798 411.119ZM110.412 469.332H45.1421L77.79 526.889L110.412 469.332ZM77.7798 528.197L75.1096 532.906L45.1421 585.779H110.423L77.7798 528.197ZM110.412 586.415H45.1421L77.7798 644.003L110.412 586.415ZM77.7798 645.289L45.1497 702.869H110.423L77.7798 645.289ZM143.589 644.964H78.324L110.964 702.546L143.589 644.964ZM77.7798 761.075L110.412 703.51H45.1421L77.7798 761.075ZM33.2609 723.837L11.9781 761.401H77.2432L44.6055 703.838L33.2609 723.837ZM44.5954 702.549L77.2432 644.961H11.9882L44.5954 702.549ZM37.7444 598.838L11.9781 644.328H77.2432L44.6055 586.743L37.7444 598.838ZM44.5954 585.451L47.2655 580.744L77.2432 527.866H11.9882L44.5954 585.451ZM39.0693 479.405L11.9781 527.215H77.2432L44.6055 469.671L39.0693 479.405ZM44.5954 468.358L46.5764 464.867L77.2432 410.788H11.9882L44.5954 468.358ZM11.9857 410.163H77.2432L44.6055 352.583L11.9857 410.163ZM44.6055 351.291L47.2757 346.584L77.2432 293.691H11.9882L44.6055 351.291ZM12.245 292.963H77.5153L44.8827 235.383L12.245 292.963Z" fill="#CECCCC"/>
</g>
</g>
<g style="mix-blend-mode:overlay">
<g style="mix-blend-mode:overlay">
<path d="M214.329 618.633L235.946 582.473L193.812 582.501L214.329 618.633Z" fill="#FBF7F7"/>
</g>
<g style="mix-blend-mode:overlay">
<path d="M215.433 546.336L193.817 582.501L235.951 582.473L215.433 546.336Z" fill="#D9B1AF"/>
</g>
<g style="mix-blend-mode:overlay">
<path d="M193.817 582.501L215.433 546.336L173.305 546.369L193.817 582.501Z" fill="#E1C2C0"/>
</g>
<g style="mix-blend-mode:overlay">
<path d="M194.921 510.199L173.305 546.369L215.433 546.336L194.921 510.199Z" fill="#BE796D"/>
</g>
<g style="mix-blend-mode:overlay">
<path d="M173.305 546.369L194.921 510.199L152.792 510.232L173.305 546.369Z" fill="#B65F48"/>
</g>
<g style="mix-blend-mode:overlay">
<path d="M174.414 474.072L152.798 510.232L194.926 510.199L174.414 474.072Z" fill="#C95010"/>
</g>
<g style="mix-blend-mode:overlay">
<path d="M152.792 510.232L174.408 474.072L132.272 474.1L152.792 510.232Z" fill="#D95F1F"/>
</g>
<g style="mix-blend-mode:overlay">
<path d="M153.894 437.936L132.278 474.101L174.414 474.073L153.894 437.936Z" fill="#E86B26"/>
</g>
<g style="mix-blend-mode:overlay">
<path d="M192.721 654.805L214.337 618.643L172.214 618.674L192.721 654.805Z" fill="#DCB7B6"/>
</g>
<g style="mix-blend-mode:overlay">
<path d="M193.817 582.501L172.201 618.663L214.324 618.633L193.817 582.501Z" fill="#A3433D"/>
</g>
<g style="mix-blend-mode:overlay">
<path d="M172.204 618.663L193.82 582.501L151.691 582.529L172.204 618.663Z" fill="#AB524A"/>
</g>
<g style="mix-blend-mode:overlay">
<path d="M173.305 546.369L151.689 582.529L193.817 582.501L173.305 546.369Z" fill="#AB3111"/>
</g>
<g style="mix-blend-mode:overlay">
<path d="M151.689 582.529L173.305 546.369L131.176 546.395L151.689 582.529Z" fill="#BE6044"/>
</g>
<g style="mix-blend-mode:overlay">
<path d="M152.792 510.232L131.176 546.395L173.305 546.369L152.792 510.232Z" fill="#D46735"/>
</g>
<g style="mix-blend-mode:overlay">
<path d="M131.176 546.395L152.792 510.232L110.662 510.263L131.176 546.395Z" fill="#DA5B17"/>
</g>
<g style="mix-blend-mode:overlay">
<path d="M132.275 474.1L110.659 510.263L152.79 510.232L132.275 474.1Z" fill="#E37B42"/>
</g>
<g style="mix-blend-mode:overlay">
<path d="M171.09 690.965L192.721 654.806L150.577 654.841L171.09 690.965Z" fill="#A04841"/>
</g>
<g style="mix-blend-mode:overlay">
<path d="M172.204 618.664L150.588 654.831L192.731 654.795L172.204 618.664Z" fill="#951907"/>
</g>
<g style="mix-blend-mode:overlay">
<path d="M150.578 654.828L172.194 618.661L130.052 618.696L150.578 654.828Z" fill="#991A06"/>
</g>
<g style="mix-blend-mode:overlay">
<path d="M151.689 582.529L130.073 618.699L172.214 618.663L151.689 582.529Z" fill="#C03006"/>
</g>
<g style="mix-blend-mode:overlay">
<path d="M130.063 618.694L151.679 582.524L109.543 582.56L130.063 618.694Z" fill="#CD3F04"/>
</g>
<g style="mix-blend-mode:overlay">
<path d="M131.176 546.395L109.56 582.565L151.696 582.529L131.176 546.395Z" fill="#DD5107"/>
</g>
<g style="mix-blend-mode:overlay">
<path d="M109.553 582.562L131.169 546.392L89.0302 546.425L109.553 582.562Z" fill="#DA4F08"/>
</g>
<g style="mix-blend-mode:overlay">
<path d="M110.659 510.263L89.043 546.428L131.182 546.395L110.659 510.263Z" fill="#DC6515"/>
</g>
<g style="mix-blend-mode:overlay">
<path d="M149.481 727.141L171.097 690.965L128.969 690.993L149.481 727.141Z" fill="#A7312B"/>
</g>
<g style="mix-blend-mode:overlay">
<path d="M150.577 654.828L128.961 690.993L171.09 690.965L150.577 654.828Z" fill="#9D2B1A"/>
</g>
<g style="mix-blend-mode:overlay">
<path d="M128.961 690.993L150.577 654.828L108.449 654.856L128.961 690.993Z" fill="#A8210C"/>
</g>
<g style="mix-blend-mode:overlay">
<path d="M130.063 618.694L108.447 654.854L150.575 654.826L130.063 618.694Z" fill="#BF300F"/>
</g>
<g style="mix-blend-mode:overlay">
<path d="M108.447 654.856L130.063 618.696L87.9316 618.724L108.447 654.856Z" fill="#D74907"/>
</g>
<g style="mix-blend-mode:overlay">
<path d="M109.553 582.562L87.9367 618.724L130.063 618.694L109.553 582.562Z" fill="#E97A09"/>
</g>
<g style="mix-blend-mode:overlay">
<path d="M87.9316 618.724L109.548 582.562L67.4116 582.59L87.9316 618.724Z" fill="#E46A0B"/>
</g>
<g style="mix-blend-mode:overlay">
<path d="M89.0353 546.425L67.4193 582.59L109.555 582.562L89.0353 546.425Z" fill="#E17318"/>
</g>
<g style="mix-blend-mode:overlay">
<path d="M127.863 763.293L149.479 727.14L107.348 727.156L127.863 763.293Z" fill="#B72D28"/>
</g>
<g style="mix-blend-mode:overlay">
<path d="M128.961 690.993L107.345 727.156L149.476 727.141L128.961 690.993Z" fill="#AF231E"/>
</g>
<g style="mix-blend-mode:overlay">
<path d="M107.351 727.156L128.967 690.993L86.8382 691.019L107.351 727.156Z" fill="#A82F18"/>
</g>
<g style="mix-blend-mode:overlay">
<path d="M108.447 654.856L86.8305 691.019L128.959 690.993L108.447 654.856Z" fill="#C6461F"/>
</g>
<g style="mix-blend-mode:overlay">
<path d="M86.8305 691.019L108.447 654.856L66.3181 654.889L86.8305 691.019Z" fill="#D95F07"/>
</g>
<g style="mix-blend-mode:overlay">
<path d="M87.9315 618.724L66.3155 654.889L108.444 654.856L87.9315 618.724Z" fill="#F2960A"/>
</g>
<g style="mix-blend-mode:overlay">
<path d="M66.3207 654.889L87.9367 618.724L45.8109 618.752L66.3207 654.889Z" fill="#F1980F"/>
</g>
<g style="mix-blend-mode:overlay">
<path d="M67.4142 582.583L45.7982 618.745L87.924 618.717L67.4142 582.583Z" fill="#EF9B0F"/>
</g>
<g style="mix-blend-mode:overlay">
<path d="M106.244 799.455L127.86 763.29L85.7318 763.328L106.244 799.455Z" fill="#C43232"/>
</g>
<g style="mix-blend-mode:overlay">
<path d="M107.351 727.156L85.7345 763.331L127.863 763.293L107.351 727.156Z" fill="#C61C1A"/>
</g>
<g style="mix-blend-mode:overlay">
<path d="M85.7345 763.328L107.351 727.153L65.2171 727.186L85.7345 763.328Z" fill="#B02A10"/>
</g>
<g style="mix-blend-mode:overlay">
<path d="M86.8305 691.019L65.2145 727.189L107.348 727.156L86.8305 691.019Z" fill="#C55A12"/>
</g>
<g style="mix-blend-mode:overlay">
<path d="M65.2145 727.189L86.8305 691.019L44.7021 691.052L65.2145 727.189Z" fill="#D27429"/>
</g>
<g style="mix-blend-mode:overlay">
<path d="M66.3208 654.889L44.7048 691.052L86.8332 691.019L66.3208 654.889Z" fill="#EF910A"/>
</g>
<g style="mix-blend-mode:overlay">
<path d="M44.7022 691.052L66.3182 654.889L24.1848 654.915L44.7022 691.052Z" fill="#F19A0D"/>
</g>
<g style="mix-blend-mode:overlay">
<path d="M45.8033 618.753L24.1873 654.915L66.3207 654.89L45.8033 618.753Z" fill="#F29F12"/>
</g>
<g style="mix-blend-mode:overlay">
<path d="M84.6205 835.617L106.237 799.445L64.0955 799.478L84.6205 835.617Z" fill="#CB5662"/>
</g>
<g style="mix-blend-mode:overlay">
<path d="M85.7344 763.328L64.1031 799.488L106.244 799.455L85.7344 763.328Z" fill="#CB452F"/>
</g>
<g style="mix-blend-mode:overlay">
<path d="M64.1032 799.488L85.7345 763.328L43.5909 763.349L64.1032 799.488Z" fill="#CD3D15"/>
</g>
<g style="mix-blend-mode:overlay">
<path d="M65.2144 727.188L43.5984 763.351L85.742 763.33L65.2144 727.188Z" fill="#D5680A"/>
</g>
<g style="mix-blend-mode:overlay">
<path d="M43.5884 763.348L65.2044 727.186L23.0608 727.214L43.5884 763.348Z" fill="#DF6E09"/>
</g>
<g style="mix-blend-mode:overlay">
<path d="M44.7023 691.052L23.071 727.217L65.2146 727.189L44.7023 691.052Z" fill="#ED830B"/>
</g>
<g style="mix-blend-mode:overlay">
<path d="M23.0709 727.214L44.7022 691.049L2.56113 691.087L23.0709 727.214Z" fill="#EE8C0B"/>
</g>
<g style="mix-blend-mode:overlay">
<path d="M24.1846 654.915L2.56861 691.09L44.7097 691.052L24.1846 654.915Z" fill="#E87F0D"/>
</g>
<g style="mix-blend-mode:overlay">
<path d="M62.9944 871.79L84.6104 835.628L42.472 835.658L62.9944 871.79Z" fill="#C292B0"/>
</g>
<g style="mix-blend-mode:overlay">
<path d="M64.1031 799.488L42.4871 835.658L84.6257 835.627L64.1031 799.488Z" fill="#D6A385"/>
</g>
<g style="mix-blend-mode:overlay">
<path d="M42.482 835.658L64.098 799.488L21.9696 799.531L42.482 835.658Z" fill="#D68951"/>
</g>
<g style="mix-blend-mode:overlay">
<path d="M43.5882 763.348L21.9722 799.531L64.1005 799.488L43.5882 763.348Z" fill="#D48F4B"/>
</g>
<g style="mix-blend-mode:overlay">
<path d="M21.9723 799.531L43.5883 763.348L1.45491 763.386L21.9723 799.531Z" fill="#DB7D25"/>
</g>
<g style="mix-blend-mode:overlay">
<path d="M23.0709 727.214L1.45491 763.387L43.5883 763.348L23.0709 727.214Z" fill="#EAA55E"/>
</g>
<g style="mix-blend-mode:overlay">
<path d="M0.595074 727.232L23.0833 727.214L1.46731 763.387L0.595074 761.861V727.232Z" fill="#E27819"/>
</g>
<g style="mix-blend-mode:overlay">
<path d="M0.595116 694.393L2.57109 691.087L23.0809 727.214L0.592554 727.232L0.595116 694.393Z" fill="#E6AA64"/>
</g>
<g style="mix-blend-mode:overlay">
<path d="M41.3858 907.96L63.0019 871.79L20.8786 871.823L41.3858 907.96Z" fill="#9C6CA0"/>
</g>
<g style="mix-blend-mode:overlay">
<path d="M42.4822 835.658L20.8662 871.823L62.9895 871.79L42.4822 835.658Z" fill="#7A596D"/>
</g>
<g style="mix-blend-mode:overlay">
<path d="M0.595184 835.684L42.4947 835.658L20.8787 871.823L0.595184 836.09V835.684Z" fill="#904F47"/>
</g>
<g style="mix-blend-mode:overlay">
<path d="M0.595245 835.297L21.985 799.531L42.4922 835.658L0.592682 835.683L0.595245 835.297Z" fill="#94542D"/>
</g>
<g style="mix-blend-mode:overlay">
<path d="M0.59535 799.536H21.9851L0.59535 835.297V799.536Z" fill="#B57E1E"/>
</g>
<g style="mix-blend-mode:overlay">
<path d="M0.59535 764.844L1.46759 763.386L21.9851 799.531H0.59535V764.844Z" fill="#C47A19"/>
</g>
<g style="mix-blend-mode:overlay">
<path d="M0.59539 907.975L41.3989 907.957L19.7828 944.114L0.59539 910.325V907.975Z" fill="#6F498B"/>
</g>
<g style="mix-blend-mode:overlay">
<path d="M0.59539 905.745L20.8839 871.82L41.3989 907.957L0.59539 907.975V905.745Z" fill="#6C5C75"/>
</g>
<g style="mix-blend-mode:overlay">
<path d="M0.595091 871.83H20.8836L0.595091 905.745V871.83Z" fill="#625D5C"/>
</g>
<g style="mix-blend-mode:overlay">
<path d="M0.595091 836.09L20.8836 871.823H0.595091V836.09Z" fill="#4E727C"/>
</g>
<g style="mix-blend-mode:overlay">
<path d="M0.595238 944.132L19.7776 944.115L0.595238 976.193V944.132Z" fill="#A28FC8"/>
</g>
<g style="mix-blend-mode:overlay">
<path d="M0.595238 910.325L19.7776 944.114L0.595238 944.132V910.325Z" fill="#6B68AC"/>
</g>
</g>
<defs>
<linearGradient id="paint0_linear" x1="-165.807" y1="-1877.22" x2="-224.999" y2="-1877.22" gradientUnits="userSpaceOnUse">
<stop stop-color="white"/>
<stop offset="0.162" stop-color="#FBFBFB"/>
<stop offset="0.293" stop-color="#F1F1F1"/>
<stop offset="0.412" stop-color="#E0E0E0"/>
<stop offset="0.525" stop-color="#C9C9C9"/>
<stop offset="0.633" stop-color="#AAAAAA"/>
<stop offset="0.738" stop-color="#848484"/>
<stop offset="0.84" stop-color="#575757"/>
<stop offset="0.937" stop-color="#242424"/>
<stop offset="1"/>
</linearGradient>
<linearGradient id="paint1_linear" x1="-118.346" y1="-1877.23" x2="-177.471" y2="-1877.23" gradientUnits="userSpaceOnUse">
<stop stop-color="white"/>
<stop offset="0.162" stop-color="#FBFBFB"/>
<stop offset="0.293" stop-color="#F1F1F1"/>
<stop offset="0.412" stop-color="#E0E0E0"/>
<stop offset="0.525" stop-color="#C9C9C9"/>
<stop offset="0.633" stop-color="#AAAAAA"/>
<stop offset="0.738" stop-color="#848484"/>
<stop offset="0.84" stop-color="#575757"/>
<stop offset="0.937" stop-color="#242424"/>
<stop offset="1"/>
</linearGradient>
<linearGradient id="paint2_linear" x1="1909.48" y1="-966.089" x2="1873.54" y2="-966.089" gradientUnits="userSpaceOnUse">
<stop stop-color="white"/>
<stop offset="0.162" stop-color="#FBFBFB"/>
<stop offset="0.293" stop-color="#F1F1F1"/>
<stop offset="0.412" stop-color="#E0E0E0"/>
<stop offset="0.525" stop-color="#C9C9C9"/>
<stop offset="0.633" stop-color="#AAAAAA"/>
<stop offset="0.738" stop-color="#848484"/>
<stop offset="0.84" stop-color="#575757"/>
<stop offset="0.937" stop-color="#242424"/>
<stop offset="1"/>
</linearGradient>
<linearGradient id="paint3_linear" x1="1889.33" y1="-966.091" x2="1853.39" y2="-966.091" gradientUnits="userSpaceOnUse">
<stop stop-color="white"/>
<stop offset="0.162" stop-color="#FBFBFB"/>
<stop offset="0.293" stop-color="#F1F1F1"/>
<stop offset="0.412" stop-color="#E0E0E0"/>
<stop offset="0.525" stop-color="#C9C9C9"/>
<stop offset="0.633" stop-color="#AAAAAA"/>
<stop offset="0.738" stop-color="#848484"/>
<stop offset="0.84" stop-color="#575757"/>
<stop offset="0.937" stop-color="#242424"/>
<stop offset="1"/>
</linearGradient>
</defs>
</svg>
