<svg width="595" height="91" viewBox="0 0 595 91" fill="none" xmlns="http://www.w3.org/2000/svg">
<path opacity="0.2" d="M549.169 -2.00332e-06L548.627 -2.02705e-06L548.627 22.8895L499.29 0.458139L499.29 0.167811L498.973 0.315242L498.563 0.131542L498.563 0.512578L449.401 22.8623L449.119 22.987L448.836 22.8623L448.836 23.1118L399.476 45.5476L399.194 45.6724L349.568 23.1118L349.568 22.8623L349.286 22.987L349.003 22.8623L349.003 23.1118L299.652 45.5476L299.369 45.6723L299.163 45.5748L299.1 45.5476L249.741 23.1118L249.741 22.8623L249.458 22.987L249.175 22.8623L249.175 23.1118L199.813 45.5476L199.813 0.185967L149.911 22.8668L99.754 45.6769L99.4712 45.5521L99.4712 45.8016L99.1884 45.9241L99.4712 46.0534L99.4712 90.9138L50.1173 68.487L50.1173 68.2375L49.8345 68.3622L49.5518 68.2375L49.5518 68.487L0.186669 90.9138L1.18143e-05 91L1.09999 91L49.5518 68.9996L49.5518 91L50.0947 91L50.0947 68.9996L98.5437 91L100.902 91L117.319 83.538L149.334 68.9882L149.334 90.9887L149.877 90.9887L149.877 68.9882L198.326 90.9887L200.69 90.9887L210.366 86.5954L249.142 68.9769L249.142 90.9773L249.684 90.9773L249.684 68.9769L298.133 90.9773L300.494 90.9773L308.174 87.4867L348.935 68.9655L348.935 90.966L349.597 90.966L349.597 68.9655L398.04 90.966L400.401 90.966L448.853 68.9655L448.853 90.966L449.396 90.966L449.396 68.9655L497.842 90.966L500.203 90.966L548.632 68.9655L548.632 90.966L549.175 90.966L549.175 68.9655L595 89.7866L595 89.283L549.449 68.5868L594.994 47.8792L594.994 47.3848L549.169 68.2125L549.169 23.7581L594.994 44.5882L594.994 43.9078L549.644 23.2909L594.994 2.69902L594.994 2.01859L549.169 22.8464L549.169 -2.00332e-06ZM498.554 1.00474L498.554 45.4592L449.67 23.232L498.554 1.00474ZM498.472 45.9128L494.457 47.7273L449.393 68.2148L449.393 23.6016L498.472 45.9128ZM448.847 23.6016L448.847 68.2239L399.768 45.906L448.847 23.6016ZM398.668 45.9105L395.685 47.2714L349.594 68.2284L349.594 23.6016L398.668 45.9105ZM349.048 23.6016L349.048 68.2239L299.977 45.906L349.048 23.6016ZM298.877 45.9105L294.862 47.725L249.798 68.2125L249.798 23.6016L298.877 45.9105ZM249.255 23.6016L249.255 68.2239L200.169 45.906L249.255 23.6016ZM199.072 45.9105L149.99 68.2262L149.99 23.6016L199.072 45.9105ZM199.355 0.916269L199.355 45.5385L150.267 23.2251L199.355 0.916269ZM100.387 45.9105L149.45 23.6016L149.45 68.2239L100.387 45.9105ZM132.125 76.3481L100.105 90.8979L100.105 46.2847L149.164 68.5981L132.125 76.3481ZM150.27 68.5981L199.352 46.2847L199.352 90.8979L150.27 68.5981ZM238.671 73.2817L199.89 90.8979L199.89 46.2847L248.972 68.5981L238.671 73.2817ZM250.063 68.5868L254.076 66.7723L299.146 46.2825L299.146 90.8956L250.063 68.5868ZM340.441 72.3632L299.686 90.8866L299.686 46.2734L348.76 68.5868L340.441 72.3632ZM349.879 68.5868L352.857 67.2259L398.948 46.2644L398.948 90.8775L349.879 68.5868ZM399.499 90.8889L399.499 46.2847L448.564 68.5868L399.499 90.8889ZM449.667 68.5868L453.68 66.7723L498.747 46.2825L498.747 90.8956L449.667 68.5868ZM548.463 68.3963L499.38 90.7119L499.38 46.0965L548.463 68.3963ZM548.627 23.52L548.627 67.9744L499.671 45.7223L548.567 23.4951L548.627 23.52ZM499.29 45.3911L499.29 0.936701L548.18 23.1639L499.29 45.3911Z" fill="#CECCCC"/>
</svg>
