<svg width="124" height="335" viewBox="0 0 124 335" fill="none" xmlns="http://www.w3.org/2000/svg">
<path d="M12.288 6.368V9.344L5.064 19.856H12.408L12.024 23H0.432V20.048L7.8 9.416H1.176V6.368H12.288ZM30.8923 23H27.0283L26.7403 16.496C26.6603 14.944 26.6203 13.56 26.6203 12.344C26.6203 11.416 26.6443 10.536 26.6923 9.704L24.1243 21.248H20.4043L17.6683 9.704C17.7643 11.096 17.8123 12.408 17.8123 13.64C17.8123 14.568 17.7883 15.536 17.7403 16.544L17.4523 23H13.6123L14.8603 6.368H19.8283L22.3243 17.648L24.6523 6.368H29.6443L30.8923 23ZM36.9675 10.256V23H33.1755V10.256H36.9675ZM35.0475 3.536C35.7035 3.536 36.2395 3.744 36.6555 4.16C37.0875 4.56 37.3035 5.072 37.3035 5.696C37.3035 6.32 37.0875 6.84 36.6555 7.256C36.2395 7.656 35.7035 7.856 35.0475 7.856C34.3915 7.856 33.8555 7.656 33.4395 7.256C33.0235 6.84 32.8155 6.32 32.8155 5.696C32.8155 5.072 33.0235 4.56 33.4395 4.16C33.8555 3.744 34.3915 3.536 35.0475 3.536ZM51.3729 5.192V23H48.0129L47.8209 21.512C46.9249 22.776 45.7169 23.408 44.1969 23.408C42.6129 23.408 41.4049 22.8 40.5729 21.584C39.7569 20.368 39.3489 18.704 39.3489 16.592C39.3489 15.296 39.5649 14.136 39.9969 13.112C40.4289 12.088 41.0369 11.288 41.8209 10.712C42.6209 10.136 43.5329 9.848 44.5569 9.848C45.7729 9.848 46.7809 10.248 47.5809 11.048V4.784L51.3729 5.192ZM45.3729 20.624C46.2529 20.624 46.9889 20.144 47.5809 19.184V13.688C47.2769 13.32 46.9649 13.048 46.6449 12.872C46.3409 12.696 45.9889 12.608 45.5889 12.608C44.8849 12.608 44.3249 12.936 43.9089 13.592C43.4929 14.248 43.2849 15.256 43.2849 16.616C43.2849 18.104 43.4609 19.144 43.8129 19.736C44.1809 20.328 44.7009 20.624 45.3729 20.624ZM61.8036 9.848C62.9076 9.848 63.7716 10.184 64.3956 10.856C65.0196 11.528 65.3316 12.472 65.3316 13.688V23H61.5396V14.336C61.5396 13.696 61.4356 13.256 61.2276 13.016C61.0356 12.76 60.7396 12.632 60.3396 12.632C59.5716 12.632 58.8356 13.184 58.1316 14.288V23H54.3396V10.256H57.6516L57.9156 11.768C58.4596 11.128 59.0436 10.648 59.6676 10.328C60.3076 10.008 61.0196 9.848 61.8036 9.848ZM71.9831 10.256V23H68.1911V10.256H71.9831ZM70.0631 3.536C70.7191 3.536 71.2551 3.744 71.6711 4.16C72.1031 4.56 72.3191 5.072 72.3191 5.696C72.3191 6.32 72.1031 6.84 71.6711 7.256C71.2551 7.656 70.7191 7.856 70.0631 7.856C69.4071 7.856 68.8711 7.656 68.4551 7.256C68.0391 6.84 67.8311 6.32 67.8311 5.696C67.8311 5.072 68.0391 4.56 68.4551 4.16C68.8711 3.744 69.4071 3.536 70.0631 3.536ZM86.7006 11C85.8686 11.336 84.6446 11.504 83.0286 11.504C83.8606 11.856 84.4686 12.288 84.8526 12.8C85.2366 13.312 85.4286 13.976 85.4286 14.792C85.4286 15.608 85.2126 16.344 84.7806 17C84.3486 17.64 83.7246 18.144 82.9086 18.512C82.1086 18.88 81.1646 19.064 80.0766 19.064C79.5646 19.064 79.0766 19.016 78.6126 18.92C78.4846 18.984 78.3806 19.088 78.3006 19.232C78.2366 19.36 78.2046 19.496 78.2046 19.64C78.2046 19.88 78.2926 20.072 78.4686 20.216C78.6606 20.344 79.0366 20.408 79.5966 20.408H81.5166C82.4926 20.408 83.3486 20.568 84.0846 20.888C84.8206 21.208 85.3886 21.648 85.7886 22.208C86.1886 22.768 86.3886 23.4 86.3886 24.104C86.3886 25.432 85.8126 26.464 84.6606 27.2C83.5246 27.952 81.8766 28.328 79.7166 28.328C78.1646 28.328 76.9406 28.16 76.0446 27.824C75.1486 27.504 74.5166 27.048 74.1486 26.456C73.7966 25.864 73.6206 25.12 73.6206 24.224H77.0286C77.0286 24.608 77.1006 24.912 77.2446 25.136C77.4046 25.36 77.6846 25.528 78.0846 25.64C78.4846 25.752 79.0606 25.808 79.8126 25.808C80.8526 25.808 81.5726 25.68 81.9726 25.424C82.3726 25.184 82.5726 24.832 82.5726 24.368C82.5726 23.984 82.4206 23.68 82.1166 23.456C81.8126 23.232 81.3566 23.12 80.7486 23.12H78.9006C77.5886 23.12 76.6046 22.888 75.9486 22.424C75.3086 21.944 74.9886 21.336 74.9886 20.6C74.9886 20.136 75.1246 19.688 75.3966 19.256C75.6686 18.808 76.0366 18.44 76.5006 18.152C75.7006 17.72 75.1166 17.216 74.7486 16.64C74.3966 16.048 74.2206 15.336 74.2206 14.504C74.2206 13.08 74.7326 11.952 75.7566 11.12C76.7806 10.272 78.1326 9.848 79.8126 9.848C81.0926 9.88 82.1726 9.752 83.0526 9.464C83.9486 9.176 84.8686 8.752 85.8126 8.192L86.7006 11ZM79.9086 12.344C79.3166 12.344 78.8446 12.536 78.4926 12.92C78.1566 13.288 77.9886 13.8 77.9886 14.456C77.9886 15.144 78.1566 15.68 78.4926 16.064C78.8446 16.432 79.3166 16.616 79.9086 16.616C80.5326 16.616 81.0046 16.432 81.3246 16.064C81.6606 15.696 81.8286 15.144 81.8286 14.408C81.8286 13.032 81.1886 12.344 79.9086 12.344ZM95.6473 9.848C96.7513 9.848 97.6153 10.184 98.2393 10.856C98.8633 11.528 99.1753 12.472 99.1753 13.688V23H95.3833V14.336C95.3833 13.696 95.2793 13.256 95.0713 13.016C94.8633 12.76 94.5673 12.632 94.1833 12.632C93.4153 12.632 92.6793 13.176 91.9753 14.264V23H88.1833V5.192L91.9753 4.808V11.624C92.5033 11.032 93.0633 10.592 93.6553 10.304C94.2473 10 94.9113 9.848 95.6473 9.848ZM110.027 22.4C109.563 22.72 109.019 22.968 108.395 23.144C107.787 23.32 107.179 23.408 106.571 23.408C103.787 23.392 102.395 21.856 102.395 18.8V12.896H100.595V10.256H102.395V7.496L106.187 7.064V10.256H109.115L108.707 12.896H106.187V18.752C106.187 19.344 106.283 19.768 106.475 20.024C106.667 20.28 106.971 20.408 107.387 20.408C107.819 20.408 108.275 20.272 108.755 20L110.027 22.4Z" fill="black"/>
<path d="M5.436 50.744H3.51V56H1.8V43.598H5.058C6.606 43.598 7.776 43.892 8.568 44.48C9.372 45.068 9.774 45.944 9.774 47.108C9.774 47.972 9.552 48.674 9.108 49.214C8.664 49.754 7.992 50.162 7.092 50.438L10.44 56H8.406L5.436 50.744ZM5.238 49.43C6.138 49.43 6.816 49.25 7.272 48.89C7.728 48.518 7.956 47.924 7.956 47.108C7.956 46.34 7.722 45.788 7.254 45.452C6.798 45.104 6.06 44.93 5.04 44.93H3.51V49.43H5.238ZM16.4663 43.958V56H14.8103V45.722L12.0023 47.432L11.2823 46.262L15.0083 43.958H16.4663ZM23.1015 43.778C24.3735 43.778 25.3395 44.198 25.9995 45.038C26.6595 45.866 26.9895 47.006 26.9895 48.458C26.9895 50.102 26.7675 51.428 26.3235 52.436C25.8795 53.432 25.2015 54.23 24.2895 54.83C23.3775 55.418 22.1415 55.94 20.5815 56.396L20.2035 55.154C21.8115 54.698 23.0415 54.08 23.8935 53.3C24.7575 52.52 25.2195 51.482 25.2795 50.186C25.0035 50.618 24.6315 50.966 24.1635 51.23C23.6955 51.494 23.1675 51.626 22.5795 51.626C21.9555 51.626 21.3915 51.47 20.8875 51.158C20.3835 50.834 19.9815 50.384 19.6815 49.808C19.3935 49.22 19.2495 48.536 19.2495 47.756C19.2495 46.94 19.4235 46.232 19.7715 45.632C20.1195 45.032 20.5815 44.576 21.1575 44.264C21.7455 43.94 22.3935 43.778 23.1015 43.778ZM22.9215 50.33C23.8695 50.33 24.6675 49.832 25.3155 48.836C25.3395 47.504 25.1715 46.55 24.8115 45.974C24.4635 45.386 23.9055 45.092 23.1375 45.092C22.4295 45.092 21.8835 45.326 21.4995 45.794C21.1155 46.262 20.9235 46.928 20.9235 47.792C20.9235 48.632 21.1035 49.268 21.4635 49.7C21.8235 50.12 22.3095 50.33 22.9215 50.33ZM38.7262 41.474L40.1302 41.798L35.9722 57.872L34.5502 57.53L38.7262 41.474ZM53.1474 43.382C53.9274 43.382 54.5994 43.496 55.1634 43.724C55.7394 43.94 56.3094 44.282 56.8734 44.75L55.8654 45.794C55.4214 45.434 54.9954 45.176 54.5874 45.02C54.1794 44.864 53.6994 44.786 53.1474 44.786C52.5114 44.786 51.9234 44.96 51.3834 45.308C50.8554 45.644 50.4234 46.19 50.0874 46.946C49.7514 47.69 49.5834 48.638 49.5834 49.79C49.5834 51.53 49.8654 52.802 50.4294 53.606C51.0054 54.41 51.8514 54.812 52.9674 54.812C53.8794 54.812 54.6654 54.626 55.3254 54.254V50.51H53.1294L52.9314 49.124H57.0174V55.118C55.7334 55.85 54.3834 56.216 52.9674 56.216C51.3354 56.216 50.0574 55.67 49.1334 54.578C48.2214 53.486 47.7654 51.89 47.7654 49.79C47.7654 48.446 48.0054 47.294 48.4854 46.334C48.9774 45.362 49.6314 44.63 50.4474 44.138C51.2754 43.634 52.1754 43.382 53.1474 43.382ZM62.0591 43.778C62.7791 43.778 63.4091 43.922 63.9491 44.21C64.5011 44.498 64.9271 44.894 65.2271 45.398C65.5271 45.89 65.6771 46.448 65.6771 47.072C65.6771 47.804 65.5091 48.506 65.1731 49.178C64.8491 49.85 64.3451 50.576 63.6611 51.356C62.9771 52.136 61.9391 53.222 60.5471 54.614H65.9651L65.7671 56H58.6571V54.686C60.2651 53.018 61.4051 51.8 62.0771 51.032C62.7491 50.252 63.2291 49.574 63.5171 48.998C63.8051 48.422 63.9491 47.804 63.9491 47.144C63.9491 46.52 63.7691 46.034 63.4091 45.686C63.0491 45.326 62.5691 45.146 61.9691 45.146C61.4771 45.146 61.0451 45.248 60.6731 45.452C60.3011 45.656 59.9051 45.992 59.4851 46.46L58.4051 45.596C58.8971 44.984 59.4431 44.528 60.0431 44.228C60.6431 43.928 61.3151 43.778 62.0591 43.778ZM72.4112 48.08C73.0232 48.08 73.5812 48.224 74.0852 48.512C74.5892 48.8 74.9912 49.232 75.2912 49.808C75.5912 50.384 75.7412 51.086 75.7412 51.914C75.7412 52.766 75.5672 53.522 75.2192 54.182C74.8832 54.83 74.4212 55.334 73.8332 55.694C73.2572 56.042 72.6152 56.216 71.9072 56.216C70.5032 56.216 69.4772 55.7 68.8292 54.668C68.1812 53.624 67.8572 52.184 67.8572 50.348C67.8572 49.04 68.0372 47.894 68.3972 46.91C68.7692 45.914 69.2972 45.146 69.9812 44.606C70.6652 44.054 71.4752 43.778 72.4112 43.778C73.3232 43.778 74.1512 44.024 74.8952 44.516L74.2472 45.614C73.6832 45.266 73.0652 45.092 72.3932 45.092C71.5292 45.092 70.8452 45.506 70.3412 46.334C69.8372 47.162 69.5612 48.272 69.5132 49.664C70.2572 48.608 71.2232 48.08 72.4112 48.08ZM71.9072 54.902C72.6032 54.902 73.1372 54.638 73.5092 54.11C73.8812 53.582 74.0672 52.868 74.0672 51.968C74.0672 50.252 73.4192 49.394 72.1232 49.394C71.5952 49.394 71.1092 49.544 70.6652 49.844C70.2212 50.132 69.8432 50.534 69.5312 51.05C69.5672 52.37 69.7712 53.342 70.1432 53.966C70.5272 54.59 71.1152 54.902 71.9072 54.902ZM87.2945 41.474L88.6985 41.798L84.5405 57.872L83.1185 57.53L87.2945 41.474ZM102.616 49.448C103.468 49.592 104.158 49.892 104.686 50.348C105.214 50.804 105.478 51.512 105.478 52.472C105.478 54.824 103.84 56 100.564 56H97.1438V43.598H100.078C101.65 43.598 102.85 43.856 103.678 44.372C104.518 44.888 104.938 45.674 104.938 46.73C104.938 47.45 104.71 48.05 104.254 48.53C103.81 49.01 103.264 49.316 102.616 49.448ZM98.8538 44.948V48.854H100.726C101.446 48.854 102.034 48.68 102.49 48.332C102.958 47.984 103.192 47.492 103.192 46.856C103.192 46.136 102.946 45.638 102.454 45.362C101.974 45.086 101.242 44.948 100.258 44.948H98.8538ZM100.564 54.632C101.572 54.632 102.34 54.482 102.868 54.182C103.408 53.882 103.678 53.312 103.678 52.472C103.678 51.656 103.42 51.068 102.904 50.708C102.388 50.348 101.716 50.168 100.888 50.168H98.8538V54.632H100.564ZM110.345 43.778C111.089 43.778 111.725 43.916 112.253 44.192C112.793 44.468 113.201 44.84 113.477 45.308C113.765 45.776 113.909 46.286 113.909 46.838C113.909 47.57 113.693 48.176 113.261 48.656C112.841 49.124 112.277 49.442 111.569 49.61C112.373 49.682 113.027 49.97 113.531 50.474C114.035 50.978 114.287 51.662 114.287 52.526C114.287 53.222 114.119 53.852 113.783 54.416C113.447 54.98 112.967 55.424 112.343 55.748C111.719 56.06 110.999 56.216 110.183 56.216C109.451 56.216 108.779 56.084 108.167 55.82C107.555 55.544 107.021 55.136 106.565 54.596L107.555 53.678C107.951 54.086 108.353 54.386 108.761 54.578C109.181 54.77 109.637 54.866 110.129 54.866C110.885 54.866 111.479 54.656 111.911 54.236C112.343 53.804 112.559 53.228 112.559 52.508C112.559 51.716 112.355 51.158 111.947 50.834C111.539 50.51 110.945 50.348 110.165 50.348H109.265L109.463 49.07H110.075C110.699 49.07 111.215 48.884 111.623 48.512C112.043 48.14 112.253 47.618 112.253 46.946C112.253 46.382 112.073 45.938 111.713 45.614C111.353 45.278 110.867 45.11 110.255 45.11C109.787 45.11 109.355 45.194 108.959 45.362C108.575 45.53 108.179 45.806 107.771 46.19L106.907 45.2C107.927 44.252 109.073 43.778 110.345 43.778ZM122.641 43.958V45.2L118.141 56.18L116.629 55.676L120.967 45.308H115.639V43.958H122.641Z" fill="black"/>
<path d="M8.73 86V80.186H3.51V86H1.8V73.598H3.51V78.782H8.73V73.598H10.44V86H8.73ZM20.7484 73.598L20.5504 74.966H15.7444V79.016H19.9204V80.384H15.7444V84.632H20.8924V86H14.0344V73.598H20.7484ZM27.7172 79.304L31.4972 86H29.5532L26.6912 80.51L23.7932 86H21.9572L25.6832 79.394L22.2812 73.598H24.2252L26.7272 78.26L29.2472 73.598H31.0832L27.7172 79.304ZM45.4056 77.954H44.0376L43.5336 81.824H44.7396V83.066H43.3536L42.9756 86H41.5716L41.9496 83.066H39.1776L38.7996 86H37.3956L37.7736 83.066H36.6216V81.824H37.9536L38.4576 77.954H37.2876V76.694H38.6196L38.9796 73.958H40.3836L40.0236 76.694H42.7956L43.1556 73.958H44.5596L44.1996 76.694H45.4056V77.954ZM42.1296 81.824L42.6336 77.954H39.8616L39.3576 81.824H42.1296ZM51.482 73.958V86H49.826V75.722L47.018 77.432L46.298 76.262L50.024 73.958H51.482ZM57.5051 73.778C58.2491 73.778 58.8851 73.916 59.4131 74.192C59.9531 74.468 60.3611 74.84 60.6371 75.308C60.9251 75.776 61.0691 76.286 61.0691 76.838C61.0691 77.57 60.8531 78.176 60.4211 78.656C60.0011 79.124 59.4371 79.442 58.7291 79.61C59.5331 79.682 60.1871 79.97 60.6911 80.474C61.1951 80.978 61.4471 81.662 61.4471 82.526C61.4471 83.222 61.2791 83.852 60.9431 84.416C60.6071 84.98 60.1271 85.424 59.5031 85.748C58.8791 86.06 58.1591 86.216 57.3431 86.216C56.6111 86.216 55.9391 86.084 55.3271 85.82C54.7151 85.544 54.1811 85.136 53.7251 84.596L54.7151 83.678C55.1111 84.086 55.5131 84.386 55.9211 84.578C56.3411 84.77 56.7971 84.866 57.2891 84.866C58.0451 84.866 58.6391 84.656 59.0711 84.236C59.5031 83.804 59.7191 83.228 59.7191 82.508C59.7191 81.716 59.5151 81.158 59.1071 80.834C58.6991 80.51 58.1051 80.348 57.3251 80.348H56.4251L56.6231 79.07H57.2351C57.8591 79.07 58.3751 78.884 58.7831 78.512C59.2031 78.14 59.4131 77.618 59.4131 76.946C59.4131 76.382 59.2331 75.938 58.8731 75.614C58.5131 75.278 58.0271 75.11 57.4151 75.11C56.9471 75.11 56.5151 75.194 56.1191 75.362C55.7351 75.53 55.3391 75.806 54.9311 76.19L54.0671 75.2C55.0871 74.252 56.2331 73.778 57.5051 73.778ZM67.7945 73.958V86H66.1385V75.722L63.3305 77.432L62.6105 76.262L66.3365 73.958H67.7945ZM78.1736 86L77.2376 82.886H72.5396L71.6036 86H69.8756L73.8536 73.598H76.0136L79.9736 86H78.1736ZM72.9536 81.5H76.8236L74.8976 75.02L72.9536 81.5ZM84.3657 73.778C85.0857 73.778 85.7157 73.922 86.2557 74.21C86.8077 74.498 87.2337 74.894 87.5337 75.398C87.8337 75.89 87.9837 76.448 87.9837 77.072C87.9837 77.804 87.8157 78.506 87.4797 79.178C87.1557 79.85 86.6517 80.576 85.9677 81.356C85.2837 82.136 84.2457 83.222 82.8537 84.614H88.2717L88.0737 86H80.9637V84.686C82.5717 83.018 83.7117 81.8 84.3837 81.032C85.0557 80.252 85.5357 79.574 85.8237 78.998C86.1117 78.422 86.2557 77.804 86.2557 77.144C86.2557 76.52 86.0757 76.034 85.7157 75.686C85.3557 75.326 84.8757 75.146 84.2757 75.146C83.7837 75.146 83.3517 75.248 82.9797 75.452C82.6077 75.656 82.2117 75.992 81.7917 76.46L80.7117 75.596C81.2037 74.984 81.7497 74.528 82.3497 74.228C82.9497 73.928 83.6217 73.778 84.3657 73.778ZM96.7338 75.254H92.0358V78.8C92.6478 78.488 93.2898 78.332 93.9618 78.332C94.9938 78.332 95.8218 78.674 96.4458 79.358C97.0698 80.03 97.3818 80.96 97.3818 82.148C97.3818 82.94 97.2078 83.648 96.8598 84.272C96.5118 84.884 96.0198 85.364 95.3838 85.712C94.7598 86.048 94.0338 86.216 93.2058 86.216C92.4738 86.216 91.8198 86.09 91.2438 85.838C90.6678 85.574 90.1338 85.19 89.6418 84.686L90.6138 83.732C90.9978 84.116 91.3938 84.404 91.8018 84.596C92.2098 84.776 92.6718 84.866 93.1878 84.866C93.9558 84.866 94.5558 84.626 94.9878 84.146C95.4318 83.666 95.6538 82.988 95.6538 82.112C95.6538 81.236 95.4558 80.6 95.0598 80.204C94.6638 79.808 94.1298 79.61 93.4578 79.61C93.1458 79.61 92.8578 79.646 92.5938 79.718C92.3298 79.778 92.0478 79.88 91.7478 80.024H90.4518V73.958H96.9678L96.7338 75.254Z" fill="black"/>
<path d="M12.288 138.368V141.344L5.064 151.856H12.408L12.024 155H0.432V152.048L7.8 141.416H1.176V138.368H12.288ZM30.8923 155H27.0283L26.7403 148.496C26.6603 146.944 26.6203 145.56 26.6203 144.344C26.6203 143.416 26.6443 142.536 26.6923 141.704L24.1243 153.248H20.4043L17.6683 141.704C17.7643 143.096 17.8123 144.408 17.8123 145.64C17.8123 146.568 17.7883 147.536 17.7403 148.544L17.4523 155H13.6123L14.8603 138.368H19.8283L22.3243 149.648L24.6523 138.368H29.6443L30.8923 155ZM43.9275 155H40.6395L40.4715 153.392C39.5435 154.736 38.2555 155.408 36.6075 155.408C35.4395 155.408 34.5515 155.056 33.9435 154.352C33.3515 153.648 33.0555 152.664 33.0555 151.4V142.256H36.8475V150.92C36.8475 151.544 36.9435 151.984 37.1355 152.24C37.3435 152.48 37.6555 152.6 38.0715 152.6C38.8715 152.6 39.5595 152.104 40.1355 151.112V142.256H43.9275V155ZM58.3339 137.192V155H54.9739L54.7819 153.512C53.8859 154.776 52.6779 155.408 51.1579 155.408C49.5739 155.408 48.3659 154.8 47.5339 153.584C46.7179 152.368 46.3099 150.704 46.3099 148.592C46.3099 147.296 46.5259 146.136 46.9579 145.112C47.3899 144.088 47.9979 143.288 48.7819 142.712C49.5819 142.136 50.4939 141.848 51.5179 141.848C52.7339 141.848 53.7419 142.248 54.5419 143.048V136.784L58.3339 137.192ZM52.3339 152.624C53.2139 152.624 53.9499 152.144 54.5419 151.184V145.688C54.2379 145.32 53.9259 145.048 53.6059 144.872C53.3019 144.696 52.9499 144.608 52.5499 144.608C51.8459 144.608 51.2859 144.936 50.8699 145.592C50.4539 146.248 50.2459 147.256 50.2459 148.616C50.2459 150.104 50.4219 151.144 50.7739 151.736C51.1419 152.328 51.6619 152.624 52.3339 152.624Z" fill="black"/>
<path d="M8.73 215V209.186H3.51V215H1.8V202.598H3.51V207.782H8.73V202.598H10.44V215H8.73ZM20.7484 202.598L20.5504 203.966H15.7444V208.016H19.9204V209.384H15.7444V213.632H20.8924V215H14.0344V202.598H20.7484ZM27.7172 208.304L31.4972 215H29.5532L26.6912 209.51L23.7932 215H21.9572L25.6832 208.394L22.2812 202.598H24.2252L26.7272 207.26L29.2472 202.598H31.0832L27.7172 208.304ZM45.4056 206.954H44.0376L43.5336 210.824H44.7396V212.066H43.3536L42.9756 215H41.5716L41.9496 212.066H39.1776L38.7996 215H37.3956L37.7736 212.066H36.6216V210.824H37.9536L38.4576 206.954H37.2876V205.694H38.6196L38.9796 202.958H40.3836L40.0236 205.694H42.7956L43.1556 202.958H44.5596L44.1996 205.694H45.4056V206.954ZM42.1296 210.824L42.6336 206.954H39.8616L39.3576 210.824H42.1296ZM51.212 207.08C51.824 207.08 52.382 207.224 52.886 207.512C53.39 207.8 53.792 208.232 54.092 208.808C54.392 209.384 54.542 210.086 54.542 210.914C54.542 211.766 54.368 212.522 54.02 213.182C53.684 213.83 53.222 214.334 52.634 214.694C52.058 215.042 51.416 215.216 50.708 215.216C49.304 215.216 48.278 214.7 47.63 213.668C46.982 212.624 46.658 211.184 46.658 209.348C46.658 208.04 46.838 206.894 47.198 205.91C47.57 204.914 48.098 204.146 48.782 203.606C49.466 203.054 50.276 202.778 51.212 202.778C52.124 202.778 52.952 203.024 53.696 203.516L53.048 204.614C52.484 204.266 51.866 204.092 51.194 204.092C50.33 204.092 49.646 204.506 49.142 205.334C48.638 206.162 48.362 207.272 48.314 208.664C49.058 207.608 50.024 207.08 51.212 207.08ZM50.708 213.902C51.404 213.902 51.938 213.638 52.31 213.11C52.682 212.582 52.868 211.868 52.868 210.968C52.868 209.252 52.22 208.394 50.924 208.394C50.396 208.394 49.91 208.544 49.466 208.844C49.022 209.132 48.644 209.534 48.332 210.05C48.368 211.37 48.572 212.342 48.944 212.966C49.328 213.59 49.916 213.902 50.708 213.902ZM60.2876 202.778C61.6196 202.778 62.6216 203.312 63.2936 204.38C63.9776 205.436 64.3196 206.972 64.3196 208.988C64.3196 211.004 63.9776 212.546 63.2936 213.614C62.6216 214.682 61.6196 215.216 60.2876 215.216C58.9556 215.216 57.9476 214.682 57.2636 213.614C56.5916 212.546 56.2556 211.004 56.2556 208.988C56.2556 206.972 56.5916 205.436 57.2636 204.38C57.9476 203.312 58.9556 202.778 60.2876 202.778ZM60.2876 204.092C59.5076 204.092 58.9256 204.476 58.5416 205.244C58.1696 206.012 57.9836 207.26 57.9836 208.988C57.9836 210.716 58.1696 211.97 58.5416 212.75C58.9256 213.518 59.5076 213.902 60.2876 213.902C61.0556 213.902 61.6316 213.518 62.0156 212.75C62.3996 211.97 62.5916 210.716 62.5916 208.988C62.5916 207.272 62.3996 206.03 62.0156 205.262C61.6316 204.482 61.0556 204.092 60.2876 204.092ZM74.3387 210.716V212.03H72.7727V215H71.1707V212.03H66.0227V210.842L69.6407 202.778L71.0267 203.354L67.7687 210.716H71.1887L71.3327 207.476H72.7727V210.716H74.3387ZM82.267 204.254H77.569V207.8C78.181 207.488 78.823 207.332 79.495 207.332C80.527 207.332 81.355 207.674 81.979 208.358C82.603 209.03 82.915 209.96 82.915 211.148C82.915 211.94 82.741 212.648 82.393 213.272C82.045 213.884 81.553 214.364 80.917 214.712C80.293 215.048 79.567 215.216 78.739 215.216C78.007 215.216 77.353 215.09 76.777 214.838C76.201 214.574 75.667 214.19 75.175 213.686L76.147 212.732C76.531 213.116 76.927 213.404 77.335 213.596C77.743 213.776 78.205 213.866 78.721 213.866C79.489 213.866 80.089 213.626 80.521 213.146C80.965 212.666 81.187 211.988 81.187 211.112C81.187 210.236 80.989 209.6 80.593 209.204C80.197 208.808 79.663 208.61 78.991 208.61C78.679 208.61 78.391 208.646 78.127 208.718C77.863 208.778 77.581 208.88 77.281 209.024H75.985V202.958H82.501L82.267 204.254ZM87.6516 202.778C88.3956 202.778 89.0316 202.916 89.5596 203.192C90.0996 203.468 90.5076 203.84 90.7836 204.308C91.0716 204.776 91.2156 205.286 91.2156 205.838C91.2156 206.57 90.9996 207.176 90.5676 207.656C90.1476 208.124 89.5836 208.442 88.8756 208.61C89.6796 208.682 90.3336 208.97 90.8376 209.474C91.3416 209.978 91.5936 210.662 91.5936 211.526C91.5936 212.222 91.4256 212.852 91.0896 213.416C90.7536 213.98 90.2736 214.424 89.6496 214.748C89.0256 215.06 88.3056 215.216 87.4896 215.216C86.7576 215.216 86.0856 215.084 85.4736 214.82C84.8616 214.544 84.3276 214.136 83.8716 213.596L84.8616 212.678C85.2576 213.086 85.6596 213.386 86.0676 213.578C86.4876 213.77 86.9436 213.866 87.4356 213.866C88.1916 213.866 88.7856 213.656 89.2176 213.236C89.6496 212.804 89.8656 212.228 89.8656 211.508C89.8656 210.716 89.6616 210.158 89.2536 209.834C88.8456 209.51 88.2516 209.348 87.4716 209.348H86.5716L86.7696 208.07H87.3816C88.0056 208.07 88.5216 207.884 88.9296 207.512C89.3496 207.14 89.5596 206.618 89.5596 205.946C89.5596 205.382 89.3796 204.938 89.0196 204.614C88.6596 204.278 88.1736 204.11 87.5616 204.11C87.0936 204.11 86.6616 204.194 86.2656 204.362C85.8816 204.53 85.4856 204.806 85.0776 205.19L84.2136 204.2C85.2336 203.252 86.3796 202.778 87.6516 202.778ZM97.035 202.778C98.307 202.778 99.273 203.198 99.933 204.038C100.593 204.866 100.923 206.006 100.923 207.458C100.923 209.102 100.701 210.428 100.257 211.436C99.813 212.432 99.135 213.23 98.223 213.83C97.311 214.418 96.075 214.94 94.515 215.396L94.137 214.154C95.745 213.698 96.975 213.08 97.827 212.3C98.691 211.52 99.153 210.482 99.213 209.186C98.937 209.618 98.565 209.966 98.097 210.23C97.629 210.494 97.101 210.626 96.513 210.626C95.889 210.626 95.325 210.47 94.821 210.158C94.317 209.834 93.915 209.384 93.615 208.808C93.327 208.22 93.183 207.536 93.183 206.756C93.183 205.94 93.357 205.232 93.705 204.632C94.053 204.032 94.515 203.576 95.091 203.264C95.679 202.94 96.327 202.778 97.035 202.778ZM96.855 209.33C97.803 209.33 98.601 208.832 99.249 207.836C99.273 206.504 99.105 205.55 98.745 204.974C98.397 204.386 97.839 204.092 97.071 204.092C96.363 204.092 95.817 204.326 95.433 204.794C95.049 205.262 94.857 205.928 94.857 206.792C94.857 207.632 95.037 208.268 95.397 208.7C95.757 209.12 96.243 209.33 96.855 209.33Z" fill="black"/>
<path d="M5.436 179.744H3.51V185H1.8V172.598H5.058C6.606 172.598 7.776 172.892 8.568 173.48C9.372 174.068 9.774 174.944 9.774 176.108C9.774 176.972 9.552 177.674 9.108 178.214C8.664 178.754 7.992 179.162 7.092 179.438L10.44 185H8.406L5.436 179.744ZM5.238 178.43C6.138 178.43 6.816 178.25 7.272 177.89C7.728 177.518 7.956 176.924 7.956 176.108C7.956 175.34 7.722 174.788 7.254 174.452C6.798 174.104 6.06 173.93 5.04 173.93H3.51V178.43H5.238ZM15.4725 172.778C16.7445 172.778 17.7105 173.198 18.3705 174.038C19.0305 174.866 19.3605 176.006 19.3605 177.458C19.3605 179.102 19.1385 180.428 18.6945 181.436C18.2505 182.432 17.5725 183.23 16.6605 183.83C15.7485 184.418 14.5125 184.94 12.9525 185.396L12.5745 184.154C14.1825 183.698 15.4125 183.08 16.2645 182.3C17.1285 181.52 17.5905 180.482 17.6505 179.186C17.3745 179.618 17.0025 179.966 16.5345 180.23C16.0665 180.494 15.5385 180.626 14.9505 180.626C14.3265 180.626 13.7625 180.47 13.2585 180.158C12.7545 179.834 12.3525 179.384 12.0525 178.808C11.7645 178.22 11.6205 177.536 11.6205 176.756C11.6205 175.94 11.7945 175.232 12.1425 174.632C12.4905 174.032 12.9525 173.576 13.5285 173.264C14.1165 172.94 14.7645 172.778 15.4725 172.778ZM15.2925 179.33C16.2405 179.33 17.0385 178.832 17.6865 177.836C17.7105 176.504 17.5425 175.55 17.1825 174.974C16.8345 174.386 16.2765 174.092 15.5085 174.092C14.8005 174.092 14.2545 174.326 13.8705 174.794C13.4865 175.262 13.2945 175.928 13.2945 176.792C13.2945 177.632 13.4745 178.268 13.8345 178.7C14.1945 179.12 14.6805 179.33 15.2925 179.33ZM25.8116 177.08C26.4236 177.08 26.9816 177.224 27.4856 177.512C27.9896 177.8 28.3916 178.232 28.6916 178.808C28.9916 179.384 29.1416 180.086 29.1416 180.914C29.1416 181.766 28.9676 182.522 28.6196 183.182C28.2836 183.83 27.8216 184.334 27.2336 184.694C26.6576 185.042 26.0156 185.216 25.3076 185.216C23.9036 185.216 22.8776 184.7 22.2296 183.668C21.5816 182.624 21.2576 181.184 21.2576 179.348C21.2576 178.04 21.4376 176.894 21.7976 175.91C22.1696 174.914 22.6976 174.146 23.3816 173.606C24.0656 173.054 24.8756 172.778 25.8116 172.778C26.7236 172.778 27.5516 173.024 28.2956 173.516L27.6476 174.614C27.0836 174.266 26.4656 174.092 25.7936 174.092C24.9296 174.092 24.2456 174.506 23.7416 175.334C23.2376 176.162 22.9616 177.272 22.9136 178.664C23.6576 177.608 24.6236 177.08 25.8116 177.08ZM25.3076 183.902C26.0036 183.902 26.5376 183.638 26.9096 183.11C27.2816 182.582 27.4676 181.868 27.4676 180.968C27.4676 179.252 26.8196 178.394 25.5236 178.394C24.9956 178.394 24.5096 178.544 24.0656 178.844C23.6216 179.132 23.2436 179.534 22.9316 180.05C22.9676 181.37 23.1716 182.342 23.5436 182.966C23.9276 183.59 24.5156 183.902 25.3076 183.902ZM35.5797 170.474L36.9837 170.798L32.8257 186.872L31.4037 186.53L35.5797 170.474ZM50.0009 172.382C50.7809 172.382 51.4529 172.496 52.0169 172.724C52.5929 172.94 53.1629 173.282 53.7269 173.75L52.7189 174.794C52.2749 174.434 51.8489 174.176 51.4409 174.02C51.0329 173.864 50.5529 173.786 50.0009 173.786C49.3649 173.786 48.7769 173.96 48.2369 174.308C47.7089 174.644 47.2769 175.19 46.9409 175.946C46.6049 176.69 46.4369 177.638 46.4369 178.79C46.4369 180.53 46.7189 181.802 47.2829 182.606C47.8589 183.41 48.7049 183.812 49.8209 183.812C50.7329 183.812 51.5189 183.626 52.1789 183.254V179.51H49.9829L49.7849 178.124H53.8709V184.118C52.5869 184.85 51.2369 185.216 49.8209 185.216C48.1889 185.216 46.9109 184.67 45.9869 183.578C45.0749 182.486 44.6189 180.89 44.6189 178.79C44.6189 177.446 44.8589 176.294 45.3389 175.334C45.8309 174.362 46.4849 173.63 47.3009 173.138C48.1289 172.634 49.0289 172.382 50.0009 172.382ZM60.5284 177.08C61.1404 177.08 61.6984 177.224 62.2024 177.512C62.7064 177.8 63.1084 178.232 63.4084 178.808C63.7084 179.384 63.8584 180.086 63.8584 180.914C63.8584 181.766 63.6844 182.522 63.3364 183.182C63.0004 183.83 62.5384 184.334 61.9504 184.694C61.3744 185.042 60.7324 185.216 60.0244 185.216C58.6204 185.216 57.5944 184.7 56.9464 183.668C56.2984 182.624 55.9744 181.184 55.9744 179.348C55.9744 178.04 56.1544 176.894 56.5144 175.91C56.8864 174.914 57.4144 174.146 58.0984 173.606C58.7824 173.054 59.5924 172.778 60.5284 172.778C61.4404 172.778 62.2684 173.024 63.0124 173.516L62.3644 174.614C61.8004 174.266 61.1824 174.092 60.5104 174.092C59.6464 174.092 58.9624 174.506 58.4584 175.334C57.9544 176.162 57.6784 177.272 57.6304 178.664C58.3744 177.608 59.3404 177.08 60.5284 177.08ZM60.0244 183.902C60.7204 183.902 61.2544 183.638 61.6264 183.11C61.9984 182.582 62.1844 181.868 62.1844 180.968C62.1844 179.252 61.5364 178.394 60.2404 178.394C59.7124 178.394 59.2264 178.544 58.7824 178.844C58.3384 179.132 57.9604 179.534 57.6484 180.05C57.6844 181.37 57.8884 182.342 58.2604 182.966C58.6444 183.59 59.2324 183.902 60.0244 183.902ZM68.9804 172.778C70.2524 172.778 71.2184 173.198 71.8784 174.038C72.5384 174.866 72.8684 176.006 72.8684 177.458C72.8684 179.102 72.6464 180.428 72.2024 181.436C71.7584 182.432 71.0804 183.23 70.1684 183.83C69.2564 184.418 68.0204 184.94 66.4604 185.396L66.0824 184.154C67.6904 183.698 68.9204 183.08 69.7724 182.3C70.6364 181.52 71.0984 180.482 71.1584 179.186C70.8824 179.618 70.5104 179.966 70.0424 180.23C69.5744 180.494 69.0464 180.626 68.4584 180.626C67.8344 180.626 67.2704 180.47 66.7664 180.158C66.2624 179.834 65.8604 179.384 65.5604 178.808C65.2724 178.22 65.1284 177.536 65.1284 176.756C65.1284 175.94 65.3024 175.232 65.6504 174.632C65.9984 174.032 66.4604 173.576 67.0364 173.264C67.6244 172.94 68.2724 172.778 68.9804 172.778ZM68.8004 179.33C69.7484 179.33 70.5464 178.832 71.1944 177.836C71.2184 176.504 71.0504 175.55 70.6904 174.974C70.3424 174.386 69.7844 174.092 69.0164 174.092C68.3084 174.092 67.7624 174.326 67.3784 174.794C66.9944 175.262 66.8024 175.928 66.8024 176.792C66.8024 177.632 66.9824 178.268 67.3424 178.7C67.7024 179.12 68.1884 179.33 68.8004 179.33ZM84.6051 170.474L86.0091 170.798L81.8511 186.872L80.4291 186.53L84.6051 170.474ZM99.9263 178.448C100.778 178.592 101.468 178.892 101.996 179.348C102.524 179.804 102.788 180.512 102.788 181.472C102.788 183.824 101.15 185 97.8743 185H94.4543V172.598H97.3883C98.9603 172.598 100.16 172.856 100.988 173.372C101.828 173.888 102.248 174.674 102.248 175.73C102.248 176.45 102.02 177.05 101.564 177.53C101.12 178.01 100.574 178.316 99.9263 178.448ZM96.1643 173.948V177.854H98.0363C98.7563 177.854 99.3443 177.68 99.8003 177.332C100.268 176.984 100.502 176.492 100.502 175.856C100.502 175.136 100.256 174.638 99.7643 174.362C99.2843 174.086 98.5523 173.948 97.5683 173.948H96.1643ZM97.8743 183.632C98.8823 183.632 99.6503 183.482 100.178 183.182C100.718 182.882 100.988 182.312 100.988 181.472C100.988 180.656 100.73 180.068 100.214 179.708C99.6983 179.348 99.0263 179.168 98.1983 179.168H96.1643V183.632H97.8743ZM110.99 174.254H106.292V177.8C106.904 177.488 107.546 177.332 108.218 177.332C109.25 177.332 110.078 177.674 110.702 178.358C111.326 179.03 111.638 179.96 111.638 181.148C111.638 181.94 111.464 182.648 111.116 183.272C110.768 183.884 110.276 184.364 109.64 184.712C109.016 185.048 108.29 185.216 107.462 185.216C106.73 185.216 106.076 185.09 105.5 184.838C104.924 184.574 104.39 184.19 103.898 183.686L104.87 182.732C105.254 183.116 105.65 183.404 106.058 183.596C106.466 183.776 106.928 183.866 107.444 183.866C108.212 183.866 108.812 183.626 109.244 183.146C109.688 182.666 109.91 181.988 109.91 181.112C109.91 180.236 109.712 179.6 109.316 179.204C108.92 178.808 108.386 178.61 107.714 178.61C107.402 178.61 107.114 178.646 106.85 178.718C106.586 178.778 106.304 178.88 106.004 179.024H104.708V172.958H111.224L110.99 174.254ZM119.46 172.958V174.2L114.96 185.18L113.448 184.676L117.786 174.308H112.458V172.958H119.46Z" fill="black"/>
<path d="M12.288 250.368V253.344L5.064 263.856H12.408L12.024 267H0.432V264.048L7.8 253.416H1.176V250.368H12.288ZM14.6147 267V250.368H24.5267L24.1187 253.176H18.5507V257.592H23.3987V260.4H18.5507V267H14.6147ZM36.1228 267H32.8348L32.6668 265.392C31.7388 266.736 30.4508 267.408 28.8028 267.408C27.6348 267.408 26.7468 267.056 26.1388 266.352C25.5468 265.648 25.2508 264.664 25.2508 263.4V254.256H29.0428V262.92C29.0428 263.544 29.1388 263.984 29.3308 264.24C29.5388 264.48 29.8508 264.6 30.2668 264.6C31.0668 264.6 31.7548 264.104 32.3308 263.112V254.256H36.1228V267ZM47.0972 266.4C46.6332 266.72 46.0892 266.968 45.4652 267.144C44.8572 267.32 44.2492 267.408 43.6412 267.408C40.8572 267.392 39.4652 265.856 39.4652 262.8V256.896H37.6652V254.256H39.4652V251.496L43.2572 251.064V254.256H46.1852L45.7772 256.896H43.2572V262.752C43.2572 263.344 43.3532 263.768 43.5452 264.024C43.7372 264.28 44.0412 264.408 44.4572 264.408C44.8892 264.408 45.3452 264.272 45.8252 264L47.0972 266.4ZM59.115 267H55.827L55.659 265.392C54.731 266.736 53.443 267.408 51.795 267.408C50.627 267.408 49.739 267.056 49.131 266.352C48.539 265.648 48.243 264.664 48.243 263.4V254.256H52.035V262.92C52.035 263.544 52.131 263.984 52.323 264.24C52.531 264.48 52.843 264.6 53.259 264.6C54.059 264.6 54.747 264.104 55.323 263.112V254.256H59.115V267ZM69.0094 253.896C69.4734 253.896 69.8974 253.952 70.2814 254.064L69.6814 257.736C69.2014 257.624 68.8174 257.568 68.5294 257.568C67.7774 257.568 67.2014 257.832 66.8014 258.36C66.4174 258.872 66.1134 259.648 65.8894 260.688V267H62.0974V254.256H65.4094L65.7214 256.728C66.0094 255.848 66.4414 255.16 67.0174 254.664C67.6094 254.152 68.2734 253.896 69.0094 253.896ZM82.1156 260.376C82.1156 260.904 82.0916 261.36 82.0436 261.744H74.1476C74.2756 262.816 74.5796 263.568 75.0596 264C75.5396 264.432 76.2036 264.648 77.0516 264.648C77.5636 264.648 78.0596 264.56 78.5396 264.384C79.0196 264.192 79.5396 263.904 80.0996 263.52L81.6596 265.632C80.1716 266.816 78.5156 267.408 76.6916 267.408C74.6276 267.408 73.0436 266.8 71.9396 265.584C70.8356 264.368 70.2836 262.736 70.2836 260.688C70.2836 259.392 70.5156 258.232 70.9796 257.208C71.4436 256.168 72.1236 255.352 73.0196 254.76C73.9156 254.152 74.9876 253.848 76.2356 253.848C78.0756 253.848 79.5156 254.424 80.5556 255.576C81.5956 256.728 82.1156 258.328 82.1156 260.376ZM78.3956 259.296C78.3636 257.344 77.6756 256.368 76.3316 256.368C75.6756 256.368 75.1636 256.608 74.7956 257.088C74.4436 257.568 74.2276 258.36 74.1476 259.464H78.3956V259.296Z" fill="black"/>
<path d="M8.73 324V318.186H3.51V324H1.8V311.598H3.51V316.782H8.73V311.598H10.44V324H8.73ZM20.7484 311.598L20.5504 312.966H15.7444V317.016H19.9204V318.384H15.7444V322.632H20.8924V324H14.0344V311.598H20.7484ZM27.7172 317.304L31.4972 324H29.5532L26.6912 318.51L23.7932 324H21.9572L25.6832 317.394L22.2812 311.598H24.2252L26.7272 316.26L29.2472 311.598H31.0832L27.7172 317.304ZM45.4056 315.954H44.0376L43.5336 319.824H44.7396V321.066H43.3536L42.9756 324H41.5716L41.9496 321.066H39.1776L38.7996 324H37.3956L37.7736 321.066H36.6216V319.824H37.9536L38.4576 315.954H37.2876V314.694H38.6196L38.9796 311.958H40.3836L40.0236 314.694H42.7956L43.1556 311.958H44.5596L44.1996 314.694H45.4056V315.954ZM42.1296 319.824L42.6336 315.954H39.8616L39.3576 319.824H42.1296ZM49.6313 311.778C50.3513 311.778 50.9813 311.922 51.5213 312.21C52.0733 312.498 52.4993 312.894 52.7993 313.398C53.0993 313.89 53.2493 314.448 53.2493 315.072C53.2493 315.804 53.0813 316.506 52.7453 317.178C52.4213 317.85 51.9173 318.576 51.2333 319.356C50.5493 320.136 49.5113 321.222 48.1193 322.614H53.5373L53.3393 324H46.2293V322.686C47.8373 321.018 48.9773 319.8 49.6493 319.032C50.3213 318.252 50.8013 317.574 51.0893 316.998C51.3773 316.422 51.5213 315.804 51.5213 315.144C51.5213 314.52 51.3413 314.034 50.9813 313.686C50.6213 313.326 50.1413 313.146 49.5413 313.146C49.0493 313.146 48.6173 313.248 48.2453 313.452C47.8733 313.656 47.4773 313.992 47.0573 314.46L45.9773 313.596C46.4693 312.984 47.0153 312.528 47.6153 312.228C48.2153 311.928 48.8873 311.778 49.6313 311.778ZM58.9257 311.778C60.1977 311.778 61.1637 312.198 61.8237 313.038C62.4837 313.866 62.8137 315.006 62.8137 316.458C62.8137 318.102 62.5917 319.428 62.1477 320.436C61.7037 321.432 61.0257 322.23 60.1137 322.83C59.2017 323.418 57.9657 323.94 56.4057 324.396L56.0277 323.154C57.6357 322.698 58.8657 322.08 59.7177 321.3C60.5817 320.52 61.0437 319.482 61.1037 318.186C60.8277 318.618 60.4557 318.966 59.9877 319.23C59.5197 319.494 58.9917 319.626 58.4037 319.626C57.7797 319.626 57.2157 319.47 56.7117 319.158C56.2077 318.834 55.8057 318.384 55.5057 317.808C55.2177 317.22 55.0737 316.536 55.0737 315.756C55.0737 314.94 55.2477 314.232 55.5957 313.632C55.9437 313.032 56.4057 312.576 56.9817 312.264C57.5697 311.94 58.2177 311.778 58.9257 311.778ZM58.7457 318.33C59.6937 318.33 60.4917 317.832 61.1397 316.836C61.1637 315.504 60.9957 314.55 60.6357 313.974C60.2877 313.386 59.7297 313.092 58.9617 313.092C58.2537 313.092 57.7077 313.326 57.3237 313.794C56.9397 314.262 56.7477 314.928 56.7477 315.792C56.7477 316.632 56.9277 317.268 57.2877 317.7C57.6477 318.12 58.1337 318.33 58.7457 318.33ZM67.4204 311.778C68.1404 311.778 68.7704 311.922 69.3104 312.21C69.8624 312.498 70.2884 312.894 70.5884 313.398C70.8884 313.89 71.0384 314.448 71.0384 315.072C71.0384 315.804 70.8704 316.506 70.5344 317.178C70.2104 317.85 69.7064 318.576 69.0224 319.356C68.3384 320.136 67.3004 321.222 65.9084 322.614H71.3264L71.1284 324H64.0184V322.686C65.6264 321.018 66.7664 319.8 67.4384 319.032C68.1104 318.252 68.5904 317.574 68.8784 316.998C69.1664 316.422 69.3104 315.804 69.3104 315.144C69.3104 314.52 69.1304 314.034 68.7704 313.686C68.4104 313.326 67.9304 313.146 67.3304 313.146C66.8384 313.146 66.4064 313.248 66.0344 313.452C65.6624 313.656 65.2664 313.992 64.8464 314.46L63.7664 313.596C64.2584 312.984 64.8044 312.528 65.4044 312.228C66.0044 311.928 66.6764 311.778 67.4204 311.778ZM76.7147 311.778C77.9867 311.778 78.9527 312.198 79.6127 313.038C80.2727 313.866 80.6027 315.006 80.6027 316.458C80.6027 318.102 80.3807 319.428 79.9367 320.436C79.4927 321.432 78.8147 322.23 77.9027 322.83C76.9907 323.418 75.7547 323.94 74.1947 324.396L73.8167 323.154C75.4247 322.698 76.6547 322.08 77.5067 321.3C78.3707 320.52 78.8327 319.482 78.8927 318.186C78.6167 318.618 78.2447 318.966 77.7767 319.23C77.3087 319.494 76.7807 319.626 76.1927 319.626C75.5687 319.626 75.0047 319.47 74.5007 319.158C73.9967 318.834 73.5947 318.384 73.2947 317.808C73.0067 317.22 72.8627 316.536 72.8627 315.756C72.8627 314.94 73.0367 314.232 73.3847 313.632C73.7327 313.032 74.1947 312.576 74.7707 312.264C75.3587 311.94 76.0067 311.778 76.7147 311.778ZM76.5347 318.33C77.4827 318.33 78.2807 317.832 78.9287 316.836C78.9527 315.504 78.7847 314.55 78.4247 313.974C78.0767 313.386 77.5187 313.092 76.7507 313.092C76.0427 313.092 75.4967 313.326 75.1127 313.794C74.7287 314.262 74.5367 314.928 74.5367 315.792C74.5367 316.632 74.7167 317.268 75.0767 317.7C75.4367 318.12 75.9227 318.33 76.5347 318.33ZM85.2095 311.778C85.9295 311.778 86.5595 311.922 87.0995 312.21C87.6515 312.498 88.0775 312.894 88.3775 313.398C88.6775 313.89 88.8275 314.448 88.8275 315.072C88.8275 315.804 88.6595 316.506 88.3235 317.178C87.9995 317.85 87.4955 318.576 86.8115 319.356C86.1275 320.136 85.0895 321.222 83.6975 322.614H89.1155L88.9175 324H81.8075V322.686C83.4155 321.018 84.5555 319.8 85.2275 319.032C85.8995 318.252 86.3795 317.574 86.6675 316.998C86.9555 316.422 87.0995 315.804 87.0995 315.144C87.0995 314.52 86.9195 314.034 86.5595 313.686C86.1995 313.326 85.7195 313.146 85.1195 313.146C84.6275 313.146 84.1955 313.248 83.8235 313.452C83.4515 313.656 83.0555 313.992 82.6355 314.46L81.5555 313.596C82.0475 312.984 82.5935 312.528 83.1935 312.228C83.7935 311.928 84.4655 311.778 85.2095 311.778ZM94.5038 311.778C95.7758 311.778 96.7418 312.198 97.4018 313.038C98.0618 313.866 98.3918 315.006 98.3918 316.458C98.3918 318.102 98.1698 319.428 97.7258 320.436C97.2818 321.432 96.6038 322.23 95.6918 322.83C94.7798 323.418 93.5438 323.94 91.9838 324.396L91.6058 323.154C93.2138 322.698 94.4438 322.08 95.2958 321.3C96.1598 320.52 96.6218 319.482 96.6818 318.186C96.4058 318.618 96.0338 318.966 95.5658 319.23C95.0978 319.494 94.5698 319.626 93.9818 319.626C93.3578 319.626 92.7938 319.47 92.2898 319.158C91.7858 318.834 91.3838 318.384 91.0838 317.808C90.7958 317.22 90.6518 316.536 90.6518 315.756C90.6518 314.94 90.8258 314.232 91.1738 313.632C91.5218 313.032 91.9838 312.576 92.5598 312.264C93.1478 311.94 93.7958 311.778 94.5038 311.778ZM94.3238 318.33C95.2718 318.33 96.0698 317.832 96.7178 316.836C96.7418 315.504 96.5738 314.55 96.2138 313.974C95.8658 313.386 95.3078 313.092 94.5398 313.092C93.8318 313.092 93.2858 313.326 92.9018 313.794C92.5178 314.262 92.3258 314.928 92.3258 315.792C92.3258 316.632 92.5058 317.268 92.8658 317.7C93.2258 318.12 93.7118 318.33 94.3238 318.33Z" fill="black"/>
<path d="M5.436 291.744H3.51V297H1.8V284.598H5.058C6.606 284.598 7.776 284.892 8.568 285.48C9.372 286.068 9.774 286.944 9.774 288.108C9.774 288.972 9.552 289.674 9.108 290.214C8.664 290.754 7.992 291.162 7.092 291.438L10.44 297H8.406L5.436 291.744ZM5.238 290.43C6.138 290.43 6.816 290.25 7.272 289.89C7.728 289.518 7.956 288.924 7.956 288.108C7.956 287.34 7.722 286.788 7.254 286.452C6.798 286.104 6.06 285.93 5.04 285.93H3.51V290.43H5.238ZM19.5829 292.716V294.03H18.0169V297H16.4149V294.03H11.2669V292.842L14.8849 284.778L16.2709 285.354L13.0129 292.716H16.4329L16.5769 289.476H18.0169V292.716H19.5829ZM24.9038 284.958V297H23.2478V286.722L20.4398 288.432L19.7198 287.262L23.4458 284.958H24.9038ZM37.7066 282.474L39.1106 282.798L34.9526 298.872L33.5306 298.53L37.7066 282.474ZM52.1279 284.382C52.9079 284.382 53.5799 284.496 54.1439 284.724C54.7199 284.94 55.2899 285.282 55.8539 285.75L54.8459 286.794C54.4019 286.434 53.9759 286.176 53.5679 286.02C53.1599 285.864 52.6799 285.786 52.1279 285.786C51.4919 285.786 50.9039 285.96 50.3639 286.308C49.8359 286.644 49.4039 287.19 49.0679 287.946C48.7319 288.69 48.5639 289.638 48.5639 290.79C48.5639 292.53 48.8459 293.802 49.4099 294.606C49.9859 295.41 50.8319 295.812 51.9479 295.812C52.8599 295.812 53.6459 295.626 54.3059 295.254V291.51H52.1099L51.9119 290.124H55.9979V296.118C54.7139 296.85 53.3639 297.216 51.9479 297.216C50.3159 297.216 49.0379 296.67 48.1139 295.578C47.2019 294.486 46.7459 292.89 46.7459 290.79C46.7459 289.446 46.9859 288.294 47.4659 287.334C47.9579 286.362 48.6119 285.63 49.4279 285.138C50.2559 284.634 51.1559 284.382 52.1279 284.382ZM66.1473 292.716V294.03H64.5813V297H62.9793V294.03H57.8313V292.842L61.4493 284.778L62.8353 285.354L59.5773 292.716H62.9973L63.1413 289.476H64.5813V292.716H66.1473ZM71.4683 284.958V297H69.8123V286.722L67.0043 288.432L66.2843 287.262L70.0103 284.958H71.4683ZM84.2711 282.474L85.6751 282.798L81.5171 298.872L80.0951 298.53L84.2711 282.474ZM99.5923 290.448C100.444 290.592 101.134 290.892 101.662 291.348C102.19 291.804 102.454 292.512 102.454 293.472C102.454 295.824 100.816 297 97.5403 297H94.1203V284.598H97.0543C98.6263 284.598 99.8263 284.856 100.654 285.372C101.494 285.888 101.914 286.674 101.914 287.73C101.914 288.45 101.686 289.05 101.23 289.53C100.786 290.01 100.24 290.316 99.5923 290.448ZM95.8303 285.948V289.854H97.7023C98.4223 289.854 99.0103 289.68 99.4663 289.332C99.9343 288.984 100.168 288.492 100.168 287.856C100.168 287.136 99.9223 286.638 99.4303 286.362C98.9503 286.086 98.2183 285.948 97.2343 285.948H95.8303ZM97.5403 295.632C98.5483 295.632 99.3163 295.482 99.8443 295.182C100.384 294.882 100.654 294.312 100.654 293.472C100.654 292.656 100.396 292.068 99.8803 291.708C99.3643 291.348 98.6923 291.168 97.8643 291.168H95.8303V295.632H97.5403ZM112.132 292.716V294.03H110.566V297H108.964V294.03H103.816V292.842L107.434 284.778L108.82 285.354L105.562 292.716H108.982L109.126 289.476H110.566V292.716H112.132ZM117.453 284.958V297H115.797V286.722L112.989 288.432L112.269 287.262L115.995 284.958H117.453Z" fill="black"/>
</svg>
